<?xml version="1.0" encoding="UTF-8"?>
<svg viewBox="0 0 950.32788 1048.2804" xmlns="http://www.w3.org/2000/svg">
 <defs>
  <filter id="b" x="-.21243" y="-1.3783" width="1.4249" height="3.7567">
   <feGaussianBlur stdDeviation="14.7984"/>
  </filter>
  <filter id="a" x="-.20416" y="-1.3246" width="1.4083" height="3.6493">
   <feGaussianBlur stdDeviation="14.2219"/>
  </filter>
  <linearGradient id="d" x1="348.11" x2="376.04" y1="156.98" y2="-256.54" gradientUnits="userSpaceOnUse">
   <stop stop-color="#fff7f2" offset="0"/>
   <stop stop-color="#fc6201" stop-opacity="0" offset="1"/>
  </linearGradient>
  <radialGradient id="c" cx="555.12" cy="217.64" r="104.86" gradientTransform="matrix(2.3961 -3.8711e-7 5.714e-7 3.5368 -808.9 -566.11)" gradientUnits="userSpaceOnUse">
   <stop stop-color="#ff7800" offset="0"/>
   <stop stop-color="#b50300" offset="1"/>
  </radialGradient>
 </defs>
 <g transform="translate(-53.407 456.06)">
  <path d="m521.43-456.06c-23.622 157.88-274.22 413.27-248.4 577.2 25.083 159.26 161.03 238.82 259.88 230.45 164.68-13.942 238.92-158.44 238.35-260.6-0.94884-169.21-182.48-299.7-249.83-547.05z" fill="url(#c)"/>
  <path d="m340.4 202.3c62.85 23.473 22.177-107.23 47.211-210.16 19.36-79.603 57.843-201.48 72.593-276.66-34.078 73.232-85.214 150.83-93.914 164.48-55.494 87.035-121.61 286.6-25.89 322.35z" fill="url(#d)"/>
  <path d="m419.59 298.75s111.68 72.085 236.56-11.168c100.3-66.864 97.467-196.96 97.467-196.96s-13.577 138.3-124.88 189.86-209.15 17.26-209.15 18.275z" fill="#fff" opacity=".5992"/>
  <path transform="matrix(3.8558 0 0 3.6123 -91.808 -889.51)" d="m248.13 353.56c0 11.377-39.056 20.599-87.235 20.599s-87.235-9.2226-87.235-20.599 39.056-20.599 87.235-20.599 87.235 9.2226 87.235 20.599z" fill="#c92300" filter="url(#b)" opacity=".5459" stroke="#fff"/>
  <path transform="matrix(1.4126 0 0 1.4126 301.3 -111.77)" d="m244.49 353.56c0 7.1155-37.426 12.884-83.594 12.884s-83.594-5.7682-83.594-12.884 37.426-12.884 83.594-12.884 83.594 5.7682 83.594 12.884z" fill="#de4121" filter="url(#a)"/>
  <path transform="matrix(.80274 0 0 .80274 399.41 103.83)" d="m244.49 353.56c0 7.1155-37.426 12.884-83.594 12.884s-83.594-5.7682-83.594-12.884 37.426-12.884 83.594-12.884 83.594 5.7682 83.594 12.884z" fill="#dd4200" filter="url(#a)" opacity=".9433"/>
  <path transform="matrix(2.3581 0 0 2.2092 149.16 -393.42)" d="m248.13 353.56c0 11.377-39.056 20.599-87.235 20.599s-87.235-9.2226-87.235-20.599 39.056-20.599 87.235-20.599 87.235 9.2226 87.235 20.599z" fill="#c92300" filter="url(#b)" opacity=".1834" stroke="#fff"/>
 </g>
</svg>
