<?xml version="1.0" encoding="UTF-8" standalone="no"?>
<!-- Created with Inkscape (http://www.inkscape.org/) -->

<svg
   xmlns:dc="http://purl.org/dc/elements/1.1/"
   xmlns:cc="http://creativecommons.org/ns#"
   xmlns:rdf="http://www.w3.org/1999/02/22-rdf-syntax-ns#"
   xmlns:svg="http://www.w3.org/2000/svg"
   xmlns="http://www.w3.org/2000/svg"
   xmlns:sodipodi="http://sodipodi.sourceforge.net/DTD/sodipodi-0.dtd"
   xmlns:inkscape="http://www.inkscape.org/namespaces/inkscape"
   version="1.1"
   id="svg6298"
   xml:space="preserve"
   width="1000"
   height="666.66669"
   viewBox="0 0 1000 666.66669"
   sodipodi:docname="image_2.svg"
   inkscape:version="0.92.5 (2060ec1f9f, 2020-04-08)"><metadata
     id="metadata6304"><rdf:RDF><cc:Work
         rdf:about=""><dc:format>image/svg+xml</dc:format><dc:type
           rdf:resource="http://purl.org/dc/dcmitype/StillImage" /><dc:title /></cc:Work></rdf:RDF></metadata><defs
     id="defs6302"><clipPath
       clipPathUnits="userSpaceOnUse"
       id="clipPath6508"><path
         d="m 2421.09,4018.29 v 0 c -1.72,33.52 -6.72,89.53 -6.72,89.53 l 69.23,13.86 v 0 c 0,-0.09 0.62,-21.39 0.62,-46.64 0,-3.36 -0.01,-6.79 -0.04,-10.25 v 0 c -12.66,-20.28 -33.3,-42.98 -63.09,-46.5"
         id="path6506"
         inkscape:connector-curvature="0" /></clipPath></defs><sodipodi:namedview
     pagecolor="#ffffff"
     bordercolor="#666666"
     borderopacity="1"
     objecttolerance="10"
     gridtolerance="10"
     guidetolerance="10"
     inkscape:pageopacity="0"
     inkscape:pageshadow="2"
     inkscape:window-width="1848"
     inkscape:window-height="1009"
     id="namedview6300"
     showgrid="false"
     inkscape:zoom="0.66736109"
     inkscape:cx="283.75861"
     inkscape:cy="298.42014"
     inkscape:window-x="72"
     inkscape:window-y="34"
     inkscape:window-maximized="1"
     inkscape:current-layer="g6306" /><g
     id="g6306"
     inkscape:groupmode="layer"
     inkscape:label="ink_ext_XXXXXX"
     transform="matrix(1.3333333,0,0,-1.3333333,0,666.66667)"><g
       id="g7802"
       transform="matrix(0.93523613,0,0,0.91336827,269.39539,78.388009)"><path
         d="m 480.87857,246.94649 c 0,-9.9 -43.771,-17.93 -97.75,-17.93 -15.99,0 -31.08,0.71 -44.41,1.95 6.489,-2.59 10.279,-5.7 10.279,-9.059 0,-8.941 -26.859,-16.181 -60,-16.181 -33.14,0 -60,7.24 -60,16.181 0,8.929 26.86,16.179 60,16.179 3.351,0 6.631,-0.07 9.83,-0.22 -8.55,2.66 -13.449,5.77 -13.449,9.08 0,9.91 43.76,17.94 97.75,17.94 53.979,0 97.75,-8.03 97.75,-17.94"
         style="fill:#d1d3d4;fill-opacity:1;fill-rule:nonzero;stroke:none;stroke-width:0.1"
         id="path6312"
         inkscape:connector-curvature="0" /><path
         d="m 388.01857,289.56149 h -52.285 c -1.474,0 -2.67,1.196 -2.67,2.67 v 1.41 c 0,1.475 1.196,2.67 2.67,2.67 h 52.285 c 1.475,0 2.67,-1.195 2.67,-2.67 v -1.41 c 0,-1.474 -1.195,-2.67 -2.67,-2.67"
         style="fill:#261f31;fill-opacity:1;fill-rule:nonzero;stroke:none;stroke-width:0.1"
         id="path6314"
         inkscape:connector-curvature="0" /><path
         d="m 388.01857,282.81149 h -52.285 c -1.474,0 -2.67,1.196 -2.67,2.67 v 1.41 c 0,1.475 1.196,2.67 2.67,2.67 h 52.285 c 1.475,0 2.67,-1.195 2.67,-2.67 v -1.41 c 0,-1.474 -1.195,-2.67 -2.67,-2.67"
         style="fill:#261f31;fill-opacity:1;fill-rule:nonzero;stroke:none;stroke-width:0.1"
         id="path6316"
         inkscape:connector-curvature="0" /><path
         d="m 388.01857,276.06149 h -52.285 c -1.474,0 -2.67,1.195 -2.67,2.67 v 1.41 c 0,1.475 1.196,2.67 2.67,2.67 h 52.285 c 1.475,0 2.67,-1.195 2.67,-2.67 v -1.41 c 0,-1.475 -1.195,-2.67 -2.67,-2.67"
         style="fill:#261f31;fill-opacity:1;fill-rule:nonzero;stroke:none;stroke-width:0.1"
         id="path6318"
         inkscape:connector-curvature="0" /><path
         d="m 388.01957,269.31149 h -52.286 c -1.474,0 -2.67,1.195 -2.67,2.67 v 1.411 c 0,1.473 1.196,2.669 2.67,2.669 h 52.286 c 1.474,0 2.669,-1.196 2.669,-2.669 v -1.411 c 0,-1.475 -1.195,-2.67 -2.669,-2.67"
         style="fill:#261f31;fill-opacity:1;fill-rule:nonzero;stroke:none;stroke-width:0.1"
         id="path6320"
         inkscape:connector-curvature="0" /><path
         d="m 388.01957,262.56149 h -52.286 c -1.474,0 -2.67,1.195 -2.67,2.67 v 1.411 c 0,1.473 1.196,2.669 2.67,2.669 h 52.286 c 1.474,0 2.669,-1.196 2.669,-2.669 v -1.411 c 0,-1.475 -1.195,-2.67 -2.669,-2.67"
         style="fill:#261f31;fill-opacity:1;fill-rule:nonzero;stroke:none;stroke-width:0.1"
         id="path6322"
         inkscape:connector-curvature="0" /><path
         d="m 391.51457,255.40249 h -59.277 c -1.474,0 -2.669,1.195 -2.669,2.67 v 2.229 c 0,1.475 1.195,2.67 2.669,2.67 h 59.277 c 1.475,0 2.67,-1.195 2.67,-2.67 v -2.229 c 0,-1.475 -1.195,-2.67 -2.67,-2.67"
         style="fill:#261f31;fill-opacity:1;fill-rule:nonzero;stroke:none;stroke-width:0.1"
         id="path6324"
         inkscape:connector-curvature="0" /><path
         d="m 362.35057,345.45749 c 4.032,-2.813 50.323,-2.195 54.126,0 3.803,2.194 0.877,8.192 -4.681,8.631 -5.559,0.439 -41.253,0.585 -46.372,0 -5.12,-0.585 -9.363,-4.243 -3.073,-8.631"
         style="fill:#261f31;fill-opacity:1;fill-rule:nonzero;stroke:none;stroke-width:0.1"
         id="path6326"
         inkscape:connector-curvature="0" /><path
         d="m 340.75957,406.39049 c 9.693,1.249 30.121,-63.948 33.032,-65.232 1.561,-0.689 15.52,-0.684 29.742,-0.679 12.295,0.004 24.787,0.009 29.635,-0.435 10.454,-0.958 40.715,-22.562 43.625,-31.03 1.423,-4.144 -3.285,-8.358 -8.205,-5.583 -4.919,2.775 -33.743,22.784 -37.125,22.947 -3.383,0.163 -59.977,-0.182 -65.204,2.073 -5.227,2.255 -27.366,63.849 -29.19,70.579 -1.179,4.351 0.154,6.905 3.69,7.36"
         style="fill:#9ea6db;fill-opacity:1;fill-rule:nonzero;stroke:none;stroke-width:0.1"
         id="path6328"
         inkscape:connector-curvature="0" /><path
         d="m 293.73457,385.28049 c 1.914,3.5 20.337,22.21 48.422,13.678 8.768,-2.663 28.48,-63.339 28.48,-63.339 0,0 48.183,2.105 59.133,-0.815 10.951,-2.92 38.289,-24.128 41.21,-28.139 2.92,-4.012 -16.873,-29.615 -24.173,-29.615 -7.301,0 -41.371,27.256 -41.371,27.256 0,0 -74.367,-2.92 -79.771,2.677 -5.403,5.597 -35.823,71.175 -31.93,78.297"
         style="fill:#c6caeb;fill-opacity:1;fill-rule:nonzero;stroke:none;stroke-width:0.1"
         id="path6330"
         inkscape:connector-curvature="0" /><path
         d="m 290.50357,386.74549 c 11.921,1.446 37.041,-75.207 40.62,-76.694 1.919,-0.798 19.085,-0.792 36.575,-0.786 15.12,0.005 30.482,0.01 36.442,-0.504 12.856,-1.109 42.603,-23.563 46.18,-33.369 1.751,-4.798 -4.039,-9.679 -10.089,-6.465 -6.049,3.214 -34.029,23.821 -38.188,24.01 -4.159,0.189 -73.754,-0.211 -80.182,2.4 -6.428,2.611 -33.651,73.934 -35.895,81.727 -1.45,5.038 0.189,9.154 4.537,9.681"
         style="fill:#9ea6db;fill-opacity:1;fill-rule:nonzero;stroke:none;stroke-width:0.1"
         id="path6332"
         inkscape:connector-curvature="0" /><path
         d="m 297.65457,390.24349 c -1.521,3.043 16.338,15.286 37.256,10.923 2.833,-0.591 15.409,-25.605 16.306,-29.37 0.896,-3.765 -31.466,-11.529 -34.334,-9.557 -2.869,1.973 -18.331,26.211 -19.228,28.004"
         style="fill:#9ea6db;fill-opacity:1;fill-rule:nonzero;stroke:none;stroke-width:0.1"
         id="path6334"
         inkscape:connector-curvature="0" /><path
         d="m 468.97257,308.21949 c -2.245,-2.491 -4.583,-4.889 -7.056,-7.154 -2.467,-2.26 -5.175,-5.132 -8.303,-6.396 -1.174,-0.474 -0.66,-2.402 0.529,-1.921 2.884,1.166 5.203,3.392 7.518,5.418 3.086,2.699 5.977,5.599 8.72,8.645 0.856,0.95 -0.549,2.364 -1.408,1.408"
         style="fill:#fafbfc;fill-opacity:1;fill-rule:nonzero;stroke:none;stroke-width:0.1"
         id="path6336"
         inkscape:connector-curvature="0" /><path
         d="m 446.61957,298.49949 c 0,0 4.923,-4.234 7.173,-4.396 2.25,-0.163 16.577,13.021 15.764,14.458 -0.812,1.438 -12.312,-1.812 -12.812,-1.812 -0.5,0 -3.125,1.187 -3.125,1.187 l -7,-9.437"
         style="fill:#261f31;fill-opacity:1;fill-rule:nonzero;stroke:none;stroke-width:0.1"
         id="path6338"
         inkscape:connector-curvature="0" /><path
         d="m 456.64757,307.79549 c -0.514,-1.063 -0.704,-2.627 -0.258,-3.74 0.283,-0.708 1.444,-0.399 1.157,0.32 -0.326,0.814 -0.247,2.021 0.137,2.814 0.335,0.693 -0.7,1.301 -1.036,0.606"
         style="fill:#fafbfc;fill-opacity:1;fill-rule:nonzero;stroke:none;stroke-width:0.1"
         id="path6340"
         inkscape:connector-curvature="0" /><path
         d="m 458.25857,308.10749 c -0.515,-1.062 -0.704,-2.626 -0.259,-3.739 0.283,-0.708 1.444,-0.399 1.157,0.319 -0.326,0.814 -0.246,2.021 0.138,2.815 0.335,0.692 -0.7,1.301 -1.036,0.605"
         style="fill:#fafbfc;fill-opacity:1;fill-rule:nonzero;stroke:none;stroke-width:0.1"
         id="path6342"
         inkscape:connector-curvature="0" /><path
         d="m 459.86857,308.42049 c -0.515,-1.063 -0.704,-2.627 -0.259,-3.74 0.283,-0.708 1.445,-0.399 1.158,0.32 -0.327,0.814 -0.247,2.021 0.137,2.814 0.335,0.693 -0.7,1.301 -1.036,0.606"
         style="fill:#fafbfc;fill-opacity:1;fill-rule:nonzero;stroke:none;stroke-width:0.1"
         id="path6344"
         inkscape:connector-curvature="0" /><path
         d="m 468.89257,324.05049 c -2.244,-2.492 -4.582,-4.891 -7.054,-7.156 -2.467,-2.259 -5.175,-5.131 -8.303,-6.395 -1.174,-0.474 -0.661,-2.403 0.529,-1.921 2.884,1.165 5.202,3.391 7.518,5.417 3.086,2.7 5.976,5.6 8.72,8.646 0.855,0.95 -0.549,2.364 -1.41,1.409"
         style="fill:#fafbfc;fill-opacity:1;fill-rule:nonzero;stroke:none;stroke-width:0.1"
         id="path6346"
         inkscape:connector-curvature="0" /><path
         d="m 446.54157,314.32849 c 0,0 4.923,-4.233 7.173,-4.396 2.25,-0.162 16.577,13.021 15.764,14.459 -0.812,1.437 -12.312,-1.813 -12.812,-1.813 -0.5,0 -3.125,1.188 -3.125,1.188 l -7,-9.438"
         style="fill:#261f31;fill-opacity:1;fill-rule:nonzero;stroke:none;stroke-width:0.1"
         id="path6348"
         inkscape:connector-curvature="0" /><path
         d="m 456.56857,323.62549 c -0.514,-1.063 -0.703,-2.627 -0.259,-3.74 0.285,-0.708 1.446,-0.399 1.158,0.319 -0.325,0.814 -0.246,2.021 0.137,2.815 0.335,0.692 -0.699,1.302 -1.036,0.606"
         style="fill:#fafbfc;fill-opacity:1;fill-rule:nonzero;stroke:none;stroke-width:0.1"
         id="path6350"
         inkscape:connector-curvature="0" /><path
         d="m 458.17957,323.93749 c -0.514,-1.063 -0.704,-2.626 -0.259,-3.74 0.284,-0.708 1.445,-0.398 1.157,0.32 -0.325,0.814 -0.246,2.021 0.138,2.814 0.335,0.693 -0.699,1.302 -1.036,0.606"
         style="fill:#fafbfc;fill-opacity:1;fill-rule:nonzero;stroke:none;stroke-width:0.1"
         id="path6352"
         inkscape:connector-curvature="0" /><path
         d="m 459.78957,324.25049 c -0.514,-1.063 -0.703,-2.627 -0.258,-3.74 0.283,-0.708 1.444,-0.399 1.157,0.319 -0.326,0.814 -0.247,2.021 0.138,2.815 0.335,0.692 -0.7,1.302 -1.037,0.606"
         style="fill:#fafbfc;fill-opacity:1;fill-rule:nonzero;stroke:none;stroke-width:0.1"
         id="path6354"
         inkscape:connector-curvature="0" /><path
         d="m 353.61357,376.16849 c 5.66,-2.111 14.588,-14.94 19.293,-16.47 4.706,-1.529 23.631,-3.479 25.646,-3.881 4.117,-0.824 10.764,-6.53 9.764,-8.588 -1,-2.059 -8.706,1.647 -9.588,1.647 -0.882,0 -21.234,-3.883 -29.704,-1.765 -4.335,1.083 -21.587,13.882 -23.705,18.764 -2.117,4.882 -2.65,14.376 8.294,10.293"
         style="fill:#f4c279;fill-opacity:1;fill-rule:nonzero;stroke:none;stroke-width:0.1"
         id="path6356"
         inkscape:connector-curvature="0" /><path
         d="m 340.91757,315.89449 c 0,0 3,-5 15.167,-7.333 6.785,-1.301 19.22,0.404 29.905,2.11 8.475,1.352 15.848,2.704 18.428,2.557 5.833,-0.334 38.667,-20.5 41.833,-19.667 3.167,0.833 12.334,15.5 11.834,18.083 -0.5,2.584 -4.25,4.917 -4.25,4.917 0,0 3.166,6.167 2.333,8.083 -0.833,1.917 -29.917,21.084 -43.417,21.75 -7.032,0.348 -16.37,-0.435 -24.08,-1.218 -7.093,-0.721 -12.809,-1.441 -14.086,-1.282 -2.667,0.334 -6.667,1.667 -6.667,1.667 l -27,-29.667"
         style="fill:#f19d8c;fill-opacity:1;fill-rule:nonzero;stroke:none;stroke-width:0.1"
         id="path6358"
         inkscape:connector-curvature="0" /><path
         d="m 453.48857,316.80049 c -0.045,0 -0.093,0.01 -0.143,0.032 -7.131,3.225 -13.983,7.287 -20.913,10.93 -6.875,3.616 -13.371,6.707 -21.232,7.33 -1.674,0.133 -3.348,0.187 -5.021,0.187 -5.699,0 -11.393,-0.635 -17.078,-0.991 -2.105,-0.132 -4.537,-0.407 -6.953,-0.407 -3.457,0 -6.879,0.563 -9.257,2.913 -0.093,0.092 -0.006,0.217 0.095,0.217 0.029,0 0.059,-0.01 0.087,-0.034 2.159,-1.894 5.169,-2.176 8.04,-2.176 0.891,0 1.77,0.027 2.605,0.042 3.594,0.063 7.18,0.359 10.763,0.641 3.84,0.301 7.706,0.592 11.565,0.592 2.946,0 5.887,-0.169 8.808,-0.633 6.869,-1.092 12.738,-4.314 18.817,-7.509 6.639,-3.489 13.568,-6.69 19.986,-10.569 0.3,-0.181 0.116,-0.565 -0.169,-0.565"
         style="fill:#c58076;fill-opacity:1;fill-rule:nonzero;stroke:none;stroke-width:0.1"
         id="path6360"
         inkscape:connector-curvature="0" /><path
         d="m 447.20357,297.20849 c -0.029,0 -0.06,0.006 -0.091,0.019 -2.141,0.921 -4.263,1.908 -6.371,2.937 -0.162,-0.298 -0.32,-0.597 -0.492,-0.887 -0.046,-0.102 -0.139,-0.147 -0.237,-0.147 -0.198,0 -0.414,0.183 -0.298,0.454 0.123,0.288 0.249,0.592 0.379,0.899 -6.411,3.162 -12.686,6.713 -18.918,10.109 -0.268,0.145 -0.536,0.294 -0.804,0.445 0.028,0.267 0.051,0.536 0.068,0.805 0.368,-0.208 0.737,-0.414 1.107,-0.616 6.235,-3.415 12.645,-6.556 18.933,-9.891 0.218,0.447 0.455,0.88 0.744,1.248 0.059,0.076 0.135,0.108 0.212,0.108 0.201,0 0.41,-0.218 0.349,-0.435 -0.128,-0.455 -0.374,-0.877 -0.601,-1.293 2.062,-1.101 4.112,-2.223 6.134,-3.385 0.203,-0.117 0.075,-0.37 -0.114,-0.37 m -84.409,15.288 c -5.167,0 -10.29,0.655 -15.112,2.536 0.091,0.116 0.183,0.233 0.275,0.352 4.672,-1.529 9.536,-2.082 14.434,-2.082 3.17,0 6.355,0.232 9.509,0.581 7.747,0.858 15.444,2.134 23.163,3.216 -0.098,-0.278 -0.189,-0.561 -0.275,-0.848 -0.197,-0.03 -0.393,-0.058 -0.589,-0.087 -8.56,-1.234 -17.141,-2.768 -25.769,-3.437 -1.877,-0.145 -3.759,-0.231 -5.636,-0.231"
         style="fill:#c58076;fill-opacity:1;fill-rule:nonzero;stroke:none;stroke-width:0.1"
         id="path6362"
         inkscape:connector-curvature="0" /><path
         d="m 335.21757,385.47349 c -5.123,-0.432 -14.758,-7.912 -15.508,-9.537 -0.75,-1.625 -5.483,-25.3 1.708,-40.792 7.292,-15.708 17.792,-24.833 21.042,-24.833 3.25,0 10.276,13.191 19.25,21.875 7.75,7.5 15.75,10.125 14.062,13.563 -0.131,0.266 19.02,0.01 19.076,2.544 0.055,2.473 1.107,8.556 -2.268,9.473 -7.946,2.158 -21.75,4.055 -24.535,6.375 -6.218,5.179 -17.335,17.295 -19.46,18.795 -2.125,1.5 -8.486,2.949 -13.367,2.537"
         style="fill:#261f31;fill-opacity:1;fill-rule:nonzero;stroke:none;stroke-width:0.1"
         id="path6364"
         inkscape:connector-curvature="0" /><path
         d="m 347.90557,409.84749 c 1.11,-9.683 -7.277,-20.147 -16.963,-21.257 -9.686,-1.111 -18.467,6.085 -19.577,15.768 -1.109,9.683 5.981,18.199 15.531,20.158 9.754,2 19.9,-4.985 21.009,-14.669"
         style="fill:#261f31;fill-opacity:1;fill-rule:nonzero;stroke:none;stroke-width:0.1"
         id="path6366"
         inkscape:connector-curvature="0" /><path
         d="m 339.13457,378.64149 c -1.72,-0.6 -5.85,1.44 -7.01,3.3 -0.57,0.91 -1.29,3.89 -1.87,6.68 -0.6,2.89 -1.06,5.59 -1.06,5.59 h 7.06 c 0,0 0.61,-5.59 1.099,-8.91 0.191,-1.27 0.361,-2.2 0.481,-2.38 0.42,-0.65 3.019,-3.67 1.3,-4.28"
         style="fill:#f4c279;fill-opacity:1;fill-rule:nonzero;stroke:none;stroke-width:0.1"
         id="path6368"
         inkscape:connector-curvature="0" /><path
         d="m 336.82057,385.28049 c -2.75,0 -5.025,1.706 -6.566,3.341 v 0 c -0.6,2.89 -1.06,5.59 -1.06,5.59 h 7.06 c 0,0 0.61,-5.59 1.099,-8.91 -0.179,-0.014 -0.357,-0.021 -0.533,-0.021"
         style="fill:#eab56d;fill-opacity:1;fill-rule:nonzero;stroke:none;stroke-width:0.1"
         id="path6370"
         inkscape:connector-curvature="0" /><path
         d="m 345.97557,400.63349 c 0.328,-5.767 -2.894,-10.947 -7.259,-11.908 -4.366,-0.962 -9.455,2.389 -11.58,7.76 -2.755,6.977 -1.212,14.991 6.21,16.625 7.432,1.637 12.198,-4.988 12.629,-12.477"
         style="fill:#f4c279;fill-opacity:1;fill-rule:nonzero;stroke:none;stroke-width:0.1"
         id="path6372"
         inkscape:connector-curvature="0" /><path
         d="m 326.91757,395.01449 c -0.996,0.529 -2.332,9.803 -2.15,12.127 0.486,6.22 12.586,10 15.812,7.5 1.955,-1.516 5.528,-4.76 -0.308,-6.955 -4.54,-1.707 -12.087,-0.908 -12.087,-0.908 0,0 3.321,-14.205 -1.267,-11.764"
         style="fill:#261f31;fill-opacity:1;fill-rule:nonzero;stroke:none;stroke-width:0.1"
         id="path6374"
         inkscape:connector-curvature="0" /><path
         d="m 329.22557,397.65749 c 0,0 -4.026,1.497 -4.92,-1.151 -0.895,-2.647 2.776,-4.335 5.321,-2.199 l -0.401,3.35"
         style="fill:#f4c279;fill-opacity:1;fill-rule:nonzero;stroke:none;stroke-width:0.1"
         id="path6376"
         inkscape:connector-curvature="0" /><path
         d="m 325.25357,395.94049 c 0.205,0.255 0.463,0.471 0.759,0.634 0.296,0.154 0.64,0.278 1.012,0.257 0.371,-0.014 0.741,-0.188 1,-0.442 0.27,-0.249 0.446,-0.56 0.584,-0.868 l 0.176,-0.39 -0.424,0.054 c -0.387,0.049 -0.824,0.044 -1.21,-0.064 -0.194,-0.06 -0.37,-0.157 -0.534,-0.281 -0.164,-0.13 -0.273,-0.314 -0.38,-0.513 0.028,0.449 0.352,0.896 0.795,1.089 0.439,0.211 0.906,0.275 1.393,0.24 l -0.247,-0.335 c -0.263,0.54 -0.654,0.996 -1.196,1.077 -0.548,0.095 -1.167,-0.152 -1.728,-0.458"
         style="fill:#dca45d;fill-opacity:1;fill-rule:nonzero;stroke:none;stroke-width:0.1"
         id="path6378"
         inkscape:connector-curvature="0" /><path
         d="m 312.06657,321.07249 c 4.166,-2.906 52.008,-2.268 55.939,0 3.93,2.268 0.907,8.467 -4.838,8.92 -5.745,0.454 -42.634,0.605 -47.926,0 -5.291,-0.605 -9.676,-4.384 -3.175,-8.92"
         style="fill:#261f31;fill-opacity:1;fill-rule:nonzero;stroke:none;stroke-width:0.1"
         id="path6380"
         inkscape:connector-curvature="0" /><path
         d="m 330.67357,361.67249 c 3.636,-5.11 9.743,-22.414 11.908,-22.77 5.391,-0.888 20.51,-2.853 22.734,-3.298 1.002,-0.201 5.065,-0.477 8.963,-4.006 2.088,-1.891 6.972,-1.234 6.972,-2.922 0,-2.528 -15.182,-1.45 -16.156,-1.45 -0.975,0 -22.646,-5.262 -33.295,-0.24 -4.463,2.105 -15.22,22.986 -16.629,27.757 -2.685,9.094 8.021,17.437 15.503,6.929"
         style="fill:#f4c279;fill-opacity:1;fill-rule:nonzero;stroke:none;stroke-width:0.1"
         id="path6382"
         inkscape:connector-curvature="0" /><path
         d="m 365.84857,335.23949 c 0,0 4.611,0.325 7.274,0 2.663,-0.325 4.091,-1.188 3.421,-1.739 -1.364,-1.123 -8.747,-0.989 -8.747,-0.989 l -1.948,2.728"
         style="fill:#f4c279;fill-opacity:1;fill-rule:nonzero;stroke:none;stroke-width:0.1"
         id="path6384"
         inkscape:connector-curvature="0" /><path
         d="m 321.58457,340.37449 c -0.453,-1.02 3.418,-6.971 4.437,-7.563 1.02,-0.592 12.989,4.585 14.896,8.625 0.354,0.75 -2.598,6.876 -3.271,7.063 -2.25,0.625 -15.312,-6.438 -16.062,-8.125"
         style="fill:#fafbfc;fill-opacity:1;fill-rule:nonzero;stroke:none;stroke-width:0.1"
         id="path6386"
         inkscape:connector-curvature="0" /><path
         d="m 323.39257,379.20249 c -2.886,-2.149 -6.793,-5.624 -7.995,-8.427 -0.624,-1.456 -1.086,-8.864 -0.983,-16.073 0.019,-1.327 0.402,-2.083 0.462,-3.358 0.018,-0.366 -0.31,-1.292 -0.289,-1.65 0.071,-1.234 1.187,-2.128 1.304,-3.215 0.141,-1.3 -0.706,-2.753 -0.491,-3.725 0.283,-1.286 1.062,-1.649 1.491,-2.103 2.869,-3.028 22.445,3.024 22.023,8.631 -0.422,5.607 -15.522,29.92 -15.522,29.92"
         style="fill:#261f31;fill-opacity:1;fill-rule:nonzero;stroke:none;stroke-width:0.1"
         id="path6388"
         inkscape:connector-curvature="0" /><path
         d="m 375.06157,346.29149 c -0.078,0 -0.153,0.044 -0.184,0.145 -1.103,3.661 -4.335,5.709 -7.334,7.763 -2.436,1.668 -5.452,2.802 -7.632,4.784 -2.184,1.986 -3.726,4.867 -5.165,7.402 -1.62,2.856 -2.943,5.854 -4.14,8.909 l 0.136,0.057 c 0.991,-2.133 2.084,-4.217 3.244,-6.264 l -0.007,0.039 c -0.069,0.427 -0.128,0.856 -0.187,1.284 -0.113,0.825 -0.217,1.641 -0.256,2.473 -0.007,0.142 0.115,0.222 0.233,0.222 0.095,0 0.188,-0.051 0.211,-0.161 0.224,-1.056 0.346,-2.122 0.462,-3.195 0.046,-0.421 0.267,-1.188 0.131,-1.693 0.406,-0.696 0.818,-1.39 1.241,-2.077 2.147,-3.488 4.143,-6.456 7.819,-8.449 4.233,-2.295 10.672,-5.75 11.636,-10.986 0.028,-0.153 -0.092,-0.253 -0.208,-0.253"
         style="fill:#1c1821;fill-opacity:1;fill-rule:nonzero;stroke:none;stroke-width:0.1"
         id="path6390"
         inkscape:connector-curvature="0" /><path
         d="m 338.52657,347.44149 c -0.017,0 -0.033,0.002 -0.05,0.006 -0.015,0.024 -0.029,0.049 -0.044,0.072 0.133,0.221 0.241,0.444 0.321,0.666 0.015,-0.127 0.035,-0.26 0.06,-0.398 0.035,-0.188 -0.129,-0.346 -0.287,-0.346 m 0.3,2.454 c -0.119,0.592 -0.341,1.315 -0.647,2.141 -0.036,0.661 -0.201,0.994 -0.502,1.267 -0.216,0.519 -0.457,1.066 -0.718,1.637 0.141,-0.109 0.316,-0.226 0.554,-0.389 0.463,-0.318 0.984,-0.642 1.303,-1.118 0.363,-0.539 0.441,-1.066 0.361,-1.704 -0.091,-0.712 -0.246,-1.269 -0.351,-1.834 m -3.091,7.605 c -0.201,0.404 -0.407,0.813 -0.62,1.229 0.155,0.478 0.224,0.974 -0.046,1.664 -0.49,1.256 -1.583,1.893 -2.403,2.949 -0.529,0.965 -1.068,1.934 -1.607,2.889 -0.502,1.218 -0.875,2.496 -1.239,3.756 -0.021,0.073 0.035,0.119 0.093,0.119 0.038,0 0.078,-0.021 0.095,-0.068 0.69,-1.879 1.393,-3.433 2.33,-4.864 -0.069,0.769 -0.137,1.536 -0.206,2.304 -0.013,0.142 0.095,0.214 0.208,0.214 0.112,0 0.229,-0.071 0.237,-0.214 0.054,-0.966 0.106,-1.932 0.16,-2.899 0.67,-0.93 1.46,-1.815 2.445,-2.713 1.101,-1.004 1.343,-1.82 0.909,-3.263 -0.183,-0.606 -0.328,-0.85 -0.356,-1.103"
         style="fill:#1c1821;fill-opacity:1;fill-rule:nonzero;stroke:none;stroke-width:0.1"
         id="path6392"
         inkscape:connector-curvature="0" /><path
         d="m 338.47657,347.44749 c -0.024,0.006 -0.048,0.015 -0.069,0.03 0.008,0.014 0.017,0.028 0.025,0.042 0.015,-0.023 0.029,-0.048 0.044,-0.072"
         style="fill:#a19da8;fill-opacity:1;fill-rule:nonzero;stroke:none;stroke-width:0.1"
         id="path6394"
         inkscape:connector-curvature="0" /><path
         d="m 338.40757,347.47749 c -0.034,0.022 -0.064,0.056 -0.087,0.102 -0.38,0.756 -0.555,1.428 -0.479,2.282 0.04,0.453 0.303,0.925 0.329,1.366 0.018,0.316 0.021,0.582 0.009,0.809 0.306,-0.826 0.528,-1.549 0.647,-2.141 -0.097,-0.521 -0.152,-1.049 -0.073,-1.71 -0.08,-0.222 -0.188,-0.445 -0.321,-0.666 -0.008,-0.014 -0.017,-0.028 -0.025,-0.042 m -0.73,5.826 c -0.258,0.234 -0.616,0.424 -1.078,0.739 -1.056,0.717 -1.986,1.396 -1.973,2.793 0.007,0.795 0.307,1.331 0.489,1.894 0.213,-0.416 0.419,-0.825 0.62,-1.229 -0.03,-0.267 0.069,-0.544 0.389,-1.266 0.35,-0.793 0.486,-1.021 0.835,-1.294 0.261,-0.571 0.502,-1.118 0.718,-1.637 m -5.011,10.039 c -0.03,0.038 -0.06,0.078 -0.089,0.118 -0.63,0.858 -1.115,1.795 -1.518,2.771 0.539,-0.955 1.078,-1.924 1.607,-2.889"
         style="fill:#1c1821;fill-opacity:1;fill-rule:nonzero;stroke:none;stroke-width:0.1"
         id="path6396"
         inkscape:connector-curvature="0" /><path
         d="m 339.28057,374.77649 c -3.75,10e-4 -7.57,3.356 -9.514,6.12 -0.075,0.107 0.035,0.231 0.141,0.231 0.035,0 0.07,-0.014 0.098,-0.046 1.745,-2.063 3.936,-3.731 6.446,-4.744 0.893,-0.361 2.028,-0.687 3.06,-0.687 1.466,0 2.725,0.656 2.794,2.796 0.054,1.705 -0.957,3.013 -1.849,4.379 -0.108,0.166 0.056,0.356 0.217,0.356 0.054,0 0.108,-0.022 0.151,-0.072 1.859,-2.19 4.093,-7.304 -0.348,-8.213 -0.396,-0.081 -0.795,-0.12 -1.196,-0.12"
         style="fill:#1c1821;fill-opacity:1;fill-rule:nonzero;stroke:none;stroke-width:0.1"
         id="path6398"
         inkscape:connector-curvature="0" /><path
         d="m 283.54957,230.36649 v 0 c -1.514,0 -2.741,1.227 -2.741,2.741 v 69.516 c 0,1.513 1.227,2.741 2.741,2.741 1.513,0 2.74,-1.228 2.74,-2.741 v -69.516 c 0,-1.514 -1.227,-2.741 -2.74,-2.741"
         style="fill:#9ea6db;fill-opacity:1;fill-rule:nonzero;stroke:none;stroke-width:0.1"
         id="path6400"
         inkscape:connector-curvature="0" /><path
         d="m 246.23557,256.78749 -0.054,-2.432 c -0.035,-1.524 1.066,-2.789 2.458,-2.827 l 43.436,-1.172 c 0.33,-0.009 0.657,0.052 0.965,0.182 l 32.837,13.787 c 0.954,0.401 1.593,1.392 1.618,2.509 l 0.08,3.574 -81.34,-13.621"
         style="fill:#9ea6db;fill-opacity:1;fill-rule:nonzero;stroke:none;stroke-width:0.1"
         id="path6402"
         inkscape:connector-curvature="0" /><path
         d="m 246.23557,256.78749 46.456,-1.253 34.884,14.874 -43.84,1.183 -37.5,-14.804"
         style="fill:#c6caeb;fill-opacity:1;fill-rule:nonzero;stroke:none;stroke-width:0.1"
         id="path6404"
         inkscape:connector-curvature="0" /><path
         d="m 248.31457,216.06149 v 0 c -1.513,0 -2.741,1.227 -2.741,2.741 v 69.516 c 0,1.513 1.228,2.74 2.741,2.74 1.514,0 2.741,-1.227 2.741,-2.74 v -69.516 c 0,-1.514 -1.227,-2.741 -2.741,-2.741"
         style="fill:#c6caeb;fill-opacity:1;fill-rule:nonzero;stroke:none;stroke-width:0.1"
         id="path6406"
         inkscape:connector-curvature="0" /><path
         d="m 290.79757,216.06149 v 0 c -1.514,0 -2.74,1.227 -2.74,2.741 v 69.516 c 0,1.513 1.226,2.74 2.74,2.74 1.513,0 2.74,-1.227 2.74,-2.74 v -69.516 c 0,-1.514 -1.227,-2.741 -2.74,-2.741"
         style="fill:#c6caeb;fill-opacity:1;fill-rule:nonzero;stroke:none;stroke-width:0.1"
         id="path6408"
         inkscape:connector-curvature="0" /><path
         d="m 327.72057,230.36649 v 0 c -1.514,0 -2.741,1.227 -2.741,2.741 v 69.516 c 0,1.513 1.227,2.741 2.741,2.741 1.513,0 2.74,-1.228 2.74,-2.741 v -69.516 c 0,-1.514 -1.227,-2.741 -2.74,-2.741"
         style="fill:#c6caeb;fill-opacity:1;fill-rule:nonzero;stroke:none;stroke-width:0.1"
         id="path6410"
         inkscape:connector-curvature="0" /><path
         d="m 242.53757,291.74549 -0.06,-2.655 c -0.037,-1.663 1.164,-3.043 2.683,-3.084 l 47.392,-1.279 c 0.359,-0.009 0.716,0.058 1.052,0.199 l 35.827,15.043 c 1.041,0.436 1.737,1.518 1.764,2.737 l 0.088,3.9 -88.746,-14.861"
         style="fill:#9ea6db;fill-opacity:1;fill-rule:nonzero;stroke:none;stroke-width:0.1"
         id="path6412"
         inkscape:connector-curvature="0" /><path
         d="m 242.53757,291.74549 50.686,-1.368 38.06,16.229 -47.832,1.29 -40.914,-16.151"
         style="fill:#c6caeb;fill-opacity:1;fill-rule:nonzero;stroke:none;stroke-width:0.1"
         id="path6414"
         inkscape:connector-curvature="0" /><path
         d="m 293.44957,293.99049 26.938,10.497 c 1.727,0.674 2.358,2.795 1.277,4.301 -3.149,4.389 -8.805,12.116 -9.798,12.43 -1.389,0.439 -29.74,-9.607 -29.74,-9.607 l 11.323,-17.621"
         style="fill:#fafbfc;fill-opacity:1;fill-rule:nonzero;stroke:none;stroke-width:0.1"
         id="path6416"
         inkscape:connector-curvature="0" /><path
         d="m 282.12657,311.61149 -29.451,0.441 29.043,9.629 30.149,-0.451 -29.741,-9.619"
         style="fill:#c6caeb;fill-opacity:1;fill-rule:nonzero;stroke:none;stroke-width:0.1"
         id="path6418"
         inkscape:connector-curvature="0" /><path
         d="m 293.44957,293.99049 -37.798,0.566 c -1.788,0.027 -3.216,1.499 -3.189,3.287 l 0.213,14.209 c 0,0 28.194,-0.422 29.451,-0.441 1.256,-0.018 11.323,-17.621 11.323,-17.621"
         style="fill:#dfe1f4;fill-opacity:1;fill-rule:nonzero;stroke:none;stroke-width:0.1"
         id="path6420"
         inkscape:connector-curvature="0" /><path
         d="m 313.93857,313.27949 c -0.015,-1.072 -0.722,-2.021 -1.744,-2.364 l -1.514,-0.49 -3.693,-1.196 -1.593,-0.524 -1.426,-0.459 -2.649,-0.864 -3.042,-0.982 -3.366,-1.089 c -0.572,-0.182 -1.153,-0.162 -1.652,0.035 -0.956,0.35 -1.668,1.276 -1.652,2.393 0.017,1.083 0.712,2.033 1.744,2.364 l 2.178,0.704 5.298,1.73 3.052,0.982 2.649,0.866 1.414,0.458 1.616,0.524 1.078,0.352 c 0.752,0.246 1.52,0.111 2.129,-0.277 0.708,-0.447 1.187,-1.236 1.173,-2.163"
         style="fill:#9ea6db;fill-opacity:1;fill-rule:nonzero;stroke:none;stroke-width:0.1"
         id="path6422"
         inkscape:connector-curvature="0" /><path
         d="m 298.80557,301.58849 -3.378,-1.179 c -0.714,-0.248 -1.458,0.288 -1.447,1.044 l 0.007,0.521 c 0.008,0.457 0.299,0.861 0.731,1.012 l 3.379,1.178 c 0.713,0.249 1.457,-0.288 1.446,-1.044 l -0.008,-0.521 c -0.007,-0.457 -0.299,-0.861 -0.73,-1.011"
         style="fill:#261f31;fill-opacity:1;fill-rule:nonzero;stroke:none;stroke-width:0.1"
         id="path6424"
         inkscape:connector-curvature="0" /><path
         d="m 306.10257,304.10649 -3.378,-1.179 c -0.714,-0.248 -1.458,0.289 -1.447,1.044 l 0.008,0.521 c 0.007,0.457 0.298,0.861 0.73,1.012 l 3.378,1.178 c 0.714,0.249 1.458,-0.288 1.447,-1.044 l -0.008,-0.521 c -0.007,-0.457 -0.298,-0.861 -0.73,-1.011"
         style="fill:#261f31;fill-opacity:1;fill-rule:nonzero;stroke:none;stroke-width:0.1"
         id="path6426"
         inkscape:connector-curvature="0" /><path
         d="m 311.65157,306.84249 c -0.011,-0.797 -0.667,-1.433 -1.464,-1.421 -0.796,0.012 -1.432,0.667 -1.42,1.464 0.011,0.796 0.667,1.432 1.463,1.42 0.797,-0.012 1.433,-0.667 1.421,-1.463"
         style="fill:#e73d48;fill-opacity:1;fill-rule:nonzero;stroke:none;stroke-width:0.1"
         id="path6428"
         inkscape:connector-curvature="0" /><path
         d="m 294.11957,305.18649 c -0.301,0 -0.593,0.055 -0.86,0.16 l 2.27,5.461 5.298,1.73 -2.55,-6.137 -3.366,-1.089 c -0.265,-0.084 -0.532,-0.125 -0.792,-0.125"
         style="fill:#bac0e6;fill-opacity:1;fill-rule:nonzero;stroke:none;stroke-width:0.1"
         id="path6430"
         inkscape:connector-curvature="0" /><path
         d="m 301.31957,307.38249 2.56,6.137 2.649,0.866 -2.56,-6.139 -2.649,-0.864"
         style="fill:#bac0e6;fill-opacity:1;fill-rule:nonzero;stroke:none;stroke-width:0.1"
         id="path6432"
         inkscape:connector-curvature="0" /><path
         d="m 310.68057,310.42549 2.085,5.017 c 0.697,-0.44 1.172,-1.211 1.174,-2.119 0,-0.015 0,-0.029 -10e-4,-0.044 -0.015,-1.072 -0.722,-2.021 -1.744,-2.364 l -1.514,-0.49"
         style="fill:#bac0e6;fill-opacity:1;fill-rule:nonzero;stroke:none;stroke-width:0.1"
         id="path6434"
         inkscape:connector-curvature="0" /><path
         d="m 305.39457,308.70549 2.548,6.138 1.616,0.524 -2.571,-6.138 -1.593,-0.524"
         style="fill:#bac0e6;fill-opacity:1;fill-rule:nonzero;stroke:none;stroke-width:0.1"
         id="path6436"
         inkscape:connector-curvature="0" /><path
         d="m 303.39457,320.38149 -20.454,0.307 0.108,7.171 20.454,-0.306 -0.108,-7.172"
         style="fill:#261f31;fill-opacity:1;fill-rule:nonzero;stroke:none;stroke-width:0.1"
         id="path6438"
         inkscape:connector-curvature="0" /><path
         d="m 282.94057,320.68849 -19.747,-5.655 0.108,7.171 19.747,5.655 -0.108,-7.171"
         style="fill:#6b448b;fill-opacity:1;fill-rule:nonzero;stroke:none;stroke-width:0.1"
         id="path6440"
         inkscape:connector-curvature="0" /><path
         d="m 277.23257,315.21249 c -1.246,0 -2.425,0.753 -2.899,1.984 l -0.356,0.925 1.961,0.561 c 0.582,-0.715 1.46,-1.131 2.378,-1.131 0.366,0 0.739,0.067 1.101,0.206 l 7.455,2.872 4.81,-0.072 -13.332,-5.136 c -0.368,-0.142 -0.746,-0.209 -1.118,-0.209"
         style="fill:#e5e7f6;fill-opacity:1;fill-rule:nonzero;stroke:none;stroke-width:0.1"
         id="path6442"
         inkscape:connector-curvature="0" /><path
         d="m 271.49957,324.55249 -1.766,4.584 c -0.616,1.598 0.19,3.396 1.788,4.012 l 18.474,7.116 c 0.366,0.141 0.743,0.208 1.114,0.208 1.244,0 2.419,-0.755 2.893,-1.987 l 1.089,-2.827 2.02,0.138 c 0.028,0.002 0.055,0.003 0.082,0.003 0.455,0 0.87,-0.274 1.034,-0.702 l 1.301,-3.375 c 0.175,-0.454 0.029,-0.977 -0.355,-1.277 l -1.591,-1.253 0.601,-1.56 -2.457,0.037 -3.218,8.354 c -0.469,1.217 -1.63,1.964 -2.86,1.964 -0.367,0 -0.739,-0.066 -1.101,-0.206 l -14.667,-5.65 c -1.579,-0.608 -2.366,-2.382 -1.758,-3.961 l 1.193,-3.098 -1.816,-0.52 m 26.015,8.885 c -0.065,0 -0.132,-0.012 -0.196,-0.037 -0.284,-0.109 -0.428,-0.436 -0.32,-0.72 0.085,-0.22 0.3,-0.356 0.525,-0.356 0.065,0 0.132,0.011 0.196,0.036 0.283,0.109 0.428,0.437 0.319,0.721 -0.085,0.219 -0.3,0.356 -0.524,0.356"
         style="fill:#f5f7f7;fill-opacity:1;fill-rule:nonzero;stroke:none;stroke-width:0.1"
         id="path6444"
         inkscape:connector-curvature="0" /><path
         d="m 291.68257,320.55749 -4.81,0.072 7.212,2.778 c 1.579,0.608 2.366,2.382 1.758,3.961 l -0.116,0.301 2.457,-0.037 0.418,-1.087 c 0.617,-1.598 -0.18,-3.392 -1.778,-4.008 l -5.141,-1.98"
         style="fill:#a19da9;fill-opacity:1;fill-rule:nonzero;stroke:none;stroke-width:0.1"
         id="path6446"
         inkscape:connector-curvature="0" /><path
         d="m 273.97757,318.12149 -2.478,6.431 1.816,0.52 2.141,-5.557 c 0.119,-0.31 0.283,-0.589 0.482,-0.833 l -1.961,-0.561"
         style="fill:#c4afcf;fill-opacity:1;fill-rule:nonzero;stroke:none;stroke-width:0.1"
         id="path6448"
         inkscape:connector-curvature="0" /><path
         d="m 275.88257,320.46449 -2.808,7.288 c -0.608,1.579 0.179,3.353 1.758,3.961 l 13.289,5.119 c 1.579,0.609 3.353,-0.178 3.961,-1.758 l 2.808,-7.288 c 0.608,-1.58 -0.179,-3.353 -1.758,-3.961 l -13.289,-5.119 c -1.579,-0.609 -3.353,0.178 -3.961,1.758"
         style="fill:#e73d48;fill-opacity:1;fill-rule:nonzero;stroke:none;stroke-width:0.1"
         id="path6450"
         inkscape:connector-curvature="0" /><path
         d="m 278.31657,317.55149 c -0.918,0 -1.796,0.416 -2.378,1.131 l 1.121,0.322 c 0.496,-0.325 1.081,-0.504 1.683,-0.504 0.366,0 0.739,0.066 1.101,0.206 l 5.068,1.952 1.961,-0.029 -7.455,-2.872 c -0.362,-0.139 -0.735,-0.206 -1.101,-0.206"
         style="fill:#edeff8;fill-opacity:1;fill-rule:nonzero;stroke:none;stroke-width:0.1"
         id="path6452"
         inkscape:connector-curvature="0" /><path
         d="m 273.31557,325.07249 -1.193,3.098 c -0.608,1.579 0.179,3.353 1.758,3.961 l 14.667,5.65 c 0.362,0.14 0.734,0.206 1.101,0.206 1.23,0 2.391,-0.747 2.86,-1.964 l 3.218,-8.354 -0.798,0.012 c -0.012,0.035 -0.025,0.07 -0.038,0.105 l -2.808,7.288 c -0.469,1.217 -1.63,1.964 -2.86,1.964 -0.366,0 -0.739,-0.066 -1.101,-0.206 l -13.289,-5.119 c -1.579,-0.608 -2.366,-2.382 -1.758,-3.961 l 0.954,-2.476 -0.713,-0.204"
         style="fill:#f6f8f9;fill-opacity:1;fill-rule:nonzero;stroke:none;stroke-width:0.1"
         id="path6454"
         inkscape:connector-curvature="0" /><path
         d="m 286.87257,320.62949 -1.961,0.029 8.221,3.167 c 1.544,0.595 2.331,2.303 1.796,3.856 l 0.798,-0.012 0.116,-0.301 c 0.608,-1.579 -0.179,-3.353 -1.758,-3.961 l -7.212,-2.778"
         style="fill:#c6c2ca;fill-opacity:1;fill-rule:nonzero;stroke:none;stroke-width:0.1"
         id="path6456"
         inkscape:connector-curvature="0" /><path
         d="m 275.93857,318.68249 c -0.199,0.244 -0.363,0.523 -0.482,0.833 l -2.141,5.557 0.713,0.204 1.854,-4.812 c 0.239,-0.622 0.659,-1.121 1.177,-1.46 l -1.121,-0.322"
         style="fill:#dbcee2;fill-opacity:1;fill-rule:nonzero;stroke:none;stroke-width:0.1"
         id="path6458"
         inkscape:connector-curvature="0" /><path
         d="m 278.74257,318.50049 c -0.602,0 -1.187,0.179 -1.683,0.504 -0.518,0.339 -0.938,0.838 -1.177,1.46 l -1.854,4.812 -0.954,2.476 c -0.608,1.579 0.179,3.353 1.758,3.961 l 13.289,5.119 c 0.362,0.14 0.735,0.206 1.101,0.206 1.23,0 2.391,-0.747 2.86,-1.964 l 2.808,-7.288 c 0.013,-0.035 0.026,-0.07 0.038,-0.105 0.535,-1.553 -0.252,-3.261 -1.796,-3.856 l -8.221,-3.167 -5.068,-1.952 c -0.362,-0.14 -0.735,-0.206 -1.101,-0.206"
         style="fill:#ed838f;fill-opacity:1;fill-rule:nonzero;stroke:none;stroke-width:0.1"
         id="path6460"
         inkscape:connector-curvature="0" /><path
         d="m 284.62657,327.12449 -0.591,1.533 4.412,1.7 0.591,-1.534 -4.412,-1.699"
         style="fill:#fafbfc;fill-opacity:1;fill-rule:nonzero;stroke:none;stroke-width:0.1"
         id="path6462"
         inkscape:connector-curvature="0" /><path
         d="m 288.15357,326.83049 -1.533,-0.591 -1.699,4.412 1.533,0.591 1.699,-4.412"
         style="fill:#fafbfc;fill-opacity:1;fill-rule:nonzero;stroke:none;stroke-width:0.1"
         id="path6464"
         inkscape:connector-curvature="0" /><path
         d="m 283.64757,314.72749 -20.454,0.306 0.108,7.171 20.454,-0.306 -0.108,-7.171"
         style="fill:#4d3464;fill-opacity:1;fill-rule:nonzero;stroke:none;stroke-width:0.1"
         id="path6466"
         inkscape:connector-curvature="0" /><path
         d="m 303.50157,327.55049 -0.108,-7.168 -19.741,-5.658 0.108,7.169 6.481,1.86 c 0.805,0.232 1.605,-0.38 1.592,-1.217 l -0.015,-1.009 5.44,1.56 0.026,1.764 c 0.009,0.551 0.376,1.03 0.905,1.181 l 5.312,1.518"
         style="fill:#6b448b;fill-opacity:1;fill-rule:nonzero;stroke:none;stroke-width:0.1"
         id="path6468"
         inkscape:connector-curvature="0" /><path
         d="m 296.99857,332.05549 c 3.669,-0.113 7.509,-1.108 10.822,-2.65 6.008,-2.796 9.045,-7.724 12.059,-13.32 4.476,-8.315 9.491,-17.08 19.882,-18.045 15.187,-1.411 29.722,13.17 23.936,28.664 -2.804,7.509 -13.498,7.801 -20.153,6.405 -0.786,-0.165 -0.453,-1.37 0.333,-1.206 5.128,1.076 13.099,1.151 17.017,-2.824 2.372,-2.404 2.676,-6.552 2.526,-9.73 -0.534,-11.32 -9.014,-19.661 -20.322,-20.136 -15.232,-0.641 -18.775,13.561 -25.775,23.83 -4.437,6.511 -12.566,10.023 -20.325,10.262 -0.805,0.025 -0.804,-1.225 0,-1.25"
         style="fill:#e73d48;fill-opacity:1;fill-rule:nonzero;stroke:none;stroke-width:0.1"
         id="path6470"
         inkscape:connector-curvature="0" /><path
         d="m 347.80057,334.51449 -4.676,-6.158 c -0.532,-0.701 -1.53,-0.837 -2.232,-0.305 l -0.966,0.733 c -0.701,0.532 -0.837,1.531 -0.305,2.231 l 4.676,6.159 c 0.532,0.7 1.531,0.836 2.231,0.305 l 0.967,-0.734 c 0.7,-0.532 0.837,-1.531 0.305,-2.231"
         style="fill:#fafbfc;fill-opacity:1;fill-rule:nonzero;stroke:none;stroke-width:0.1"
         id="path6472"
         inkscape:connector-curvature="0" /><path
         d="m 238.13857,223.64149 c 0,0 -14.337,-9.782 -41.875,-7.588 l -3.086,15.872 c -1.269,-4.477 -2.127,-10.789 -2.57,-14.894 -8.685,0.908 -19.409,5.946 -22.078,7.608 0,0 8.047,66.83 9.063,73.3 2.944,18.754 14.334,24.935 21.727,25.026 5.835,0.072 15.293,-0.939 18.906,-4.795 9.93,-10.595 17.27,-57.291 19.913,-94.529"
         style="fill:#fafbfc;fill-opacity:1;fill-rule:nonzero;stroke:none;stroke-width:0.1"
         id="path6562"
         inkscape:connector-curvature="0" /><path
         d="m 209.82457,306.45649 c 0.078,-4.162 6.826,-10.624 5.451,-16.624 -1.05,-4.586 -15.231,-6.943 -17.319,-11.625 -2.231,-5 4.622,-12.919 7.819,-12.75 3.197,0.169 27.696,11.196 28.875,20.5 1.014,7.991 -11.5,26.875 -17.961,32.625 -5.023,4.471 -7.057,-1.959 -6.865,-12.126"
         style="fill:#fafbfc;fill-opacity:1;fill-rule:nonzero;stroke:none;stroke-width:0.1"
         id="path6604"
         inkscape:connector-curvature="0" /><path
         d="m 460.16557,139.79349 c 0,-7.346 -24.305,-13.3012 -54.285,-13.3012 -29.981,0 -54.284,5.9552 -54.284,13.3012 0,7.346 24.303,13.302 54.284,13.302 29.98,0 54.285,-5.956 54.285,-13.302"
         style="fill:#d1d3d4;fill-opacity:1;fill-rule:nonzero;stroke:none;stroke-width:0.1"
         id="path6924"
         inkscape:connector-curvature="0" /><path
         d="m 388.53057,143.42349 c -0.263,-1.497 -0.772,-3.693 -1.418,-3.923 -0.978,-0.347 -22.635,0.985 -22.487,2.389 0.083,0.827 3.213,2.254 6.015,3.409 l 0.152,0.066 c 1.934,0.801 3.672,1.46 4.125,1.691 l 13.838,-2.25 c 0,0 -0.076,-0.595 -0.225,-1.382"
         style="fill:#f4c279;fill-opacity:1;fill-rule:nonzero;stroke:none;stroke-width:0.1"
         id="path6926"
         inkscape:connector-curvature="0" /><path
         d="m 388.53057,143.42349 c -0.263,-1.497 -0.772,-3.693 -1.418,-3.923 -0.978,-0.347 -22.635,0.985 -22.487,2.389 0.083,0.827 3.213,2.254 6.015,3.409 -2.046,-0.994 -2.312,-3.19 17.89,-1.875"
         style="fill:#261f31;fill-opacity:1;fill-rule:nonzero;stroke:none;stroke-width:0.1"
         id="path6928"
         inkscape:connector-curvature="0" /><path
         d="m 383.13657,210.64149 c -6.559,-16.21 -8.933,-62.285 -8.215,-63.583 0.718,-1.299 12.89,-2.561 14.573,-2.074 1.683,0.486 14.471,61.342 13.713,62.394 -0.758,1.052 -19.071,5.731 -20.071,3.263"
         style="fill:#e8b130;fill-opacity:1;fill-rule:nonzero;stroke:none;stroke-width:0.1"
         id="path6930"
         inkscape:connector-curvature="0" /><path
         d="m 386.44257,144.66649 c -0.11,0 -0.225,0.095 -0.2,0.24 0.002,0.011 0.004,0.022 0.006,0.034 0.134,-0.008 0.266,-0.015 0.395,-0.022 -0.01,-0.038 -0.021,-0.077 -0.032,-0.115 -0.026,-0.096 -0.097,-0.137 -0.169,-0.137"
         style="fill:#c99f67;fill-opacity:1;fill-rule:nonzero;stroke:none;stroke-width:0.1"
         id="path6932"
         inkscape:connector-curvature="0" /><path
         d="m 386.64357,144.91849 c -0.129,0.007 -0.261,0.014 -0.395,0.022 1.035,5.982 2.335,11.937 3.697,17.878 -0.555,0.078 -1.109,0.171 -1.657,0.244 -0.353,0.047 -0.378,0.588 -0.036,0.588 0.011,0 0.023,-0.001 0.036,-0.002 0.597,-0.062 1.206,-0.103 1.81,-0.163 0.095,0.409 0.191,0.818 0.286,1.228 -0.612,0.183 -1.223,0.364 -1.833,0.547 -0.284,0.085 -0.198,0.491 0.062,0.491 0.022,0 0.046,-0.003 0.071,-0.01 0.609,-0.158 1.218,-0.317 1.827,-0.476 0.942,4.067 1.898,8.131 2.808,12.19 0.733,3.266 1.431,6.548 2.129,9.834 0.322,-0.071 0.639,-0.138 0.96,-0.202 -0.778,-3.286 -1.553,-6.569 -2.29,-9.852 -0.911,-4.057 -1.783,-8.137 -2.669,-12.215 0.252,-0.067 0.504,-0.132 0.757,-0.197 0.356,-0.094 0.244,-0.618 -0.074,-0.618 -0.029,0 -0.061,0.004 -0.093,0.014 -0.239,0.072 -0.478,0.144 -0.717,0.215 -0.079,-0.361 -0.156,-0.722 -0.235,-1.081 0.094,-0.017 0.19,-0.028 0.283,-0.046 0.349,-0.07 0.269,-0.622 -0.072,-0.622 -0.004,0 -0.008,0.001 -0.012,0.001 -0.113,0.004 -0.227,0.016 -0.339,0.025 -1.31,-5.969 -2.679,-11.926 -4.304,-17.793"
         style="fill:#bf912b;fill-opacity:1;fill-rule:nonzero;stroke:none;stroke-width:0.1"
         id="path6934"
         inkscape:connector-curvature="0" /><path
         d="m 446.22557,153.46149 c 0.876,-1.242 2.075,-3.152 1.782,-3.771 -0.444,-0.939 -16.66,-15.355 -17.553,-14.259 -0.527,0.642 0.669,3.867 1.825,6.668 l 0.061,0.155 c 0.796,1.936 1.554,3.633 1.711,4.116 l 11.353,8.225 c 0,0 0.368,-0.474 0.821,-1.134"
         style="fill:#f4c279;fill-opacity:1;fill-rule:nonzero;stroke:none;stroke-width:0.1"
         id="path6936"
         inkscape:connector-curvature="0" /><path
         d="m 446.22557,153.46149 c 0.876,-1.242 2.075,-3.152 1.782,-3.771 -0.444,-0.939 -16.66,-15.355 -17.553,-14.259 -0.527,0.642 0.669,3.867 1.825,6.668 -0.737,-2.152 0.632,-3.889 13.946,11.362"
         style="fill:#261f31;fill-opacity:1;fill-rule:nonzero;stroke:none;stroke-width:0.1"
         id="path6938"
         inkscape:connector-curvature="0" /><path
         d="m 411.22357,172.01449 c 3.833,-7.167 21.401,-25.231 22.828,-25.639 1.426,-0.407 10.506,5.743 11.353,8.22 0.568,1.658 -5.06,13.966 -15.919,27.061 -1.678,2.025 2.46,23.954 -0.162,22.4 -2.101,-1.245 -17.327,-2.122 -19.367,-3.625 -2.833,-2.088 0.787,-27.52 1.267,-28.417"
         style="fill:#e8b130;fill-opacity:1;fill-rule:nonzero;stroke:none;stroke-width:0.1"
         id="path6940"
         inkscape:connector-curvature="0" /><path
         d="m 442.51157,155.00449 c -0.088,0 -0.177,0.04 -0.239,0.134 -1.188,1.81 -2.405,3.599 -3.63,5.384 -0.244,-0.18 -0.492,-0.353 -0.752,-0.497 -0.023,-0.014 -0.046,-0.019 -0.067,-0.019 -0.099,0 -0.161,0.131 -0.089,0.221 0.196,0.24 0.416,0.468 0.645,0.685 -0.198,0.287 -0.385,0.581 -0.584,0.867 l -0.139,-0.107 c -0.116,-0.077 -0.258,-0.138 -0.394,-0.138 -0.1,0 -0.196,0.033 -0.277,0.118 l -0.03,0.232 0.024,0.056 c 0.024,0.054 0.083,0.081 0.142,0.081 0.059,0 0.118,-0.027 0.142,-0.081 v 0 c 0.005,0 0.12,0.094 0.267,0.219 -1.012,1.451 -2.036,2.893 -3.091,4.315 -2.677,3.612 -5.936,6.92 -8.478,10.612 -0.779,1.132 -0.933,1.988 -0.935,3.33 -0.005,2.365 0.129,4.739 0.215,7.106 -0.446,0.017 -0.888,0.052 -1.286,0.089 -0.307,0.028 -0.321,0.492 -0.01,0.492 0.003,0 0.007,0 0.01,0 0.112,-0.004 0.224,-0.006 0.336,-0.006 0.324,0 0.648,0.014 0.973,0.03 l 0.004,0.148 c 0.003,0.097 0.006,0.194 0.01,0.292 0.254,0.074 0.505,0.15 0.754,0.227 -0.005,-0.206 -0.01,-0.411 -0.015,-0.617 0.361,0.046 0.725,0.104 1.086,0.104 0.062,0 0.123,-0.002 0.184,-0.005 0.303,-0.018 0.334,-0.402 0.068,-0.506 -0.41,-0.161 -0.878,-0.22 -1.355,-0.243 -0.044,-1.715 -0.088,-3.431 -0.132,-5.146 -0.035,-1.383 -0.29,-3.011 0.362,-4.303 0.453,-0.899 1.359,-1.715 1.995,-2.479 3.473,-4.169 6.782,-8.49 9.866,-12.963 l 0.119,0.103 c 0.253,0.226 0.491,0.469 0.783,0.642 0.039,0.023 0.077,0.033 0.112,0.033 0.162,0 0.26,-0.219 0.144,-0.364 -0.237,-0.295 -0.564,-0.523 -0.853,-0.768 l -0.041,-0.036 c 0.191,-0.278 0.373,-0.562 0.563,-0.841 l 0.164,0.15 c 0.057,0.052 0.121,0.074 0.182,0.074 0.227,0 0.427,-0.296 0.211,-0.467 l -0.261,-0.203 c 1.222,-1.819 2.419,-3.657 3.557,-5.529 0.135,-0.222 -0.06,-0.426 -0.26,-0.426"
         style="fill:#bf912b;fill-opacity:1;fill-rule:nonzero;stroke:none;stroke-width:0.1"
         id="path6942"
         inkscape:connector-curvature="0" /><path
         d="m 362.23857,256.02849 c 1.305,-1.101 1.484,-5.17 0.154,-5.63 -0.644,-0.223 -2.209,-0.214 -4.249,-0.512 -2.179,-0.319 -4.851,-0.931 -5.988,-0.666 -2.201,0.512 -7.074,3.133 -6.87,4.515 0.106,0.712 2.085,0.202 4.167,-0.308 1.954,-0.479 3.999,-0.958 4.668,-0.425 0.903,0.72 -3.449,1.746 -3.091,2.974 0.359,1.228 5.246,0.077 6.936,-0.725 0.62,-0.294 4.273,0.777 4.273,0.777"
         style="fill:#f4c279;fill-opacity:1;fill-rule:nonzero;stroke:none;stroke-width:0.1"
         id="path6944"
         inkscape:connector-curvature="0" /><path
         d="m 402.49057,288.08449 c -3.128,-2.747 -12.93,-21.903 -22.263,-25.57 -9.334,-3.667 -18.001,-3.5 -19.001,-5.167 -0.999,-1.666 -1.166,-9.333 0.835,-11.833 1.999,-2.5 20.708,-2.921 28.957,1.542 7.085,3.832 18.187,15.958 20.448,22.291 2.26,6.334 -2.51,24.416 -8.976,18.737"
         style="fill:#fafbfc;fill-opacity:1;fill-rule:nonzero;stroke:none;stroke-width:0.1"
         id="path6946"
         inkscape:connector-curvature="0" /><path
         d="m 441.78657,196.03149 c 0,0 -22.54,-15.831 -50.101,-7.781 l -2.229,15.8 c -1.88,-3.619 -2.79,-9.8 -3.21,-13.909 -2.67,1.069 -5.39,2.389 -8.12,3.979 0,0 1,33.561 12.16,55.231 0,0 -3.5,12.5 -1.66,18.83 1.83,6.33 14.51,22.829 19.5,23.749 5.12,0.94 11.08,-3 14.33,-7 3.25,-4 5.542,-11.994 5.542,-17.874 0,-5.87 -4.292,-21.256 -4.292,-21.256 0,0 15.92,-15.43 18.08,-49.769"
         style="fill:#fafbfc;fill-opacity:1;fill-rule:nonzero;stroke:none;stroke-width:0.1"
         id="path6948"
         inkscape:connector-curvature="0" /><path
         d="m 408.12857,291.30049 c 3.347,0.762 6.989,-1.783 3.492,-8.618 -3.497,-6.835 -15.247,-27.251 -15.914,-30.918 0,0 3.426,37.488 12.422,39.536"
         style="fill:#c6caeb;fill-opacity:1;fill-rule:nonzero;stroke:none;stroke-width:0.1"
         id="path6950"
         inkscape:connector-curvature="0" /><path
         d="m 409.88057,220.81349 18.194,0.989 c 0,0 0.978,-12.006 0.71,-13.884 -0.267,-1.878 -6.434,-5.294 -7.566,-5.259 -1.131,0.036 -9.118,1.492 -10.243,3.385 -1.126,1.895 -1.095,14.769 -1.095,14.769"
         style="fill:#ebeeef;fill-opacity:1;fill-rule:nonzero;stroke:none;stroke-width:0.1"
         id="path6952"
         inkscape:connector-curvature="0" /><path
         d="m 330.23757,254.73249 h 29.353 c 0.103,0 0.205,-0.034 0.288,-0.095 l 20.049,-14.737 c 0.379,-0.279 0.181,-0.88 -0.289,-0.88 h -29.353 c -0.104,0 -0.205,0.033 -0.288,0.094 l -20.049,14.738 c -0.379,0.278 -0.181,0.88 0.289,0.88"
         style="fill:#c6caeb;fill-opacity:1;fill-rule:nonzero;stroke:none;stroke-width:0.1"
         id="path6954"
         inkscape:connector-curvature="0" /><path
         d="m 373.37257,240.55649 h -1.469 l 0.324,0.359 c 0.381,-0.129 0.786,-0.245 1.145,-0.359 m -13.908,0 h -8.269 l -0.232,0.076 -3.489,2.564 11.275,-2.285 0.715,-0.355 m 11.682,0.693 c -0.123,0 -0.257,0.029 -0.377,0.088 -0.264,0.131 -0.37,0.367 -0.233,0.519 0.054,0.06 0.14,0.099 0.24,0.116 0.006,-0.278 0.235,-0.502 0.577,-0.692 -0.062,-0.021 -0.133,-0.031 -0.207,-0.031 m 1.535,1.681 -1.006,0.808 1.087,-0.799 c -0.028,-0.002 -0.054,-0.005 -0.081,-0.009 m -30.415,4.094 -7.432,5.464 c -0.306,0.224 -0.147,0.708 0.232,0.708 h 10.357 l -0.44,-0.859 -2.025,0.015 c -0.006,0 -0.012,0 -0.018,0 -0.479,0 -0.913,-0.197 -1.06,-0.485 l -1.109,-2.167 c -0.148,-0.292 0.03,-0.609 0.43,-0.784 l 1.658,-0.731 -0.593,-1.161 m 0.446,3.131 c -0.055,0 -0.112,0.005 -0.167,0.016 -0.289,0.059 -0.452,0.259 -0.36,0.442 0.076,0.147 0.299,0.243 0.535,0.243 0.055,0 0.111,-0.006 0.167,-0.017 0.29,-0.059 0.453,-0.26 0.36,-0.441 -0.076,-0.148 -0.299,-0.243 -0.535,-0.243"
         style="fill:#b5b8dd;fill-opacity:1;fill-rule:nonzero;stroke:none;stroke-width:0.1"
         id="path6956"
         inkscape:connector-curvature="0" /><path
         d="m 343.13457,244.15949 c -0.458,0.197 -0.817,0.465 -1.05,0.772 l 1.05,-0.772"
         style="fill:#eaecec;fill-opacity:1;fill-rule:nonzero;stroke:none;stroke-width:0.1"
         id="path6958"
         inkscape:connector-curvature="0" /><path
         d="m 347.47457,243.19649 -3.543,0.718 c -0.29,0.059 -0.557,0.142 -0.797,0.245 l -1.05,0.772 c -0.329,0.434 -0.405,0.945 -0.153,1.438 l 0.335,0.655 5.208,-3.828"
         style="fill:#e5e7f6;fill-opacity:1;fill-rule:nonzero;stroke:none;stroke-width:0.1"
         id="path6960"
         inkscape:connector-curvature="0" /><path
         d="m 370.50457,248.81649 -3.117,1.55 c -0.082,0.045 -0.168,0.088 -0.258,0.128 l -4.347,2.162 5.816,-1.179 c 1.63,-0.331 2.536,-1.432 2.01,-2.458 l -0.104,-0.203"
         style="fill:#fafbfc;fill-opacity:1;fill-rule:nonzero;stroke:none;stroke-width:0.1"
         id="path6962"
         inkscape:connector-curvature="0" /><path
         d="m 348.49657,254.73249 h -2.015 c 0.585,0.415 1.432,0.658 2.322,0.658 0.093,0 0.186,-0.002 0.28,-0.008 l -0.587,-0.65"
         style="fill:#eaecec;fill-opacity:1;fill-rule:nonzero;stroke:none;stroke-width:0.1"
         id="path6964"
         inkscape:connector-curvature="0" /><path
         d="m 347.11057,253.19649 h -1.687 l 0.43,0.84 c 0.136,0.265 0.353,0.5 0.628,0.696 h 2.015 l -1.386,-1.536"
         style="fill:#e5e7f6;fill-opacity:1;fill-rule:nonzero;stroke:none;stroke-width:0.1"
         id="path6966"
         inkscape:connector-curvature="0" /><path
         d="m 358.74957,240.91149 -11.275,2.285 -5.208,3.828 0.593,1.161 -1.658,0.731 c -0.4,0.175 -0.578,0.492 -0.43,0.784 l 1.109,2.167 c 0.147,0.288 0.581,0.485 1.06,0.485 0.006,0 0.012,0 0.018,0 l 2.025,-0.015 0.44,0.859 h 1.687 l -2.65,-2.936 c -0.636,-0.704 -0.349,-1.707 0.601,-2.453 l -0.421,-0.822 c -0.518,-1.014 0.367,-2.101 1.978,-2.427 l 8.097,-1.641 4.034,-2.006 m -16.029,9.945 c -0.236,0 -0.459,-0.096 -0.535,-0.243 -0.092,-0.183 0.071,-0.383 0.36,-0.442 0.055,-0.011 0.112,-0.016 0.167,-0.016 0.236,0 0.459,0.095 0.535,0.243 0.093,0.181 -0.07,0.382 -0.36,0.441 -0.056,0.011 -0.112,0.017 -0.167,0.017"
         style="fill:#dfe2f0;fill-opacity:1;fill-rule:nonzero;stroke:none;stroke-width:0.1"
         id="path6968"
         inkscape:connector-curvature="0" /><path
         d="m 367.35057,248.03249 -2.394,-4.681 c -0.519,-1.014 -2.245,-1.572 -3.856,-1.244 l -13.554,2.747 c -1.612,0.326 -2.497,1.413 -1.978,2.426 l 2.394,4.681 c 0.518,1.014 2.245,1.572 3.855,1.244 l 13.556,-2.747 c 1.61,-0.326 2.496,-1.413 1.977,-2.426"
         style="fill:#e73d48;fill-opacity:1;fill-rule:nonzero;stroke:none;stroke-width:0.1"
         id="path6970"
         inkscape:connector-curvature="0" /><path
         d="m 354.71557,242.91749 -8.097,1.641 c -1.611,0.326 -2.496,1.413 -1.978,2.427 l 0.421,0.822 c 0.173,-0.136 0.368,-0.263 0.583,-0.378 l -0.076,-0.149 c -0.519,-1.013 0.366,-2.1 1.978,-2.426 l 5.525,-1.12 1.644,-0.817"
         style="fill:#eaecf4;fill-opacity:1;fill-rule:nonzero;stroke:none;stroke-width:0.1"
         id="path6972"
         inkscape:connector-curvature="0" /><path
         d="m 367.38757,250.36649 -0.258,0.128 c 0.09,-0.04 0.176,-0.083 0.258,-0.128"
         style="fill:#fafbfc;fill-opacity:1;fill-rule:nonzero;stroke:none;stroke-width:0.1"
         id="path6974"
         inkscape:connector-curvature="0" /><path
         d="m 353.07157,243.73449 -5.525,1.12 c -1.612,0.326 -2.497,1.413 -1.978,2.426 l 0.076,0.149 c 0.04,-0.022 0.081,-0.043 0.122,-0.063 l 7.305,-3.632"
         style="fill:#ed838f;fill-opacity:1;fill-rule:nonzero;stroke:none;stroke-width:0.1"
         id="path6976"
         inkscape:connector-curvature="0" /><path
         d="m 356.36357,248.22749 -0.504,-0.985 -4.5,0.912 0.503,0.985 4.501,-0.912"
         style="fill:#fafbfc;fill-opacity:1;fill-rule:nonzero;stroke:none;stroke-width:0.1"
         id="path6978"
         inkscape:connector-curvature="0" /><path
         d="m 353.80457,249.76549 1.564,-0.317 -1.449,-2.833 -1.565,0.318 1.45,2.832"
         style="fill:#fafbfc;fill-opacity:1;fill-rule:nonzero;stroke:none;stroke-width:0.1"
         id="path6980"
         inkscape:connector-curvature="0" /><path
         d="m 365.08757,238.30749 c -0.685,0 -1.43,0.164 -2.104,0.499 l -0.43,0.214 h 3.194 c -0.113,-0.08 -0.171,-0.181 -0.165,-0.309 0.006,-0.118 0.049,-0.237 0.124,-0.357 -0.198,-0.031 -0.406,-0.047 -0.619,-0.047"
         style="fill:#eaecec;fill-opacity:1;fill-rule:nonzero;stroke:none;stroke-width:0.1"
         id="path6982"
         inkscape:connector-curvature="0" /><path
         d="m 372.68357,245.22549 -2.426,1.783 c -0.091,0.194 -0.22,0.385 -0.387,0.568 l 0.634,1.24 1.046,-0.52 c 1.489,-0.74 2.07,-2.033 1.298,-2.889 l -0.165,-0.182"
         style="fill:#fafbfc;fill-opacity:1;fill-rule:nonzero;stroke:none;stroke-width:0.1"
         id="path6984"
         inkscape:connector-curvature="0" /><path
         d="m 365.74757,239.02049 h -3.194 l -3.089,1.536 h 1.038 l 2.274,-0.461 c 0.317,-0.064 0.638,-0.095 0.954,-0.095 0.816,0 1.597,0.204 2.173,0.556 h 6 l -0.427,-0.473 c -0.148,-0.164 -0.414,-0.252 -0.715,-0.252 -0.146,0 -0.299,0.02 -0.452,0.063 l -1.953,0.538 -1.029,-1.141 c -0.735,-0.012 -1.311,-0.081 -1.58,-0.271 m 5.928,4.718 -1.927,1.417 0.323,0.358 c 0.388,0.429 0.43,0.97 0.186,1.495 l 2.426,-1.783 -1.202,-1.331 0.194,-0.156"
         style="fill:#e5e7f6;fill-opacity:1;fill-rule:nonzero;stroke:none;stroke-width:0.1"
         id="path6986"
         inkscape:connector-curvature="0" /><path
         d="m 371.90357,240.55649 h -6 c 0.35,0.214 0.624,0.483 0.783,0.796 l 0.486,0.949 2.576,2.854 1.927,-1.417 1.006,-0.808 c -1.062,-0.124 -1.859,-0.401 -1.903,-0.9 -0.002,-0.02 -0.002,-0.039 -0.002,-0.058 -0.1,-0.017 -0.186,-0.056 -0.24,-0.116 -0.137,-0.152 -0.031,-0.388 0.233,-0.519 0.12,-0.059 0.254,-0.088 0.377,-0.088 0.074,0 0.145,0.01 0.207,0.031 0.246,-0.137 0.552,-0.256 0.874,-0.365 l -0.324,-0.359 m -11.401,0 h -1.038 l -0.715,0.355 1.753,-0.355"
         style="fill:#dfe2f0;fill-opacity:1;fill-rule:nonzero;stroke:none;stroke-width:0.1"
         id="path6988"
         inkscape:connector-curvature="0" /><path
         d="m 363.73057,240.00049 c -0.316,0 -0.637,0.031 -0.954,0.095 l -2.274,0.461 h 1.598 c 0.595,-0.252 1.231,-0.376 1.822,-0.376 0.598,0 1.15,0.127 1.567,0.376 h 0.414 c -0.576,-0.352 -1.357,-0.556 -2.173,-0.556"
         style="fill:#f2f4f9;fill-opacity:1;fill-rule:nonzero;stroke:none;stroke-width:0.1"
         id="path6990"
         inkscape:connector-curvature="0" /><path
         d="m 369.87057,247.57649 c -0.269,0.297 -0.634,0.57 -1.082,0.793 l -0.412,0.205 c 0.196,0.676 -0.199,1.354 -0.989,1.792 l 3.117,-1.55 -0.634,-1.24"
         style="fill:#fafbfc;fill-opacity:1;fill-rule:nonzero;stroke:none;stroke-width:0.1"
         id="path6992"
         inkscape:connector-curvature="0" /><path
         d="m 365.90357,240.55649 h -0.414 c 0.153,0.091 0.288,0.199 0.4,0.323 l 1.283,1.422 -0.486,-0.949 c -0.159,-0.313 -0.433,-0.582 -0.783,-0.796 m -3.803,0 h -1.598 l -1.753,0.355 -4.034,2.006 4.418,-0.896 2.71,-1.347 c 0.084,-0.042 0.17,-0.081 0.257,-0.118"
         style="fill:#f0f1f6;fill-opacity:1;fill-rule:nonzero;stroke:none;stroke-width:0.1"
         id="path6994"
         inkscape:connector-curvature="0" /><path
         d="m 362.78257,252.65649 -0.288,0.058 -0.357,0.262 0.645,-0.32"
         style="fill:#fafbfc;fill-opacity:1;fill-rule:nonzero;stroke:none;stroke-width:0.1"
         id="path6996"
         inkscape:connector-curvature="0" /><path
         d="m 351.12857,255.01749 -1.374,0.279 c -0.223,0.045 -0.448,0.074 -0.671,0.086 l 0.017,0.02 h 2.079 c 0.05,-0.066 0.11,-0.13 0.178,-0.194 -0.083,-0.058 -0.159,-0.121 -0.229,-0.191"
         style="fill:#eaecec;fill-opacity:1;fill-rule:nonzero;stroke:none;stroke-width:0.1"
         id="path6998"
         inkscape:connector-curvature="0" /><path
         d="m 351.17957,255.40249 h -2.079 l 1.129,1.251 c 0.422,0.467 1.162,0.705 1.99,0.705 0.688,0 1.438,-0.165 2.114,-0.501 l 2.1,-1.045 c -1.26,0.379 -2.832,0.702 -3.958,0.702 -0.771,0 -1.333,-0.151 -1.446,-0.538 -0.057,-0.197 0.006,-0.388 0.15,-0.574"
         style="fill:#a19da9;fill-opacity:1;fill-rule:nonzero;stroke:none;stroke-width:0.1"
         id="path7000"
         inkscape:connector-curvature="0" /><path
         d="m 358.60757,254.73249 h -2.616 l -0.872,0.433 c -0.666,0.331 -1.402,0.494 -2.079,0.494 -0.655,0 -1.255,-0.153 -1.683,-0.451 -0.068,0.064 -0.128,0.128 -0.178,0.194 -0.144,0.186 -0.207,0.377 -0.15,0.574 0.113,0.387 0.675,0.538 1.446,0.538 1.126,0 2.698,-0.323 3.958,-0.702 l 2.174,-1.08"
         style="fill:#f6e4c9;fill-opacity:1;fill-rule:nonzero;stroke:none;stroke-width:0.1"
         id="path7002"
         inkscape:connector-curvature="0" /><path
         d="m 362.49457,252.71449 -4.127,0.836 -2.376,1.182 h 2.616 l 3.53,-1.756 0.357,-0.262"
         style="fill:#e5e7f6;fill-opacity:1;fill-rule:nonzero;stroke:none;stroke-width:0.1"
         id="path7004"
         inkscape:connector-curvature="0" /><path
         d="m 367.12957,250.49449 c -0.248,0.11 -0.526,0.199 -0.829,0.26 l -1.574,0.319 -2.232,1.641 0.288,-0.058 4.347,-2.162"
         style="fill:#fafbfc;fill-opacity:1;fill-rule:nonzero;stroke:none;stroke-width:0.1"
         id="path7006"
         inkscape:connector-curvature="0" /><path
         d="m 350.86857,254.73249 h -2.372 l 0.587,0.65 c 0.223,-0.012 0.448,-0.041 0.671,-0.086 l 1.374,-0.279 c -0.019,-0.018 -0.037,-0.038 -0.055,-0.058 l -0.205,-0.227"
         style="fill:#f5f6f6;fill-opacity:1;fill-rule:nonzero;stroke:none;stroke-width:0.1"
         id="path7008"
         inkscape:connector-curvature="0" /><path
         d="m 364.72657,251.07349 -2.323,0.471 -4.036,2.006 4.127,-0.836 2.232,-1.641 m -16.667,2.123 h -0.949 l 1.386,1.536 h 2.372 l -0.778,-0.862 c -0.787,-0.05 -1.519,-0.293 -2.031,-0.674"
         style="fill:#f2f4f9;fill-opacity:1;fill-rule:nonzero;stroke:none;stroke-width:0.1"
         id="path7010"
         inkscape:connector-curvature="0" /><path
         d="m 345.06157,247.80749 c -0.95,0.746 -1.237,1.749 -0.601,2.453 l 2.65,2.936 h 0.949 c -0.251,-0.186 -0.449,-0.406 -0.576,-0.654 l -2.422,-4.735"
         style="fill:#f0f1f6;fill-opacity:1;fill-rule:nonzero;stroke:none;stroke-width:0.1"
         id="path7012"
         inkscape:connector-curvature="0" /><path
         d="m 359.13357,242.02149 -4.418,0.896 -1.644,0.817 4.418,-0.895 1.644,-0.818"
         style="fill:#f4f5f9;fill-opacity:1;fill-rule:nonzero;stroke:none;stroke-width:0.1"
         id="path7014"
         inkscape:connector-curvature="0" /><path
         d="m 349.48257,253.19649 h -1.423 c 0.512,0.381 1.244,0.624 2.031,0.674 l -0.608,-0.674"
         style="fill:#f5f7fa;fill-opacity:1;fill-rule:nonzero;stroke:none;stroke-width:0.1"
         id="path7016"
         inkscape:connector-curvature="0" /><path
         d="m 345.64457,247.42949 c -0.215,0.115 -0.41,0.242 -0.583,0.378 l 2.422,4.735 c 0.127,0.248 0.325,0.468 0.576,0.654 h 1.423 l -0.144,-0.159 c -0.631,-0.231 -1.135,-0.604 -1.376,-1.076 l -0.53,-1.035 -0.542,-0.6 c -0.285,-0.317 -0.384,-0.695 -0.317,-1.081 l -0.929,-1.816"
         style="fill:#f4f5f9;fill-opacity:1;fill-rule:nonzero;stroke:none;stroke-width:0.1"
         id="path7018"
         inkscape:connector-curvature="0" /><path
         d="m 368.37657,248.57449 -0.774,0.385 -0.203,0.149 c -0.232,0.56 -0.859,1.043 -1.746,1.284 l -0.927,0.681 1.574,-0.319 c 0.303,-0.061 0.581,-0.15 0.829,-0.26 l 0.258,-0.128 c 0.79,-0.438 1.185,-1.116 0.989,-1.792"
         style="fill:#fafbfc;fill-opacity:1;fill-rule:nonzero;stroke:none;stroke-width:0.1"
         id="path7020"
         inkscape:connector-curvature="0" /><path
         d="m 367.60257,248.95949 -0.179,0.089 c -0.008,0.02 -0.015,0.04 -0.024,0.06 l 0.203,-0.149 m -1.949,1.433 c -0.091,0.025 -0.184,0.047 -0.28,0.066 l -1.327,0.269 -1.643,0.817 2.323,-0.471 0.927,-0.681"
         style="fill:#f5f7fa;fill-opacity:1;fill-rule:nonzero;stroke:none;stroke-width:0.1"
         id="path7022"
         inkscape:connector-curvature="0" /><path
         d="m 357.48957,242.83949 -4.418,0.895 -7.305,3.632 c -0.041,0.02 -0.082,0.041 -0.122,0.063 l 0.929,1.816 c 0.11,-0.646 0.68,-1.318 1.601,-1.775 l 9.315,-4.631 m 9.934,6.209 -3.377,1.679 1.327,-0.269 c 0.096,-0.019 0.189,-0.041 0.28,-0.066 0.887,-0.241 1.514,-0.724 1.746,-1.284 0.009,-0.02 0.016,-0.04 0.024,-0.06 m -19.991,1.878 0.53,1.035 c 0.241,0.472 0.745,0.845 1.376,1.076 l -1.906,-2.111"
         style="fill:#f4cbd0;fill-opacity:1;fill-rule:nonzero;stroke:none;stroke-width:0.1"
         id="path7024"
         inkscape:connector-curvature="0" /><path
         d="m 347.86357,250.37149 3.522,3.903 c 0.763,0.845 2.575,0.937 4.046,0.206 l 12.385,-6.157 c 1.472,-0.732 2.046,-2.011 1.282,-2.856 l -3.521,-3.902 c -0.764,-0.846 -2.575,-0.938 -4.047,-0.206 l -12.385,6.157 c -1.471,0.732 -2.046,2.011 -1.282,2.855"
         style="fill:#e73d48;fill-opacity:1;fill-rule:nonzero;stroke:none;stroke-width:0.1"
         id="path7026"
         inkscape:connector-curvature="0" /><path
         d="m 370.25757,247.00849 -0.492,0.361 0.105,0.207 c 0.167,-0.183 0.296,-0.374 0.387,-0.568"
         style="fill:#fafbfc;fill-opacity:1;fill-rule:nonzero;stroke:none;stroke-width:0.1"
         id="path7028"
         inkscape:connector-curvature="0" /><path
         d="m 369.74857,245.15549 -0.565,0.415 c 0.242,0.322 0.306,0.698 0.213,1.078 l 0.369,0.721 0.492,-0.361 c 0.244,-0.525 0.202,-1.066 -0.186,-1.495 l -0.323,-0.358"
         style="fill:#edeff8;fill-opacity:1;fill-rule:nonzero;stroke:none;stroke-width:0.1"
         id="path7030"
         inkscape:connector-curvature="0" /><path
         d="m 367.17257,242.30149 1.218,2.38 0.708,0.786 c 0.031,0.034 0.059,0.068 0.085,0.103 l 0.565,-0.415 -2.576,-2.854"
         style="fill:#eaecf4;fill-opacity:1;fill-rule:nonzero;stroke:none;stroke-width:0.1"
         id="path7032"
         inkscape:connector-curvature="0" /><path
         d="m 363.92257,240.18049 c -0.591,0 -1.227,0.124 -1.822,0.376 h 3.389 c -0.417,-0.249 -0.969,-0.376 -1.567,-0.376"
         style="fill:#f5f7fa;fill-opacity:1;fill-rule:nonzero;stroke:none;stroke-width:0.1"
         id="path7034"
         inkscape:connector-curvature="0" /><path
         d="m 369.76557,247.36949 -1.441,1.059 c 0.021,0.049 0.038,0.098 0.052,0.146 l 0.412,-0.205 c 0.448,-0.223 0.813,-0.496 1.082,-0.793 l -0.105,-0.207"
         style="fill:#fafbfc;fill-opacity:1;fill-rule:nonzero;stroke:none;stroke-width:0.1"
         id="path7036"
         inkscape:connector-curvature="0" /><path
         d="m 369.39657,246.64849 c -0.129,0.526 -0.555,1.061 -1.223,1.476 l 0.104,0.203 c 0.017,0.034 0.033,0.068 0.047,0.101 l 1.441,-1.059 -0.369,-0.721"
         style="fill:#f5f7fa;fill-opacity:1;fill-rule:nonzero;stroke:none;stroke-width:0.1"
         id="path7038"
         inkscape:connector-curvature="0" /><path
         d="m 365.48957,240.55649 h -3.389 c -0.087,0.037 -0.173,0.076 -0.257,0.118 l -2.71,1.347 1.797,-0.364 0.6,-0.298 c 0.667,-0.332 1.403,-0.494 2.08,-0.494 0.818,0 1.549,0.237 1.967,0.7 l 2.813,3.116 -1.218,-2.38 -1.283,-1.422 c -0.112,-0.124 -0.247,-0.232 -0.4,-0.323"
         style="fill:#f4f5f8;fill-opacity:1;fill-rule:nonzero;stroke:none;stroke-width:0.1"
         id="path7040"
         inkscape:connector-curvature="0" /><path
         d="m 351.76857,254.88849 -0.64,0.129 c 0.07,0.07 0.146,0.133 0.229,0.191 0.117,-0.109 0.257,-0.216 0.411,-0.32"
         style="fill:#f0f2f3;fill-opacity:1;fill-rule:nonzero;stroke:none;stroke-width:0.1"
         id="path7042"
         inkscape:connector-curvature="0" /><path
         d="m 355.99157,254.73249 h -1.172 c -0.489,0.162 -0.993,0.241 -1.467,0.241 -0.409,0 -0.797,-0.059 -1.135,-0.176 l -0.449,0.091 c -0.154,0.104 -0.294,0.211 -0.411,0.32 0.428,0.298 1.028,0.451 1.683,0.451 0.677,0 1.413,-0.163 2.079,-0.494 l 0.872,-0.433"
         style="fill:#f7eede;fill-opacity:1;fill-rule:nonzero;stroke:none;stroke-width:0.1"
         id="path7044"
         inkscape:connector-curvature="0" /><path
         d="m 358.36757,253.55049 -1.8,0.365 -1.136,0.565 c -0.199,0.099 -0.404,0.183 -0.612,0.252 h 1.172 l 2.376,-1.182"
         style="fill:#edeff8;fill-opacity:1;fill-rule:nonzero;stroke:none;stroke-width:0.1"
         id="path7046"
         inkscape:connector-curvature="0" /><path
         d="m 352.01157,254.73249 h -1.143 l 0.205,0.227 c 0.018,0.02 0.036,0.04 0.055,0.058 l 0.64,-0.129 c 0.078,-0.053 0.159,-0.105 0.243,-0.156"
         style="fill:#f6f7f8;fill-opacity:1;fill-rule:nonzero;stroke:none;stroke-width:0.1"
         id="path7048"
         inkscape:connector-curvature="0" /><path
         d="m 352.04957,254.73249 h -0.038 c -0.084,0.051 -0.165,0.103 -0.243,0.156 l 0.449,-0.091 c -0.057,-0.02 -0.113,-0.042 -0.168,-0.065"
         style="fill:#faf6f1;fill-opacity:1;fill-rule:nonzero;stroke:none;stroke-width:0.1"
         id="path7050"
         inkscape:connector-curvature="0" /><path
         d="m 362.40357,251.54449 -1.8,0.365 -0.132,0.065 -1.559,1.146 -0.232,0.076 h -0.667 l -1.446,0.719 1.8,-0.365 4.036,-2.006 m -11.407,2.299 c -0.2,0.025 -0.4,0.037 -0.598,0.037 -0.103,0 -0.206,-0.003 -0.308,-0.01 l 0.778,0.862 h 1.143 0.038 c -0.264,-0.114 -0.491,-0.267 -0.664,-0.458 l -0.389,-0.431"
         style="fill:#f5f7fa;fill-opacity:1;fill-rule:nonzero;stroke:none;stroke-width:0.1"
         id="path7052"
         inkscape:connector-curvature="0" /><path
         d="m 360.47157,251.97449 -2.458,1.222 h 0.667 l 0.232,-0.076 1.559,-1.146"
         style="fill:#f4f5f8;fill-opacity:1;fill-rule:nonzero;stroke:none;stroke-width:0.1"
         id="path7054"
         inkscape:connector-curvature="0" /><path
         d="m 360.93057,241.65749 -1.797,0.364 -1.644,0.818 1.797,-0.364 1.644,-0.818"
         style="fill:#f6f7fa;fill-opacity:1;fill-rule:nonzero;stroke:none;stroke-width:0.1"
         id="path7056"
         inkscape:connector-curvature="0" /><path
         d="m 368.32457,248.42849 -0.722,0.531 0.774,-0.385 c -0.014,-0.048 -0.031,-0.097 -0.052,-0.146"
         style="fill:#fafbfc;fill-opacity:1;fill-rule:nonzero;stroke:none;stroke-width:0.1"
         id="path7058"
         inkscape:connector-curvature="0" /><path
         d="m 368.17357,248.12449 c -0.112,0.07 -0.231,0.136 -0.357,0.199 l -0.325,0.161 c 0.022,0.192 -0.002,0.382 -0.068,0.564 l 0.179,-0.089 0.722,-0.531 c -0.014,-0.033 -0.03,-0.067 -0.047,-0.101 l -0.104,-0.203"
         style="fill:#f7f9fb;fill-opacity:1;fill-rule:nonzero;stroke:none;stroke-width:0.1"
         id="path7060"
         inkscape:connector-curvature="0" /><path
         d="m 346.57357,249.24549 c -0.067,0.386 0.032,0.764 0.317,1.081 l 0.542,0.6 -0.859,-1.681"
         style="fill:#f6f7fa;fill-opacity:1;fill-rule:nonzero;stroke:none;stroke-width:0.1"
         id="path7062"
         inkscape:connector-curvature="0" /><path
         d="m 364.04657,250.72749 -1.8,0.365 -1.643,0.817 1.8,-0.365 1.643,-0.817 m -14.152,2.469 h -0.412 l 0.608,0.674 c 0.102,0.007 0.205,0.01 0.308,0.01 0.198,0 0.398,-0.012 0.598,-0.037 l -0.505,-0.559 c -0.204,-0.017 -0.404,-0.046 -0.597,-0.088"
         style="fill:#f7f9fb;fill-opacity:1;fill-rule:nonzero;stroke:none;stroke-width:0.1"
         id="path7064"
         inkscape:connector-curvature="0" /><path
         d="m 349.33857,253.03749 0.144,0.159 h 0.412 c -0.193,-0.041 -0.38,-0.094 -0.556,-0.159"
         style="fill:#f6f7fa;fill-opacity:1;fill-rule:nonzero;stroke:none;stroke-width:0.1"
         id="path7066"
         inkscape:connector-curvature="0" /><path
         d="m 359.28657,242.47549 -1.797,0.364 -9.315,4.631 c -0.921,0.457 -1.491,1.129 -1.601,1.775 l 0.859,1.681 1.906,2.111 c 0.176,0.065 0.363,0.118 0.556,0.159 0.193,0.042 0.393,0.071 0.597,0.088 l -2.628,-2.913 c -0.764,-0.844 -0.189,-2.123 1.282,-2.855 l 10.141,-5.041 m 8.205,6.009 -5.245,2.608 1.8,-0.365 3.377,-1.679 c 0.066,-0.182 0.09,-0.372 0.068,-0.564"
         style="fill:#f6dfe2;fill-opacity:1;fill-rule:nonzero;stroke:none;stroke-width:0.1"
         id="path7068"
         inkscape:connector-curvature="0" /><path
         d="m 363.61057,240.86549 c -0.677,0 -1.413,0.162 -2.08,0.494 l -0.6,0.298 -1.644,0.818 -10.141,5.041 c -1.471,0.732 -2.046,2.011 -1.282,2.855 l 2.628,2.913 0.505,0.559 0.389,0.431 c 0.173,0.191 0.4,0.344 0.664,0.458 0.055,0.023 0.111,0.045 0.168,0.065 0.338,0.117 0.726,0.176 1.135,0.176 0.474,0 0.978,-0.079 1.467,-0.241 0.208,-0.069 0.413,-0.153 0.612,-0.252 l 1.136,-0.565 1.446,-0.719 2.458,-1.222 0.132,-0.065 1.643,-0.817 5.245,-2.608 0.325,-0.161 c 0.126,-0.063 0.245,-0.129 0.357,-0.199 0.668,-0.415 1.094,-0.95 1.223,-1.476 0.093,-0.38 0.029,-0.756 -0.213,-1.078 -0.026,-0.035 -0.054,-0.069 -0.085,-0.103 l -0.708,-0.786 -2.813,-3.116 c -0.418,-0.463 -1.149,-0.7 -1.967,-0.7"
         style="fill:#ed838f;fill-opacity:1;fill-rule:nonzero;stroke:none;stroke-width:0.1"
         id="path7070"
         inkscape:connector-curvature="0" /><path
         d="m 358.42757,247.34349 0.74,0.821 4.112,-2.044 -0.741,-0.821 -4.111,2.044"
         style="fill:#fafbfc;fill-opacity:1;fill-rule:nonzero;stroke:none;stroke-width:0.1"
         id="path7072"
         inkscape:connector-curvature="0" /><path
         d="m 360.50157,245.19649 -1.429,0.709 2.132,2.363 1.429,-0.71 -2.132,-2.362"
         style="fill:#fafbfc;fill-opacity:1;fill-rule:nonzero;stroke:none;stroke-width:0.1"
         id="path7074"
         inkscape:connector-curvature="0" /><path
         d="m 393.75657,254.00249 c 0.055,0.031 0.11,0.061 0.165,0.092 0,-0.003 0,-0.005 0,-0.008 -0.055,-0.028 -0.11,-0.056 -0.165,-0.084 m -0.657,0.341 c 0.119,4.51 1,9.064 1.392,13.506 0.139,1.57 0.243,3.147 0.265,4.724 0.011,0.898 -0.193,2.076 0.099,2.927 0.55,1.6 2.515,3.043 3.89,4.054 -0.684,0.252 -0.844,0.318 -1.538,0.622 -0.153,0.067 -0.197,0.301 -0.113,0.434 2.187,3.472 4.903,7.043 8.175,9.648 0.014,-0.235 0.026,-0.462 0.038,-0.68 v 0 c 0.003,-0.065 0.006,-0.129 0.009,-0.192 -0.041,-0.049 -0.083,-0.098 -0.124,-0.148 -1.153,-1.078 -2.308,-2.149 -3.363,-3.343 -0.971,-1.097 -1.884,-2.244 -2.734,-3.436 -0.738,-1.036 -1.511,-1.712 -0.138,-2.514 l 0.091,-0.206 c 0.017,0.004 0.034,0.006 0.051,0.006 0.186,0 0.337,-0.257 0.173,-0.409 -0.791,-0.738 -1.665,-1.449 -2.367,-2.275 -1.271,-1.497 -1.472,-2.657 -1.491,-4.488 -0.026,-2.527 -0.272,-5.045 -0.55,-7.555 -0.38,-3.424 -0.699,-6.801 -0.901,-10.203 -0.287,-0.161 -0.575,-0.318 -0.864,-0.472"
         style="fill:#cfccd3;fill-opacity:1;fill-rule:nonzero;stroke:none;stroke-width:0.1"
         id="path7076"
         inkscape:connector-curvature="0" /><path
         d="m 405.19257,289.23849 c 0.041,0.05 0.083,0.099 0.124,0.148 0,-0.01 10e-4,-0.02 10e-4,-0.03 -0.041,-0.039 -0.083,-0.079 -0.125,-0.118"
         style="fill:#a2a4ca;fill-opacity:1;fill-rule:nonzero;stroke:none;stroke-width:0.1"
         id="path7078"
         inkscape:connector-curvature="0" /><path
         d="m 409.93657,274.53749 c -0.103,0.123 -0.201,0.242 -0.291,0.357 -0.031,-0.024 -0.064,-0.035 -0.096,-0.035 -0.11,0 -0.195,0.13 -0.103,0.241 l 0.025,0.027 -0.04,0.054 c -0.141,0.203 0.04,0.383 0.233,0.383 0.054,0 0.109,-0.014 0.158,-0.046 0.3,0.333 0.626,0.663 0.965,0.993 -0.143,-0.335 -0.288,-0.675 -0.436,-1.018 -0.096,-0.082 -0.192,-0.164 -0.289,-0.246 0.039,-0.046 0.079,-0.094 0.121,-0.142 -0.082,-0.189 -0.164,-0.378 -0.247,-0.568 m 5.164,11.273 c -0.59,1.665 -1.542,3.352 -2.081,4.657 -0.053,0.129 0.068,0.227 0.185,0.227 0.06,0 0.118,-0.026 0.151,-0.086 0.783,-1.436 1.458,-2.917 2.066,-4.433 -0.108,-0.112 -0.215,-0.234 -0.321,-0.365"
         style="fill:#cfccd3;fill-opacity:1;fill-rule:nonzero;stroke:none;stroke-width:0.1"
         id="path7080"
         inkscape:connector-curvature="0" /><path
         d="m 388.37157,259.18949 c -0.054,0.363 -0.092,0.729 -0.114,1.096 0.034,-0.366 0.072,-0.732 0.114,-1.096"
         style="fill:#cfccd3;fill-opacity:1;fill-rule:nonzero;stroke:none;stroke-width:0.1"
         id="path7082"
         inkscape:connector-curvature="0" /><path
         d="m 390.78857,253.83249 c -0.042,0 -0.084,0.017 -0.116,0.057 -1.309,1.63 -2.022,3.428 -2.301,5.3 -0.042,0.364 -0.08,0.73 -0.114,1.096 -0.272,4.411 1.639,9.117 3.718,12.907 0.04,0.074 0.112,0.106 0.185,0.106 0.144,0 0.293,-0.122 0.229,-0.281 -2.496,-6.119 -5.755,-12.747 -1.429,-18.905 0.09,-0.129 -0.044,-0.28 -0.172,-0.28"
         style="fill:#cfccd3;fill-opacity:1;fill-rule:nonzero;stroke:none;stroke-width:0.1"
         id="path7084"
         inkscape:connector-curvature="0" /><path
         d="m 407.26457,322.34749 c -0.791,1.576 5.459,12.417 12.126,13.667 6.667,1.25 12.083,-6.5 15.333,-6.834 3.25,-0.333 17.464,-4.672 16.888,-17.718 -0.471,-10.698 -17.388,-9.019 -22.888,3.218 -3.611,8.034 -6.666,12.167 -10.75,12.25 -2.958,0.061 -7.416,-5.112 -8.166,-5.306 -0.75,-0.194 -1.885,-0.589 -2.543,0.723"
         style="fill:#261f31;fill-opacity:1;fill-rule:nonzero;stroke:none;stroke-width:0.1"
         id="path7086"
         inkscape:connector-curvature="0" /><path
         d="m 404.67857,321.62549 c 0,-1.488 1.863,-2.695 4.161,-2.695 2.298,0 4.16,1.207 4.16,2.695 0,1.489 -1.862,2.696 -4.16,2.696 -2.298,0 -4.161,-1.207 -4.161,-2.696"
         style="fill:#e73d48;fill-opacity:1;fill-rule:nonzero;stroke:none;stroke-width:0.1"
         id="path7088"
         inkscape:connector-curvature="0" /><path
         d="m 408.77657,300.11749 c 7.841,0.074 10.448,3.515 11.447,9.797 0.999,6.281 -0.542,14.106 -12.317,13.199 0,0 -5.011,2.67 -8.87,0.07 -5.105,-3.44 -11.313,-23.266 9.74,-23.066"
         style="fill:#261f31;fill-opacity:1;fill-rule:nonzero;stroke:none;stroke-width:0.1"
         id="path7090"
         inkscape:connector-curvature="0" /><path
         d="m 404.87057,282.69849 c 1.805,-0.251 5.453,2.561 6.225,4.613 0.38,1.004 0.501,4.067 0.521,6.917 0.021,2.951 -0.058,5.689 -0.058,5.689 l -6.923,-1.386 c 0,0 0.5,-5.602 0.672,-8.953 0.063,-1.283 0.079,-2.228 -0.003,-2.428 -0.285,-0.72 -2.241,-4.192 -0.434,-4.452"
         style="fill:#f4c279;fill-opacity:1;fill-rule:nonzero;stroke:none;stroke-width:0.1"
         id="path7092"
         inkscape:connector-curvature="0" /><path
         d="m 405.30757,289.57849 v 0 c -0.172,3.351 -0.672,8.953 -0.672,8.953 l 6.923,1.386 v 0 c 0,-0.009 0.062,-2.158 0.061,-4.698 0,-0.325 -0.001,-0.657 -0.003,-0.991 v 0 c -1.266,-2.028 -3.33,-4.298 -6.309,-4.65"
         style="fill:#eab56d;fill-opacity:1;fill-rule:nonzero;stroke:none;stroke-width:0.1"
         id="path7094"
         inkscape:connector-curvature="0" /><path
         d="m 414.32357,306.13349 c -0.92,-5.702 -5.18,-10.069 -9.65,-10.069 -4.47,0 -8.72,4.367 -9.64,10.069 -1.19,7.406 2.04,14.901 9.64,14.901 7.61,0 10.84,-7.495 9.65,-14.901"
         style="fill:#f4c279;fill-opacity:1;fill-rule:nonzero;stroke:none;stroke-width:0.1"
         id="path7096"
         inkscape:connector-curvature="0" /><path
         d="m 413.04357,306.18049 c -2.799,0 -3.087,6.813 -3.087,6.813 0,0 -6.712,-1.563 -9.837,4.937 0,0 -2.934,-5.665 -5.24,-5.67 0,0 -1.197,10.502 11.115,8.774 12.313,-1.729 9.25,-13.479 8.938,-14.166 -0.313,-0.688 -1.889,-0.688 -1.889,-0.688"
         style="fill:#261f31;fill-opacity:1;fill-rule:nonzero;stroke:none;stroke-width:0.1"
         id="path7098"
         inkscape:connector-curvature="0" /><path
         d="m 412.07957,307.38249 c 0,0 3.929,1.735 4.979,-0.854 1.052,-2.59 -2.511,-4.494 -5.179,-2.515 l 0.2,3.369"
         style="fill:#f4c279;fill-opacity:1;fill-rule:nonzero;stroke:none;stroke-width:0.1"
         id="path7100"
         inkscape:connector-curvature="0" /><path
         d="m 416.14557,305.90549 c -0.578,0.272 -1.21,0.482 -1.752,0.354 -0.536,-0.114 -0.898,-0.592 -1.127,-1.146 l -0.268,0.319 c 0.483,0.064 0.954,0.029 1.404,-0.156 0.454,-0.166 0.805,-0.593 0.859,-1.04 -0.118,0.192 -0.238,0.37 -0.41,0.489 -0.171,0.114 -0.352,0.201 -0.549,0.249 -0.393,0.085 -0.828,0.064 -1.213,-0.009 l -0.419,-0.079 0.151,0.399 c 0.12,0.317 0.278,0.639 0.531,0.903 0.246,0.269 0.603,0.464 0.972,0.501 0.37,0.043 0.721,-0.06 1.026,-0.196 0.305,-0.145 0.576,-0.346 0.795,-0.588"
         style="fill:#dca45d;fill-opacity:1;fill-rule:nonzero;stroke:none;stroke-width:0.1"
         id="path7102"
         inkscape:connector-curvature="0" /><path
         d="m 381.76257,244.26649 c 1.495,-0.824 2.463,-4.78 1.249,-5.491 -0.588,-0.345 -2.126,-0.641 -4.068,-1.331 -2.075,-0.738 -4.576,-1.858 -5.743,-1.821 -2.259,0.074 -7.55,1.694 -7.618,3.088 -0.035,0.703 1.911,0.611 3.997,0.518 2.054,-0.091 4.245,-0.182 4.811,0.487 0.746,0.882 -3.724,1.039 -3.612,2.314 0.111,1.275 5.13,1.098 6.943,0.642 0.667,-0.168 4.041,1.594 4.041,1.594"
         style="fill:#f4c279;fill-opacity:1;fill-rule:nonzero;stroke:none;stroke-width:0.1"
         id="path7104"
         inkscape:connector-curvature="0" /><path
         d="m 415.01757,285.70549 c -2.553,-3.288 -8.56,-23.951 -17.034,-29.314 -8.472,-5.363 -17.014,-6.837 -17.681,-8.662 -0.667,-1.826 0.617,-9.386 3.052,-11.463 2.437,-2.078 20.888,1.042 28.147,6.983 6.233,5.102 14.846,19.106 15.869,25.752 1.024,6.647 -7.076,23.502 -12.353,16.704"
         style="fill:#fafbfc;fill-opacity:1;fill-rule:nonzero;stroke:none;stroke-width:0.1"
         id="path7106"
         inkscape:connector-curvature="0" /><path
         d="m 380.09857,243.45549 c -0.051,0.214 -0.1,0.421 -0.146,0.621 0.108,0.013 0.214,0.026 0.321,0.039 0.017,-0.192 0.033,-0.379 0.045,-0.559 -0.072,-0.033 -0.146,-0.067 -0.22,-0.101"
         style="fill:#abaab0;fill-opacity:1;fill-rule:nonzero;stroke:none;stroke-width:0.1"
         id="path7108"
         inkscape:connector-curvature="0" /><path
         d="m 379.95257,244.07649 c -0.517,2.283 -0.561,3.657 1.789,4.874 2.536,1.315 5.171,2.421 7.762,3.619 0.036,-0.164 0.071,-0.322 0.106,-0.475 -5.007,-2.112 -8.868,-3.162 -9.307,-4.365 -0.216,-0.591 -0.228,-1.78 -0.062,-3.19 0.01,-0.143 0.021,-0.284 0.033,-0.424 -0.107,-0.013 -0.213,-0.026 -0.321,-0.039"
         style="fill:#cfccd3;fill-opacity:1;fill-rule:nonzero;stroke:none;stroke-width:0.1"
         id="path7110"
         inkscape:connector-curvature="0" /><path
         d="m 389.60957,252.09449 c -0.035,0.153 -0.07,0.311 -0.106,0.475 1.132,0.523 2.256,1.064 3.36,1.648 0.079,0.042 0.158,0.084 0.236,0.126 -0.006,-0.225 -0.01,-0.449 -0.012,-0.673 -1.2,-0.587 -2.367,-1.107 -3.478,-1.576 m 4.312,2 c 0.014,0.24 0.027,0.481 0.042,0.721 0.754,0.422 1.5,0.866 2.229,1.336 -0.033,-0.268 -0.064,-0.525 -0.094,-0.773 -0.713,-0.45 -1.439,-0.876 -2.177,-1.284 m 3.666,2.278 c 0.176,0.364 0.361,0.742 0.555,1.133 1.416,1.062 2.734,2.246 3.893,3.587 1.873,2.169 3.175,4.681 4.46,7.207 0.018,0.959 0.105,1.956 0.446,2.853 0.037,0.096 0.114,0.139 0.189,0.139 0.113,0 0.222,-0.094 0.195,-0.246 -0.112,-0.625 -0.251,-1.242 -0.379,-1.862 0.389,0.762 0.78,1.522 1.193,2.271 0.02,0.036 0.053,0.051 0.087,0.051 0.065,0 0.133,-0.057 0.106,-0.132 -0.246,-0.679 -0.507,-1.351 -0.785,-2.014 -1.37,-2.785 -2.884,-5.514 -4.531,-7.826 -1.491,-1.885 -3.224,-3.582 -5.24,-5.027 -0.062,-0.045 -0.125,-0.09 -0.189,-0.134"
         style="fill:#cfccd3;fill-opacity:1;fill-rule:nonzero;stroke:none;stroke-width:0.1"
         id="path7112"
         inkscape:connector-curvature="0" /><path
         d="m 396.09857,255.37849 c 0.03,0.248 0.061,0.505 0.094,0.773 0.666,0.429 1.318,0.879 1.95,1.354 -0.194,-0.391 -0.379,-0.769 -0.555,-1.133 -0.488,-0.345 -0.985,-0.675 -1.489,-0.994"
         style="fill:#a2a4ca;fill-opacity:1;fill-rule:nonzero;stroke:none;stroke-width:0.1"
         id="path7114"
         inkscape:connector-curvature="0" /><path
         d="m 393.08757,253.67049 c 0.002,0.224 0.006,0.448 0.012,0.673 0.289,0.154 0.577,0.311 0.864,0.472 -0.015,-0.24 -0.028,-0.481 -0.042,-0.721 -0.055,-0.031 -0.11,-0.061 -0.165,-0.092 -0.224,-0.113 -0.447,-0.223 -0.669,-0.332"
         style="fill:#aaa5b0;fill-opacity:1;fill-rule:nonzero;stroke:none;stroke-width:0.1"
         id="path7116"
         inkscape:connector-curvature="0" /><path
         d="m 380.22157,243.28849 c -0.044,0 -0.088,0.024 -0.101,0.075 -0.007,0.03 -0.015,0.061 -0.022,0.092 0.074,0.034 0.148,0.068 0.22,0.101 0.004,-0.056 0.007,-0.111 0.01,-0.165 0.003,-0.067 -0.052,-0.103 -0.107,-0.103"
         style="fill:#c99f67;fill-opacity:1;fill-rule:nonzero;stroke:none;stroke-width:0.1"
         id="path7118"
         inkscape:connector-curvature="0" /><path
         d="m 380.24057,244.53949 c -0.166,1.41 -0.154,2.599 0.062,3.19 0.439,1.203 4.3,2.253 9.307,4.365 1.111,0.469 2.278,0.989 3.478,1.576 0.222,0.109 0.445,0.219 0.669,0.332 -1.833,-1.004 -3.728,-1.899 -5.627,-2.771 -1.739,-0.798 -3.493,-1.563 -5.219,-2.389 -1.497,-0.718 -2.273,-0.847 -2.643,-2.958 -0.072,-0.413 -0.06,-0.881 -0.027,-1.345 m 22.776,16.994 c 1.647,2.312 3.161,5.041 4.531,7.826 -1.182,-2.817 -2.667,-5.469 -4.531,-7.826"
         style="fill:#cfccd3;fill-opacity:1;fill-rule:nonzero;stroke:none;stroke-width:0.1"
         id="path7120"
         inkscape:connector-curvature="0" /><path
         d="m 384.73157,235.27049 c -0.224,0.016 -0.448,0.036 -0.67,0.06 -0.141,0.015 -0.138,0.2 0,0.219 0.263,0.035 0.526,0.07 0.788,0.106 -0.039,-0.127 -0.079,-0.257 -0.118,-0.385"
         style="fill:#abaab0;fill-opacity:1;fill-rule:nonzero;stroke:none;stroke-width:0.1"
         id="path7122"
         inkscape:connector-curvature="0" /><path
         d="m 389.42957,205.60849 c -0.038,0 -0.074,0.025 -0.07,0.075 0.724,10.174 1.968,20.526 4.102,30.513 -2.422,-0.551 -4.942,-0.972 -7.375,-0.972 -0.455,0 -0.907,0.015 -1.355,0.046 0.039,0.128 0.079,0.258 0.118,0.385 0.108,0.015 0.217,0.03 0.325,0.045 0.464,-0.052 0.995,-0.078 1.581,-0.078 2.516,0 6.061,0.47 9.776,1.333 -0.887,-0.236 -1.802,-0.469 -2.731,-0.685 -1.466,-10.198 -3.041,-20.354 -4.285,-30.587 -0.005,-0.049 -0.047,-0.075 -0.086,-0.075 m 21.972,37.56 c 0.033,0.027 0.067,0.054 0.1,0.081 4.618,3.78 10.542,12.446 13.718,19.386 0.069,-0.014 0.128,-0.089 0.086,-0.173 -0.437,-0.858 -0.896,-1.71 -1.358,-2.559 0.113,0.127 0.229,0.251 0.338,0.376 0.291,0.336 0.567,0.68 0.912,0.964 0.031,0.026 0.068,0.037 0.105,0.037 0.112,0 0.22,-0.107 0.14,-0.226 -0.24,-0.357 -0.536,-0.655 -0.832,-0.966 -0.288,-0.303 -0.557,-0.644 -0.899,-0.886 l -0.131,0.012 c -1.741,-3.148 -3.654,-6.22 -5.728,-9.14 -1.905,-2.684 -3.863,-5.065 -6.451,-6.906"
         style="fill:#cfccd3;fill-opacity:1;fill-rule:nonzero;stroke:none;stroke-width:0.1"
         id="path7124"
         inkscape:connector-curvature="0" /><path
         d="m 386.75557,235.62249 c -0.586,0 -1.117,0.026 -1.581,0.078 8.323,1.149 16.231,2.734 23.833,6.612 7.814,3.985 11.644,13.162 16.094,20.268 0.026,0.04 0.061,0.057 0.096,0.057 0.008,0 0.015,-0.001 0.022,-0.002 -3.176,-6.94 -9.1,-15.606 -13.718,-19.386 -0.033,-0.027 -0.067,-0.054 -0.1,-0.081 -0.665,-0.473 -1.372,-0.911 -2.131,-1.308 -3.89,-2.042 -7.999,-3.632 -12.242,-4.772 -0.165,-0.044 -0.331,-0.089 -0.497,-0.133 -3.715,-0.863 -7.26,-1.333 -9.776,-1.333"
         style="fill:#cfccd3;fill-opacity:1;fill-rule:nonzero;stroke:none;stroke-width:0.1"
         id="path7126"
         inkscape:connector-curvature="0" /><path
         d="m 394.45457,218.37549 c -1.254,0 -1.252,1.946 0,1.946 1.254,0 1.252,-1.946 0,-1.946"
         style="fill:#cfccd3;fill-opacity:1;fill-rule:nonzero;stroke:none;stroke-width:0.1"
         id="path7128"
         inkscape:connector-curvature="0" /><path
         d="m 393.51457,210.00049 c -1.253,0 -1.251,1.946 0,1.946 1.254,0 1.252,-1.946 0,-1.946"
         style="fill:#cfccd3;fill-opacity:1;fill-rule:nonzero;stroke:none;stroke-width:0.1"
         id="path7130"
         inkscape:connector-curvature="0" /><path
         d="m 395.37257,226.18249 c -0.098,0 -0.197,0.013 -0.304,0.038 -0.267,0.061 -0.515,0.309 -0.575,0.575 -0.053,0.229 -0.056,0.424 0.02,0.646 0.147,0.438 0.552,0.714 0.966,0.714 0.234,0 0.47,-0.087 0.665,-0.283 0.542,-0.543 0.254,-1.401 -0.43,-1.632 -0.119,-0.041 -0.23,-0.058 -0.342,-0.058"
         style="fill:#cfccd3;fill-opacity:1;fill-rule:nonzero;stroke:none;stroke-width:0.1"
         id="path7132"
         inkscape:connector-curvature="0" /><path
         d="m 396.76657,234.57649 c -0.408,0 -0.842,0.279 -0.927,0.698 l -0.017,0.076 c -0.075,0.333 0.01,0.67 0.256,0.911 0.182,0.178 0.427,0.26 0.673,0.26 0.512,0 1.028,-0.357 0.979,-0.944 l -0.004,-0.048 c -0.041,-0.49 -0.337,-0.87 -0.832,-0.944 -0.042,-0.006 -0.085,-0.009 -0.128,-0.009"
         style="fill:#cfccd3;fill-opacity:1;fill-rule:nonzero;stroke:none;stroke-width:0.1"
         id="path7134"
         inkscape:connector-curvature="0" /></g></g></svg>