<?xml version="1.0" encoding="UTF-8" standalone="no"?>
<!-- Created with Inkscape (http://www.inkscape.org/) -->

<svg
   xmlns:dc="http://purl.org/dc/elements/1.1/"
   xmlns:cc="http://creativecommons.org/ns#"
   xmlns:rdf="http://www.w3.org/1999/02/22-rdf-syntax-ns#"
   xmlns:svg="http://www.w3.org/2000/svg"
   xmlns="http://www.w3.org/2000/svg"
   xmlns:sodipodi="http://sodipodi.sourceforge.net/DTD/sodipodi-0.dtd"
   xmlns:inkscape="http://www.inkscape.org/namespaces/inkscape"
   width="210mm"
   height="297mm"
   viewBox="0 0 210 297"
   version="1.1"
   id="svg14451"
   inkscape:version="0.92.5 (2060ec1f9f, 2020-04-08)"
   sodipodi:docname="image_4.svg">
  <defs
     id="defs14445" />
  <sodipodi:namedview
     id="base"
     pagecolor="#ffffff"
     bordercolor="#666666"
     borderopacity="1.0"
     inkscape:pageopacity="0.0"
     inkscape:pageshadow="2"
     inkscape:zoom="0.65982028"
     inkscape:cx="-175.00135"
     inkscape:cy="376.82063"
     inkscape:document-units="mm"
     inkscape:current-layer="layer1"
     showgrid="false"
     inkscape:window-width="1848"
     inkscape:window-height="1009"
     inkscape:window-x="72"
     inkscape:window-y="34"
     inkscape:window-maximized="1" />
  <metadata
     id="metadata14448">
    <rdf:RDF>
      <cc:Work
         rdf:about="">
        <dc:format>image/svg+xml</dc:format>
        <dc:type
           rdf:resource="http://purl.org/dc/dcmitype/StillImage" />
        <dc:title />
      </cc:Work>
    </rdf:RDF>
  </metadata>
  <g
     inkscape:label="Layer 1"
     inkscape:groupmode="layer"
     id="layer1">
    <g
       id="g6676"
       transform="matrix(1.3553198,0,0,1.5625657,-12.259896,-56.026147)">
      <path
         d="m 136.13708,162.90021 v -29.45264 c 2.48638,-3.2639 4.41889,-6.27557 5.14562,-8.26135 1.53211,-4.18888 -1.26718,-6.04908 -5.14562,-6.77192 v -10.14977 c 4.34128,0.19473 9.02829,-0.47555 12.59028,1.87325 4.71841,3.11114 5.07789,9.83191 4.4577,15.4499 -0.62018,5.61798 -1.54799,11.90625 1.8729,16.40558 1.68205,2.21262 4.38785,3.95707 4.68771,6.72073 0.13512,1.24284 -0.26917,2.48391 -0.80398,3.6146 -1.44462,3.054 -3.90525,5.61686 -6.89822,7.18534 -2.84021,1.48872 -6.05825,2.07052 -9.23113,2.53933 -2.21897,0.32812 -4.44465,0.61034 -6.67526,0.84695"
         style="fill:#ecf3f8;fill-opacity:1;fill-rule:nonzero;stroke:none;stroke-width:0.03527778"
         id="path12928"
         inkscape:connector-curvature="0" />
      <path
         d="m 94.745664,165.66563 c -8.204903,0 -16.480012,-0.99437 -24.639057,-2.01538 -2.450747,-0.3066 -5.087408,-0.73695 -7.392811,-1.64469 0.531636,0.0491 1.003653,0.0678 1.412523,0.0678 1.22943,0 1.888066,-0.16686 1.888066,-0.16686 0,0 0.06632,-13.49555 0.06632,-17.74017 0,-1.50566 0.512234,-8.95135 0.588786,-12.6975 h 0.995187 c 0.01799,3.53554 0.779991,14.11672 0.779991,15.38493 0,2.06375 0.424039,15.00903 0.424039,15.00903 0.747183,0.11356 1.415344,0.15519 1.993194,0.15519 1.5875,0 2.494492,-0.31433 2.494492,-0.31433 0,0 0.388408,-3.43076 0.796218,-7.48813 0.224015,0.13727 0.45438,0.27245 0.687565,0.40224 0.926748,0.5147 2.421115,1.00887 2.421115,1.00887 l 0.848077,-1.43827 c 0.250473,0.13229 0.517173,0.26074 0.8001,0.38241 l 6.353527,-5.98661 c -0.520346,5.37105 0.0039,10.95446 -0.08784,11.41483 1.405115,0.60788 2.383015,0.77118 3.028246,0.77118 0.747536,-2.7e-4 1.048102,-0.2194 1.048102,-0.2194 l 2.463448,-9.75639 c 3.084687,0.91475 7.625996,1.28972 12.165538,1.28972 6.1782,0 12.35216,-0.69493 14.84736,-1.67072 3.94723,-1.54382 11.99303,-9.85559 17.40923,-16.96582 v 29.45264 c -5.76016,0.61101 -11.55312,0.91736 -17.34538,0.91736 -4.36527,0 -8.73019,-0.17406 -13.081,-0.52214 l 5.5245,0.70693 c -5.42643,1.20868 -10.9421,1.66327 -16.489536,1.66327 m -33.138179,-4.14679 c -1.778705,-0.87489 -3.281539,-2.10535 -4.227689,-3.88165 -1.820333,-3.4163 -0.964494,-7.96615 -3.365852,-11.0024 -1.468614,-1.85678 -3.854803,-2.72383 -5.602817,-4.31987 -3.68688,-3.36719 -3.445933,-10.07138 0.473781,-13.16489 3.123141,-2.46451 7.60095,-2.58163 11.44905,-3.62373 l -0.08467,1.86019 c 0,0.11571 0.0095,0.23037 0.02434,0.34396 -0.337962,2.45534 -0.857956,12.89156 -0.857956,14.69746 0,1.88765 1.87325,16.60233 2.191808,19.09093 m 13.412611,-8.76487 c -0.174625,-0.10294 -0.418042,-0.18549 -0.698148,-0.25217 0.392641,-4.03726 0.75565,-8.29705 0.75565,-10.24608 0,-2.29728 -0.470252,-8.07826 -0.447675,-12.05935 0.01376,-2.41935 -0.0388,-5.69948 -0.0388,-5.69948 l -3.782484,-0.6604 h -3.27025 -0.06138 -3.248731 c 0.566914,-0.3944 1.088672,-0.85866 1.553634,-1.41393 2.962627,-3.53589 2.206624,-9.32674 4.908197,-12.83512 0.06914,0.16158 0.154516,0.31891 0.257175,0.46955 0.334786,0.49318 0.801863,0.84102 1.319742,1.03293 l -1.139473,0.41663 c 0.427919,0.13371 2.7432,1.35361 5.730168,2.62679 0,0 2.826809,1.80304 5.850115,1.80304 0.256117,0 0.513644,-0.013 0.770819,-0.0409 0.0024,0.0183 0.0056,0.0367 0.0099,0.0543 0.96026,-0.12629 1.740958,-0.41874 2.353379,-0.83079 0.04057,-0.0243 0.08114,-0.0494 0.121356,-0.0751 0.999773,-0.63641 1.618544,-1.85737 1.994606,-3.25649 0.591609,0.34713 1.190625,0.67945 1.804459,0.98425 1.814687,0.90064 3.883377,1.53776 5.885037,1.53776 1.266121,0 2.505075,-0.25506 3.635023,-0.85937 4.50179,-2.40876 4.89973,-8.70796 8.01864,-12.74939 2.03623,-2.637716 5.36963,-4.001907 8.68644,-4.001907 2.76049,0 5.50934,0.945091 7.48877,2.887133 2.09868,2.058814 3.33834,4.943824 5.70794,6.684084 2.0059,1.4732 4.42031,1.88136 6.9529,1.9946 v 10.14977 c -1.5628,-0.29139 -3.30059,-0.39793 -5.00168,-0.39793 -0.32526,0 -0.64841,0.004 -0.96979,0.0113 -0.18838,-0.3549 -0.5027,-0.61913 -0.85125,-0.61913 -0.0769,0 -0.15522,0.0127 -0.23424,0.0399 0.93239,-0.41804 1.10172,-2.15265 0.25646,-2.63207 0.0434,0.38735 0.0769,0.82091 -0.13405,1.15429 -0.10725,0.16968 -0.30233,0.26211 -0.4766,0.26211 -0.1651,0 -0.31115,-0.0829 -0.34572,-0.26282 l -0.002,-0.0127 c 7.9e-4,0.004 0.002,0.008 0.002,0.0127 l 0.0138,0.0797 c -0.40746,-1.21391 -1.48626,-1.9625 -2.64266,-2.12654 -0.15875,-0.0222 -0.31821,-0.0321 -0.47802,-0.0321 -0.87136,0 -1.76,0.28963 -2.64195,0.39405 -0.16439,0.0194 -0.33267,0.03 -0.5013,0.03 -0.89852,0 -1.80375,-0.30022 -2.21262,-1.14124 -0.39405,0.76624 -0.23601,1.79846 0.34996,2.28741 -1.65524,0.61983 -2.8822,2.65995 -2.74708,4.56847 0.0441,0.61983 0.21413,1.22132 0.16474,1.84927 -0.0314,0.40428 -0.19508,0.83749 -0.45508,1.11936 -0.0967,-0.004 -0.19614,-0.006 -0.29704,-0.006 -1.01494,0 -2.24437,0.22331 -3.54224,0.95814 -2.79012,1.58045 -4.46229,4.81189 -7.11694,4.81225 -0.0974,0 -0.19544,-0.004 -0.29563,-0.013 -0.45261,-0.0402 -1.09008,-0.0589 -1.80622,-0.0589 -1.76671,0 -4.01108,0.11394 -5.139265,0.30091 v 0 0 c 0,0 0.02716,0.24942 0.04374,0.63324 -1.402644,0.024 -2.519185,0.17145 -2.519185,0.17145 -0.179917,0.0261 -0.438502,0.073 -0.706967,0.1337 -5.211233,0.5013 -6.92009,1.7706 -6.92009,3.25755 0,0.65899 0.335846,1.2753 1.163109,1.80093 -0.105834,0.0194 -0.208844,0.0392 -0.309386,0.0596 -5.770385,1.17158 -8.854016,6.79909 -15.04315,16.17204 v 0 0 c 0,0 0.233186,0.42362 0.775407,1.00887 l -0.496007,0.52529 m 7.573061,-42.40485 c -1.376539,0 -3.459339,-1.52753 -3.459339,-1.52753 -1.006124,-0.72072 -1.849967,-1.36419 -2.631017,-1.87289 1.565981,0.002 3.17641,0.37147 4.617508,0.96837 0.877359,0.36336 1.71944,0.79728 2.543882,1.26577 -0.23354,0.65546 -0.525992,1.11619 -0.887942,1.1564 -0.05927,0.007 -0.120298,0.01 -0.183092,0.01"
         style="fill:#edf3f8;fill-opacity:1;fill-rule:nonzero;stroke:none;stroke-width:0.03527778"
         id="path12930"
         inkscape:connector-curvature="0" />
      <path
         d="m 65.212874,160.05936 0.205317,3.59226 c 0,0 -1.675695,0.31655 -2.732264,0.40408 -2.097264,0.17349 -4.072467,0.0602 -4.072467,0.0602 0,0 2.121606,-1.2076 3.343981,-1.60475 l 0.472016,-2.80141 2.783417,0.3496"
         style="fill:#1c1623;fill-opacity:1;fill-rule:nonzero;stroke:none;stroke-width:0.03527778"
         id="path12932"
         inkscape:connector-curvature="0" />
      <path
         d="m 69.374593,160.05936 -0.205316,3.59226 c 0,0 1.675694,0.31655 2.732263,0.40408 2.096912,0.17349 4.072114,0.0602 4.072114,0.0602 0,0 -2.121606,-1.2076 -3.343981,-1.60475 l -0.472016,-2.80141 -2.783064,0.3496"
         style="fill:#1c1623;fill-opacity:1;fill-rule:nonzero;stroke:none;stroke-width:0.03527778"
         id="path12934"
         inkscape:connector-curvature="0" />
      <path
         d="m 85.116596,103.18559 c -0.07302,-1.6309 -0.29986,-3.255085 -0.675217,-4.843996 0.821267,0.07373 1.472494,0.953911 1.302809,1.761416 1.006123,-0.171094 2.786591,-0.0466 2.80035,0.28822 0.01376,0.33479 -0.23354,0.45332 -0.517174,0.42369 0.246592,0.10195 0.310799,0.0822 0.384882,0.41099 0.07479,0.32914 -0.147815,0.33513 -0.336902,0.46072 0.218369,-0.22225 0.655108,0.0755 0.576792,0.37677 -0.07832,0.30127 -0.510472,0.40499 -0.761297,0.22049 0.344313,0.0512 0.730605,0.30268 0.524582,0.64593 -0.129117,0.2152 -2.158648,0.59902 -3.242733,0.25471"
         style="fill:#f57d7f;fill-opacity:1;fill-rule:nonzero;stroke:none;stroke-width:0.03527778"
         id="path12936"
         inkscape:connector-curvature="0" />
      <path
         d="m 85.258413,100.77858 -0.285044,5.50722 2.753783,-0.17181 -0.475191,-3.95852 -1.993548,-1.37689"
         style="fill:#f57d7f;fill-opacity:1;fill-rule:nonzero;stroke:none;stroke-width:0.03527778"
         id="path12938"
         inkscape:connector-curvature="0" />
      <path
         d="m 71.000899,98.063605 c 1.535995,-0.681567 1.99284,-2.926997 1.001183,-4.28378 -0.991658,-1.357136 -3.498497,-1.684161 -4.982633,-0.894998 -0.724958,0.385234 -0.868186,0.981428 -1.555044,1.430514 -0.687212,0.449792 -1.559984,0.751064 -2.325511,0.454731 -0.285045,-0.11042 -0.613128,-0.296686 -0.867481,-0.127 -0.38735,0.258233 -0.02399,0.849136 0.338314,1.140883 -0.420511,0.193322 -0.662164,0.710495 -0.540456,1.157111 0.121356,0.446264 0.591609,0.769408 1.052336,0.722842 -0.451555,0.207433 -0.680861,0.739775 -0.67698,1.236486 0.0042,0.497064 0.08961,1.030817 0.385233,1.430166 2.121253,2.8642 0.745772,4.32046 1.824214,4.36456 1.122539,0.0455 1.147586,-1.44533 1.3335,-2.26765 0.524581,-2.31846 2.814108,-4.10669 5.190419,-4.055184 l -0.177094,-0.308681"
         style="fill:#2c2245;fill-opacity:1;fill-rule:nonzero;stroke:none;stroke-width:0.03527778"
         id="path12940"
         inkscape:connector-curvature="0" />
      <path
         d="m 74.629923,130.19637 c 0.01376,-2.41935 -0.0388,-5.69948 -0.0388,-5.69948 l -3.782484,-0.6604 h -3.27025 -0.06138 -3.27025 l -3.837869,0.92251 -0.119592,2.62749 c 0,0.11571 0.0095,0.23037 0.02434,0.34396 -0.337962,2.45534 -0.857956,12.89156 -0.857956,14.69746 0,2.06337 2.237669,19.44758 2.237669,19.44758 2.799997,0.42609 4.361039,0.031 4.361039,0.031 0,0 0.06632,-13.49554 0.06632,-17.74017 0,-1.51267 0.517173,-9.02296 0.589845,-12.75147 l -0.08537,0.054 h 1.0795 c 0.01799,3.53554 0.779991,14.11673 0.779991,15.38493 0,2.06375 0.424039,15.00903 0.424039,15.00903 2.80035,0.42584 4.487686,-0.15914 4.487686,-0.15914 0,0 1.721202,-15.20334 1.721202,-19.44793 0,-2.29729 -0.470252,-8.07826 -0.447675,-12.05936"
         style="fill:#51a9be;fill-opacity:1;fill-rule:nonzero;stroke:none;stroke-width:0.03527778"
         id="path12942"
         inkscape:connector-curvature="0" />
      <path
         d="m 54.207266,113.29867 c 1.013178,-2.63455 2.375606,-4.74592 4.552597,-6.26005 2.473678,-1.72085 4.144433,1.24143 4.065411,2.75308 -0.03104,0.59549 -0.250119,1.13453 -0.593372,1.56739 l 1.190272,-0.23389 c 0,0 -2.390069,1.61325 -4.662311,4.67713 0,0 -2.731558,4.89444 2.048581,4.6669 v 3.98392 c 0,0 -5.349522,0.91051 -7.170561,-2.95981 -1.279525,-2.71886 -0.569031,-5.23522 0.569383,-8.19467"
         style="fill:#ddeaf1;fill-opacity:1;fill-rule:nonzero;stroke:none;stroke-width:0.03527778"
         id="path12944"
         inkscape:connector-curvature="0" />
      <path
         d="m 65.183593,96.213638 -0.0042,0.0011 v 0.0067 z"
         style="fill:#f89f87;fill-opacity:1;fill-rule:nonzero;stroke:none;stroke-width:0.03527778"
         id="path12946"
         inkscape:connector-curvature="0" />
      <path
         d="m 71.173054,96.997511 c -0.450497,-0.09031 -3.303058,-0.674864 -5.240161,0.773288 -0.0099,0.696031 0.257881,1.480256 0.248356,2.176287 -0.0018,0.107594 -0.04339,0.253294 -0.150283,0.241304 -0.05821,-0.007 -0.09631,-0.0617 -0.127,-0.11183 -0.06385,-0.104074 -0.127706,-0.207791 -0.191206,-0.312213 0.147108,0.368303 0.315031,1.070683 0.04092,1.164523 -0.2413,0.0832 -0.654755,-0.64806 -0.748594,-1.126071 -0.06703,-0.02187 -0.135114,-0.04022 -0.207786,-0.04833 -0.618067,-0.06632 -1.172986,0.379941 -1.239661,0.997301 -0.06668,0.61736 0.380294,1.17193 0.998361,1.23825 0.168628,0.0183 0.331258,-0.005 0.481894,-0.0557 l -0.08325,3.35033 c -0.01764,0.11113 -0.03034,0.22402 -0.03316,0.33938 -0.03528,1.4224 1.089377,2.60455 2.51213,2.63948 1.422753,0.0356 2.604558,-1.08903 2.639483,-2.51213 0.0028,-0.10795 -0.0035,-0.21449 -0.01376,-0.31962 l 0.03563,-1.43157 c 1.366307,-0.41804 1.610076,-1.80552 1.460851,-3.04624 -0.149225,-1.241422 -0.370064,-3.895369 -0.382764,-3.956399"
         style="fill:#f57d7f;fill-opacity:1;fill-rule:nonzero;stroke:none;stroke-width:0.03527778"
         id="path12948"
         inkscape:connector-curvature="0" />
      <path
         d="m 64.468866,100.9712 c 0.100894,-0.15028 0.250472,-0.26705 0.421216,-0.32808 0,0 -0.03175,-0.0543 -0.16263,-0.0963 -0.130881,-0.0423 -0.418042,-0.0596 -0.418042,-0.0596 0.206728,-0.0889 0.476603,-0.0691 0.635706,0.0896 0.190852,0.19121 0.259291,0.38524 0.213077,0.60502 0,0 -0.07973,-0.39688 -0.228247,-0.47696 l -0.46108,0.26635"
         style="fill:#9f305d;fill-opacity:1;fill-rule:nonzero;stroke:none;stroke-width:0.03527778"
         id="path12950"
         inkscape:connector-curvature="0" />
      <path
         d="m 70.059335,105.43278 c 0,-3.4e-4 0,-7.2e-4 0,-10e-4 l 0.03563,-1.43157 v 0 l -0.03563,1.43263"
         style="fill:#ffffff;fill-opacity:1;fill-rule:nonzero;stroke:none;stroke-width:0.03527778"
         id="path12952"
         inkscape:connector-curvature="0" />
      <path
         d="m 70.057924,105.49381 -1.485547,-1.37513 c 0.157691,0.0173 0.308327,0.024 0.449086,0.024 0.636411,0 1.073503,-0.14252 1.073503,-0.14252 l -0.03563,1.43157 c 0,3.5e-4 0,7.2e-4 0,0.001 l -0.0014,0.061"
         style="fill:#f24d6c;fill-opacity:1;fill-rule:nonzero;stroke:none;stroke-width:0.03527778"
         id="path12954"
         inkscape:connector-curvature="0" />
      <path
         d="m 70.814985,98.204716 c 0.110067,-0.353836 -0.369711,-0.637822 -0.660047,-0.674864 -0.158397,-0.02011 -0.404284,0.04304 -0.461786,0.212725 -0.06315,0.185914 0.100894,0.272345 0.243769,0.332317 -0.0388,-0.02434 -0.07796,-0.04833 -0.117475,-0.07303 0.1143,0.106186 0.249767,0.122767 0.383822,0.18803 0.125236,0.06068 0.251884,0.181681 0.397228,0.169687 0.09807,-0.0078 0.183797,-0.05609 0.214489,-0.15487"
         style="fill:#2c2245;fill-opacity:1;fill-rule:nonzero;stroke:none;stroke-width:0.03527778"
         id="path12956"
         inkscape:connector-curvature="0" />
      <path
         d="m 67.152799,98.413208 c 0.176742,0.02999 0.290689,-0.06032 0.449439,-0.121003 0.148167,-0.05609 0.286808,-0.06279 0.417336,-0.163689 -0.04022,0.02187 -0.08079,0.04445 -0.121003,0.06632 0.148167,-0.04692 0.312914,-0.128764 0.259997,-0.315736 -0.04551,-0.162631 -0.278694,-0.250825 -0.432858,-0.244828 -0.301978,0.01093 -0.801158,0.252589 -0.72143,0.622653 0.01411,0.06703 0.07796,0.143933 0.148519,0.15628"
         style="fill:#2c2245;fill-opacity:1;fill-rule:nonzero;stroke:none;stroke-width:0.03527778"
         id="path12958"
         inkscape:connector-curvature="0" />
      <path
         d="m 67.896454,100.96309 c 0.08784,0.41874 0.527756,0.83008 1.275998,0.48577 0,0 -0.402167,0.0684 -0.738011,-0.0557 -0.336198,-0.12453 -0.537987,-0.43003 -0.537987,-0.43003"
         style="fill:#9f305d;fill-opacity:1;fill-rule:nonzero;stroke:none;stroke-width:0.03527778"
         id="path12960"
         inkscape:connector-curvature="0" />
      <path
         d="m 69.641646,101.06645 -0.962378,-0.0314 0.27552,-2.069392 0.377472,0.01235 0.309386,2.088442"
         style="fill:#f24d6c;fill-opacity:1;fill-rule:nonzero;stroke:none;stroke-width:0.03527778"
         id="path12962"
         inkscape:connector-curvature="0" />
      <path
         d="m 66.814132,101.74837 c -0.0095,0 -0.01905,0 -0.02858,-3.5e-4 -0.479777,-0.0159 -0.855839,-0.41733 -0.839964,-0.89676 0.01552,-0.47025 0.401462,-0.84067 0.868187,-0.84067 0.0095,0 0.01905,3.5e-4 0.02858,7.2e-4 0.479425,0.0159 0.855486,0.41698 0.839611,0.89676 -0.01517,0.4699 -0.401109,0.84032 -0.867834,0.84032"
         style="fill:#f25871;fill-opacity:1;fill-rule:nonzero;stroke:none;stroke-width:0.03527778"
         id="path12964"
         inkscape:connector-curvature="0" />
      <path
         d="m 71.51031,100.5521 c -0.01905,-0.17533 -0.03881,-0.36477 -0.05856,-0.561976 v 0 c 0.01976,0.197206 0.03951,0.386646 0.05856,0.561976"
         style="fill:#ffffff;fill-opacity:1;fill-rule:nonzero;stroke:none;stroke-width:0.03527778"
         id="path12966"
         inkscape:connector-curvature="0" />
      <path
         d="m 71.253841,101.70462 c -0.0088,0 -0.01764,-3.4e-4 -0.02646,-3.4e-4 -0.479778,-0.0155 -0.855839,-0.41734 -0.839964,-0.89676 0.01517,-0.4699 0.400756,-0.840317 0.867128,-0.840317 0.0095,0 0.0194,3.44e-4 0.02928,7.14e-4 0.05785,0.0018 0.113947,0.0099 0.167922,0.02223 0.01976,0.197203 0.03951,0.386653 0.05856,0.561983 0.01552,0.14499 0.03104,0.2801 0.04551,0.40181 0.02681,0.22365 0.04057,0.45296 0.03775,0.6798 -0.105127,0.0448 -0.219427,0.0709 -0.339724,0.0709"
         style="fill:#f25871;fill-opacity:1;fill-rule:nonzero;stroke:none;stroke-width:0.03527778"
         id="path12968"
         inkscape:connector-curvature="0" />
      <path
         d="m 84.593073,105.47935 c 0.07691,2.18193 -0.545394,6.19548 -1.833385,5.88715 -1.915232,-0.45861 -4.634794,-3.1884 -4.634794,-3.1884 l -5.768623,1.01952 c 0,0 7.083425,7.33073 11.878733,6.4449 3.51014,-0.6484 3.9751,-5.87163 3.662892,-8.9595 l -3.304823,-1.20367"
         style="fill:#f46f80;fill-opacity:1;fill-rule:nonzero;stroke:none;stroke-width:0.03527778"
         id="path12970"
         inkscape:connector-curvature="0" />
      <path
         d="m 76.857714,114.13334 c -2.986968,-1.27318 -5.302249,-2.49308 -5.730168,-2.62679 l 1.139473,-0.41663 c -0.517879,-0.19191 -0.984956,-0.53975 -1.319742,-1.03293 -0.850548,-1.25165 -0.533753,-2.95063 0.707672,-3.79448 0.05292,-0.0356 0.107244,-0.0663 0.161925,-0.0981 l -0.0011,-0.0106 c 0.340784,-0.23177 0.763764,-0.34254 1.246716,-0.35242 0.14464,-0.006 0.397582,-0.042 0.541163,-0.025 1.784702,0.16086 3.236029,1.40123 5.530144,3.04517 0,0 2.276475,1.66935 3.642431,1.51765 1.365602,-0.15204 1.735312,-6.28085 1.735312,-6.28085 l 3.87985,0.21025 c 0,0 0.910521,8.65047 -2.428168,10.77525 -3.843161,2.44581 -9.105549,-0.91052 -9.105549,-0.91052"
         style="fill:#ddeaf1;fill-opacity:1;fill-rule:nonzero;stroke:none;stroke-width:0.03527778"
         id="path12972"
         inkscape:connector-curvature="0" />
      <path
         d="m 64.851982,105.35693 c 0,0 0.801159,1.46086 2.657123,1.47038 1.855611,-0.01 2.657122,-1.47038 2.657122,-1.47038 2.097617,0.25259 3.619852,0.0497 5.490634,1.65382 0.742243,0.49672 -0.473782,3.06141 -0.60819,3.38808 l -1.140532,3.36621 -1.13806,12.97552 c 0,0 0.194734,0.25894 -5.228519,0.28257 v 7.9e-4 l -0.03245,-2.6e-4 -0.03246,2.6e-4 v -7.9e-4 c -5.423605,-0.0236 -7.174089,-0.22754 -7.174089,-0.22754 l 0.259645,-5.34 -0.0042,-7.86271 -0.538338,-2.70651 c -0.134409,-0.32667 2.73438,-5.27685 4.832349,-5.52944"
         style="fill:#51a9be;fill-opacity:1;fill-rule:nonzero;stroke:none;stroke-width:0.03527778"
         id="path12974"
         inkscape:connector-curvature="0" />
      <path
         d="m 71.166352,105.33118 -0.172861,0.0152 c -0.184503,-0.008 -0.371828,-0.0131 -0.566914,-0.0152 h 0.739775"
         style="fill:#ced9de;fill-opacity:1;fill-rule:nonzero;stroke:none;stroke-width:0.03527778"
         id="path12976"
         inkscape:connector-curvature="0" />
      <path
         d="m 60.276455,120.91479 -0.05327,-8.86355 c -0.244827,-0.0646 -7.82073,-3.70028 3.022247,-6.8841 l 1.548695,-0.21484 2.297641,8.12553 3.123495,-7.73854 0.778228,0.007 c 9.430455,0.37324 4.66337,7.33143 4.384322,7.61083 l -0.645232,7.70184 3.442758,22.4571 c 0,0 -4.646787,1.89343 -10.842623,1.89343 -6.195836,0 -11.014781,-1.09651 -11.014781,-1.89343 0,-0.42514 3.95852,-22.20133 3.95852,-22.20133"
         style="fill:#ddeaf1;fill-opacity:1;fill-rule:nonzero;stroke:none;stroke-width:0.03527778"
         id="path12978"
         inkscape:connector-curvature="0" />
      <path
         d="m 55.450808,123.56062 c -0.287514,-0.17604 -0.56127,-0.39476 -0.816328,-0.65899 0.258233,0.25153 0.537633,0.46637 0.830086,0.64876 l -0.01376,0.0102"
         style="fill:#f1ecf0;fill-opacity:1;fill-rule:nonzero;stroke:none;stroke-width:0.03527778"
         id="path12980"
         inkscape:connector-curvature="0" />
      <path
         d="m 55.464566,123.55039 c -0.292453,-0.18239 -0.571853,-0.39723 -0.830086,-0.64876 -0.445911,-0.46249 -0.835731,-1.06398 -1.144411,-1.81857 0.08996,-0.0476 0.195086,-0.0709 0.309739,-0.0709 0.392994,0 0.900641,0.27023 1.31198,0.73836 0.578909,0.65864 0.746478,1.45733 0.37465,1.784 l -0.02187,0.0159"
         style="fill:#d5dde6;fill-opacity:1;fill-rule:nonzero;stroke:none;stroke-width:0.03527778"
         id="path12982"
         inkscape:connector-curvature="0" />
      <path
         d="m 83.488527,115.94979 c -0.0042,-0.0176 -0.0074,-0.036 -0.0099,-0.0543 0.805747,-0.0882 1.61008,-0.3242 2.363259,-0.77646 -0.612421,0.41204 -1.393119,0.70449 -2.353379,0.83079"
         style="fill:#e3e5ea;fill-opacity:1;fill-rule:nonzero;stroke:none;stroke-width:0.03527778"
         id="path12984"
         inkscape:connector-curvature="0" />
      <path
         d="m 83.478648,115.89546 c -0.0575,-0.43286 0.377121,-0.99871 1.067858,-1.34408 0.36054,-0.18098 0.728488,-0.26952 1.0414,-0.26952 0.367242,0 0.659696,0.12171 0.779288,0.36054 l 0.01588,0.0413 c -0.163338,0.15663 -0.343606,0.30233 -0.541163,0.43532 -0.753179,0.45226 -1.557512,0.68827 -2.363258,0.77647"
         style="fill:#d5dde6;fill-opacity:1;fill-rule:nonzero;stroke:none;stroke-width:0.03527778"
         id="path12986"
         inkscape:connector-curvature="0" />
      <path
         d="m 72.516079,151.51043 c -0.02469,0 -0.04974,-0.001 -0.07479,-0.004 -0.682624,-0.0724 -1.131357,-1.1187 -1.00224,-2.33783 0.12453,-1.1745 0.739775,-2.08001 1.395237,-2.08001 0.02506,0 0.04974,10e-4 0.07479,0.004 0.682625,0.0724 1.131006,1.11936 1.00189,2.33824 -0.124532,1.17437 -0.739775,2.07988 -1.394884,2.07988"
         style="fill:#478db9;fill-opacity:1;fill-rule:nonzero;stroke:none;stroke-width:0.03527778"
         id="path12988"
         inkscape:connector-curvature="0" />
      <path
         d="m 62.325741,151.51085 c -0.655814,0 -1.270353,-0.90731 -1.392414,-2.08277 -0.126647,-1.2193 0.32385,-2.26522 1.006828,-2.33619 0.02434,-0.002 0.04868,-0.004 0.07303,-0.004 0.655814,0 1.270352,0.9073 1.392766,2.08276 0.126648,1.21888 -0.32385,2.26522 -1.006827,2.3362 -0.02434,0.003 -0.04868,0.004 -0.07338,0.004"
         style="fill:#478db9;fill-opacity:1;fill-rule:nonzero;stroke:none;stroke-width:0.03527778"
         id="path12990"
         inkscape:connector-curvature="0" />
      <path
         d="m 88.290538,101.61326 c -0.08114,0.0173 -0.159457,0.0363 -0.215194,0.0734 0.05997,-0.0614 0.136877,-0.0804 0.215194,-0.0734"
         style="fill:#f57d7f;fill-opacity:1;fill-rule:nonzero;stroke:none;stroke-width:0.03527778"
         id="path12992"
         inkscape:connector-curvature="0" />
      <path
         d="m 87.124606,102.92982 c -0.04304,-0.19367 0.129117,-0.387 0.624065,-0.53763 0,0 -0.667102,0.19367 -0.795867,-0.10795 -0.129116,-0.30092 0.774348,-0.60219 0.774348,-0.60219 0,0 -0.839258,0.15063 -0.925338,-0.0861 -0.08573,-0.23671 0.22578,-0.47131 0.903817,-0.6671 0,0 -0.881943,0.25858 -1.075618,0 -0.193675,-0.25788 0.814564,-0.86501 1.179335,-0.84491 0.364421,0.0201 0.698854,0.0928 0.752829,0.34396 0.05433,0.25189 -0.218723,0.40111 -0.526346,0.40534 0.368655,0.008 0.625123,0.11183 0.61948,0.44944 -0.0039,0.25083 -0.445913,0.34784 -0.364773,0.33056 0.204964,0.0183 0.418393,0.23177 0.361598,0.45014 -0.05257,0.20355 -0.267407,0.31397 -0.478015,0.30903 -0.0695,-3.4e-4 -0.101248,-0.002 0,0 0.229306,0.11148 0.389818,0.30974 0.2413,0.55739 -0.03951,0.066 -0.269523,0.19403 -0.571852,0.21908 -0.301625,0.0251 -0.690033,-0.0885 -0.718963,-0.21908"
         style="fill:#f47073;fill-opacity:1;fill-rule:nonzero;stroke:none;stroke-width:0.03527778"
         id="path12994"
         inkscape:connector-curvature="0" />
      <path
         d="m 65.267555,112.2234 h -4.173714 l 0.38735,1.29081 3.743325,-0.25788 0.04304,-1.03293"
         style="fill:#ffffff;fill-opacity:1;fill-rule:nonzero;stroke:none;stroke-width:0.03527778"
         id="path12996"
         inkscape:connector-curvature="0" />
      <path
         d="m 69.970435,99.737183 c -0.0049,0.141111 0.04304,0.256822 0.107244,0.258586 0.06385,0.0021 0.119945,-0.110772 0.124178,-0.251531 0.0049,-0.140758 -0.04304,-0.256822 -0.106891,-0.258233 -0.06421,-0.0021 -0.119945,0.110419 -0.124531,0.251178"
         style="fill:#9f305d;fill-opacity:1;fill-rule:nonzero;stroke:none;stroke-width:0.03527778"
         id="path12998"
         inkscape:connector-curvature="0" />
      <path
         d="m 67.644924,99.675447 c -0.0046,0.140405 0.04304,0.256116 0.107244,0.258233 0.06421,0.0018 0.119945,-0.110419 0.124884,-0.251531 0.0046,-0.140758 -0.04339,-0.256469 -0.107245,-0.258586 -0.0642,-0.0018 -0.119944,0.110773 -0.124883,0.251884"
         style="fill:#9f305d;fill-opacity:1;fill-rule:nonzero;stroke:none;stroke-width:0.03527778"
         id="path13000"
         inkscape:connector-curvature="0" />
      <path
         d="m 94.444746,163.65162 c 0,1.23088 5.344231,2.22857 11.936234,2.22857 6.59271,0 11.93659,-0.99769 11.93659,-2.22857 0,-1.23041 -5.34388,-2.22772 -11.93659,-2.22772 -6.592003,0 -11.936234,0.99731 -11.936234,2.22772"
         style="fill:#ced9de;fill-opacity:1;fill-rule:nonzero;stroke:none;stroke-width:0.03527778"
         id="path13002"
         inkscape:connector-curvature="0" />
      <path
         d="m 104.59063,163.10634 h 3.58105 v -13.18119 h -2.76719 l -0.81386,13.18119"
         style="fill:#1c1623;fill-opacity:1;fill-rule:nonzero;stroke:none;stroke-width:0.03527778"
         id="path13004"
         inkscape:connector-curvature="0" />
      <path
         d="m 88.930123,133.18722 c 0,1.92581 2.865615,3.48685 12.493627,3.48685 9.62801,0 11.33157,-1.56104 11.33157,-3.48685 0,-1.92546 -1.70356,-3.48651 -11.33157,-3.48651 -9.628012,0 -12.493627,1.56105 -12.493627,3.48651"
         style="fill:#ced9de;fill-opacity:1;fill-rule:nonzero;stroke:none;stroke-width:0.03527778"
         id="path13006"
         inkscape:connector-curvature="0" />
      <path
         d="m 105.53996,140.81815 c 0,0 -17.434631,0.52141 -17.694274,6.76984 -0.242007,5.83379 25.122714,5.07821 30.882164,2.8254 5.75945,-2.25255 20.24556,-18.91527 22.55485,-25.22717 2.30893,-6.31155 -5.213,-7.33602 -11.45011,-7.1501 -6.23747,0.18591 -12.03431,1.19133 -24.7209,22.3781 l 0.42827,0.40393"
         style="fill:#623ca0;fill-opacity:1;fill-rule:nonzero;stroke:none;stroke-width:0.03527778"
         id="path13008"
         inkscape:connector-curvature="0" />
      <path
         d="m 88.793952,159.18376 -0.525288,3.43574 c 0,0 -1.90641,0.0159 -2.92241,-0.11289 -2.016477,-0.25548 -3.954991,-0.48118 -3.954991,-0.48118 0,0 2.838098,-1.1635 3.840339,-1.01039 l 1.261886,-2.86837 2.300464,1.03709"
         style="fill:#1c1623;fill-opacity:1;fill-rule:nonzero;stroke:none;stroke-width:0.03527778"
         id="path13010"
         inkscape:connector-curvature="0" />
      <path
         d="m 128.39396,116.04963 c -0.40746,-1.21391 -1.48625,-1.96251 -2.64266,-2.12655 -1.02235,-0.14499 -2.07645,0.23848 -3.11996,0.36195 -1.04317,0.12347 -2.2285,-0.11289 -2.71392,-1.11125 -0.39406,0.76624 -0.23601,1.79846 0.34995,2.28741 -1.65523,0.61983 -2.88219,2.65995 -2.74708,4.56847 0.0441,0.61984 0.21414,1.22132 0.16475,1.84927 -0.049,0.62794 -0.41698,1.32679 -0.97049,1.41852 0.1143,0.4318 0.65722,0.59549 0.98989,0.29809 0.68827,1.81751 2.50226,2.92559 4.30072,2.62714 0.43532,-0.072 0.87312,-0.21872 1.30457,-0.18521 0.8382,0.0649 1.46262,0.77435 2.14594,1.27741 0.68334,0.50377 1.70533,0.768 2.32728,0.0621 -0.56056,-0.21626 -0.44626,-1.23296 0.018,-1.71873 0.4639,-0.48543 1.10455,-0.65582 1.64324,-1.02306 0.53869,-0.36724 1.00401,-1.15288 0.70732,-1.72508 0.20814,0.1217 0.4251,0.19931 0.6671,0.15804 0.24236,-0.0409 0.36019,-0.26282 0.41099,-0.53587 7.9e-4,-0.002 -0.031,0.0229 -0.0825,0.0483 -0.11465,0.0561 -0.32738,0.11254 -0.49848,-0.13547 -0.34713,-0.50376 -0.39758,-1.34302 -0.36653,-2.00801 0.031,-0.66534 0.16862,-1.34937 0.0374,-1.98402 -0.13124,-0.63465 -0.6664,-1.20297 -1.23931,-1.00471 0.93239,-0.41804 1.10172,-2.15265 0.25647,-2.63208 0.0434,0.38735 0.0769,0.82092 -0.13406,1.15429 -0.21096,0.33373 -0.76376,0.36971 -0.82479,-0.0134 l 0.0162,0.0924"
         style="fill:#f8bb78;fill-opacity:1;fill-rule:nonzero;stroke:none;stroke-width:0.03527778"
         id="path13012"
         inkscape:connector-curvature="0" />
      <path
         d="m 79.089036,152.52755 -1.827742,3.09909 c 0,0 -1.494367,-0.49418 -2.421115,-1.00888 -1.839383,-1.02235 -3.491794,-2.39046 -3.491794,-2.39046 0,0 2.767542,-0.006 3.671711,0.52667 l 1.950508,-2.06513 2.118432,1.83871"
         style="fill:#1c1623;fill-opacity:1;fill-rule:nonzero;stroke:none;stroke-width:0.03527778"
         id="path13014"
         inkscape:connector-curvature="0" />
      <path
         d="m 109.62089,134.34786 c 0,0 -14.221176,-0.44027 -19.837044,0.69991 -5.770385,1.17157 -8.854017,6.79908 -15.04315,16.17204 0,0 1.122185,2.03909 4.168775,3.35096 l 13.557956,-12.77472 18.709923,-0.99941 -1.55646,-6.44878"
         style="fill:#362c61;fill-opacity:1;fill-rule:nonzero;stroke:none;stroke-width:0.03527778"
         id="path13016"
         inkscape:connector-curvature="0" />
      <path
         d="m 78.909471,154.57077 c -0.282927,-0.12167 -0.549627,-0.25012 -0.8001,-0.38241 -1.216732,-0.6423 -2.056342,-1.37996 -2.593269,-1.95968 -0.542221,-0.58526 -0.775406,-1.00887 -0.775406,-1.00887 6.189133,-9.37296 9.272765,-15.00047 15.04315,-16.17204 2.912885,-0.59126 8.139993,-0.75777 12.497854,-0.7807 l -0.56444,0.10583 c -1.27388,0.83715 -1.967441,1.67429 -2.228849,2.48003 -3.968047,0.11607 -8.196088,0.65864 -10.560757,2.2352 -2.287765,1.52541 -3.272366,5.45038 -3.664656,9.49604 l -6.353527,5.9866 m 8.217252,-18.5825 c -1.097492,0.57044 -2.113844,1.3462 -3.107619,2.32022 -0.04798,0.28222 -0.006,0.53658 0.143934,0.72567 0.165806,0.20849 0.436385,0.30868 0.761648,0.30868 0.513291,0 1.162402,-0.24942 1.749777,-0.71579 0.959556,-0.76235 1.391708,-1.81645 0.964493,-2.35373 -0.121002,-0.1524 -0.298802,-0.24483 -0.512233,-0.28505"
         style="fill:#2e2751;fill-opacity:1;fill-rule:nonzero;stroke:none;stroke-width:0.03527778"
         id="path13018"
         inkscape:connector-curvature="0" />
      <path
         d="m 114.90938,139.24794 c 0,0 3.86433,12.54305 -21.624216,5.32656 l -4.03366,15.97628 c 0,0 -1.04281,0.76055 -4.076348,-0.55178 0.161221,-0.80684 -1.572329,-17.36009 3.752498,-20.91087 5.325534,-3.55035 20.091396,-1.85667 20.091396,-1.85667 l 5.89033,2.01648"
         style="fill:#362c61;fill-opacity:1;fill-rule:nonzero;stroke:none;stroke-width:0.03527778"
         id="path13020"
         inkscape:connector-curvature="0" />
      <path
         d="m 98.166552,132.3021 c 9.408228,1.41711 11.377788,2.84515 19.449698,-4.51344 0,0 1.87466,-3.2893 -1.36949,-4.37409 -2.40982,-0.80645 -6.60788,5.57953 -8.37917,6.09282 -1.77165,0.51365 -5.05249,0.29492 -7.19632,0.15205 -2.043991,-0.13653 -4.114091,0.13652 -4.114091,0.13652 -0.573968,0.0836 -1.942393,0.37818 -1.899708,0.647 0.01058,0.0695 0.10654,0.15205 0.343252,0.15875 0.148166,0.004 0.309388,-0.002 0.486833,-0.007 0.184505,-0.006 0.386646,-0.012 0.60819,-0.007 -0.922867,-0.0116 -2.374194,0.34184 -2.301169,0.73025 0.04727,0.25047 0.681919,0.16157 1.280584,0.0727 0.329141,-0.0487 0.647345,-0.0974 0.8509,-0.09 -0.963438,0.0751 -2.094797,0.44238 -2.161117,0.68686 -0.06597,0.24483 1.439685,0.27834 2.22391,0.11959 -0.865365,0.0579 -1.957916,0.32808 -1.926166,0.5775 0.0321,0.24941 1.814335,0.15063 2.563989,0.0416 -0.250825,0.44732 -0.486129,0.97226 -0.201083,0.9652 0.328787,-0.008 1.264708,-0.93133 1.73496,-1.37125 l 0.006,-0.018"
         style="fill:#f57d7f;fill-opacity:1;fill-rule:nonzero;stroke:none;stroke-width:0.03527778"
         id="path13022"
         inkscape:connector-curvature="0" />
      <path
         d="m 119.55441,123.52428 c 0,0 -2.86138,-1.44462 -6.16374,0.42581 -2.89242,1.6383 -4.58258,5.05071 -7.41256,4.79918 -1.56951,-0.1397 -5.36011,-0.0208 -6.945489,0.24201 0,0 0.2413,2.21544 -0.27799,3.61703 0,0 5.948189,1.30175 8.788399,1.2386 2.84057,-0.0635 5.62787,-3.28189 6.62517,-4.82529 0.9973,-1.54376 5.38621,-5.49734 5.38621,-5.49734"
         style="fill:#a294d2;fill-opacity:1;fill-rule:nonzero;stroke:none;stroke-width:0.03527778"
         id="path13024"
         inkscape:connector-curvature="0" />
      <path
         d="m 105.24574,133.71145 c -2.92735,-0.3235 -6.491109,-1.10314 -6.491109,-1.10314 0.268817,-0.72531 0.33373,-1.66899 0.334082,-2.41018 0,-0.69109 -0.05609,-1.20685 -0.05609,-1.20685 1.128187,-0.18697 3.372557,-0.30092 5.139267,-0.30092 0.71614,0 1.35361,0.0187 1.80622,0.0589 0.10019,0.009 0.19826,0.013 0.29563,0.013 2.65465,-2.6e-4 4.32682,-3.2318 7.11694,-4.81224 1.29787,-0.73484 2.5273,-0.95815 3.54224,-0.95815 0.62759,0 1.17334,0.0857 1.60161,0.18803 l -0.36795,0.57115 0.11571,-0.0268 c -0.20178,0.34502 -0.31397,0.71897 -0.34219,1.09432 -0.0286,-0.60748 0.16616,-1.1617 0.16616,-1.1617 l -1.10279,0.15734 c -6.93384,0.78811 -7.7216,9.14047 -7.7216,9.14047 l -4.03613,0.75671"
         style="fill:#8c7dc6;fill-opacity:1;fill-rule:nonzero;stroke:none;stroke-width:0.03527778"
         id="path13026"
         inkscape:connector-curvature="0" />
      <path
         d="m 126.28082,122.52275 c 0.0822,-0.13335 0.0406,-0.30798 -0.0924,-0.38982 -0.13335,-0.0822 -0.30833,-0.0406 -0.39017,0.0928 -0.0818,0.13299 -0.0406,0.30797 0.0928,0.38982 0.13335,0.0822 0.30797,0.0406 0.38982,-0.0928"
         style="fill:#ffffff;fill-opacity:1;fill-rule:nonzero;stroke:none;stroke-width:0.03527778"
         id="path13028"
         inkscape:connector-curvature="0" />
      <path
         d="m 127.57905,118.45063 0.002,0.003 -0.004,0.006 z"
         style="fill:#f89f87;fill-opacity:1;fill-rule:nonzero;stroke:none;stroke-width:0.03527778"
         id="path13030"
         inkscape:connector-curvature="0" />
      <path
         d="m 122.20165,115.82279 c 0.42157,0.1718 3.97016,0.92287 4.77838,3.17888 -0.37253,0.57997 -2.07998,2.40983 -2.02742,2.38548 0.10936,-0.0515 0.13759,-0.0857 0.81069,0.12665 0.0674,0.0183 0.1337,0.0402 0.19826,0.0737 0.54716,0.28293 0.76129,0.95532 0.47872,1.50178 -0.28258,0.54645 -0.95497,0.75988 -1.50248,0.47695 -0.14852,-0.0769 -0.27058,-0.18485 -0.36689,-0.30974 l -1.76354,2.81376 c -0.0462,0.10125 -0.0974,0.20144 -0.1584,0.29845 -0.74859,1.19451 -2.3241,1.5561 -3.5186,0.80716 -1.19486,-0.7486 -1.5561,-2.32446 -0.80716,-3.51896 0.0571,-0.0914 0.11995,-0.17569 0.18627,-0.25647 l 0.75353,-1.20262 c -0.89993,-1.0922 -0.3429,-2.37173 0.45861,-3.31576 0.80222,-0.94403 2.43629,-3.0159 2.48003,-3.05929"
         style="fill:#f57d7f;fill-opacity:1;fill-rule:nonzero;stroke:none;stroke-width:0.03527778"
         id="path13032"
         inkscape:connector-curvature="0" />
      <path
         d="m 125.56786,122.77216 c -10e-4,-0.17921 -0.061,-0.35772 -0.16863,-0.50165 0,0 0.0554,-0.0272 0.18662,0.01 0.13159,0.0363 0.37818,0.17921 0.37818,0.17921 -0.12242,-0.18662 -0.35596,-0.31785 -0.57432,-0.2734 -0.26176,0.0536 -0.42475,0.17603 -0.50659,0.38312 0,0 0.28257,-0.2847 0.44944,-0.26988 l 0.2353,0.47272"
         style="fill:#9f305d;fill-opacity:1;fill-rule:nonzero;stroke:none;stroke-width:0.03527778"
         id="path13034"
         inkscape:connector-curvature="0" />
      <path
         d="m 122.59782,120.88833 c -0.30162,0.29774 -0.89006,0.39687 -1.32009,-0.29634 0,0 0.30092,0.25189 0.64699,0.33267 0.34537,0.0811 0.6731,-0.0363 0.6731,-0.0363"
         style="fill:#9f305d;fill-opacity:1;fill-rule:nonzero;stroke:none;stroke-width:0.03527778"
         id="path13036"
         inkscape:connector-curvature="0" />
      <path
         d="m 123.88864,122.40386 c -0.15382,0 -0.30974,-0.0413 -0.4505,-0.12771 -0.40428,-0.24941 -0.53023,-0.77964 -0.28117,-1.18427 0.16264,-0.26388 0.44486,-0.40958 0.73378,-0.40958 0.15417,0 0.30974,0.0413 0.4505,0.12806 0.40464,0.24942 0.53058,0.77964 0.28152,1.18393 -0.16263,0.26422 -0.44521,0.40957 -0.73413,0.40957"
         style="fill:#f25871;fill-opacity:1;fill-rule:nonzero;stroke:none;stroke-width:0.03527778"
         id="path13038"
         inkscape:connector-curvature="0" />
      <path
         d="m 120.03383,119.80989 c -0.15416,0 -0.30973,-0.0413 -0.45049,-0.12771 -0.11007,-0.0681 -0.19756,-0.15769 -0.26423,-0.25859 0.12135,-0.18944 0.25788,-0.37112 0.40251,-0.54151 0.17357,-0.20426 0.3863,-0.46143 0.61313,-0.73907 0.0515,0.0194 0.10266,0.043 0.15099,0.073 0.40499,0.24941 0.53093,0.77964 0.28152,1.18463 -0.16228,0.26387 -0.4445,0.40922 -0.73343,0.40922"
         style="fill:#f25871;fill-opacity:1;fill-rule:nonzero;stroke:none;stroke-width:0.03527778"
         id="path13040"
         inkscape:connector-curvature="0" />
      <path
         d="m 122.02809,120.55389 -0.7867,-0.50835 1.40476,-1.49789 0.30904,0.19932 -0.9271,1.80692"
         style="fill:#f25871;fill-opacity:1;fill-rule:nonzero;stroke:none;stroke-width:0.03527778"
         id="path13042"
         inkscape:connector-curvature="0" />
      <path
         d="m 121.78467,117.44416 c -0.007,-0.22896 0.47554,-0.18839 0.73448,-0.0942 0.14147,0.0519 0.33691,0.18168 0.34467,0.2928 0.008,0.12206 -0.15452,0.10301 -0.29175,0.078 0.0395,0.003 0.079,0.006 0.11853,0.008 -0.12418,0.0113 -0.24518,-0.0339 -0.37641,-0.0526 -0.12242,-0.0173 -0.26141,-0.004 -0.38347,-0.0667 -0.0822,-0.043 -0.14393,-0.10195 -0.14605,-0.16545"
         style="fill:#f8bb78;fill-opacity:1;fill-rule:nonzero;stroke:none;stroke-width:0.03527778"
         id="path13044"
         inkscape:connector-curvature="0" />
      <path
         d="m 124.62488,119.30824 c -0.14005,-0.0945 -0.18732,-0.2025 -0.27904,-0.32527 -0.0854,-0.11394 -0.18309,-0.20073 -0.23883,-0.32385 0.0208,0.0342 0.0413,0.0684 0.0621,0.10231 -0.0893,-0.11007 -0.17675,-0.24518 -0.066,-0.29386 0.0963,-0.042 0.2995,0.0617 0.40922,0.15769 0.21413,0.18803 0.48189,0.59513 0.28046,0.7059 -0.036,0.0201 -0.11254,0.0145 -0.16793,-0.0229"
         style="fill:#f8bb78;fill-opacity:1;fill-rule:nonzero;stroke:none;stroke-width:0.03527778"
         id="path13046"
         inkscape:connector-curvature="0" />
      <path
         d="m 121.52432,118.65983 c -0.0825,0.12171 -0.19367,0.19015 -0.24871,0.1524 -0.0554,-0.0381 -0.0335,-0.16686 0.049,-0.28893 0.0825,-0.12135 0.19368,-0.18979 0.24906,-0.15204 0.0554,0.0377 0.0332,0.16686 -0.0494,0.28857"
         style="fill:#8b2d61;fill-opacity:1;fill-rule:nonzero;stroke:none;stroke-width:0.03527778"
         id="path13048"
         inkscape:connector-curvature="0" />
      <path
         d="m 123.52422,120.03496 c -0.0825,0.12135 -0.19403,0.18979 -0.24906,0.15204 -0.0554,-0.0374 -0.0332,-0.16651 0.049,-0.28857 0.0825,-0.12171 0.19403,-0.18979 0.24906,-0.1524 0.0554,0.0381 0.0332,0.16687 -0.049,0.28893"
         style="fill:#8b2d61;fill-opacity:1;fill-rule:nonzero;stroke:none;stroke-width:0.03527778"
         id="path13050"
         inkscape:connector-curvature="0" />
      <path
         d="m 125.20379,123.2791 c 0.0416,-0.0723 0.0162,-0.16475 -0.0557,-0.20602 -0.0723,-0.0413 -0.16475,-0.0166 -0.20602,0.0557 -0.0413,0.0723 -0.0166,0.16474 0.0557,0.20602 0.0727,0.0413 0.16439,0.0166 0.20602,-0.0557"
         style="fill:#f1dee5;fill-opacity:1;fill-rule:nonzero;stroke:none;stroke-width:0.03527778"
         id="path13052"
         inkscape:connector-curvature="0" />
      <path
         d="m 116.65669,142.72915 c 0,0 -4.93959,1.52605 -10.84192,-0.004 -4.25485,-1.1031 -9.612839,-4.72718 -4.09751,-8.35198 l 7.56461,-1.41816 c 0,0 0.78775,-8.35237 7.7216,-9.14048 l 1.10279,-0.15733 c 0,0 -0.72637,2.06727 0.8329,2.59221 1.55964,0.52458 3.62233,0.12029 3.62233,0.12029 0,0 2.0006,1.4859 1.93251,3.53307 0,0 -1.38606,-0.99201 -4.3628,3.16618 -2.97603,4.1582 -3.47451,9.66047 -3.47451,9.66047"
         style="fill:#a294d2;fill-opacity:1;fill-rule:nonzero;stroke:none;stroke-width:0.03527778"
         id="path13054"
         inkscape:connector-curvature="0" />
      <path
         d="m 112.59128,143.67079 c 0,0 0.47237,5.67295 -4.41254,6.30339 0,0 -1.57622,-1.26047 0.15733,-1.73355 1.73355,-0.47282 2.679,-1.41855 2.83669,-4.25485 0.15734,-2.83672 1.26048,-1.73358 1.41852,-0.31499"
         style="fill:#1c1623;fill-opacity:1;fill-rule:nonzero;stroke:none;stroke-width:0.03527778"
         id="path13056"
         inkscape:connector-curvature="0" />
      <path
         d="m 98.694661,140.38071 c 0,1.92539 2.865609,3.48643 12.493619,3.48643 9.62802,0 11.33158,-1.56104 11.33158,-3.48643 0,-1.92581 -1.70356,-3.4865 -11.33158,-3.4865 -9.62801,0 -12.493619,1.56069 -12.493619,3.4865"
         style="fill:#ced9de;fill-opacity:1;fill-rule:nonzero;stroke:none;stroke-width:0.03527778"
         id="path13058"
         inkscape:connector-curvature="0" />
      <path
         d="m 104.78748,139.60954 c -0.84807,-0.10195 -1.35325,-0.21625 -1.35325,-0.21625 l 0.001,-0.0201 c -0.58632,0.0723 -1.16064,0.0808 -1.62243,0.0356 -0.0716,-0.007 -0.22754,-0.0741 -0.28751,-0.11712 -0.06,-0.0423 -0.10195,-0.12065 -0.0797,-0.18839 0.0212,-0.0663 0.0956,-0.0924 0.15839,-0.12171 0.29175,-0.13652 0.46638,-0.13688 1.22697,-0.34149 -0.90699,0.17498 -1.47144,0.18768 -1.90606,0.14852 -0.21237,-0.0194 -0.33549,-0.0797 -0.37783,-0.16545 -0.0469,-0.0956 0.0226,-0.18133 0.10548,-0.24059 0.24307,-0.17392 0.5394,-0.21626 0.83468,-0.28117 0.56056,-0.12241 0.37465,-0.0892 0.93556,-0.21237 -0.58878,0.0568 -1.96074,0.1718 -2.06939,-0.0568 -0.1083,-0.22931 0.43462,-0.42157 0.61207,-0.45226 0.65087,-0.11324 0.7246,-0.18239 1.37583,-0.29563 -0.86183,0.0967 -1.8736,0.18697 -1.88665,-0.0642 -0.0127,-0.25118 1.64712,-0.63253 2.40453,-0.65828 -0.32632,-0.39547 -0.65123,-0.87031 -0.36901,-0.9144 0.32456,-0.0505 1.83374,1.17933 2.37455,1.52823 0.0695,-0.001 0.54328,0.41734 0.61701,0.41487"
         style="fill:#f57d7f;fill-opacity:1;fill-rule:nonzero;stroke:none;stroke-width:0.03527778"
         id="path13060"
         inkscape:connector-curvature="0" />
      <path
         d="m 104.58076,139.59437 c 9.46679,0.94544 11.50584,2.27294 19.19957,-5.47935 0,0 2.59857,-4.60657 -0.69603,-5.52802 -2.44722,-0.68475 -7.17373,6.76028 -8.91751,7.36176 -1.74378,0.60149 -5.06872,0.91652 -7.21713,0.88089 -0.79093,-0.013 -2.42676,-0.18803 -3.10092,-0.12418 l 0.73202,2.8889"
         style="fill:#f57d7f;fill-opacity:1;fill-rule:nonzero;stroke:none;stroke-width:0.03527778"
         id="path13062"
         inkscape:connector-curvature="0" />
      <path
         d="m 113.74028,140.20326 c -0.2032,0 -0.41169,-0.0113 -0.62477,-0.036 0.006,-0.45332 0.65899,-1.04069 1.44886,-1.21567 0.20108,-0.0448 0.39793,-0.066 0.58314,-0.066 0.60713,0 1.08761,0.22754 1.17016,0.60007 l 0.006,0.0437 c -0.6738,0.38524 -1.56386,0.67381 -2.58303,0.67381"
         style="fill:#f25871;fill-opacity:1;fill-rule:nonzero;stroke:none;stroke-width:0.03527778"
         id="path13064"
         inkscape:connector-curvature="0" />
      <path
         d="m 121.10099,126.33592 c 2.50084,-1.14829 4.81118,0.14323 5.20029,2.67899 0.51012,3.32988 -5.03555,7.87577 -7.77063,9.51901 l -2.552,-3.86892 c 0,0 3.2004,-7.44678 5.12234,-8.32908"
         style="fill:#a294d2;fill-opacity:1;fill-rule:nonzero;stroke:none;stroke-width:0.03527778"
         id="path13066"
         inkscape:connector-curvature="0" />
      <path
         d="m 119.7562,127.86945 c -1.33633,2.03799 -2.4698,4.19664 -3.39302,6.4523 -0.0564,0.13759 0.16792,0.19791 0.22366,0.0614 0.91546,-2.23626 2.0447,-4.37621 3.36938,-6.39692 0.0825,-0.12524 -0.11818,-0.24165 -0.20002,-0.11677"
         style="fill:#ffffff;fill-opacity:1;fill-rule:nonzero;stroke:none;stroke-width:0.03527778"
         id="path13068"
         inkscape:connector-curvature="0" />
      <path
         d="m 120.92989,137.51016 -2.40983,1.33914 -3.40783,-3.68829 1.27706,-1.81681 4.5406,4.16596"
         style="fill:#c1b5e1;fill-opacity:1;fill-rule:nonzero;stroke:none;stroke-width:0.03527778"
         id="path13070"
         inkscape:connector-curvature="0" />
      <path
         d="m 118.63225,123.20396 c -0.0318,-0.008 -0.0642,-0.0162 -0.0977,-0.024 l 0.59972,-0.93098 0.0522,0.0706 -0.55422,0.88441"
         style="fill:#f8a36b;fill-opacity:1;fill-rule:nonzero;stroke:none;stroke-width:0.03527778"
         id="path13072"
         inkscape:connector-curvature="0" />
      <path
         d="m 118.16658,123.75112 0.36795,-0.57115 c 0.0335,0.008 0.066,0.0159 0.0977,0.024 l -0.12277,0.1965 c -0.0663,0.0808 -0.12912,0.1651 -0.18627,0.25647 -0.0141,0.0222 -0.0279,0.0448 -0.0409,0.0674 l -0.11571,0.0268"
         style="fill:#7563b8;fill-opacity:1;fill-rule:nonzero;stroke:none;stroke-width:0.03527778"
         id="path13074"
         inkscape:connector-curvature="0" />
      <path
         d="m 118.28229,123.72431 c 0.013,-0.0226 0.0268,-0.0452 0.0409,-0.0674 0.0571,-0.0914 0.11994,-0.17569 0.18627,-0.25648 l 0.12276,-0.19649 0.55422,-0.88442 0.75424,1.0213 -1.65841,0.38346"
         style="fill:#f25871;fill-opacity:1;fill-rule:nonzero;stroke:none;stroke-width:0.03527778"
         id="path13076"
         inkscape:connector-curvature="0" />
      <path
         d="m 126.53094,121.49016 c -0.15169,0.49919 -0.77505,0.72426 -1.28446,0.61172 -0.50977,-0.11218 -0.92534,-0.46884 -1.31304,-0.81809 0.96873,-0.0177 1.7272,-1.16417 1.36525,-2.06269 -0.20602,-0.51153 -0.66852,-0.86395 -1.04034,-1.27177 -0.37148,-0.4071 -0.6731,-0.98566 -0.46108,-1.49471 -0.78635,0.52316 -2.04047,-0.12101 -2.07363,-1.06504 0.62124,-0.39405 1.43016,-0.23954 2.13889,-0.0427 1.36102,0.37888 2.76931,0.9204 3.62585,2.04399 0.85619,1.12431 0.87807,2.98203 -0.29281,3.77296"
         style="fill:#f8bb78;fill-opacity:1;fill-rule:nonzero;stroke:none;stroke-width:0.03527778"
         id="path13078"
         inkscape:connector-curvature="0" />
      <path
         d="m 124.63758,123.28439 c -0.19402,0.40429 -0.64346,0.67099 -1.09114,0.64665 -0.44732,-0.0236 -0.86572,-0.33726 -1.01529,-0.75954 -0.23919,0.87842 0.19755,1.9304 1.04316,2.26766 0.84561,0.33761 1.96321,-0.23001 2.08069,-1.13312"
         style="fill:#f8bb78;fill-opacity:1;fill-rule:nonzero;stroke:none;stroke-width:0.03527778"
         id="path13080"
         inkscape:connector-curvature="0" />
      <path
         d="m 117.62577,121.03261 c 0.42898,0.51294 0.21308,1.43757 -0.41945,1.65383 -0.63288,0.21625 -1.38995,-0.46814 -1.18816,-1.10561 -0.20602,0.71755 0.0106,1.57233 0.61631,2.00836 0.60607,0.43533 1.65805,0.12383 2.04505,-0.51399"
         style="fill:#f8bb78;fill-opacity:1;fill-rule:nonzero;stroke:none;stroke-width:0.03527778"
         id="path13082"
         inkscape:connector-curvature="0" />
      <path
         d="m 88.444702,143.14162 c -0.182739,0 -0.347839,-0.0477 -0.483306,-0.14788 -0.551392,-0.40926 -0.406752,-1.53882 0.323143,-2.52343 0.550688,-0.74295 1.277057,-1.19097 1.837267,-1.19097 0.18274,0 0.347488,0.0476 0.482955,0.14781 0.551743,0.40887 0.407103,1.53882 -0.323147,2.52377 -0.550685,0.74257 -1.276701,1.1907 -1.836912,1.1907"
         style="fill:#2e2751;fill-opacity:1;fill-rule:nonzero;stroke:none;stroke-width:0.03527778"
         id="path13084"
         inkscape:connector-curvature="0" />
      <path
         d="m 84.924686,139.34284 c -0.325263,0 -0.595842,-0.10019 -0.761648,-0.30868 -0.149932,-0.18909 -0.191911,-0.44345 -0.143934,-0.72567 0.993775,-0.97402 2.010127,-1.74978 3.107619,-2.32022 0.213431,0.0402 0.391231,0.13265 0.512233,0.28505 0.427215,0.53728 -0.0049,1.59138 -0.964493,2.35373 -0.587375,0.46637 -1.236486,0.71579 -1.749777,0.71579"
         style="fill:#282142;fill-opacity:1;fill-rule:nonzero;stroke:none;stroke-width:0.03527778"
         id="path13086"
         inkscape:connector-curvature="0" />
      <path
         d="m 114.16679,135.94876 1.47073,1.5233 -1.26048,0.42051 -1.05057,-1.68134 0.84032,-0.26247"
         style="fill:#ffffff;fill-opacity:1;fill-rule:nonzero;stroke:none;stroke-width:0.03527778"
         id="path13088"
         inkscape:connector-curvature="0" />
      <path
         d="m 113.85176,136.06694 0.70908,0.90594 -0.35454,0.11818 -0.66993,-0.90594 0.31539,-0.11818"
         style="fill:#ef2f7c;fill-opacity:1;fill-rule:nonzero;stroke:none;stroke-width:0.03527778"
         id="path13090"
         inkscape:connector-curvature="0" />
      <path
         d="m 134.12342,163.65162 c 0,1.23088 5.34388,2.22857 11.93624,2.22857 6.59236,0 11.93659,-0.99769 11.93659,-2.22857 0,-1.23041 -5.34423,-2.22772 -11.93659,-2.22772 -6.59236,0 -11.93624,0.99731 -11.93624,2.22772"
         style="fill:#ced9de;fill-opacity:1;fill-rule:nonzero;stroke:none;stroke-width:0.03527778"
         id="path13092"
         inkscape:connector-curvature="0" />
      <path
         d="m 147.36529,163.31649 h -1.89124 l 0.63076,-67.34274 h 1.26048 v 67.34274"
         style="fill:#ced9de;fill-opacity:1;fill-rule:nonzero;stroke:none;stroke-width:0.03527778"
         id="path13094"
         inkscape:connector-curvature="0" />
      <path
         d="m 114.24651,136.66243 c 1.85209,-1.21567 4.17478,-1.34479 6.22583,-0.56868 2.14065,0.80998 3.60045,2.66912 5.57882,3.75426 1.86196,1.02094 4.07494,1.52295 6.19408,1.28976 1.766,-0.19438 3.30058,-1.08444 4.48098,-2.39324 1.16275,-1.28976 1.91382,-2.90972 2.25742,-4.60517 0.30233,-1.49225 0.23989,-3.0166 0.23989,-4.53037 0,-3.31011 0,-6.61952 0,-9.92963 0,-3.41948 0,-6.8386 0,-10.25772 0,-0.2032 -0.31538,-0.20355 -0.31538,0 0,6.29638 0,12.59311 0,18.88948 0,1.32222 0.048,2.65501 -0.0134,3.97581 -0.0886,1.90465 -0.62794,3.79942 -1.71591,5.3788 -0.98072,1.42346 -2.4391,2.62678 -4.14725,3.02401 -2.21545,0.51506 -4.70394,0.01 -6.68903,-1.04245 -2.10925,-1.11831 -3.63325,-3.08963 -5.92031,-3.90667 -2.09374,-0.74788 -4.45982,-0.58102 -6.33483,0.64982 -0.16898,0.11077 -0.0109,0.38417 0.1591,0.27199"
         style="fill:#ef2f7c;fill-opacity:1;fill-rule:nonzero;stroke:none;stroke-width:0.03527778"
         id="path13096"
         inkscape:connector-curvature="0" />
      <path
         d="m 142.88783,98.644983 h -7.86976 c 0,0 -1.36878,10.606967 3.93488,10.606967 5.30366,0 3.93488,-10.606967 3.93488,-10.606967"
         style="fill:#ced9de;fill-opacity:1;fill-rule:nonzero;stroke:none;stroke-width:0.03527778"
         id="path13098"
         inkscape:connector-curvature="0" />
      <path
         d="m 135.95011,103.6322 c 0.20108,2.0948 0.91016,4.30636 3.01096,4.30636 2.04858,0 2.77389,-2.10432 2.99473,-4.15184"
         style="fill:#ef2f7c;fill-opacity:1;fill-rule:nonzero;stroke:none;stroke-width:0.03527778"
         id="path13100"
         inkscape:connector-curvature="0" />
      <path
         d="m 138.10558,108.62648 c 0.0564,0.5909 0.33408,1.5307 0.84949,1.5307 0.51541,0 0.78316,-0.90946 0.84525,-1.48731"
         style="fill:#ced9de;fill-opacity:1;fill-rule:nonzero;stroke:none;stroke-width:0.03527778"
         id="path13102"
         inkscape:connector-curvature="0" />
      <path
         d="m 136.24856,102.33116 h 5.40843 l 0.28963,-1.47003 h -5.98769 l 0.28963,1.47003"
         style="fill:#ffffff;fill-opacity:1;fill-rule:nonzero;stroke:none;stroke-width:0.03527778"
         id="path13104"
         inkscape:connector-curvature="0" />
      <path
         d="m 138.64533,98.390277 c 0,-0.173919 0.14111,-0.31503 0.31538,-0.31503 0.17392,0 0.31503,0.141111 0.31503,0.31503 0,0.174272 -0.14111,0.315384 -0.31503,0.315384 -0.17427,0 -0.31538,-0.141112 -0.31538,-0.315384 z m -0.72178,0.846667 2.05881,0.05292 c -0.0688,-0.717903 -0.40605,-1.858786 -1.03223,-1.858786 -0.62583,0 -0.95074,1.104194 -1.02658,1.805869"
         style="fill:#ced9de;fill-opacity:1;fill-rule:nonzero;stroke:none;stroke-width:0.03527778"
         id="path13106"
         inkscape:connector-curvature="0" />
      <path
         d="m 135.28371,97.066655 h 21.01144 v -1.680986 l -21.01144,0.630414 v 1.050572"
         style="fill:#ced9de;fill-opacity:1;fill-rule:nonzero;stroke:none;stroke-width:0.03527778"
         id="path13108"
         inkscape:connector-curvature="0" />
    </g>
  </g>
</svg>
