<?xml version="1.0" encoding="UTF-8" standalone="no"?>
<!-- Created with Inkscape (http://www.inkscape.org/) -->

<svg
   xmlns:dc="http://purl.org/dc/elements/1.1/"
   xmlns:cc="http://creativecommons.org/ns#"
   xmlns:rdf="http://www.w3.org/1999/02/22-rdf-syntax-ns#"
   xmlns:svg="http://www.w3.org/2000/svg"
   xmlns="http://www.w3.org/2000/svg"
   xmlns:sodipodi="http://sodipodi.sourceforge.net/DTD/sodipodi-0.dtd"
   xmlns:inkscape="http://www.inkscape.org/namespaces/inkscape"
   width="210mm"
   height="297mm"
   viewBox="0 0 210 297"
   version="1.1"
   id="svg14889"
   inkscape:version="0.92.5 (2060ec1f9f, 2020-04-08)"
   sodipodi:docname="image_5.svg">
  <defs
     id="defs14883" />
  <sodipodi:namedview
     id="base"
     pagecolor="#ffffff"
     bordercolor="#666666"
     borderopacity="1.0"
     inkscape:pageopacity="0.0"
     inkscape:pageshadow="2"
     inkscape:zoom="0.4665634"
     inkscape:cx="447.75072"
     inkscape:cy="390.92016"
     inkscape:document-units="mm"
     inkscape:current-layer="layer1"
     showgrid="false"
     inkscape:window-width="1848"
     inkscape:window-height="1009"
     inkscape:window-x="72"
     inkscape:window-y="34"
     inkscape:window-maximized="1" />
  <metadata
     id="metadata14886">
    <rdf:RDF>
      <cc:Work
         rdf:about="">
        <dc:format>image/svg+xml</dc:format>
        <dc:type
           rdf:resource="http://purl.org/dc/dcmitype/StillImage" />
        <dc:title />
      </cc:Work>
    </rdf:RDF>
  </metadata>
  <g
     inkscape:label="Layer 1"
     inkscape:groupmode="layer"
     id="layer1">
    <g
       id="g6356"
       transform="matrix(1.7739517,0,0,1.8813546,-45.967457,-90.799082)">
      <path
         d="m 71.729458,163.50772 c -3.160677,-0.0599 -6.186593,-0.28939 -8.936178,-0.76839 -2.692259,-0.46884 -5.422864,-1.05064 -7.833183,-2.5389 -2.539189,-1.56891 -4.627034,-4.13177 -5.853077,-7.18605 -0.453637,-1.13002 -0.796925,-2.37106 -0.682414,-3.61435 0.254529,-2.76324 2.550619,-4.50808 3.977852,-6.72035 2.902691,-4.49968 2.115714,-10.78794 1.58944,-16.40557 -0.526415,-5.61799 -0.221615,-12.33876 3.782307,-15.45026 3.949981,-3.06952 9.529268,-0.98213 13.955253,-2.40841 v 19.82364 c -0.87563,2.44263 -1.576211,5.44442 -1.896463,9.1126 -4.23e-4,0.004 -5.55e-4,0.007 -5.55e-4,0.0109 -1.41e-4,0.0109 0.0011,0.0222 0.0036,0.0335 0.05771,0.26529 0.805603,0.62971 1.893429,1.00153 v 25.11006"
         style="fill:#ecf3f8;fill-opacity:1;fill-rule:nonzero;stroke:none;stroke-width:0.03527778"
         id="path13308"
         inkscape:connector-curvature="0" />
      <path
         d="m 120.48028,164.65837 c -3.34116,0 -5.43349,-0.79294 -7.83872,-1.5864 -2.40454,-0.79333 -5.12234,-1.5868 -9.70986,-1.5868 -1.3335,0 -2.82434,0.0671 -4.512381,0.22049 l -0.3302,0.0931 c -7.205486,0.67952 -16.257411,1.72519 -24.591645,1.72519 -0.593266,0 -1.18304,-0.005 -1.768016,-0.0163 v -25.11006 c 0.138465,0.0473 0.28261,0.0949 0.431447,0.14217 0.167146,2.79083 0.322474,5.24193 0.322474,5.79508 0,1.92515 0.3955,14.0031 0.3955,14.0031 0.697265,0.10625 1.320553,0.14509 1.859774,0.14509 1.48128,0 2.32738,-0.29351 2.32738,-0.29351 0,0 1.605847,-14.18488 1.605847,-18.14516 0,-0.0384 -2.65e-4,-0.078 -2.65e-4,-0.11818 0.141817,0.0138 0.279755,0.0257 0.413456,0.0353 v 0 c 0.712611,0.0508 1.419225,0.0723 2.107142,0.0723 0.02469,0 0.04904,0 0.07373,0 0.129116,2.1336 0.232478,3.84951 0.232478,4.30107 0,1.92514 0.395465,14.00309 0.395465,14.00309 0.127,0.0195 0.251177,0.0364 0.372885,0.0515 l -0.08854,1.55194 c -0.732015,0.24405 -1.309865,0.47692 -1.309865,0.47692 v 0 0 c 0,0 1.986844,0.24338 4.053769,0.51816 0.9779,0.12954 2.761898,0.13381 2.975681,0.13381 0.0141,0 0.02117,0 0.02117,0 l 0.09701,-0.60925 c 0.119943,-0.004 0.221543,-0.007 0.301625,-0.0106 1.3462,0.52694 2.129718,0.64724 2.563987,0.64696 0.362656,0 0.481896,-0.0836 0.481896,-0.0836 L 94.16879,150.8834 c 3.08469,0.99413 7.80238,1.39873 12.51832,1.39912 6.1782,0 12.35216,-0.69494 14.84736,-1.67114 5.06659,-1.9812 10.04499,-15.56978 12.49327,-24.04456 2.95063,0.75389 6.14856,1.11337 8.46702,3.2692 3.32563,3.0935 3.5306,9.79804 0.40181,13.16495 -1.48308,1.59632 -3.50802,2.46302 -4.75403,4.32008 -2.03765,3.03608 -1.31163,7.5861 -2.85609,11.0024 -1.95016,4.3138 -6.68408,5.40646 -10.79959,6.0132 -1.52999,0.22571 -2.84409,0.32163 -4.00649,0.32163 M 88.32035,137.34815 c 0.03881,-1.02129 0.07373,-2.37666 0.07338,-3.94088 0,-2.57598 -0.09455,-5.71852 -0.422275,-8.86953 1.908878,1.64147 3.451225,2.20662 3.451225,2.20662 1.282345,-1.08797 1.536345,-2.73791 1.536345,-2.73791 -1.396294,-0.91687 -2.382308,-2.16676 -3.077985,-3.65372 l 2.2352,-2.39571 c 0.270933,1.72544 0.863245,4.32717 2.140302,6.69749 0.264583,0.55245 0.549275,1.05304 0.782814,1.36913 0.0019,-8e-4 0.01342,-0.0134 0.03175,-0.037 2.560461,3.6837 5.721354,4.01073 5.721354,4.01073 0.0773,-0.0773 0.14992,-0.15628 0.21836,-0.23707 0.38065,0.3302 0.6156,0.50412 0.6156,0.50412 l 0.013,-0.0127 c 0.0261,0.0392 0.0526,0.078 0.0794,0.11677 -0.65581,0.019 -1.30245,0.0236 -1.898647,0.0236 -0.286456,0 -0.561268,-0.001 -0.819502,-0.002 -0.02011,0 -0.04022,-2.6e-4 -0.06032,-2.6e-4 -2.028473,0 -4.036838,0.39475 -4.036838,0.39475 -0.567266,0.1196 -1.914877,0.49918 -1.855962,0.76518 0.01482,0.0646 0.106537,0.13688 0.318559,0.13688 0.0113,0 0.02257,0 0.03457,-2.7e-4 0.30198,-0.0106 0.658283,-0.0653 1.091848,-0.0829 -0.921808,0.0469 -2.348087,0.49072 -2.25072,0.87348 0.02611,0.10266 0.149928,0.14076 0.328435,0.14076 0.220485,0 0.523875,-0.0579 0.829027,-0.12171 -0.206727,0.0822 -0.396523,0.16757 -0.569735,0.25612 -0.250119,0.10759 -0.440974,0.21801 -0.52705,0.31256 -0.729899,0.50588 -1.029052,1.09008 -1.029052,1.71202 0,0.33408 0.08608,0.65723 0.278693,0.96309 -0.908756,0.25012 -1.724377,0.57044 -2.403123,0.97543 -0.293862,0.17568 -0.569383,0.3877 -0.828675,0.63323 m 14.247282,-7.01357 c -0.0159,-0.0321 -0.0321,-0.066 -0.049,-0.10124 0.0198,0.0346 0.0392,0.0681 0.0582,0.10089 -0.003,0 -0.006,2.6e-4 -0.009,2.6e-4 m 0.8382,-0.0543 c -0.0286,-0.0536 -0.0649,-0.1217 -0.11465,-0.21378 0.043,0.0607 0.0942,0.13265 0.15063,0.21096 -0.012,8e-4 -0.024,0.002 -0.036,0.003 m 0.80575,-0.0801 c -0.0759,-0.15134 -0.15311,-0.3048 -0.30656,-0.56162 0.12523,0.18309 0.25752,0.3743 0.38735,0.55174 -0.0268,0.004 -0.054,0.007 -0.0808,0.01 m 0.65228,-0.0924 c -0.21766,-0.45296 -0.53234,-0.97931 -0.76447,-1.26858 0.47414,-0.01 1.0033,-0.0681 0.86396,-0.29246 -0.16052,-0.25823 -1.93323,-0.57502 -2.50437,-0.74365 -0.0257,-0.0318 -0.26565,-0.0748 -0.45015,-0.11571 0.0734,-0.32562 0.0885,-0.53693 0.0885,-0.53693 v 0 0 c -3.914421,-2.13501 -5.100812,-6.87987 -5.693831,-12.21775 -0.593021,-5.33753 -5.186185,-5.67267 -5.186185,-5.67267 v 0 l -0.0127,0.018 c -0.0046,-0.004 -0.0092,-0.007 -0.01376,-0.0102 0.0095,-0.0173 0.01871,-0.0346 0.02787,-0.0519 l 0.737307,-1.05728 c 0.188028,0.0554 0.367593,0.0811 0.538691,0.0811 0.948264,0 1.637946,-0.78528 2.065161,-1.63406 2.64e-4,-3.5e-4 2.64e-4,-0.001 7.93e-4,-0.001 0.0011,-0.002 0.0024,-0.005 0.0039,-0.008 v 0 c 0.0013,-0.003 0.0028,-0.006 0.0042,-0.009 0.207081,-0.0325 0.41275,-0.0935 0.612423,-0.1778 1.101019,3.09456 2.12231,6.19583 4.549069,7.72583 0.958852,0.60466 2.010482,0.85972 3.084692,0.85972 1.69827,0 3.45369,-0.63712 4.99357,-1.53776 2.51354,-1.47038 4.74062,-3.58881 7.33319,-4.85422 1.22555,-0.59831 2.59574,-0.96838 3.92782,-0.96838 1.48555,0 2.92312,0.46038 4.05907,1.57763 1.38959,1.36701 2.00977,3.3274 2.46274,5.43313 -0.40076,-0.0268 -0.80328,-0.042 -1.20544,-0.0459 -0.0614,-0.72214 -0.36195,-1.40688 -0.87877,-2.01683 -0.51471,-0.60784 -1.31798,-0.86501 -2.02212,-1.23719 -1.01071,-0.53376 -1.86867,-1.35397 -2.44828,-2.33927 -0.0649,0.39969 -0.013,0.81809 0.14781,1.18992 -0.44908,-0.5006 -0.99272,-1.04246 -1.65558,-1.04246 -0.0236,0 -0.0476,7.1e-4 -0.0716,0.002 -0.60361,0.036 -1.06892,0.51505 -1.55681,0.87206 -0.30233,0.22119 -0.69885,0.39441 -1.0601,0.39441 -0.22225,0 -0.43109,-0.0656 -0.59655,-0.22543 0.16687,0.57468 0.59761,1.06751 1.14547,1.30916 -0.77893,0.24977 -0.768,1.35502 -1.22343,2.03447 -0.10901,0.16298 -0.32703,0.29104 -0.50447,0.29104 -0.0885,0 -0.16722,-0.0318 -0.21731,-0.10654 -0.007,-0.0123 -0.0138,-0.0243 -0.0208,-0.0367 0.006,0.0131 0.013,0.0254 0.0208,0.0367 0.46566,0.81563 1.258,1.46721 2.17134,1.657 -0.0575,0.19297 -0.1143,0.381 -0.16898,0.55915 -0.1016,0.29775 -0.1972,0.57327 -0.27799,0.79622 -0.0723,0.19932 -0.13264,0.40605 -0.1778,0.61454 8e-4,0 0.001,3.5e-4 0.001,7.2e-4 -0.0384,0.14569 -0.0695,0.2928 -0.091,0.44026 -0.74754,0.86255 -1.46896,1.96497 -2.16041,3.3775 -1.53388,0.44273 -3.49955,2.06092 -5.21405,6.76875 l 0.42121,0.32385 c -0.69497,0.76482 -1.30739,1.35572 -1.77447,1.52364 -0.37359,0.13406 -0.81915,0.23883 -1.30951,0.32068 m -33.134332,-1.86875 v -19.82364 c 0.936378,-0.30163 1.821321,-0.76094 2.628054,-1.45909 2.010551,-1.74061 3.062534,-4.62562 4.84318,-6.68443 1.679929,-1.942044 4.012496,-2.886783 6.354939,-2.886783 0.07056,0 0.141111,7.15e-4 0.211667,0.0025 0.09313,0.09384 0.197908,0.176389 0.31256,0.243064 -0.161925,-0.06244 -0.324908,-0.09102 -0.485775,-0.09102 -0.891116,0 -1.72226,0.880886 -2.079977,1.775178 -0.207433,0.517878 -0.338666,1.078791 -0.339373,1.633711 -2.64e-4,0.30621 0.03916,0.61066 0.127707,0.90523 0.248708,0.82938 0.93839,1.55434 1.794227,1.68346 v 0 0 0 0 0 0 c -0.262112,-0.25859 -0.409575,-0.62865 -0.408869,-0.99484 0,-0.18521 0.0381,-0.36936 0.118182,-0.53763 0.19826,-0.41663 0.653695,-0.69674 1.109485,-0.69674 0.09208,0 0.18415,0.0116 0.274108,0.0356 0.271992,0.0727 0.505883,0.24201 0.745419,0.38947 0.2667,0.16404 0.555625,0.30374 0.855133,0.40146 -0.01588,0.57926 0.105481,1.13171 0.366538,1.71521 0.137935,0.30903 0.362654,0.58631 0.633235,0.79763 l -1.575152,2.19039 c -0.669221,-1.12077 -1.560338,-1.59385 -2.388658,-1.59385 -0.32879,0 -0.6477,0.0744 -0.938742,0.21273 -0.400756,0.19015 -0.715433,0.44732 -0.959204,0.76235 -1.119717,1.03752 -1.484487,2.97745 -2.074334,4.80095 l -2.089502,7.48807 c 0,0 -4.34287,2.22003 -7.034848,9.73103"
         style="fill:#edf3f8;fill-opacity:1;fill-rule:nonzero;stroke:none;stroke-width:0.03527778"
         id="path13310"
         inkscape:connector-curvature="0" />
      <path
         d="m 93.171398,100.29061 c 0.266346,0.3302 0.811742,0.29387 1.147937,0.0356 0.33655,-0.25788 0.51435,-0.667804 0.673455,-1.060798 0.192616,-0.475545 0.379587,-0.96132 0.43462,-1.471789 0.151696,-1.406878 -0.324908,-2.965097 -1.383241,-3.904545 -1.207911,-1.072091 -3.436761,-1.58503 -4.811536,-0.737305 -0.773287,0.476955 -1.203677,1.339144 -1.617133,2.148064 -0.25682,0.502355 -0.561975,1.038225 -1.08585,1.248833 -0.52352,0.210256 -1.27776,-0.156986 -1.204029,-0.716492 -0.171804,0.676275 0.151694,1.447095 0.754237,1.798461 -1.061153,-0.408869 -2.143477,0.62865 -2.565752,1.684162 -0.321733,0.803629 -0.460375,1.709909 -0.211666,2.538939 0.248708,0.82938 0.93839,1.55434 1.794227,1.68346 -0.395111,-0.38912 -0.528812,-1.03152 -0.290687,-1.53247 0.238476,-0.50059 0.847725,-0.80433 1.383593,-0.6611 0.271992,0.0727 0.505883,0.242 0.745419,0.38946 0.671338,0.41275 1.483431,0.6724 2.250371,0.49107 0.766585,-0.18168 1.432277,-0.90593 1.351843,-1.68981 l 2.634192,-0.24377"
         style="fill:#ef2f7c;fill-opacity:1;fill-rule:nonzero;stroke:none;stroke-width:0.03527778"
         id="path13312"
         inkscape:connector-curvature="0" />
      <path
         d="m 85.096667,103.53723 c -0.855837,-0.12912 -1.545519,-0.85408 -1.794227,-1.68346 -0.08855,-0.29457 -0.128059,-0.59901 -0.127707,-0.90523 7.94e-4,-0.55491 0.13194,-1.115831 0.339373,-1.633708 0.357717,-0.894292 1.188861,-1.775178 2.079977,-1.775178 0.160867,0 0.32385,0.02858 0.485775,0.09102 v 0 0 c -0.494241,-0.288219 -0.800803,-0.858661 -0.8001,-1.427692 0,-0.124883 0.01482,-0.249414 0.04586,-0.370769 -0.0035,0.02646 -0.0053,0.05221 -0.0049,0.07796 0.0013,0.409575 0.450498,0.6985 0.885118,0.6985 0.11148,0 0.22225,-0.01905 0.32385,-0.05997 0.523875,-0.210608 0.82903,-0.746478 1.08585,-1.248834 0.413413,-0.80892 0.843802,-1.671109 1.617089,-2.148064 0.476957,-0.294217 1.056924,-0.424392 1.661232,-0.424392 1.137356,0 2.361493,0.461434 3.150304,1.161697 0.930275,0.825853 1.411113,2.129367 1.410758,3.388078 0,0.173567 -0.0088,0.346075 -0.02752,0.516467 -0.03457,0.322086 -0.12206,0.634647 -0.230362,0.940858 -0.889,-0.654403 -1.955096,-1.074208 -3.054702,-1.086908 -0.01516,0 -0.03069,0 -0.04621,0 -1.320449,0 -2.661709,0.640644 -3.355624,1.763183 -0.304093,0.492478 -0.6858,1.264712 -0.823735,1.826682 -0.0762,0.3108 -0.118533,0.60713 -0.126648,0.89711 -0.299509,-0.0977 -0.588434,-0.23741 -0.855134,-0.40146 -0.239535,-0.14746 -0.473427,-0.31679 -0.745419,-0.38946 -0.08996,-0.024 -0.182033,-0.0356 -0.274108,-0.0356 -0.45579,0 -0.911225,0.2801 -1.109485,0.69673 -0.08008,0.16828 -0.118182,0.35243 -0.118182,0.53764 -7.94e-4,0.36618 0.146757,0.73624 0.408869,0.99483"
         style="fill:#ee1f6f;fill-opacity:1;fill-rule:nonzero;stroke:none;stroke-width:0.03527778"
         id="path13314"
         inkscape:connector-curvature="0" />
      <path
         d="m 100.6584,129.44558 c 0.58279,0.53375 0.96802,0.8188 0.96802,0.8188 l 0.013,-0.0127 c 0.30339,0.45473 0.64382,0.86254 0.95427,1.15923 0.0483,0.0462 0.18944,0.11465 0.25541,0.13123 0.066,0.0162 0.1464,-10e-4 0.18027,-0.0575 0.0339,-0.0554 0.007,-0.12312 -0.01,-0.18486 -0.0804,-0.28716 -0.18556,-0.40922 -0.50095,-1.06644 0.42404,0.74154 0.756,1.14511 1.04564,1.42627 0.14181,0.13724 0.25787,0.18733 0.34395,0.1651 0.0952,-0.0243 0.11325,-0.12488 0.10478,-0.21872 -0.0247,-0.27551 -0.17357,-0.5087 -0.30621,-0.75529 -0.25224,-0.46708 -0.16334,-0.3168 -0.41557,-0.78423 0.31573,0.44697 1.06256,1.47884 1.28869,1.41711 0.22578,-0.0621 0.0335,-0.5588 -0.0522,-0.70238 -0.31327,-0.52458 -0.30938,-0.61807 -0.62265,-1.14265 0.45191,0.66287 0.99907,1.42664 1.18286,1.28411 0.18415,-0.14252 -0.54998,-1.5367 -0.98848,-2.0835 0.47413,-0.01 1.0033,-0.0681 0.86395,-0.29246 -0.16051,-0.25823 -1.93322,-0.57502 -2.50437,-0.74365 -0.0409,-0.0501 -0.62053,-0.12947 -0.66322,-0.18274 l -1.13732,1.82527"
         style="fill:#f79393;fill-opacity:1;fill-rule:nonzero;stroke:none;stroke-width:0.03527778"
         id="path13316"
         inkscape:connector-curvature="0" />
      <path
         d="m 91.217363,109.25999 c 0,0 4.593164,0.33514 5.186185,5.67267 0.593019,5.33788 1.77941,10.08274 5.693832,12.21775 0,0 -0.11889,1.66088 -1.30492,2.84692 0,0 -3.439941,-0.3556 -6.049437,-4.50745 -2.60985,-4.15149 -2.846917,-9.48937 -2.846917,-9.48937 l -0.678743,-6.74052"
         style="fill:#ddeaf1;fill-opacity:1;fill-rule:nonzero;stroke:none;stroke-width:0.03527778"
         id="path13318"
         inkscape:connector-curvature="0" />
      <path
         d="m 95.039356,126.02364 c -0.233539,-0.31609 -0.518231,-0.81668 -0.782814,-1.36913 0.146402,0.27163 0.301977,0.54045 0.466725,0.80433 2.64e-4,2.6e-4 0.0011,0.001 0.0013,0.002 0.0024,0.004 0.0049,0.008 0.0074,0.0116 7.94e-4,10e-4 0.0013,0.002 0.0021,0.003 0.0028,0.005 0.0056,0.01 0.0088,0.0141 v 0 c 0.10795,0.17216 0.21731,0.33726 0.328084,0.49671 -0.01834,0.0236 -0.02999,0.0363 -0.03175,0.037"
         style="fill:#dad8e0;fill-opacity:1;fill-rule:nonzero;stroke:none;stroke-width:0.03527778"
         id="path13320"
         inkscape:connector-curvature="0" />
      <path
         d="m 94.743023,125.48988 c -0.0032,-0.005 -0.006,-0.01 -0.0088,-0.0141 0.0028,0.005 0.0056,0.01 0.0088,0.0141 m -0.01093,-0.0173 c -0.0024,-0.004 -0.0049,-0.008 -0.0074,-0.0116 0.0024,0.004 0.0049,0.008 0.0074,0.0116 m -0.0088,-0.0138 c -0.164748,-0.26388 -0.320323,-0.53269 -0.466725,-0.80433 0,-2.6e-4 0,-2.6e-4 0,-2.6e-4 0.146402,0.27164 0.301625,0.54045 0.466725,0.80468"
         style="fill:#ced2db;fill-opacity:1;fill-rule:nonzero;stroke:none;stroke-width:0.03527778"
         id="path13322"
         inkscape:connector-curvature="0" />
      <path
         d="m 73.35086,156.65568 -0.191276,3.35209 c 0,0 1.563088,0.29489 2.548962,0.37677 1.956787,0.16189 3.799769,0.0561 3.799769,0.0561 0,0 -1.979965,-1.12681 -3.120284,-1.49722 l -0.440407,-2.61374 -2.596764,0.32604"
         style="fill:#1c1623;fill-opacity:1;fill-rule:nonzero;stroke:none;stroke-width:0.03527778"
         id="path13324"
         inkscape:connector-curvature="0" />
      <path
         d="m 71.285699,129.98004 h 0.469794 c 0.01669,3.29882 0.727886,13.17166 0.727886,14.35487 0,1.92515 0.3955,14.0031 0.3955,14.0031 2.612743,0.39768 4.187154,-0.14842 4.187154,-0.14842 0,0 1.605847,-14.18488 1.605847,-18.14516 0,-0.97261 -0.09031,-2.61443 -0.186974,-4.46511 l -7.199207,-5.59928"
         style="fill:#377dc0;fill-opacity:1;fill-rule:nonzero;stroke:none;stroke-width:0.03527778"
         id="path13326"
         inkscape:connector-curvature="0" />
      <path
         d="m 76.282057,148.67934 c -0.02328,0 -0.04657,-0.001 -0.06985,-0.004 -0.636942,-0.0678 -1.055441,-1.04426 -0.935003,-2.18158 0.116171,-1.09608 0.690385,-1.94102 1.301679,-1.94102 0.02331,0 0.0466,0.001 0.06989,0.004 0.636939,0.0674 1.055581,1.04419 0.935,2.18162 -0.116168,1.09569 -0.690279,1.94056 -1.301713,1.94056"
         style="fill:#345eb4;fill-opacity:1;fill-rule:nonzero;stroke:none;stroke-width:0.03527778"
         id="path13328"
         inkscape:connector-curvature="0" />
      <path
         d="m 93.384827,106.41025 c 1.020233,0.53481 2.317398,-0.0515 3.046238,-0.94368 0.969785,-1.18674 1.241425,-2.90513 0.685445,-4.33317 -0.290687,-0.74648 -0.785283,-1.402643 -1.372658,-1.946627 -0.980017,-0.907697 -2.265892,-1.524 -3.601506,-1.539169 -1.335265,-0.01517 -2.699808,0.627239 -3.401838,1.763183 -0.304093,0.492478 -0.6858,1.264703 -0.823735,1.826683 -0.2286,0.93169 -0.151693,1.73672 0.23989,2.61232 0.391583,0.87595 1.476727,1.49754 2.341385,1.08232 l 2.886779,1.47814"
         style="fill:#ef2f7c;fill-opacity:1;fill-rule:nonzero;stroke:none;stroke-width:0.03527778"
         id="path13330"
         inkscape:connector-curvature="0" />
      <path
         d="m 89.1903,102.40834 c 0.0822,-0.11606 0.242713,-0.14323 0.358775,-0.061 0.116065,0.0822 0.14323,0.24271 0.06103,0.35877 -0.0822,0.11607 -0.24271,0.14323 -0.358775,0.0614 -0.116063,-0.0822 -0.14358,-0.24341 -0.06103,-0.35912"
         style="fill:#ffffff;fill-opacity:1;fill-rule:nonzero;stroke:none;stroke-width:0.03527778"
         id="path13332"
         inkscape:connector-curvature="0" />
      <path
         d="m 92.132467,99.876454 -0.0035,-0.0014 -0.0032,0.0046 z"
         style="fill:#f89f87;fill-opacity:1;fill-rule:nonzero;stroke:none;stroke-width:0.03527778"
         id="path13334"
         inkscape:connector-curvature="0" />
      <path
         d="m 96.24021,103.43669 c -0.29351,-0.2914 -2.182635,-2.9905 -4.355039,-2.86421 -0.352779,0.51753 -1.275291,2.59504 -1.273175,2.54212 0.0035,-0.10936 0.02222,-0.14534 -0.394406,-0.63253 -0.03916,-0.0494 -0.08114,-0.0974 -0.13194,-0.13899 -0.430742,-0.35702 -1.069269,-0.29704 -1.425575,0.13335 -0.356304,0.43003 -0.295627,1.06821 0.135115,1.42522 0.117475,0.097 0.251177,0.16051 0.389466,0.19685 l -2.053518,2.85573 c -0.06809,0.0748 -0.134057,0.15311 -0.193323,0.23813 -0.732367,1.05022 -0.14605,2.1142 0.904523,2.84621 1.05057,0.73237 2.495902,0.47449 3.228268,-0.57573 0.05609,-0.0801 0.104069,-0.16299 0.148167,-0.24695 l 0.737307,-1.05727 c 1.232955,0.36371 2.10467,-0.55633 2.608437,-1.5621 0.503766,-1.00577 1.654881,-3.10762 1.675693,-3.15983"
         style="fill:#f79393;fill-opacity:1;fill-rule:nonzero;stroke:none;stroke-width:0.03527778"
         id="path13336"
         inkscape:connector-curvature="0" />
      <path
         d="m 89.235456,103.09308 c 0.150284,-0.0628 0.320324,-0.0762 0.478719,-0.0378 0,0 0.0032,-0.0561 -0.07408,-0.1524 -0.07761,-0.0967 -0.284337,-0.25188 -0.284337,-0.25188 0.199318,0.0356 0.392287,0.18415 0.432503,0.38241 0.04868,0.23812 0.0035,0.41769 -0.140052,0.55986 0,0 0.137232,-0.33726 0.06562,-0.47131 l -0.478367,-0.0289"
         style="fill:#9f305d;fill-opacity:1;fill-rule:nonzero;stroke:none;stroke-width:0.03527778"
         id="path13338"
         inkscape:connector-curvature="0" />
      <path
         d="m 91.117173,109.2801 -0.432858,-1.76918 c 0.606777,0.50235 1.20156,0.66639 1.20156,0.66639 l -0.768702,1.10279"
         style="fill:#f47284;fill-opacity:1;fill-rule:nonzero;stroke:none;stroke-width:0.03527778"
         id="path13340"
         inkscape:connector-curvature="0" />
      <path
         d="m 91.865415,104.90565 c -0.141817,0.35807 -0.01553,0.88512 0.717198,0.99836 0,0 -0.317855,-0.16227 -0.508355,-0.42262 -0.1905,-0.26 -0.208843,-0.57574 -0.208843,-0.57574"
         style="fill:#9f305d;fill-opacity:1;fill-rule:nonzero;stroke:none;stroke-width:0.03527778"
         id="path13342"
         inkscape:connector-curvature="0" />
      <path
         d="m 90.858233,104.84039 c -0.156278,0 -0.314325,-0.0466 -0.451553,-0.14393 -0.352074,-0.24977 -0.43533,-0.73766 -0.185563,-1.08973 0.1524,-0.2152 0.3937,-0.32985 0.638529,-0.32985 0.156279,0 0.313971,0.0469 0.451554,0.14428 0.352073,0.24942 0.434975,0.73731 0.185208,1.08938 -0.152045,0.2152 -0.393345,0.32985 -0.638175,0.32985"
         style="fill:#f47284;fill-opacity:1;fill-rule:nonzero;stroke:none;stroke-width:0.03527778"
         id="path13344"
         inkscape:connector-curvature="0" />
      <path
         d="m 94.559931,106.60569 c 2.65e-4,-7.2e-4 2.65e-4,-10e-4 7.94e-4,-10e-4 -2.64e-4,3.4e-4 -2.64e-4,10e-4 -7.94e-4,10e-4 m 0.0046,-0.009 v 0 c 0.0013,-0.003 0.0028,-0.006 0.0042,-0.009 v 0 c -0.0013,0.003 -0.0028,0.006 -0.0042,0.009 v 0"
         style="fill:#e9edf8;fill-opacity:1;fill-rule:nonzero;stroke:none;stroke-width:0.03527778"
         id="path13346"
         inkscape:connector-curvature="0" />
      <path
         d="m 94.56875,106.5877 c 0.07726,-0.15381 0.169333,-0.33267 0.269875,-0.52564 -0.100542,0.19297 -0.192617,0.37183 -0.269875,0.52564 v 0"
         style="fill:#ee1f6f;fill-opacity:1;fill-rule:nonzero;stroke:none;stroke-width:0.03527778"
         id="path13348"
         inkscape:connector-curvature="0" />
      <path
         d="m 94.254777,107.12568 c -0.10795,-0.0198 -0.214135,-0.061 -0.309737,-0.12876 -0.352073,-0.24977 -0.43533,-0.73801 -0.185563,-1.09008 0.1524,-0.21485 0.3937,-0.3295 0.638529,-0.3295 0.156279,0 0.314325,0.0466 0.451554,0.14394 0.04233,0.0303 0.08043,0.0642 0.115007,0.10018 -0.04339,0.0822 -0.08537,0.16228 -0.125942,0.2406 -0.100542,0.19297 -0.192617,0.37183 -0.269875,0.52564 -0.0013,0.003 -0.0028,0.006 -0.0042,0.009 v 0 c -0.0013,0.003 -0.0028,0.005 -0.0039,0.008 -2.64e-4,3.4e-4 -2.64e-4,7.1e-4 -7.93e-4,0.001 -0.08996,0.1785 -0.191913,0.35383 -0.305155,0.51999"
         style="fill:#f47284;fill-opacity:1;fill-rule:nonzero;stroke:none;stroke-width:0.03527778"
         id="path13350"
         inkscape:connector-curvature="0" />
      <path
         d="m 93.051806,105.74033 -0.704498,-0.47731 1.1811,-1.41711 0.276225,0.18732 -0.752827,1.7071"
         style="fill:#f47284;fill-opacity:1;fill-rule:nonzero;stroke:none;stroke-width:0.03527778"
         id="path13352"
         inkscape:connector-curvature="0" />
      <path
         d="m 95.033358,104.36132 c 0.193675,-0.0751 -0.0113,-0.46461 -0.182385,-0.647 -0.09349,-0.0998 -0.27164,-0.21766 -0.367596,-0.18415 -0.104775,0.0363 -0.03104,0.16546 0.03881,0.27199 -0.01659,-0.0325 -0.03281,-0.0646 -0.04939,-0.097 0.03563,0.10795 0.115712,0.19297 0.178154,0.29634 0.05785,0.096 0.09595,0.21696 0.192262,0.29668 0.06491,0.0536 0.135821,0.0843 0.190148,0.0632"
         style="fill:#ef2f7c;fill-opacity:1;fill-rule:nonzero;stroke:none;stroke-width:0.03527778"
         id="path13354"
         inkscape:connector-curvature="0" />
      <path
         d="m 92.465842,102.64999 c 0.128413,0.0832 0.236008,0.0847 0.370771,0.11783 0.125942,0.0307 0.232831,0.0815 0.355597,0.0843 -0.03598,-0.005 -0.07161,-0.0102 -0.107595,-0.0155 0.123825,0.0353 0.26811,0.0607 0.269168,-0.049 0.0011,-0.096 -0.158043,-0.2286 -0.277283,-0.2861 -0.233185,-0.11219 -0.668867,-0.19121 -0.690033,0.0162 -0.0035,0.0374 0.02787,0.0991 0.07937,0.13229"
         style="fill:#ef2f7c;fill-opacity:1;fill-rule:nonzero;stroke:none;stroke-width:0.03527778"
         id="path13356"
         inkscape:connector-curvature="0" />
      <path
         d="m 94.109433,105.01078 c -0.07232,0.11254 -0.08996,0.23001 -0.03881,0.26247 0.05115,0.0328 0.151342,-0.0314 0.224015,-0.14394 0.07232,-0.11183 0.08961,-0.2293 0.03845,-0.26211 -0.05115,-0.0328 -0.150988,0.0318 -0.223661,0.14358"
         style="fill:#8b2d61;fill-opacity:1;fill-rule:nonzero;stroke:none;stroke-width:0.03527778"
         id="path13358"
         inkscape:connector-curvature="0" />
      <path
         d="m 92.24959,103.82827 c -0.07232,0.11218 -0.08996,0.22966 -0.03881,0.26247 0.05115,0.0328 0.151342,-0.0318 0.224015,-0.14358 0.07232,-0.11254 0.08961,-0.23002 0.03845,-0.26247 -0.05115,-0.0328 -0.150987,0.0314 -0.22366,0.14358"
         style="fill:#8b2d61;fill-opacity:1;fill-rule:nonzero;stroke:none;stroke-width:0.03527778"
         id="path13360"
         inkscape:connector-curvature="0" />
      <path
         d="m 88.940888,103.57744 c 0.04586,-0.0607 0.131937,-0.0723 0.192262,-0.0265 0.06033,0.0455 0.07197,0.13159 0.02611,0.19192 -0.04551,0.06 -0.131585,0.0723 -0.19191,0.0265 -0.05997,-0.0459 -0.07197,-0.13159 -0.02646,-0.19192"
         style="fill:#f1dee5;fill-opacity:1;fill-rule:nonzero;stroke:none;stroke-width:0.03527778"
         id="path13362"
         inkscape:connector-curvature="0" />
      <path
         d="m 82.365815,156.65568 -0.191207,3.35209 c 0,0 1.563159,0.29489 2.549173,0.37677 1.956507,0.16189 3.799417,0.0561 3.799417,0.0561 0,0 -1.97979,-1.12681 -3.119967,-1.49722 l -0.440618,-2.61374 -2.596798,0.32604"
         style="fill:#1c1623;fill-opacity:1;fill-rule:nonzero;stroke:none;stroke-width:0.03527778"
         id="path13364"
         inkscape:connector-curvature="0" />
      <path
         d="m 80.301006,129.98004 h 0.469549 c 0.01693,3.29882 0.727778,13.17166 0.727778,14.35487 0,1.92515 0.395465,14.0031 0.395465,14.0031 2.613025,0.39768 4.187473,-0.14842 4.187473,-0.14842 0,0 1.605844,-14.18488 1.605844,-18.14516 0,-2.14312 -0.438857,-7.53674 -0.41769,-11.25184 0.01304,-2.25707 -2.506837,-6.29215 -2.506837,-6.29215 l -0.988838,-0.51858 h -3.051527 l -0.421217,7.99818"
         style="fill:#377dc0;fill-opacity:1;fill-rule:nonzero;stroke:none;stroke-width:0.03527778"
         id="path13366"
         inkscape:connector-curvature="0" />
      <path
         d="m 87.217921,106.8484 c 0,0 -0.03598,1.55434 1.458029,2.42958 1.502833,0.85972 2.493433,-0.0265 2.493433,-0.0265 1.575507,1.18463 3.238852,1.81398 3.999794,3.98392 0.36689,0.74824 -1.814335,2.25072 -2.075392,2.45145 l -1.994955,1.46086 -6.985707,9.94445 c 0,0 -0.463198,1.02411 -4.853517,-1.4919 v 2.6e-4 l -0.02646,-0.0155 -0.02646,-0.0152 2.64e-4,-2.6e-4 c -4.367772,-2.55517 -3.869754,-1.54199 -3.869754,-1.54199 l 3.850356,-4.52473 2.275769,-6.13198 0.696383,-4.17936 c 0.04445,-0.32667 3.246263,-3.11997 5.05813,-2.34315"
         style="fill:#377dc0;fill-opacity:1;fill-rule:nonzero;stroke:none;stroke-width:0.03527778"
         id="path13368"
         inkscape:connector-curvature="0" />
      <path
         d="m 92.328613,109.77998 -0.147108,-0.0688 c -0.144992,-0.0921 -0.633238,-0.26599 -0.789872,-0.35912 l 0.93698,0.42792"
         style="fill:#ced9de;fill-opacity:1;fill-rule:nonzero;stroke:none;stroke-width:0.03527778"
         id="path13370"
         inkscape:connector-curvature="0" />
      <path
         d="M 78.764306,118.50806 80.853808,111.02 c 0.93839,-2.90019 1.305984,-6.09459 5.050015,-5.48499 l 1.13171,1.4799 0.530932,7.50288 3.650898,-5.2578 0.964142,0.4512 c 7.44008,4.711 0.33796,8.10013 -0.01799,8.19503 l -4.419248,4.7371 c 1.095023,8.02322 0.474485,16.72519 0.474485,16.72519 0,0 -4.464754,0.92639 -9.133769,0.59302 -3.32119,-0.23707 -9.316756,-1.86902 -9.251986,-2.60985 1.304714,-14.94578 8.931311,-18.84362 8.931311,-18.84362"
         style="fill:#ddeaf1;fill-opacity:1;fill-rule:nonzero;stroke:none;stroke-width:0.03527778"
         id="path13372"
         inkscape:connector-curvature="0" />
      <path
         d="m 100.79246,129.99733 c 0,0 -3.160893,-0.32703 -5.721354,-4.01074 0.130175,-0.17003 0.5969,-0.91051 0.216604,-1.95756 -0.263877,-0.72778 -1.147233,-1.31022 -1.642179,-1.31022 -0.04269,0 -0.0822,0.004 -0.118533,0.0134 0.143227,0.57256 0.422979,1.282 0.729544,1.92194 -1.277057,-2.37067 -1.869369,-4.97205 -2.13995,-6.69749 l 0.04692,-0.0505 c 0.3556,-0.0945 7.452429,-3.48086 0.02822,-8.18868 l 0.13688,0.0624 -0.147108,-0.0688 c -0.06138,-0.0392 -0.18415,-0.0928 -0.3175,-0.14852 L 91.217362,109.26 c 0,0 4.593164,0.33514 5.186185,5.67267 0.593019,5.33788 1.77941,10.08274 5.693833,12.21775 0,0 -0.0152,0.21132 -0.0885,0.53693 -0.11853,0.52775 -0.39017,1.35643 -0.99801,2.07292 -0.0684,0.0808 -0.14111,0.15981 -0.21837,0.23707"
         style="fill:#d5dde6;fill-opacity:1;fill-rule:nonzero;stroke:none;stroke-width:0.03527778"
         id="path13374"
         inkscape:connector-curvature="0" />
      <path
         d="m 94.734202,125.47577 c -7.94e-4,-10e-4 -0.0013,-0.002 -0.0021,-0.003 7.94e-4,0.001 0.0011,0.002 0.0021,0.003 m -0.0095,-0.0148 c -2.65e-4,-7.9e-4 -0.0011,-0.002 -0.0013,-0.002 2.65e-4,8e-4 0.0011,0.001 0.0013,0.002"
         style="fill:#d3cdd7;fill-opacity:1;fill-rule:nonzero;stroke:none;stroke-width:0.03527778"
         id="path13376"
         inkscape:connector-curvature="0" />
      <path
         d="m 95.071106,125.98659 c -0.110773,-0.15945 -0.220133,-0.32455 -0.328083,-0.49671 v 0 c -0.0032,-0.005 -0.006,-0.009 -0.0088,-0.0141 -0.0011,-0.001 -0.0013,-0.002 -0.0021,-0.003 -0.0024,-0.004 -0.0049,-0.008 -0.0074,-0.0116 -2.64e-4,-7.9e-4 -0.0011,-0.001 -0.0013,-0.002 -0.1651,-0.26423 -0.320324,-0.53304 -0.466725,-0.80468 -0.306565,-0.63994 -0.586317,-1.34938 -0.729544,-1.92194 0.03633,-0.009 0.07584,-0.0134 0.118533,-0.0134 0.494946,0 1.378302,0.58244 1.642179,1.31022 0.380296,1.04704 -0.08643,1.78752 -0.216604,1.95756"
         style="fill:#c7c7d4;fill-opacity:1;fill-rule:nonzero;stroke:none;stroke-width:0.03527778"
         id="path13378"
         inkscape:connector-curvature="0" />
      <path
         d="m 92.328613,109.77998 -0.13688,-0.0624 c -0.0032,-0.002 -0.0071,-0.005 -0.01024,-0.006 l -0.3175,-0.14852 c 0.13335,0.0557 0.256117,0.10937 0.3175,0.14852 l 0.147108,0.0688"
         style="fill:#c7cfd5;fill-opacity:1;fill-rule:nonzero;stroke:none;stroke-width:0.03527778"
         id="path13380"
         inkscape:connector-curvature="0" />
      <path
         d="m 81.192123,140.03385 c -0.687917,0 -1.394531,-0.0215 -2.107142,-0.0723 v 0 c -3.25628,-0.23284 -9.083605,-1.80587 -9.248952,-2.5654 -0.0025,-0.0113 -0.0037,-0.0226 -0.0036,-0.0335 0,-0.003 1.41e-4,-0.007 5.55e-4,-0.0109 1.304714,-14.94578 8.931313,-18.84362 8.931313,-18.84362 l 2.089501,-7.48806 c 0.589847,-1.82351 0.954617,-3.76344 2.074334,-4.80096 -0.832554,1.07633 -0.844196,2.83034 -0.669219,4.9209 0.14605,1.74272 0.321734,4.18218 1.089732,6.59659 0.254703,0.94439 0.827616,2.19075 1.287991,2.91783 0.188736,0.3175 0.393346,0.629 0.61595,0.93204 0.908402,1.23789 1.851377,2.20556 2.718859,2.95133 0.327728,3.15102 0.422275,6.29356 0.422275,8.86954 2.64e-4,1.56422 -0.03457,2.91959 -0.07338,3.94088 -0.620535,0.58773 -1.145117,1.36419 -1.58891,2.27118 -1.281642,0.18662 -3.269544,0.40958 -5.465585,0.41452 -0.02469,0 -0.04904,0 -0.07373,0 m 8.688917,-19.68111 c -0.927452,-1.98296 -1.337733,-4.38679 -1.51624,-6.985 l 2.852563,-4.10774 v 0 l 0.646642,0.30268 0.3175,0.14852 c 0.0032,0.002 0.0071,0.004 0.01024,0.006 7.424208,4.70782 0.32738,8.09413 -0.02822,8.18868 l -0.04692,0.0504 v 0 l -2.235555,2.39611"
         style="fill:#d5dde6;fill-opacity:1;fill-rule:nonzero;stroke:none;stroke-width:0.03527778"
         id="path13382"
         inkscape:connector-curvature="0" />
      <path
         d="m 92.328613,109.77998 -0.147108,-0.0688 c -0.144992,-0.0921 -0.633238,-0.26599 -0.789872,-0.35912 l 0.93698,0.42792"
         style="fill:#4c2c56;fill-opacity:1;fill-rule:nonzero;stroke:none;stroke-width:0.03527778"
         id="path13384"
         inkscape:connector-curvature="0" />
      <path
         d="m 84.653931,148.30479 c -0.289983,-0.398 -0.440266,-1.07033 -0.361598,-1.81049 0.0889,-0.83756 0.444855,-1.52862 0.880888,-1.80767 -0.226483,1.18633 -0.394406,2.41265 -0.51929,3.61816"
         style="fill:#345eb4;fill-opacity:1;fill-rule:nonzero;stroke:none;stroke-width:0.03527778"
         id="path13386"
         inkscape:connector-curvature="0" />
      <path
         d="m 90.33048,102.15046 c -0.289984,0.68756 0.240241,1.58185 0.982485,1.65805 -0.176035,-0.6604 -0.174625,-1.45767 0.327025,-1.92158 0.722135,-0.66851 1.903941,-0.19967 2.660295,0.42969 0.756357,0.62935 1.520825,1.44533 2.504371,1.42099 0.172154,-0.005 -0.3302,-0.91193 -0.198262,-1.02271 0.375356,-0.31609 0.798689,-0.0483 0.5207,-0.45261 -0.270579,-0.393 -0.541161,-0.78564 -0.811742,-1.17898 -0.556683,-0.80822 -1.145469,-1.646065 -2.011185,-2.107851 -0.865365,-0.462491 -2.091267,-0.408516 -2.668762,0.384528"
         style="fill:#ef2f7c;fill-opacity:1;fill-rule:nonzero;stroke:none;stroke-width:0.03527778"
         id="path13388"
         inkscape:connector-curvature="0" />
      <path
         d="m 91.33378,126.10089 c 0.521051,0.56057 0.86995,0.86678 0.86995,0.86678 l 0.01376,-0.0116 c 0.25682,0.4632 0.553154,0.88371 0.829379,1.19451 0.04339,0.0483 0.173918,0.12594 0.236008,0.14675 0.06279,0.0212 0.141465,0.0102 0.178858,-0.0413 0.03704,-0.0508 0.01693,-0.11818 0.0049,-0.17956 -0.05468,-0.28293 -0.146756,-0.40958 -0.398992,-1.06821 0.350661,0.74894 0.639234,1.16522 0.896761,1.45908 0.125589,0.14359 0.234243,0.20109 0.318558,0.18663 0.09384,-0.0162 0.119592,-0.11219 0.118885,-0.20285 -0.0024,-0.26811 -0.127352,-0.50518 -0.23636,-0.75318 -0.206375,-0.47096 -0.132644,-0.31891 -0.339019,-0.78987 0.269169,0.45649 0.909109,1.5113 1.132063,1.46967 0.222956,-0.0423 0.0762,-0.53728 0.0049,-0.68227 -0.261056,-0.53129 -0.249766,-0.62124 -0.510468,-1.15253 0.38382,0.67557 0.851603,1.45592 1.040341,1.33315 0.188736,-0.12312 -0.409575,-1.52682 -0.789871,-2.08915 0.458613,0.0279 0.973667,0.0134 0.856898,-0.21449 -0.134408,-0.26176 -1.820685,-0.70732 -2.358673,-0.91546 -0.03563,-0.0515 -0.588785,-0.17392 -0.625827,-0.2286"
         style="fill:#f79393;fill-opacity:1;fill-rule:nonzero;stroke:none;stroke-width:0.03527778"
         id="path13390"
         inkscape:connector-curvature="0" />
      <path
         d="m 83.887346,105.45669 c 1.660877,-0.78846 4.224867,0.4946 4.3815,5.87657 0.155927,5.38198 0.953559,10.21998 4.690179,12.67319 0,0 -0.254,1.64994 -1.536345,2.73791 0,0 -3.261432,-1.19486 -6.170084,-5.15796 -2.469091,-3.36409 -2.767541,-7.74347 -2.993673,-10.44646 -0.226131,-2.70298 -0.140758,-4.84364 1.628423,-5.68325"
         style="fill:#ddeaf1;fill-opacity:1;fill-rule:nonzero;stroke:none;stroke-width:0.03527778"
         id="path13392"
         inkscape:connector-curvature="0" />
      <path
         d="m 84.636646,120.65436 c -0.460375,-0.72708 -1.033288,-1.97344 -1.287991,-2.91783 0.316087,0.99378 0.732012,1.98297 1.287991,2.91783"
         style="fill:#c8c7d4;fill-opacity:1;fill-rule:nonzero;stroke:none;stroke-width:0.03527778"
         id="path13394"
         inkscape:connector-curvature="0" />
      <path
         d="m 84.803508,120.90201 c -0.05327,-0.0734 -0.10936,-0.15628 -0.166862,-0.24765 -0.555979,-0.93486 -0.971904,-1.92405 -1.287991,-2.91783 -0.01341,-0.049 -0.02574,-0.0977 -0.0374,-0.14534 0.03528,-0.008 0.07338,-0.0123 0.1143,-0.0123 0.495655,0 1.381125,0.59196 1.641475,1.32538 0.426157,1.1998 -0.249412,1.99249 -0.263525,1.99779"
         style="fill:#ced2db;fill-opacity:1;fill-rule:nonzero;stroke:none;stroke-width:0.03527778"
         id="path13396"
         inkscape:connector-curvature="0" />
      <path
         d="m 97.251625,163.84988 c 0,1.23087 5.343875,2.22842 11.936235,2.22842 6.59201,0 11.93624,-0.99755 11.93624,-2.22842 0,-1.23046 -5.34423,-2.22773 -11.93624,-2.22773 -6.59236,0 -11.936235,0.99727 -11.936235,2.22773"
         style="fill:#ced9de;fill-opacity:1;fill-rule:nonzero;stroke:none;stroke-width:0.03527778"
         id="path13398"
         inkscape:connector-curvature="0" />
      <path
         d="m 107.39751,163.30445 h 3.5807 v -13.18123 h -2.76684 l -0.81386,13.18123"
         style="fill:#1c1623;fill-opacity:1;fill-rule:nonzero;stroke:none;stroke-width:0.03527778"
         id="path13400"
         inkscape:connector-curvature="0" />
      <path
         d="m 91.273455,134.7764 c 0,1.92581 2.865612,3.48686 12.493625,3.48686 9.62801,0 11.33122,-1.56105 11.33122,-3.48686 0,-1.92546 -1.70321,-3.4865 -11.33122,-3.4865 -9.628013,0 -12.493625,1.56104 -12.493625,3.4865"
         style="fill:#ced9de;fill-opacity:1;fill-rule:nonzero;stroke:none;stroke-width:0.03527778"
         id="path13402"
         inkscape:connector-curvature="0" />
      <path
         d="m 108.34684,141.01633 c 0,0 -17.434632,0.52141 -17.694275,6.76974 -0.242359,5.83396 25.122365,5.07838 30.881815,2.8254 5.7598,-2.25238 11.40565,-19.50466 13.34981,-27.19274 1.64818,-6.51546 -5.12304,-8.99584 -11.36015,-8.81028 -6.23746,0.18627 -12.05618,0.23213 -15.60547,26.00431 l 0.42827,0.40357"
         style="fill:#51a9be;fill-opacity:1;fill-rule:nonzero;stroke:none;stroke-width:0.03527778"
         id="path13404"
         inkscape:connector-curvature="0" />
      <path
         d="m 122.01945,118.26464 c 0.86183,-0.13617 1.88277,-1.3723 2.16993,-2.19604 0.43745,-1.25342 0.17569,-2.47262 -0.68227,-3.48544 -0.5147,-0.60784 -1.31798,-0.86502 -2.02212,-1.2372 -1.01071,-0.53375 -1.86867,-1.35396 -2.44828,-2.33927 -0.0649,0.3997 -0.013,0.8181 0.14781,1.18992 -0.46531,-0.51858 -1.03187,-1.08126 -1.7272,-1.04034 -0.6036,0.036 -1.06891,0.51506 -1.5568,0.87207 -0.48825,0.35701 -1.22167,0.58914 -1.65665,0.16898 0.16686,0.57467 0.59761,1.06751 1.14547,1.30916 -0.77893,0.24976 -0.768,1.35502 -1.22343,2.03447 -0.17145,0.25611 -0.61172,0.42651 -0.7426,0.14781 0.50059,0.90135 1.39947,1.60973 2.42323,1.73108 0.39088,0.0466 0.78317,0.009 1.17652,-0.0289 0.28363,-0.0272 0.56797,-0.0543 0.85231,-0.0497 1.6637,0.0272 3.2325,1.27177 3.63643,2.88572 l 0.50765,0.0378"
         style="fill:#362c61;fill-opacity:1;fill-rule:nonzero;stroke:none;stroke-width:0.03527778"
         id="path13406"
         inkscape:connector-curvature="0" />
      <path
         d="m 88.478748,157.54895 -0.559858,3.52143 c 0,0 -1.9558,0.004 -2.996848,-0.13381 -2.066925,-0.27478 -4.053769,-0.51816 -4.053769,-0.51816 0,0 2.918177,-1.17588 3.945115,-1.01244 l 1.312333,-2.93479 2.353027,1.07777"
         style="fill:#ef2f7c;fill-opacity:1;fill-rule:nonzero;stroke:none;stroke-width:0.03527778"
         id="path13408"
         inkscape:connector-curvature="0" />
      <path
         d="m 87.897723,161.07038 c -0.213783,0 -1.997781,-0.004 -2.975681,-0.13381 -2.066925,-0.27478 -4.053769,-0.51816 -4.053769,-0.51816 0,0 2.551642,-1.028 3.72251,-1.028 0.08114,0 0.15593,0.005 0.222605,0.0156 l 0.449437,-1.00541 c 0.997305,0.38653 1.721205,0.49487 2.218973,0.49487 0.05891,0 0.114652,-10e-4 0.167217,-0.004 0.01765,0.70721 0.02787,1.16625 0.0042,1.28475 0.13194,0.0572 0.259292,0.1108 0.38241,0.16125 l -0.116735,0.73315 c 0,0 -0.0071,0 -0.02117,0"
         style="fill:#ee1f6f;fill-opacity:1;fill-rule:nonzero;stroke:none;stroke-width:0.03527778"
         id="path13410"
         inkscape:connector-curvature="0" />
      <path
         d="m 115.75799,138.20752 c 0,0 3.31823,13.04681 -22.425373,4.35116 l -4.949119,16.16103 c 0,0 -1.107017,0.72609 -4.148315,-0.77389 0.20673,-0.81816 -0.723193,-17.86576 4.913842,-21.23091 5.637035,-3.36514 20.677715,-0.87489 20.677715,-0.87489 l 5.93125,2.3675"
         style="fill:#1c1623;fill-opacity:1;fill-rule:nonzero;stroke:none;stroke-width:0.03527778"
         id="path13412"
         inkscape:connector-curvature="0" />
      <path
         d="m 87.481798,158.89543 c -0.50659,0 -1.246717,-0.11218 -2.270831,-0.51541 -0.300567,-0.11807 -0.625121,-0.26141 -0.975784,-0.4342 0.20673,-0.81816 -0.723193,-17.86576 4.913842,-21.23091 2.272948,-1.35678 6.07554,-1.76177 9.803342,-1.76177 1.755773,0 3.495673,0.09 5.051423,0.21237 h -0.41839 c 0,0 -0.30057,0.72567 -0.2667,1.86479 -4.245683,0.0508 -9.014885,0.54327 -11.584167,2.25601 -4.542012,3.0286 -4.187825,15.50173 -4.085518,19.60496 -0.05257,0.003 -0.108302,0.004 -0.167217,0.004 m 2.825044,-21.92475 c -0.567267,0 -1.304571,0.41804 -1.887361,1.12747 -0.798335,0.97155 -1.004358,2.12161 -0.460023,2.56893 0.146757,0.1203 0.333023,0.17745 0.542573,0.17745 0.567267,0 1.304925,-0.41839 1.887715,-1.12783 0.797984,-0.97155 1.004004,-2.12125 0.460021,-2.56822 -0.146754,-0.12065 -0.333375,-0.1778 -0.542925,-0.1778"
         style="fill:#19151e;fill-opacity:1;fill-rule:nonzero;stroke:none;stroke-width:0.03527778"
         id="path13414"
         inkscape:connector-curvature="0" />
      <path
         d="m 88.502031,140.84453 c -0.20955,0 -0.395816,-0.0571 -0.542573,-0.17745 -0.544335,-0.44732 -0.338312,-1.59737 0.460023,-2.56892 0.58279,-0.70944 1.320094,-1.12748 1.887361,-1.12748 0.20955,0 0.396171,0.0572 0.542925,0.1778 0.543983,0.44697 0.337963,1.59667 -0.460021,2.56822 -0.58279,0.70944 -1.320448,1.12783 -1.887715,1.12783"
         style="fill:#18131b;fill-opacity:1;fill-rule:nonzero;stroke:none;stroke-width:0.03527778"
         id="path13416"
         inkscape:connector-curvature="0" />
      <path
         d="m 91.061788,159.38187 -0.524933,3.43613 c 0,0 -1.906765,0.0159 -2.922413,-0.11328 -2.016477,-0.25534 -3.954992,-0.48122 -3.954992,-0.48122 0,0 2.838098,-1.16346 3.84034,-1.00993 l 1.261885,-2.86883 2.300113,1.03713"
         style="fill:#ef2f7c;fill-opacity:1;fill-rule:nonzero;stroke:none;stroke-width:0.03527778"
         id="path13418"
         inkscape:connector-curvature="0" />
      <path
         d="m 117.71591,139.44682 c 0,0 4.04566,12.59093 -22.044377,6.00887 l -4.30812,15.55817 c 0,0 -0.676275,0.47488 -3.710165,-0.83785 0.161219,-0.80684 -1.243893,-17.33899 4.081285,-20.8897 5.325182,-3.55035 20.091047,-1.85667 20.091047,-1.85667 l 5.89033,2.01718"
         style="fill:#1c1623;fill-opacity:1;fill-rule:nonzero;stroke:none;stroke-width:0.03527778"
         id="path13420"
         inkscape:connector-curvature="0" />
      <path
         d="m 96.667073,133.18467 c 9.478437,0.82409 11.533717,2.12548 19.127957,-5.72488 0,0 4.32824,-3.11361 -1.64112,-4.2799 -2.49378,-0.48718 -6.24487,5.98312 -7.98054,6.60718 -1.73601,0.62336 -5.0239,0.61101 -7.172672,0.6029 -2.048581,-0.008 -4.097163,0.3944 -4.097163,0.3944 -0.567266,0.11959 -1.914877,0.49918 -1.855962,0.76518 0.01553,0.0681 0.116417,0.14464 0.353129,0.13652 0.301979,-0.0106 0.658283,-0.0653 1.091848,-0.0829 -0.921808,0.0469 -2.348087,0.49072 -2.25072,0.87348 0.09737,0.38311 1.552572,-0.13617 2.126543,-0.15099 -0.957088,0.13547 -2.063398,0.57291 -2.114198,0.82127 -0.05044,0.24799 1.45415,0.18697 2.226733,-0.0201 -0.859718,0.11183 -1.93322,0.45014 -1.885595,0.69673 0.04727,0.24694 1.819979,0.037 2.561164,-0.11924 -0.221896,0.46214 -0.424392,1.00083 -0.1397,0.97614 0.327379,-0.0286 1.204031,-1.0093 1.645356,-1.47779 l 0.0049,-0.018"
         style="fill:#f57d7f;fill-opacity:1;fill-rule:nonzero;stroke:none;stroke-width:0.03527778"
         id="path13422"
         inkscape:connector-curvature="0" />
      <path
         d="m 115.33184,121.56382 c 0,0 0.45402,0.81597 2.16041,1.37513 1.71203,0.54151 2.87337,-0.53622 2.87337,-0.53622 3.15842,1.63441 4.05342,1.16028 5.01298,3.17993 0.53939,0.66746 -0.24518,4.6916 -0.46355,4.94595 l -4.18642,6.38069 -4.00544,7.68455 c 0,0 -5.15232,1.86655 -8.96478,-0.77258 -6.02792,-4.17336 -4.17301,-8.65576 -4.17301,-8.65576 h 3.86397 c 0,0 4.4824,-13.13779 7.88247,-13.60169"
         style="fill:#623ca0;fill-opacity:1;fill-rule:nonzero;stroke:none;stroke-width:0.03527778"
         id="path13424"
         inkscape:connector-curvature="0" />
      <path
         d="m 91.25123,143.34008 c -0.18274,0 -0.347488,-0.0476 -0.483307,-0.14817 -0.55104,-0.40851 -0.4064,-1.53881 0.323144,-2.52341 0.550688,-0.7426 1.276704,-1.19063 1.837266,-1.19063 0.182386,0 0.347486,0.0476 0.483307,0.14781 0.551391,0.40887 0.406752,1.53847 -0.323146,2.52342 -0.550686,0.7426 -1.277054,1.19098 -1.837264,1.19098"
         style="fill:#19151e;fill-opacity:1;fill-rule:nonzero;stroke:none;stroke-width:0.03527778"
         id="path13426"
         inkscape:connector-curvature="0" />
      <path
         d="m 116.4953,112.3348 c 0.44027,0.0155 3.05576,0.76623 4.56247,2.51319 1.03329,1.29046 0.56621,2.44863 0.63571,2.4571 0.59161,0.0737 1.01706,0.60325 0.94968,1.18251 -0.067,0.57961 -0.60114,0.98919 -1.19274,0.91546 -0.16122,-0.0198 -0.30869,-0.0762 -0.43851,-0.15593 l -0.62477,3.08363 c -0.007,0.10548 -0.0183,0.21167 -0.0399,0.3175 -0.26529,1.30951 -1.56457,2.14559 -2.90159,1.86796 -1.33739,-0.27764 -2.20628,-1.56422 -1.94099,-2.87338 0.0201,-0.0998 0.0483,-0.19579 0.0801,-0.28963 l 0.2667,-1.31762 c -1.18921,-0.68051 -1.12642,-2.00308 -0.72672,-3.10621 0.39934,-1.10279 1.34584,-4.54202 1.37054,-4.59458"
         style="fill:#f57d7f;fill-opacity:1;fill-rule:nonzero;stroke:none;stroke-width:0.03527778"
         id="path13428"
         inkscape:connector-curvature="0" />
      <path
         d="m 115.36394,121.45164 c 0,0 -4.41748,-2.9016 -7.83731,6.48793 l 3.16865,2.43452 4.66866,-8.92245"
         style="fill:#623ca0;fill-opacity:1;fill-rule:nonzero;stroke:none;stroke-width:0.03527778"
         id="path13430"
         inkscape:connector-curvature="0" />
      <path
         d="m 115.57314,121.41036 0.27834,-1.37477 c 0,0 0.56515,0.33619 1.39841,0.44026 l -1.67675,0.93451"
         style="fill:#f24d6c;fill-opacity:1;fill-rule:nonzero;stroke:none;stroke-width:0.03527778"
         id="path13432"
         inkscape:connector-curvature="0" />
      <path
         d="m 120.3628,117.03698 0.003,0.002 -10e-4,0.006 z"
         style="fill:#f89f87;fill-opacity:1;fill-rule:nonzero;stroke:none;stroke-width:0.03527778"
         id="path13434"
         inkscape:connector-curvature="0" />
      <path
         d="m 121.94148,118.53522 c -0.0628,-0.1591 -0.17815,-0.29845 -0.32491,-0.39158 0,0 0.0409,-0.0427 0.17216,-0.0529 0.13123,-0.01 0.40287,0.0367 0.40287,0.0367 -0.17462,-0.12594 -0.43109,-0.16722 -0.61277,-0.0561 -0.21837,0.133 -0.32315,0.29563 -0.32562,0.50659 0,0 0.15734,-0.34537 0.31292,-0.38665 l 0.37535,0.34396"
         style="fill:#9f305d;fill-opacity:1;fill-rule:nonzero;stroke:none;stroke-width:0.03527778"
         id="path13436"
         inkscape:connector-curvature="0" />
      <path
         d="m 119.43888,115.80508 c -0.19332,0.002 -0.2346,-0.18239 -0.39441,-0.26071 -0.20355,-0.0998 -0.50976,0.0258 -0.57467,-0.2547 -0.0409,-0.17886 0.35418,-0.29704 0.60818,-0.24659 0.32174,0.0635 0.66076,0.37429 0.53729,0.65722 -0.0222,0.0512 -0.0988,0.10407 -0.17639,0.10478"
         style="fill:#362c61;fill-opacity:1;fill-rule:nonzero;stroke:none;stroke-width:0.03527778"
         id="path13438"
         inkscape:connector-curvature="0" />
      <path
         d="m 117.27988,115.12174 c -0.18521,0.0473 -0.27164,-0.12347 -0.44486,-0.16298 -0.22048,-0.0504 -0.48154,0.14464 -0.61559,-0.11571 -0.085,-0.16545 0.26317,-0.3743 0.51929,-0.38453 0.3242,-0.013 0.72884,0.21237 0.68297,0.51894 -0.008,0.0554 -0.0681,0.12559 -0.14181,0.14428"
         style="fill:#362c61;fill-opacity:1;fill-rule:nonzero;stroke:none;stroke-width:0.03527778"
         id="path13440"
         inkscape:connector-curvature="0" />
      <path
         d="m 119.62867,118.52076 c -0.055,0 -0.11112,-0.006 -0.16757,-0.0169 -0.4512,-0.09 -0.74789,-0.52141 -0.66216,-0.96344 0.0755,-0.38735 0.41839,-0.65405 0.80574,-0.65405 0.055,0 0.11113,0.005 0.16757,0.0166 0.45156,0.09 0.74789,0.52176 0.66217,0.96379 -0.0755,0.387 -0.4184,0.65405 -0.80575,0.65405"
         style="fill:#f25871;fill-opacity:1;fill-rule:nonzero;stroke:none;stroke-width:0.03527778"
         id="path13442"
         inkscape:connector-curvature="0" />
      <path
         d="m 114.99211,117.35306 c -2.6e-4,-3.4e-4 -7.9e-4,-7.1e-4 -10e-4,-7.1e-4 0.0452,-0.20849 0.10549,-0.41522 0.1778,-0.61454 0.0808,-0.22296 0.17639,-0.49847 0.27799,-0.79622 -0.12311,0.40005 -0.2353,0.74895 -0.32173,0.98778 -0.0504,0.13829 -0.0953,0.2801 -0.13264,0.42368"
         style="fill:#e9edf8;fill-opacity:1;fill-rule:nonzero;stroke:none;stroke-width:0.03527778"
         id="path13444"
         inkscape:connector-curvature="0" />
      <path
         d="m 115.486,117.51287 c -0.055,0 -0.11112,-0.005 -0.16757,-0.0166 -0.12206,-0.0243 -0.23142,-0.0755 -0.32632,-0.14323 0.0374,-0.14358 0.0822,-0.28539 0.13265,-0.42368 0.0864,-0.23883 0.19861,-0.58773 0.32173,-0.98778 0.007,-0.0208 0.0141,-0.0416 0.0212,-0.0624 0.0533,3.5e-4 0.10725,0.005 0.16193,0.0159 0.4512,0.0903 0.74789,0.52176 0.66216,0.96379 -0.0755,0.387 -0.41875,0.65405 -0.80574,0.65405"
         style="fill:#f25871;fill-opacity:1;fill-rule:nonzero;stroke:none;stroke-width:0.03527778"
         id="path13446"
         inkscape:connector-curvature="0" />
      <path
         d="m 116.67804,115.90632 c -0.0318,0.13935 -0.10901,0.24024 -0.17216,0.22543 -0.0632,-0.0145 -0.0885,-0.1397 -0.0568,-0.2787 0.0321,-0.13934 0.10901,-0.24024 0.17251,-0.22577 0.0632,0.0148 0.0885,0.14005 0.0564,0.27904"
         style="fill:#9f305d;fill-opacity:1;fill-rule:nonzero;stroke:none;stroke-width:0.03527778"
         id="path13448"
         inkscape:connector-curvature="0" />
      <path
         d="m 119.0413,116.4048 c -0.0321,0.1397 -0.10937,0.24059 -0.17251,0.22578 -0.0632,-0.0148 -0.0885,-0.1397 -0.0568,-0.2787 0.0321,-0.1397 0.10936,-0.24059 0.17251,-0.22578 0.0632,0.0148 0.0885,0.1397 0.0568,0.2787"
         style="fill:#9f305d;fill-opacity:1;fill-rule:nonzero;stroke:none;stroke-width:0.03527778"
         id="path13450"
         inkscape:connector-curvature="0" />
      <path
         d="m 117.85243,117.38587 -0.90628,-0.18062 0.72707,-1.84362 0.3556,0.0709 -0.17639,1.95333"
         style="fill:#f25871;fill-opacity:1;fill-rule:nonzero;stroke:none;stroke-width:0.03527778"
         id="path13452"
         inkscape:connector-curvature="0" />
      <path
         d="m 117.63477,117.81803 c 0.28505,-0.28152 0.67063,-0.32139 0.80998,-0.0928 0.0787,0.12946 0.0617,0.2995 -0.0222,0.42298 -0.0847,0.12276 -0.21943,0.20355 -0.35807,0.26317 -0.22754,0.0984 -0.50341,0.0935 -0.73484,-0.004 -0.23107,-0.0977 -0.4766,-0.38418 -0.36301,-0.60184 0.0804,-0.15452 0.34361,-0.11853 0.66817,0.0127"
         style="fill:#ffffff;fill-opacity:1;fill-rule:nonzero;stroke:none;stroke-width:0.03527778"
         id="path13454"
         inkscape:connector-curvature="0" />
      <path
         d="m 115.39746,143.8689 c 0,0 0.47307,5.67295 -4.4122,6.30339 0,0 -1.57585,-1.26047 0.15734,-1.73358 1.73355,-0.47265 2.67935,-1.41813 2.83669,-4.25479 0.15769,-2.83668 1.26083,-1.73355 1.41817,-0.31502"
         style="fill:#1c1623;fill-opacity:1;fill-rule:nonzero;stroke:none;stroke-width:0.03527778"
         id="path13456"
         inkscape:connector-curvature="0" />
      <path
         d="m 101.50118,140.57924 c 0,1.92546 2.86597,3.48615 12.49398,3.48615 9.62766,0 11.33122,-1.56069 11.33122,-3.48615 0,-1.92617 -1.70356,-3.48685 -11.33122,-3.48685 -9.62801,0 -12.49398,1.56068 -12.49398,3.48685"
         style="fill:#ced9de;fill-opacity:1;fill-rule:nonzero;stroke:none;stroke-width:0.03527778"
         id="path13458"
         inkscape:connector-curvature="0" />
      <path
         d="m 106.13245,138.77443 c 0.61031,-0.25329 0.66711,-0.3369 1.27706,-0.5902 -0.8195,0.28364 -1.78682,0.59373 -1.8542,0.35172 -0.0677,-0.24235 1.46791,-0.97895 2.20062,-1.17051 -0.40498,-0.31398 -0.82655,-0.70591 -0.56091,-0.81069 0.24765,-0.0977 1.80799,0.28928 2.57281,0.62019 2.48426,-0.10337 7.0679,-0.29457 8.63705,-1.26436 1.56916,-0.96978 2.4377,-12.42165 5.4282,-11.5644 3.18981,0.9144 2.62749,5.71888 0.77258,9.73737 -2.25284,4.88173 -3.29847,7.39951 -14.46001,6.05719 l -0.006,-0.0106 c -0.72178,0.0663 -1.15711,0.0667 -1.15711,0.0667 l -0.003,-0.0198 c -0.55598,0.19897 -1.11478,0.33337 -1.57515,0.39052 -0.0716,0.009 -0.23848,-0.0222 -0.30621,-0.0504 -0.0677,-0.0282 -0.12594,-0.096 -0.11924,-0.16651 0.006,-0.0695 0.073,-0.11112 0.12806,-0.15381 0.25435,-0.1972 0.42474,-0.23566 1.12148,-0.60219 -0.84561,0.36936 -1.39418,0.50623 -1.82669,0.56303 -0.21131,0.0279 -0.34466,-0.004 -0.40463,-0.0783 -0.0667,-0.0829 -0.0177,-0.18168 0.0497,-0.25752 0.19932,-0.22331 0.47872,-0.32985 0.75283,-0.45756 0.51999,-0.24271 0.34607,-0.16968 0.86606,-0.4131 -0.56197,0.18486 -1.87536,0.59866 -2.03129,0.39899 -0.15628,-0.19932 0.33126,-0.50623 0.49777,-0.57573"
         style="fill:#f57d7f;fill-opacity:1;fill-rule:nonzero;stroke:none;stroke-width:0.03527778"
         id="path13460"
         inkscape:connector-curvature="0" />
      <path
         d="m 118.58163,140.20671 c 0.93592,-0.1965 1.69298,-0.4893 2.32692,-0.87171 -0.61701,0.41874 -1.40264,0.75565 -2.32692,0.87171"
         style="fill:#c5cbd9;fill-opacity:1;fill-rule:nonzero;stroke:none;stroke-width:0.03527778"
         id="path13462"
         inkscape:connector-curvature="0" />
      <path
         d="m 118.48179,140.21835 c -0.0938,-0.44344 0.41416,-1.15993 1.14653,-1.5046 0.35136,-0.1651 0.70661,-0.24588 1.01212,-0.24588 0.38876,0 0.69709,0.13017 0.81562,0.38241 l 0.0152,0.0413 c -0.16792,0.15381 -0.35596,0.30339 -0.56268,0.44344 -0.63394,0.38241 -1.391,0.67522 -2.32693,0.87171 -0.0332,0.004 -0.0667,0.008 -0.0998,0.0116"
         style="fill:#f25871;fill-opacity:1;fill-rule:nonzero;stroke:none;stroke-width:0.03527778"
         id="path13464"
         inkscape:connector-curvature="0" />
      <path
         d="m 105.66361,133.61223 c -0.10195,0 -0.20567,-0.003 -0.31044,-0.009 -0.0201,-0.45261 0.5976,-1.07738 1.37618,-1.29822 0.2473,-0.0699 0.49036,-0.10336 0.71402,-0.10336 0.43533,0 0.79693,0.1263 0.97261,0.35137 -0.0504,0.12982 -0.0995,0.25647 -0.14675,0.37923 -0.68862,0.39194 -1.58115,0.6798 -2.60562,0.6798"
         style="fill:#f25871;fill-opacity:1;fill-rule:nonzero;stroke:none;stroke-width:0.03527778"
         id="path13466"
         inkscape:connector-curvature="0" />
      <path
         d="m 108.26923,132.93244 c 0.0473,-0.12277 0.0963,-0.24942 0.14675,-0.37924 0.0434,0.0554 0.0755,0.11712 0.0945,0.18415 l 0.008,0.043 c -0.0797,0.0522 -0.16298,0.10266 -0.24941,0.15205"
         style="fill:#58369b;fill-opacity:1;fill-rule:nonzero;stroke:none;stroke-width:0.03527778"
         id="path13468"
         inkscape:connector-curvature="0" />
      <path
         d="m 106.00792,129.67841 1.67922,1.28976 -1.18462,0.60148 -1.28694,-1.50741 0.79234,-0.38383"
         style="fill:#ffffff;fill-opacity:1;fill-rule:nonzero;stroke:none;stroke-width:0.03527778"
         id="path13470"
         inkscape:connector-curvature="0" />
      <path
         d="m 105.71371,129.84175 0.83502,0.79163 -0.33337,0.16934 -0.79587,-0.79763 0.29422,-0.16334"
         style="fill:#ef2f7c;fill-opacity:1;fill-rule:nonzero;stroke:none;stroke-width:0.03527778"
         id="path13472"
         inkscape:connector-curvature="0" />
      <path
         d="m 120.43265,122.33711 c 0,0 10.0464,0.84984 4.71417,11.51466 0,0 -5.33259,-1.00435 -7.18714,-1.93181 l 2.47297,-9.58285"
         style="fill:#623ca0;fill-opacity:1;fill-rule:nonzero;stroke:none;stroke-width:0.03527778"
         id="path13474"
         inkscape:connector-curvature="0" />
      <path
         d="m 120.36562,122.40273 c 0,0 -2.96086,2.18193 -5.00168,-0.95109 l -2.35021,1.03963 4.32753,4.63727 4.9463,-4.01885 -1.92194,-0.70696"
         style="fill:#623ca0;fill-opacity:1;fill-rule:nonzero;stroke:none;stroke-width:0.03527778"
         id="path13476"
         inkscape:connector-curvature="0" />
      <path
         d="m 111.46081,124.91168 c -0.89359,1.53952 -1.56351,3.18876 -1.99567,4.91525 -0.0363,0.14464 0.18733,0.20673 0.22331,0.0617 0.42757,-1.70779 1.08867,-3.33727 1.97273,-4.86021 0.0748,-0.12912 -0.12523,-0.24589 -0.20037,-0.11677"
         style="fill:#ffffff;fill-opacity:1;fill-rule:nonzero;stroke:none;stroke-width:0.03527778"
         id="path13478"
         inkscape:connector-curvature="0" />
      <path
         d="m 119.73592,132.48688 c 0.41098,-1.43299 0.76658,-2.88043 1.06609,-4.34129 0.0296,-0.14569 -0.19368,-0.20743 -0.22366,-0.0614 -0.29951,1.4605 -0.65511,2.90795 -1.06609,4.34093 -0.0413,0.14358 0.18273,0.20497 0.22366,0.0617"
         style="fill:#ffffff;fill-opacity:1;fill-rule:nonzero;stroke:none;stroke-width:0.03527778"
         id="path13480"
         inkscape:connector-curvature="0" />
      <path
         d="m 122.0706,116.6588 c -0.1584,0.31714 -0.34078,0.63958 -0.63324,0.84102 -0.2921,0.20073 -0.72319,0.24236 -0.98566,0.004 0.47625,-0.25083 0.73061,-0.85866 0.57538,-1.37407 0.0603,0.10866 -0.0332,0.25047 -0.15169,0.28751 -0.11853,0.037 -0.24624,0.001 -0.36513,-0.0335 0.25824,-0.5535 0.0896,-1.27352 -0.38735,-1.65452 -0.26599,-0.21202 -0.59937,-0.31786 -0.92463,-0.41734 -1.24636,-0.38029 -2.6296,-0.82973 -3.25155,-1.9745 -0.0825,-0.15204 -0.15028,-0.32949 -0.1016,-0.4953 0.0349,-0.11712 0.12312,-0.21096 0.21625,-0.28998 0.52494,-0.44344 1.27635,-0.54363 1.95016,-0.40816 0.67345,0.13582 1.28587,0.47977 1.86619,0.84772 0.67204,0.4258 1.32645,0.89641 1.84856,1.49684 0.52211,0.60042 0.90769,1.34408 0.96767,2.13748"
         style="fill:#362c61;fill-opacity:1;fill-rule:nonzero;stroke:none;stroke-width:0.03527778"
         id="path13482"
         inkscape:connector-curvature="0" />
      <path
         d="m 74.287486,107.87992 c -0.316265,3.97299 -0.237279,7.97313 0.253012,11.92883 0.415362,3.35104 1.082993,6.83895 3.051104,9.66117 1.664829,2.38725 4.465531,4.23474 7.458146,4.12609 1.666169,-0.0607 3.149248,-0.82338 4.587523,-1.59667 1.540579,-0.82726 3.1115,-1.52259 4.805889,-1.97168 3.751088,-0.99342 7.81473,-0.9726 11.51678,0.22049 0.10689,0.0346 0.15276,-0.1337 0.0462,-0.16792 -3.05999,-0.98637 -6.353171,-1.16629 -9.521469,-0.66111 -1.611487,0.25647 -3.19546,0.69568 -4.700055,1.32856 -1.59385,0.67063 -3.036359,1.67464 -4.66725,2.25743 -3.130905,1.11795 -6.42973,-0.24589 -8.579909,-2.62114 -2.307344,-2.54811 -3.176058,-6.07025 -3.662116,-9.38318 -0.636764,-4.33882 -0.761753,-8.7503 -0.413809,-13.12087 0.009,-0.11148 -0.1651,-0.11077 -0.17406,0"
         style="fill:#ef2f7c;fill-opacity:1;fill-rule:nonzero;stroke:none;stroke-width:0.03527778"
         id="path13484"
         inkscape:connector-curvature="0" />
      <path
         d="m 78.93223,163.15244 c 0,1.23045 -5.343951,2.22817 -11.936203,2.22817 -6.592252,0 -11.936306,-0.99772 -11.936306,-2.22817 0,-1.23042 5.344054,-2.22815 11.936306,-2.22815 6.592252,0 11.936203,0.99773 11.936203,2.22815"
         style="fill:#ced9de;fill-opacity:1;fill-rule:nonzero;stroke:none;stroke-width:0.03527778"
         id="path13486"
         inkscape:connector-curvature="0" />
      <path
         d="m 65.690326,162.8173 h 1.8911 L 66.951083,95.474845 H 65.690326 V 162.8173"
         style="fill:#ced9de;fill-opacity:1;fill-rule:nonzero;stroke:none;stroke-width:0.03527778"
         id="path13488"
         inkscape:connector-curvature="0" />
      <path
         d="m 70.167852,98.145373 h 7.869697 c 0,0 1.368814,10.607317 -3.934707,10.607317 -5.303803,0 -3.93499,-10.607317 -3.93499,-10.607317"
         style="fill:#ced9de;fill-opacity:1;fill-rule:nonzero;stroke:none;stroke-width:0.03527778"
         id="path13490"
         inkscape:connector-curvature="0" />
      <path
         d="m 77.105298,103.1333 c -0.200766,2.09444 -0.910167,4.30565 -3.010464,4.30565 -2.048723,0 -2.773963,-2.10432 -2.994731,-4.15149"
         style="fill:#ef2f7c;fill-opacity:1;fill-rule:nonzero;stroke:none;stroke-width:0.03527778"
         id="path13492"
         inkscape:connector-curvature="0" />
      <path
         d="m 74.950319,108.12687 c -0.05676,0.59125 -0.334432,1.5307 -0.849805,1.5307 -0.515551,0 -0.783027,-0.90911 -0.845433,-1.48696"
         style="fill:#ced9de;fill-opacity:1;fill-rule:nonzero;stroke:none;stroke-width:0.03527778"
         id="path13494"
         inkscape:connector-curvature="0" />
      <path
         d="m 76.806813,101.8319 h -5.408225 l -0.289807,-1.47002 h 5.987838 l -0.289806,1.47002"
         style="fill:#ffffff;fill-opacity:1;fill-rule:nonzero;stroke:none;stroke-width:0.03527778"
         id="path13496"
         inkscape:connector-curvature="0" />
      <path
         d="m 74.094975,98.206051 c -0.173884,0 -0.315137,-0.140758 -0.315137,-0.314678 0,-0.174272 0.141253,-0.315383 0.315137,-0.315383 0.174202,0 0.315313,0.141111 0.315313,0.315383 0,0.17392 -0.141111,0.314678 -0.315313,0.314678 z m 0.01034,-1.274233 c -0.625899,0 -0.962978,1.14053 -1.031876,1.858786 l 2.05853,-0.05292 c -0.07553,-0.701675 -0.400617,-1.805869 -1.026657,-1.805869"
         style="fill:#ced9de;fill-opacity:1;fill-rule:nonzero;stroke:none;stroke-width:0.03527778"
         id="path13498"
         inkscape:connector-curvature="0" />
      <path
         d="M 77.772153,96.567398 H 56.760357 v -1.680986 l 21.011796,0.630414 v 1.050572"
         style="fill:#ced9de;fill-opacity:1;fill-rule:nonzero;stroke:none;stroke-width:0.03527778"
         id="path13500"
         inkscape:connector-curvature="0" />
    </g>
  </g>
</svg>
