<?xml version="1.0" encoding="UTF-8" standalone="no"?>
<!-- Created with Inkscape (http://www.inkscape.org/) -->

<svg
   xmlns:dc="http://purl.org/dc/elements/1.1/"
   xmlns:cc="http://creativecommons.org/ns#"
   xmlns:rdf="http://www.w3.org/1999/02/22-rdf-syntax-ns#"
   xmlns:svg="http://www.w3.org/2000/svg"
   xmlns="http://www.w3.org/2000/svg"
   xmlns:sodipodi="http://sodipodi.sourceforge.net/DTD/sodipodi-0.dtd"
   xmlns:inkscape="http://www.inkscape.org/namespaces/inkscape"
   width="210mm"
   height="297mm"
   viewBox="0 0 210 297"
   version="1.1"
   id="svg12457"
   inkscape:version="0.92.5 (2060ec1f9f, 2020-04-08)"
   sodipodi:docname="image_3.svg">
  <defs
     id="defs12451">
    <clipPath
       clipPathUnits="userSpaceOnUse"
       id="clipPath10903">
      <path
         d="m 3706.27,1844.27 c -35.88,-5.95 -63.94,-33.71 -71.88,-69.2 -8.04,-35.93 -11.84,-78.58 -1.66,-115.49 12.45,-45.13 58.22,-47.28 58.22,-47.28 l -3.57,-52.35 c 0,0 19.92,-44.87 88.69,-5.42 l 17.35,175.12 c 0,0 27.31,56.7 13.43,73.77 -10.57,13.02 -44.57,50.12 -100.58,40.85"
         id="path10901"
         inkscape:connector-curvature="0" />
    </clipPath>
  </defs>
  <sodipodi:namedview
     id="base"
     pagecolor="#ffffff"
     bordercolor="#666666"
     borderopacity="1.0"
     inkscape:pageopacity="0.0"
     inkscape:pageshadow="2"
     inkscape:zoom="0.46656341"
     inkscape:cx="-530.50423"
     inkscape:cy="895.81297"
     inkscape:document-units="mm"
     inkscape:current-layer="layer1"
     showgrid="false"
     inkscape:window-width="1848"
     inkscape:window-height="1009"
     inkscape:window-x="72"
     inkscape:window-y="34"
     inkscape:window-maximized="1" />
  <metadata
     id="metadata12454">
    <rdf:RDF>
      <cc:Work
         rdf:about="">
        <dc:format>image/svg+xml</dc:format>
        <dc:type
           rdf:resource="http://purl.org/dc/dcmitype/StillImage" />
        <dc:title />
      </cc:Work>
    </rdf:RDF>
  </metadata>
  <g
     inkscape:label="Layer 1"
     inkscape:groupmode="layer"
     id="layer1">
    <g
       id="g1458"
       transform="matrix(1.0710459,0,0,1.0448108,71.758154,-76.973835)">
      <path
         d="m 109.88997,148.32862 c 0.17075,-0.2268 -7.33495,-45.55207 -38.509923,-42.95492 -15.690143,1.30704 -21.431954,21.4316 -12.08158,42.95492 h 50.591503"
         style="fill:#fde8ea;fill-opacity:1;fill-rule:nonzero;stroke:none;stroke-width:0.03527778"
         id="path10775"
         inkscape:connector-curvature="0" />
      <path
         d="m 98.383422,148.21743 c 0,0 -0.01342,-0.0507 -0.03775,-0.1524 -0.168978,-0.70944 -0.851603,-3.83039 -0.851603,-7.92537 0,-1.82675 0.135818,-3.8475 0.512937,-5.93411 0.409575,-2.27047 1.013883,-3.72678 1.666171,-4.60198 0.654753,-0.87532 1.338433,-1.17228 1.959683,-1.17408 0.35489,0 0.69462,0.0998 0.9973,0.2632 0.22154,0.11921 0.39017,0.35278 0.50588,0.71755 0.11466,0.36256 0.16898,0.84596 0.16863,1.41884 0.001,2.07959 -0.7045,5.31562 -1.41393,8.55458 -0.70873,3.24309 -1.42099,6.49002 -1.4224,8.66235 0,0.0744 0.001,0.14813 0.003,0.22049 0.002,0.0974 0.0832,0.17431 0.18062,0.17226 0.0974,-0.002 0.17427,-0.0837 0.17215,-0.18108 -0.002,-0.069 -0.003,-0.13959 -0.003,-0.21167 -0.001,-2.10153 0.70485,-5.34776 1.41429,-8.58696 0.70838,-3.24309 1.42064,-6.47873 1.42205,-8.62997 -2.7e-4,-0.59478 -0.054,-1.10835 -0.18486,-1.52509 -0.13053,-0.4148 -0.34501,-0.7433 -0.67486,-0.92178 -0.34643,-0.18697 -0.7433,-0.3055 -1.16487,-0.3055 -0.74225,-0.002 -1.54482,0.37468 -2.242613,1.31618 -0.700262,0.94188 -1.314095,2.44616 -1.730726,4.7498 -0.381352,2.11144 -0.518232,4.15258 -0.518232,5.99697 2.65e-4,4.72472 0.898525,8.15756 0.900642,8.16705 0.02468,0.0943 0.121004,0.15064 0.215548,0.12598 0.09419,-0.0247 0.150635,-0.121 0.125942,-0.21526"
         style="fill:#f57d8e;fill-opacity:1;fill-rule:nonzero;stroke:none;stroke-width:0.03527778"
         id="path10777"
         inkscape:connector-curvature="0" />
      <path
         d="m 101.66426,128.94528 c -2.010838,6.88898 -2.430997,14.72216 -2.431703,17.98451 2.64e-4,0.63295 0.01587,1.09195 0.03986,1.34909 0.0092,0.097 0.09525,0.16785 0.192264,0.15875 0.09701,-0.009 0.168275,-0.0949 0.159102,-0.19195 -0.02222,-0.23427 -0.03845,-0.68999 -0.03845,-1.31589 -2.64e-4,-3.23451 0.421567,-11.05281 2.417587,-17.88583 0.0275,-0.0934 -0.0265,-0.19156 -0.11994,-0.21869 -0.0935,-0.0274 -0.19121,0.0265 -0.21873,0.12001"
         style="fill:#f57d8e;fill-opacity:1;fill-rule:nonzero;stroke:none;stroke-width:0.03527778"
         id="path10779"
         inkscape:connector-curvature="0" />
      <path
         d="m 99.668238,130.46004 1.247772,1.6739 c 0.0582,0.078 0.16863,0.0943 0.2466,0.0361 0.0783,-0.0583 0.0942,-0.16867 0.036,-0.24695 l -1.247425,-1.67361 c -0.05821,-0.0783 -0.168627,-0.0945 -0.246592,-0.036 -0.07832,0.0582 -0.09454,0.1687 -0.03634,0.24655"
         style="fill:#f57d8e;fill-opacity:1;fill-rule:nonzero;stroke:none;stroke-width:0.03527778"
         id="path10781"
         inkscape:connector-curvature="0" />
      <path
         d="m 98.814163,133.05405 1.484847,1.74763 c 0.0632,0.0744 0.17462,0.0832 0.2487,0.0201 0.0741,-0.0628 0.0833,-0.17431 0.0201,-0.24832 l -1.484839,-1.74802 c -0.06279,-0.0742 -0.174273,-0.0833 -0.248357,-0.0201 -0.07443,0.0631 -0.08361,0.17435 -0.02045,0.24875"
         style="fill:#f57d8e;fill-opacity:1;fill-rule:nonzero;stroke:none;stroke-width:0.03527778"
         id="path10783"
         inkscape:connector-curvature="0" />
      <path
         d="m 98.215498,135.77788 1.754365,1.81501 c 0.06773,0.0699 0.179207,0.0719 0.249417,0.004 0.0699,-0.0678 0.072,-0.17957 0.004,-0.24942 l -1.754366,-1.815 c -0.06773,-0.0699 -0.179565,-0.0721 -0.249415,-0.004 -0.0702,0.0677 -0.07197,0.17952 -0.0042,0.24941"
         style="fill:#f57d8e;fill-opacity:1;fill-rule:nonzero;stroke:none;stroke-width:0.03527778"
         id="path10785"
         inkscape:connector-curvature="0" />
      <path
         d="m 98.078973,138.92918 1.491547,1.39707 c 0.07126,0.0667 0.182737,0.0631 0.249412,-0.008 0.06632,-0.071 0.0628,-0.18274 -0.0081,-0.24899 l -1.491569,-1.39755 c -0.07126,-0.0665 -0.182737,-0.0627 -0.249412,0.008 -0.06668,0.0712 -0.0628,0.18271 0.0081,0.24942"
         style="fill:#f57d8e;fill-opacity:1;fill-rule:nonzero;stroke:none;stroke-width:0.03527778"
         id="path10787"
         inkscape:connector-curvature="0" />
      <path
         d="m 98.077915,141.80654 1.209675,1.15284 c 0.07021,0.067 0.182033,0.0645 0.249063,-0.006 0.06738,-0.0706 0.06456,-0.18232 -0.006,-0.24941 l -1.209323,-1.15288 c -0.07055,-0.067 -0.182034,-0.0645 -0.249412,0.006 -0.06738,0.0706 -0.06456,0.18231 0.006,0.24945"
         style="fill:#f57d8e;fill-opacity:1;fill-rule:nonzero;stroke:none;stroke-width:0.03527778"
         id="path10789"
         inkscape:connector-curvature="0" />
      <path
         d="m 100.36956,136.25911 2.171,-1.01082 c 0.0882,-0.0409 0.12664,-0.14605 0.0854,-0.23424 -0.0409,-0.0882 -0.14605,-0.12665 -0.23425,-0.0853 l -2.17099,1.01064 c -0.0885,0.0409 -0.12665,0.14608 -0.0857,0.23428 0.0413,0.0882 0.14605,0.12664 0.23459,0.0854"
         style="fill:#f57d8e;fill-opacity:1;fill-rule:nonzero;stroke:none;stroke-width:0.03527778"
         id="path10791"
         inkscape:connector-curvature="0" />
      <path
         d="m 99.99103,138.96555 1.82986,-0.68859 c 0.0914,-0.0343 0.13723,-0.13617 0.10301,-0.22726 -0.0342,-0.0909 -0.13582,-0.13723 -0.22719,-0.10294 l -1.829857,0.68862 c -0.09102,0.0342 -0.137231,0.13614 -0.103013,0.22709 0.03422,0.0914 0.136173,0.13726 0.22719,0.10308"
         style="fill:#f57d8e;fill-opacity:1;fill-rule:nonzero;stroke:none;stroke-width:0.03527778"
         id="path10793"
         inkscape:connector-curvature="0" />
      <path
         d="m 99.714453,141.84069 1.736017,-0.74895 c 0.0896,-0.0384 0.13053,-0.14249 0.0921,-0.23178 -0.0385,-0.0896 -0.14252,-0.13091 -0.23177,-0.0921 l -1.736022,0.74899 c -0.08925,0.0384 -0.13053,0.14249 -0.09207,0.23177 0.0388,0.0896 0.14252,0.13078 0.231775,0.092"
         style="fill:#f57d8e;fill-opacity:1;fill-rule:nonzero;stroke:none;stroke-width:0.03527778"
         id="path10795"
         inkscape:connector-curvature="0" />
      <path
         d="m 100.8758,133.38601 1.91029,-0.85615 c 0.0889,-0.0396 0.12876,-0.14401 0.0889,-0.23291 -0.0399,-0.0889 -0.14429,-0.12869 -0.23319,-0.0889 l -1.90994,0.85588 c -0.0889,0.0398 -0.12876,0.14429 -0.0889,0.23319 0.0399,0.0889 0.14394,0.12869 0.23284,0.0889"
         style="fill:#f57d8e;fill-opacity:1;fill-rule:nonzero;stroke:none;stroke-width:0.03527778"
         id="path10797"
         inkscape:connector-curvature="0" />
      <path
         d="m 99.809703,148.29405 c 0,0 0.295977,-5.7471 3.086097,-12.63869 2.79012,-6.89141 7.12682,-12.3729 10.82181,-11.69416 3.695,0.67875 3.21099,3.99066 0.60855,7.4319 -2.43382,3.2184 -7.60589,8.54082 -10.89378,16.90095 h -3.622677"
         style="fill:#f9b1bb;fill-opacity:1;fill-rule:nonzero;stroke:none;stroke-width:0.03527778"
         id="path10799"
         inkscape:connector-curvature="0" />
      <path
         d="m 113.60931,125.39313 c -7.01886,6.00424 -11.13896,16.19141 -12.16378,22.91044 -0.0148,0.0963 0.0515,0.18631 0.14782,0.20105 0.0963,0.0145 0.18626,-0.0518 0.20073,-0.14813 1.00683,-6.63899 5.1188,-16.78164 12.04454,-22.69525 0.0741,-0.0631 0.0829,-0.17463 0.0194,-0.24871 -0.0631,-0.0741 -0.17463,-0.0829 -0.24871,-0.0194"
         style="fill:#ffffff;fill-opacity:1;fill-rule:nonzero;stroke:none;stroke-width:0.03527778"
         id="path10801"
         inkscape:connector-curvature="0" />
      <path
         d="m 114.64895,127.7052 -3.53625,0.1972 c -0.097,0.005 -0.17145,0.0886 -0.16615,0.18588 0.005,0.0974 0.0885,0.17184 0.18591,0.16619 l 3.53624,-0.1972 c 0.0974,-0.005 0.17181,-0.0884 0.16616,-0.18588 -0.005,-0.0974 -0.0886,-0.17184 -0.18591,-0.16619"
         style="fill:#ffffff;fill-opacity:1;fill-rule:nonzero;stroke:none;stroke-width:0.03527778"
         id="path10803"
         inkscape:connector-curvature="0" />
      <path
         d="m 113.07944,130.0699 -3.90702,0.2176 c -0.0974,0.005 -0.1718,0.0886 -0.16651,0.18605 0.005,0.097 0.0885,0.17142 0.18592,0.16605 l 3.90737,-0.21759 c 0.097,-0.005 0.17145,-0.0886 0.16615,-0.18591 -0.005,-0.0974 -0.0885,-0.17184 -0.18591,-0.1662"
         style="fill:#ffffff;fill-opacity:1;fill-rule:nonzero;stroke:none;stroke-width:0.03527778"
         id="path10805"
         inkscape:connector-curvature="0" />
      <path
         d="m 111.5826,132.91859 -4.34798,0.26101 c -0.0974,0.006 -0.17145,0.0893 -0.16546,0.18673 0.006,0.097 0.0893,0.17099 0.18662,0.16535 l 4.34799,-0.26099 c 0.097,-0.006 0.1711,-0.0896 0.16545,-0.18658 -0.006,-0.0974 -0.0896,-0.17159 -0.18662,-0.16552"
         style="fill:#ffffff;fill-opacity:1;fill-rule:nonzero;stroke:none;stroke-width:0.03527778"
         id="path10807"
         inkscape:connector-curvature="0" />
      <path
         d="m 109.40667,135.4794 -3.47662,0.24694 c -0.097,0.007 -0.1704,0.0914 -0.16334,0.18839 0.007,0.0974 0.0914,0.17046 0.18838,0.16368 l 3.47663,-0.24733 c 0.097,-0.007 0.17039,-0.0909 0.16333,-0.18838 -0.007,-0.097 -0.0914,-0.17032 -0.18838,-0.1633"
         style="fill:#ffffff;fill-opacity:1;fill-rule:nonzero;stroke:none;stroke-width:0.03527778"
         id="path10809"
         inkscape:connector-curvature="0" />
      <path
         d="m 107.37785,138.43666 h -2.75626 c -0.0974,0 -0.17639,0.0791 -0.17639,0.17639 0,0.0974 0.079,0.17639 0.17639,0.17639 h 2.75626 c 0.0977,0 0.17638,-0.079 0.17638,-0.17639 0,-0.0973 -0.0787,-0.17639 -0.17638,-0.17639"
         style="fill:#ffffff;fill-opacity:1;fill-rule:nonzero;stroke:none;stroke-width:0.03527778"
         id="path10811"
         inkscape:connector-curvature="0" />
      <path
         d="m 105.9364,140.9513 -2.44581,0.0882 c -0.0974,0.004 -0.17357,0.0854 -0.17004,0.18274 0.004,0.0974 0.0854,0.17363 0.18274,0.17004 l 2.44581,-0.0884 c 0.0974,-0.004 0.17321,-0.085 0.16968,-0.18246 -0.004,-0.0973 -0.085,-0.1735 -0.18238,-0.17007"
         style="fill:#ffffff;fill-opacity:1;fill-rule:nonzero;stroke:none;stroke-width:0.03527778"
         id="path10813"
         inkscape:connector-curvature="0" />
      <path
         d="m 108.80977,126.93406 1.09044,2.14062 c 0.0444,0.0868 0.15063,0.12143 0.23741,0.0769 0.0868,-0.0441 0.12136,-0.15021 0.0769,-0.23703 l -1.09043,-2.14065 c -0.0441,-0.0868 -0.15029,-0.12101 -0.23707,-0.0769 -0.0868,0.0441 -0.12135,0.15028 -0.0773,0.23706"
         style="fill:#ffffff;fill-opacity:1;fill-rule:nonzero;stroke:none;stroke-width:0.03527778"
         id="path10815"
         inkscape:connector-curvature="0" />
      <path
         d="m 106.59432,129.82229 1.16382,2.28628 c 0.0444,0.0868 0.15063,0.12143 0.23742,0.0773 0.0868,-0.0445 0.12135,-0.15064 0.0773,-0.23745 l -1.16417,-2.28604 c -0.0441,-0.0871 -0.15028,-0.12139 -0.23707,-0.0773 -0.0868,0.0441 -0.12135,0.15036 -0.0773,0.23717"
         style="fill:#ffffff;fill-opacity:1;fill-rule:nonzero;stroke:none;stroke-width:0.03527778"
         id="path10817"
         inkscape:connector-curvature="0" />
      <path
         d="m 105.01071,132.79084 1.07244,2.17745 c 0.043,0.0874 0.14852,0.12305 0.23601,0.08 0.0875,-0.0431 0.12347,-0.14855 0.0804,-0.23604 l -1.07245,-2.17731 c -0.043,-0.0872 -0.14851,-0.12319 -0.236,-0.08 -0.0875,0.043 -0.12348,0.14841 -0.0804,0.2359"
         style="fill:#ffffff;fill-opacity:1;fill-rule:nonzero;stroke:none;stroke-width:0.03527778"
         id="path10819"
         inkscape:connector-curvature="0" />
      <path
         d="m 103.68497,135.14218 1.2065,2.40689 c 0.0438,0.0872 0.14958,0.12252 0.23671,0.0787 0.0871,-0.0433 0.12242,-0.1495 0.0787,-0.23661 l -1.2065,-2.407 c -0.0437,-0.0872 -0.14993,-0.12252 -0.23671,-0.0787 -0.0871,0.0437 -0.12242,0.14955 -0.0787,0.23675"
         style="fill:#ffffff;fill-opacity:1;fill-rule:nonzero;stroke:none;stroke-width:0.03527778"
         id="path10821"
         inkscape:connector-curvature="0" />
      <path
         d="m 101.29842,141.93139 1.32363,1.61078 c 0.0617,0.0751 0.17321,0.086 0.24835,0.0239 0.0751,-0.0617 0.0861,-0.17293 0.0243,-0.24804 l -1.32397,-1.61078 c -0.0617,-0.0755 -0.17286,-0.0864 -0.24801,-0.0242 -0.0755,0.0617 -0.0864,0.17279 -0.0243,0.24832"
         style="fill:#ffffff;fill-opacity:1;fill-rule:nonzero;stroke:none;stroke-width:0.03527778"
         id="path10823"
         inkscape:connector-curvature="0" />
      <path
         d="m 102.50669,138.20005 1.2065,2.09159 c 0.0487,0.0844 0.15663,0.11328 0.24095,0.0645 0.0843,-0.0487 0.11324,-0.15625 0.0646,-0.24088 l -1.2065,-2.09158 c -0.0487,-0.0844 -0.15664,-0.11328 -0.24095,-0.0646 -0.0843,0.0487 -0.11324,0.15667 -0.0646,0.24101"
         style="fill:#ffffff;fill-opacity:1;fill-rule:nonzero;stroke:none;stroke-width:0.03527778"
         id="path10825"
         inkscape:connector-curvature="0" />
      <path
         d="m 87.017628,116.91694 c 1.286581,0.11994 2.48426,0.96696 1.58609,1.93463 -0.77823,0.8382 -4.01038,1.05833 -6.225117,1.05833 -2.214388,0 -5.24122,0.03 -7.184673,-0.47907 -1.9431,-0.5087 -1.913114,-2.15476 -0.536222,-2.30434 1.376539,-0.14958 12.359922,-0.20955 12.359922,-0.20955"
         style="fill:#58bcd5;fill-opacity:1;fill-rule:nonzero;stroke:none;stroke-width:0.03527778"
         id="path10827"
         inkscape:connector-curvature="0" />
      <path
         d="m 109.09481,92.450741 h 11.9627 c 0.21166,0 0.38347,-0.17145 0.38347,-0.38347 0,-0.212019 -0.17181,-0.383469 -0.38347,-0.383469 H 108.9851"
         style="fill:#b2e6f4;fill-opacity:1;fill-rule:nonzero;stroke:none;stroke-width:0.03527778"
         id="path10831"
         inkscape:connector-curvature="0" />
      <path
         d="m 108.2478,146.66947 c 0.21237,0 0.38417,-0.17184 0.38417,-0.38417 v -0.46207 l 6.7437,-1.79352 c 0.20496,-0.0544 0.32703,-0.26501 0.2727,-0.4699 -0.0547,-0.20507 -0.26494,-0.32675 -0.4699,-0.27245 l -7.02945,1.86944 c -0.16792,0.0444 -0.2854,0.19678 -0.2854,0.37112 v 0.75738 c 0,0.21233 0.17215,0.38417 0.38418,0.38417"
         style="fill:#b2e6f4;fill-opacity:1;fill-rule:nonzero;stroke:none;stroke-width:0.03527778"
         id="path10833"
         inkscape:connector-curvature="0" />
      <path
         d="m 122.30634,146.66947 c 0.21202,0 0.38418,-0.17184 0.38418,-0.38417 v -0.75738 c 0,-0.17434 -0.11748,-0.32674 -0.2854,-0.37112 l -7.02945,-1.86944 c -0.20496,-0.0543 -0.41522,0.0674 -0.4699,0.27245 -0.0543,0.20489 0.0677,0.41546 0.2727,0.4699 l 6.7437,1.79352 v 0.46207 c 0,0.21233 0.1718,0.38417 0.38417,0.38417"
         style="fill:#b2e6f4;fill-opacity:1;fill-rule:nonzero;stroke:none;stroke-width:0.03527778"
         id="path10835"
         inkscape:connector-curvature="0" />
      <path
         d="m 114.19739,147.24909 c 0,0.59626 0.48331,1.07953 1.0795,1.07953 0.5962,0 1.0795,-0.48327 1.0795,-1.07953 0,-0.59616 -0.4833,-1.07943 -1.0795,-1.07943 -0.59619,0 -1.0795,0.48327 -1.0795,1.07943"
         style="fill:#5477c4;fill-opacity:1;fill-rule:nonzero;stroke:none;stroke-width:0.03527778"
         id="path10837"
         inkscape:connector-curvature="0" />
      <path
         d="m 107.1683,147.24909 c 0,0.59626 0.4833,1.07953 1.0795,1.07953 0.59619,0 1.0795,-0.48327 1.0795,-1.07953 0,-0.59616 -0.48331,-1.07943 -1.0795,-1.07943 -0.5962,0 -1.0795,0.48327 -1.0795,1.07943"
         style="fill:#5477c4;fill-opacity:1;fill-rule:nonzero;stroke:none;stroke-width:0.03527778"
         id="path10839"
         inkscape:connector-curvature="0" />
      <path
         d="m 123.42147,147.24909 c 0,0.59626 -0.4833,1.07953 -1.0795,1.07953 -0.59619,0 -1.0795,-0.48327 -1.0795,-1.07953 0,-0.59616 0.48331,-1.07943 1.0795,-1.07943 0.5962,0 1.0795,0.48327 1.0795,1.07943"
         style="fill:#5477c4;fill-opacity:1;fill-rule:nonzero;stroke:none;stroke-width:0.03527778"
         id="path10841"
         inkscape:connector-curvature="0" />
      <path
         d="m 96.090013,144.80928 c -0.01939,0.14178 -0.209902,2.26095 -0.288925,3.14081 -0.01905,0.21484 -0.199318,0.37853 -0.415218,0.37853 h -1.461207 c -0.21449,0 -0.394052,-0.16302 -0.414866,-0.37645 l -0.307269,-3.14289 h 2.887485"
         style="fill:#b2e6f4;fill-opacity:1;fill-rule:nonzero;stroke:none;stroke-width:0.03527778"
         id="path10843"
         inkscape:connector-curvature="0" />
      <path
         d="m 93.360923,146.42793 -0.158395,-1.61865 h 2.887485 c -0.01024,0.0748 -0.06809,0.70029 -0.13194,1.40296 -0.291041,0.0572 -0.595841,0.0938 -0.875593,0.1228 -0.306565,0.0318 -0.912283,0.0635 -1.721557,0.0929"
         style="fill:#8ac8ee;fill-opacity:1;fill-rule:nonzero;stroke:none;stroke-width:0.03527778"
         id="path10845"
         inkscape:connector-curvature="0" />
      <path
         d="m 79.01063,144.80928 c -0.01939,0.14178 -0.209902,2.26095 -0.288925,3.14081 -0.01939,0.21484 -0.199319,0.37853 -0.415219,0.37853 h -1.461205 c -0.214489,0 -0.394053,-0.16302 -0.414867,-0.37645 l -0.307269,-3.14289 h 2.887485"
         style="fill:#b2e6f4;fill-opacity:1;fill-rule:nonzero;stroke:none;stroke-width:0.03527778"
         id="path10847"
         inkscape:connector-curvature="0" />
      <path
         d="m 76.236386,145.96614 -0.113241,-1.15686 h 2.887485 c -0.01164,0.0847 -0.08431,0.87351 -0.157692,1.68243 -0.894644,-0.0367 -1.539874,-0.0879 -1.808691,-0.15667 -0.199672,-0.0511 -0.476955,-0.18094 -0.807861,-0.3689"
         style="fill:#8ac8ee;fill-opacity:1;fill-rule:nonzero;stroke:none;stroke-width:0.03527778"
         id="path10849"
         inkscape:connector-curvature="0" />
      <path
         d="m 72.172739,142.52821 c -0.0194,0.14179 -0.209903,2.26092 -0.288925,3.14082 -0.0194,0.21484 -0.199319,0.37853 -0.415219,0.37853 h -1.461206 c -0.214489,0 -0.394053,-0.16302 -0.414866,-0.37673 l -0.30727,-3.14262 h 2.887486"
         style="fill:#b2e6f4;fill-opacity:1;fill-rule:nonzero;stroke:none;stroke-width:0.03527778"
         id="path10851"
         inkscape:connector-curvature="0" />
      <path
         d="m 72.172739,142.52821 c -0.0194,0.14179 -0.131233,1.38078 -0.209903,2.26068 -0.01693,0.18863 -2.073275,-0.40612 -2.541411,-0.86653 l -0.136172,-1.39415 h 2.887486"
         style="fill:#8ac8ee;fill-opacity:1;fill-rule:nonzero;stroke:none;stroke-width:0.03527778"
         id="path10853"
         inkscape:connector-curvature="0" />
      <path
         d="m 97.801338,132.94864 c 0,0 0.33161,-1.05875 -0.362302,-1.37418 -0.693914,-0.31502 -2.672646,3.27174 -8.575323,3.15239 -5.902677,-0.11878 -10.177285,-3.51649 -13.064418,-2.54635 -2.887134,0.97014 -6.897511,3.14787 -6.897511,3.14787 l 0.383469,1.48234 7.76993,-2.43416 c 0,0 4.993218,2.87238 9.409643,3.12458 4.416422,0.25231 9.555689,-1.16102 11.336512,-4.55249"
         style="fill:#3f8dbd;fill-opacity:1;fill-rule:nonzero;stroke:none;stroke-width:0.03527778"
         id="path10855"
         inkscape:connector-curvature="0" />
      <path
         d="m 92.012961,104.80819 c 5.366809,1.00824 8.074729,1.87537 9.403289,2.23732 1.92723,0.52564 1.47038,3.21769 0.895,6.81884 -0.57538,3.60151 -2.25743,13.13215 -3.871737,16.71006 -1.682043,3.72745 -5.60211,4.95653 -9.721495,5.0764 -3.439584,0.10019 -9.568392,-2.34773 -10.54453,-2.6567 -1.332441,-0.42238 -2.776007,0.19788 -4.629854,0.77322 -1.853848,0.57545 -5.725936,2.1347 -5.725936,2.1347 l -2.237317,0.7578 c 0,0 -1.114425,0.65472 -2.776714,0 -1.661936,-0.65511 -7.095772,-4.42669 -7.095772,-4.42669 0,0 5.743575,-6.62729 9.872486,-9.22796 4.128558,-2.60068 12.630503,-1.87502 15.546212,-1.69334 2.915708,0.18133 4.246385,-6.77368 5.153377,-9.9187 0.907343,-3.14466 3.099506,-7.07989 5.732991,-6.58495"
         style="fill:#57c8db;fill-opacity:1;fill-rule:nonzero;stroke:none;stroke-width:0.03527778"
         id="path10857"
         inkscape:connector-curvature="0" />
      <path
         d="m 76.663953,128.01455 -9.548989,-5.50891 c 4.125031,-0.69426 11.951054,-1.32221 14.011629,-1.1938 0.601837,0.0374 0.658283,0.24166 1.135237,-0.23248 l 11.678708,8.14183 c 0,0 -1.927577,2.83309 -7.86765,1.06109 -2.909358,-0.86791 -6.909152,-2.53009 -9.408935,-2.26773"
         style="fill:#4aabc7;fill-opacity:1;fill-rule:nonzero;stroke:none;stroke-width:0.03527778"
         id="path10859"
         inkscape:connector-curvature="0" />
      <path
         d="m 64.9034,133.94979 c 0,0 1.340909,-1.73856 4.555773,-3.37538 3.214863,-1.63657 6.172199,-2.66816 7.927621,-2.49812 1.755069,0.16979 7.860949,2.05179 10.073924,2.49812 2.213327,0.44619 5.639855,0.78589 7.097535,-2.61126 1.457677,-3.39764 4.082344,-16.28002 4.572,-18.45948 0.622652,-2.77284 1.977317,-2.3548 1.977317,-2.3548 0.27623,0.0138 0.5147,0.0395 0.72849,0.073 1.42663,0.79975 1.0033,3.33516 0.47519,6.64246 -0.57538,3.60151 -2.25743,13.13215 -3.871737,16.71006 -1.682043,3.72745 -5.60211,4.95652 -9.721495,5.0764 -3.439584,0.10019 -9.568392,-2.34774 -10.54453,-2.6567 -1.332441,-0.42238 -2.776007,0.19787 -4.629854,0.77322 -1.853848,0.57545 -5.725936,2.13469 -5.725936,2.13469 l -2.23767,0.7578 c 0,0 -0.132644,0.0762 -0.370064,0.15089 l -0.306564,-2.8609"
         style="fill:#4aabc7;fill-opacity:1;fill-rule:nonzero;stroke:none;stroke-width:0.03527778"
         id="path10861"
         inkscape:connector-curvature="0" />
      <path
         d="m 101.10792,107.14887 c -1.269642,-0.10548 -2.111372,-0.0984 -2.869138,4.34023 -0.757767,4.43865 -3.284712,14.43778 -3.897135,15.91444 -1.011061,2.43568 -3.275542,4.05984 -8.268759,2.38167 -4.993216,-1.67816 -8.890705,-2.76048 -11.597216,-1.62387 -2.706511,1.13672 -7.939263,3.51825 -8.895291,4.16814 -0.956381,0.64946 -1.226961,1.35322 -1.335264,2.65218 -0.108303,1.29921 -0.252942,2.27362 1.335264,1.67817 -0.659694,-2.28328 1.408994,-3.64353 2.941108,-4.49294 1.541286,-0.85454 6.114344,-3.01777 7.277806,-3.30165 1.928283,-0.47145 3.949348,-0.15395 8.987014,1.51581 5.291664,1.7537 8.417277,1.41955 10.029119,-1.62415 1.691217,-3.19373 3.0988,-11.37112 4.018844,-15.64397 0.854426,-3.96698 0.963435,-5.77885 2.273648,-5.96406"
         style="fill:#57c8db;fill-opacity:1;fill-rule:nonzero;stroke:none;stroke-width:0.03527778"
         id="path10863"
         inkscape:connector-curvature="0" />
      <path
         d="m 97.801338,132.94864 c 0.146757,0.33514 0.146402,1.13411 0.146402,2.1952 0,1.06122 -0.329142,8.89112 -0.475543,9.5498 -0.146402,0.65856 -1.278467,0.82338 -2.158649,0.91475 -1.984375,0.2056 -16.464843,0.40213 -18.038231,0 -1.573389,-0.40252 -7.903281,-2.1438 -8.086019,-2.72246 -0.183092,-0.57848 0,-6.13226 0,-6.46148 0,-0.32907 0.07303,-0.58525 0.841375,-0.80504 0.768349,-0.21939 5.890683,-2.04886 6.439605,-2.15857 0.548922,-0.10968 1.292578,-0.10485 2.179815,0.26102 0.886883,0.36587 4.877858,2.10012 9.321093,2.37352 5.100812,0.31323 6.956071,-1.21888 8.256762,-2.15896 1.233665,-0.89119 1.481315,-1.19807 1.57339,-0.98778"
         style="fill:#4aabc7;fill-opacity:1;fill-rule:nonzero;stroke:none;stroke-width:0.03527778"
         id="path10865"
         inkscape:connector-curvature="0" />
      <path
         d="m 70.030673,135.61941 c 0.768349,-0.21939 5.890683,-2.04886 6.439605,-2.15857 0.164747,-0.0328 0.365125,-0.0572 0.584905,-0.0674 v 12.1383 c -2.019652,-0.45406 -7.690555,-2.09087 -7.865885,-2.64583 -0.183092,-0.57848 -0.164042,-6.24028 -0.164042,-6.56939 0,-0.32946 0.237067,-0.47734 1.005417,-0.69713"
         style="fill:#3f8dbd;fill-opacity:1;fill-rule:nonzero;stroke:none;stroke-width:0.03527778"
         id="path10867"
         inkscape:connector-curvature="0" />
      <path
         d="m 94.975588,97.584363 c 0,0 2.198159,-0.457553 2.771423,1.939925 0.664279,2.778482 -0.902406,3.861152 -0.360891,5.241572 0.562327,1.43369 2.220028,1.32891 1.761418,3.61103 -0.346075,1.72226 -2.701573,2.14983 -4.283427,1.39277 -2.1971,-1.05128 -2.086329,-3.59445 -1.773063,-5.37351 0.309034,-1.75437 1.88454,-6.811787 1.88454,-6.811787"
         style="fill:#2c2c71;fill-opacity:1;fill-rule:nonzero;stroke:none;stroke-width:0.03527778"
         id="path10869"
         inkscape:connector-curvature="0" />
      <path
         d="m 94.975588,97.584363 c 0,0 0.629709,0.408869 0.844198,1.491191 0,0 0.856192,-0.408869 0.1143,-1.252361 -0.576439,-0.655108 -0.958498,-0.23883 -0.958498,-0.23883"
         style="fill:#57c8db;fill-opacity:1;fill-rule:nonzero;stroke:none;stroke-width:0.03527778"
         id="path10871"
         inkscape:connector-curvature="0" />
      <path
         d="m 61.684656,126.87938 c -0.500944,0.46891 -1.635478,1.70568 -2.970389,2.54713 -0.458258,0.28882 -2.592211,0.99437 -3.577872,1.12642 -0.985661,0.13229 -1.837619,-0.0538 -2.579511,-0.11303 -0.742244,-0.0588 -1.110191,0.28966 -0.9271,1.10218 0.183092,0.81206 1.651353,1.4756 2.793647,1.58775 1.142648,0.11218 2.862086,-0.11533 4.033309,0.28539 0.673805,0.23083 1.290461,0.2424 1.62313,0.22518 0.172861,-0.009 0.333728,-0.085 0.445558,-0.21703 0.198614,-0.23427 0.50412,-0.68322 0.651581,-1.3589 0.09031,-0.41451 0.110067,-0.78355 0.123472,-1.13273 0.02081,-0.53442 0.587022,-0.95183 1.06045,-1.28873 0.433917,-0.30868 1.008944,-0.59754 1.008944,-0.59754 l -1.685219,-2.16609"
         style="fill:#f08074;fill-opacity:1;fill-rule:nonzero;stroke:none;stroke-width:0.03527778"
         id="path10873"
         inkscape:connector-curvature="0" />
      <path
         d="m 61.19359,131.2994 c -1.046339,0.5993 -4.974873,0.48987 -5.960181,0.3295 -0.985661,-0.16027 -1.484489,-0.74083 -1.206853,-1.04112 l 3.52e-4,-7.9e-4 c -0.5334,-0.0303 -1.021997,-0.11148 -1.470025,-0.14718 -0.742244,-0.0588 -1.110191,0.28966 -0.9271,1.10218 0.183092,0.81206 1.651353,1.4756 2.793648,1.58775 1.142647,0.11218 2.862086,-0.11533 4.033308,0.28539 0.673805,0.23083 1.290108,0.2424 1.62313,0.22518 0.172861,-0.009 0.333728,-0.085 0.445559,-0.21703 0.198614,-0.23427 0.504119,-0.68364 0.65158,-1.3589 0.06279,-0.28744 0.09031,-0.55174 0.106539,-0.80394 l -0.08996,0.0389"
         style="fill:#1b1c3d;fill-opacity:1;fill-rule:nonzero;stroke:none;stroke-width:0.03527778"
         id="path10875"
         inkscape:connector-curvature="0" />
      <path
         d="m 84.690353,118.90837 c 0,0 -12.433653,-0.0684 -13.162844,-0.0684 -0.728839,0 -1.249539,0.0332 -2.70757,1.23155 -1.45803,1.19838 -7.324372,6.85658 -7.324372,6.85658 0,0 0.173567,1.6661 1.874308,2.11741 l 8.956675,-6.07487 17.484723,1.19169 c 0,0 -0.475895,-2.23309 -2.274003,-3.67277 -1.238957,-0.99201 -2.846917,-1.58115 -2.846917,-1.58115"
         style="fill:#1b1c3d;fill-opacity:1;fill-rule:nonzero;stroke:none;stroke-width:0.03527778"
         id="path10877"
         inkscape:connector-curvature="0" />
      <path
         d="m 62.838239,128.19027 c 0,0 -1.982963,1.36288 -2.480733,1.57621 -0.498122,0.21318 -2.655711,-0.36728 -3.556705,-0.78811 -0.900995,-0.42114 -1.517297,-1.0378 -2.109964,-1.48801 -0.593019,-0.45046 -1.090789,-0.35596 -1.375481,0.4265 -0.284338,0.78247 0.59302,2.13403 1.494014,2.84523 0.900995,0.71148 2.470856,1.44847 3.240264,2.41861 0.442736,0.55767 0.954969,0.90068 1.2446,1.06578 0.150283,0.0857 0.326672,0.10858 0.491772,0.0581 0.293864,-0.09 0.79375,-0.30304 1.2827,-0.79195 0.758825,-0.7589 0.978253,-1.51765 1.769533,-2.06305 0.790928,-0.54504 1.858081,-1.06676 1.858081,-1.06676 l -1.858081,-2.19259"
         style="fill:#f6b68e;fill-opacity:1;fill-rule:nonzero;stroke:none;stroke-width:0.03527778"
         id="path10879"
         inkscape:connector-curvature="0" />
      <path
         d="m 61.495567,132.87766 c -1.204383,-0.0606 -4.45135,-2.27432 -5.1943,-2.94142 -0.74295,-0.66711 -0.849136,-1.4253 -0.452966,-1.52795 l 3.44e-4,-8e-4 c -0.432506,-0.31323 -0.8001,-0.64562 -1.157817,-0.91722 -0.593019,-0.45046 -1.090789,-0.35595 -1.375481,0.42651 -0.284338,0.78246 0.59302,2.13402 1.494014,2.84522 0.900995,0.71148 2.470856,1.44847 3.240264,2.41861 0.442736,0.55767 0.954969,0.90068 1.2446,1.06578 0.150283,0.0857 0.326319,0.10858 0.491772,0.0581 0.293864,-0.09 0.79375,-0.30304 1.2827,-0.79195 0.207786,-0.20807 0.373945,-0.41561 0.523875,-0.61916 -0.03245,-0.005 -0.06068,-0.014 -0.09701,-0.0159"
         style="fill:#292f6e;fill-opacity:1;fill-rule:nonzero;stroke:none;stroke-width:0.03527778"
         id="path10881"
         inkscape:connector-curvature="0" />
      <path
         d="m 93.728872,120.48952 c 0,0 -0.01553,4.15466 -1.972734,6.23217 -1.956858,2.07754 -5.496277,1.59907 -8.836025,0.99025 -3.339745,-0.60893 -9.611782,-2.165 -9.906352,-2.01754 -0.294216,0.14746 -0.695677,1.23472 -1.956858,2.06096 -1.260828,0.82614 -6.522861,2.82635 -6.522861,2.82635 0,0 -1.678516,-1.05586 -1.809044,-2.40372 0,0 6.76663,-5.29205 7.723363,-6.09709 0.956381,-0.80504 1.956859,-1.12642 3.565878,-1.07421 1.608667,0.0519 13.671197,-0.0226 13.671197,-0.0226 l 6.043436,-0.4946"
         style="fill:#292f6e;fill-opacity:1;fill-rule:nonzero;stroke:none;stroke-width:0.03527778"
         id="path10883"
         inkscape:connector-curvature="0" />
      <path
         d="m 73.868895,115.98525 c -0.04057,0.0233 -0.08079,0.0466 -0.119945,0.0699 -0.07655,0.0459 -0.1524,0.0938 -0.2159,0.15593 -0.05821,0.0568 -0.105128,0.12418 -0.151694,0.19085 -0.257881,0.37007 -0.486128,0.81139 -0.440972,1.27776 0.02716,0.2794 0.166158,0.53376 0.307975,0.77576 0.05221,0.0889 0.108302,0.18062 0.195438,0.2353 0.08749,0.0547 0.215548,0.0589 0.283281,-0.0187 0.05962,-0.0677 0.05398,-0.16898 0.0448,-0.25893 -0.03351,-0.33126 -0.129117,-0.64453 0.132997,-0.90558 0.2286,-0.2279 0.627239,-0.35702 0.940153,-0.39159 0.209197,-0.0229 0.360539,-0.0198 0.310091,0.21625 -0.03281,0.1517 -0.09807,0.29422 -0.138289,0.44415 -0.07232,0.26882 -0.08784,0.69639 0.310798,0.69497 0.03281,0 0.06809,-0.006 0.09278,-0.0272 l 0.04057,-0.0681 c 0.141816,-0.34607 0.334433,-0.67133 0.569736,-0.96202 0.202847,-0.25083 0.413103,-0.33796 0.735189,-0.33867 0.225777,-7.1e-4 7.492647,0.37324 7.816497,0.18803 0.62724,-0.35807 1.792465,-2.49237 2.182635,-3.06387 0.569738,-0.83503 2.088446,-7.07637 2.088446,-7.07637 l -0.423333,0.11888 c -0.700617,0.19685 -1.296106,0.65864 -1.661231,1.28835 -1.042107,1.7967 -3.339394,5.59894 -3.506965,5.7845 -0.09102,0.10089 -0.256117,0.38205 -0.685094,0.44026 -0.673452,0.091 -4.212518,0.44203 -4.756503,0.5013 -0.661105,0.0716 -0.910519,0.0148 -1.570919,0.0945 -0.582083,0.0706 -1.865136,0.3422 -2.380544,0.6343"
         style="fill:#f08074;fill-opacity:1;fill-rule:nonzero;stroke:none;stroke-width:0.03527778"
         id="path10885"
         inkscape:connector-curvature="0" />
      <path
         d="m 89.450384,106.76364 c -1.285523,-0.121 -2.264129,0.59655 -3.126316,1.99143 -0.629005,1.01741 -2.244373,4.00332 -2.244373,4.00332 0,0 1.123598,1.65453 2.911475,1.94804 l 2.459214,-7.94279"
         style="fill:#5477c4;fill-opacity:1;fill-rule:nonzero;stroke:none;stroke-width:0.03527778"
         id="path10887"
         inkscape:connector-curvature="0" />
      <path
         d="m 96.566615,109.03765 c -0.4826,-0.75918 -2.197804,-1.56528 -3.15101,-1.96956 -0.953207,-0.40429 -2.732969,-0.52176 -3.743677,-0.3489 -1.01106,0.17286 -1.250598,0.5588 -2.134658,1.57656 -0.778934,0.89641 -1.289757,1.49084 -1.603375,2.52695 -0.433211,1.43228 0.399343,2.96051 0.399343,2.96051 0,0 0,1.52788 -0.119943,2.21756 -0.05468,0.31433 -1.228725,2.30611 -1.594909,2.82611 -0.263173,0.37323 0.935919,1.99496 3.06705,2.53153 3.741561,0.94156 6.043436,-0.86889 6.043436,-0.86889 l 2.837743,-11.45187"
         style="fill:#5d86cd;fill-opacity:1;fill-rule:nonzero;stroke:none;stroke-width:0.03527778"
         id="path10889"
         inkscape:connector-curvature="0" />
      <path
         d="m 95.040147,115.1975 c -0.235302,0.40569 -1.725436,0.21837 -1.725436,0.21837 -1.2954,3.64031 -4.906433,4.65561 -8.532635,3.16512 0,0 -0.08502,0.13406 -0.16369,0.24589 -0.263173,0.37323 0.935919,1.99496 3.06705,2.53153 3.741561,0.94156 6.043436,-0.86889 6.043436,-0.86889 l 1.311275,-5.29202"
         style="fill:#5477c4;fill-opacity:1;fill-rule:nonzero;stroke:none;stroke-width:0.03527778"
         id="path10891"
         inkscape:connector-curvature="0" />
      <path
         d="m 93.639265,104.81066 v 0 c 0.488246,0 1.002242,-0.44344 1.24954,-0.95285 0.319617,-0.65793 0.671335,-1.78329 0.887942,-2.64866 0.952148,-3.798707 -2.794,-5.506504 -5.271911,-4.941354 -2.713566,0.618772 -3.465689,3.693583 -2.359025,4.863394 l 5.493454,3.67947"
         style="fill:#2c2c71;fill-opacity:1;fill-rule:nonzero;stroke:none;stroke-width:0.03527778"
         id="path10893"
         inkscape:connector-curvature="0" />
      <path
         d="m 90.916173,97.219943 c -1.265766,0.209903 -2.25566,1.189214 -2.535764,2.441222 -0.283633,1.267535 -0.417689,2.772125 -0.05856,4.074235 0.439208,1.59208 2.053873,1.66793 2.053873,1.66793 l -0.125942,1.84679 c 0,0 0.702733,1.58291 3.128785,0.19121 l 0.612069,-6.17785 c 0,0 0.963083,-2.000248 0.473781,-2.60244 -0.372887,-0.459316 -1.572333,-1.768122 -3.548242,-1.441097"
         style="fill:#f6b68e;fill-opacity:1;fill-rule:nonzero;stroke:none;stroke-width:0.03527778"
         id="path10895"
         inkscape:connector-curvature="0" />
      <g
         transform="matrix(0.03527778,0,0,-0.03527778,-39.832792,162.28169)"
         id="g10897">
        <g
           id="g10899"
           clip-path="url(#clipPath10903)">
          <path
             d="m 3675.94,1604.12 c 4.95,-0.67 10.05,-1.05 15.23,-1.05 16.72,-0.01 34.41,3.95 50.35,14.68 15.96,10.72 29.97,28.14 39.69,54.26 0.97,2.58 -0.35,5.46 -2.94,6.43 -2.58,0.96 -5.46,-0.35 -6.43,-2.94 -9.18,-24.57 -21.88,-40 -35.9,-49.45 -14.03,-9.43 -29.58,-12.97 -44.77,-12.98 -4.7,0 -9.35,0.34 -13.89,0.96 -2.74,0.37 -5.26,-1.55 -5.63,-4.29 -0.37,-2.74 1.55,-5.26 4.29,-5.62"
             style="fill:#f08074;fill-opacity:1;fill-rule:nonzero;stroke:none"
             id="path10905"
             inkscape:connector-curvature="0" />
        </g>
      </g>
      <path
         d="m 95.221473,102.25796 c 0.05398,-0.52246 -0.325612,-0.98954 -0.848076,-1.04387 -0.522111,-0.054 -0.989542,0.32562 -1.043517,0.84808 -0.05398,0.52246 0.325615,0.98954 0.847725,1.04352 0.522465,0.0543 0.989893,-0.32526 1.043868,-0.84773"
         style="fill:#f6b68e;fill-opacity:1;fill-rule:nonzero;stroke:none;stroke-width:0.03527778"
         id="path10907"
         inkscape:connector-curvature="0" />
      <path
         d="m 89.638765,100.48631 c 0,3.5e-4 -0.09454,0.45085 -0.189087,0.91864 -0.04727,0.23424 -0.09454,0.47237 -0.130175,0.66145 -0.01765,0.0945 -0.03281,0.17675 -0.04339,0.24095 -0.0053,0.0325 -0.0095,0.06 -0.0127,0.0833 l -0.006,0.0674 v 3.5e-4 l 0.0011,0.0198 0.175331,-0.0194 -0.17639,0.001 c 0.0011,0.0769 0.03951,0.13476 0.07232,0.16792 0.06033,0.0589 0.119238,0.0836 0.181327,0.10901 0.182034,0.0695 0.404284,0.0991 0.410634,0.10089 0.09631,0.0141 0.185912,-0.0529 0.200025,-0.14922 0.01376,-0.0963 -0.05292,-0.18592 -0.149225,-0.20003 -2.65e-4,0 -0.02822,-0.004 -0.07302,-0.0123 -0.06703,-0.0124 -0.169334,-0.0353 -0.243417,-0.0617 -0.03669,-0.0127 -0.06632,-0.0279 -0.07408,-0.0335 l -0.0019,-0.001 -0.03493,0.0448 0.04692,-0.0303 -0.01198,-0.0145 -0.03493,0.0448 0.04692,-0.0303 -0.09983,0.0642 0.117827,-7.1e-4 -0.01799,-0.0635 -0.09983,0.0642 0.117827,-7.2e-4 v -0.009 l -0.0011,-0.009 -0.17286,0.0194 h 0.173919 l -0.0011,-0.0194 -0.17286,0.0194 h 0.173919 v -3.4e-4 l 2.64e-4,-3.5e-4 c 0.0035,-0.0392 0.02999,-0.19226 0.06597,-0.37958 0.05398,-0.28399 0.130881,-0.66428 0.194381,-0.97297 0.06315,-0.30903 0.112887,-0.54574 0.112887,-0.54645 0.02011,-0.0953 -0.04092,-0.18873 -0.13617,-0.20849 -0.09561,-0.0201 -0.18909,0.0409 -0.208846,0.13617"
         style="fill:#f08074;fill-opacity:1;fill-rule:nonzero;stroke:none;stroke-width:0.03527778"
         id="path10909"
         inkscape:connector-curvature="0" />
      <path
         d="m 91.416061,101.15977 c 0.01553,-0.1517 -0.09455,-0.28717 -0.246239,-0.30304 -0.151694,-0.0155 -0.287161,0.0945 -0.303036,0.24624 -0.01553,0.15169 0.09454,0.28716 0.246237,0.30303 0.151697,0.0155 0.287163,-0.0946 0.303038,-0.24623"
         style="fill:#2c2c71;fill-opacity:1;fill-rule:nonzero;stroke:none;stroke-width:0.03527778"
         id="path10911"
         inkscape:connector-curvature="0" />
      <path
         d="m 89.073263,101.04899 c 0.01553,-0.15169 -0.09454,-0.28751 -0.246237,-0.30303 -0.151342,-0.0159 -0.287163,0.0945 -0.302683,0.24588 -0.01588,0.1517 0.09419,0.28752 0.245885,0.30304 0.151694,0.0159 0.28716,-0.0946 0.303035,-0.24589"
         style="fill:#2c2c71;fill-opacity:1;fill-rule:nonzero;stroke:none;stroke-width:0.03527778"
         id="path10913"
         inkscape:connector-curvature="0" />
      <path
         d="m 91.965336,100.65177 c -0.347488,-0.20074 -0.728133,-0.36125 -1.112663,-0.39229 0,0 0.261763,-0.260706 0.66675,-0.15099 0.405342,0.10971 0.445913,0.54328 0.445913,0.54328"
         style="fill:#2c2c71;fill-opacity:1;fill-rule:nonzero;stroke:none;stroke-width:0.03527778"
         id="path10915"
         inkscape:connector-curvature="0" />
      <path
         d="m 89.423926,100.23902 c -0.394406,-0.0113 -0.79869,0.0275 -1.145823,0.17991 0,0 0.104775,-0.34784 0.506235,-0.441676 0.401815,-0.09419 0.639588,0.261766 0.639588,0.261766"
         style="fill:#2c2c71;fill-opacity:1;fill-rule:nonzero;stroke:none;stroke-width:0.03527778"
         id="path10917"
         inkscape:connector-curvature="0" />
      <path
         d="m 89.615836,103.55125 c 0.4953,0.0854 0.992362,0.0296 1.457677,-0.10019 0,0 -0.08326,0.53304 -0.69074,0.55915 -0.703085,0.0303 -0.766937,-0.45896 -0.766937,-0.45896"
         style="fill:#ea4d62;fill-opacity:1;fill-rule:nonzero;stroke:none;stroke-width:0.03527778"
         id="path10919"
         inkscape:connector-curvature="0" />
      <path
         d="m 94.182545,101.26454 -0.206375,1.14723 c -0.459317,-0.0945 -0.769057,-0.52599 -0.711555,-0.99165 l 0.05997,-1.07633 c 0,0 -0.829733,-0.17145 -1.419931,-0.604308 -1.364893,-1.001183 -1.559981,-2.377369 -1.559981,-2.377369 0,0 1.71168,-1.302809 3.833638,0.321733 1.292929,0.989894 0.440971,3.135844 0.0042,3.580694"
         style="fill:#2c2c71;fill-opacity:1;fill-rule:nonzero;stroke:none;stroke-width:0.03527778"
         id="path10921"
         inkscape:connector-curvature="0" />
      <path
         d="m 89.690623,97.300024 c -0.01164,0.04445 -0.368297,2.01683 1.295755,2.523772 0,0 -0.49883,-1.230136 -0.29704,-1.988961 -0.02963,-0.08925 0.237773,-0.728133 -0.148518,-0.80257 -0.386292,-0.07408 -0.850197,0.267759 -0.850197,0.267759"
         style="fill:#2c2c71;fill-opacity:1;fill-rule:nonzero;stroke:none;stroke-width:0.03527778"
         id="path10923"
         inkscape:connector-curvature="0" />
      <path
         d="m 93.401847,107.20708 c 0,0 0.243064,0.0963 0.275518,0.32667 0.02681,0.19121 -2.299052,2.51707 -3.978275,2.02812 -1.448504,-0.42227 -0.40781,-2.15617 0.124883,-2.5661 0.197909,-0.15205 0.640292,-0.21767 0.640292,-0.21767 l 2.937582,0.42898"
         style="fill:#f6b68e;fill-opacity:1;fill-rule:nonzero;stroke:none;stroke-width:0.03527778"
         id="path10925"
         inkscape:connector-curvature="0" />
      <path
         d="m 93.095636,133.79379 c 1.276702,0 2.837392,-0.0321 4.724046,-0.8304 0.390879,-0.1651 0.640291,-0.54642 0.5207,-0.95321 -0.119592,-0.40707 -0.552802,-0.65966 -0.953559,-0.52102 -1.996016,0.69177 -3.845628,0.79513 -5.040135,0.5672 -0.888293,-0.16895 -1.387123,-0.59616 -1.622073,-1.4249 -0.42827,-1.5088 -0.553508,-3.0292 -0.405693,-4.92965 0.03246,-0.42298 -0.283634,-0.79269 -0.706615,-0.8255 -0.422273,-0.0296 -0.792337,0.28363 -0.825498,0.70661 -0.161925,2.08989 -0.02045,3.77621 0.459669,5.46802 0.418042,1.47324 1.074208,2.3749 2.766483,2.65466 0.268111,0.0441 0.769054,0.0882 1.082675,0.0882"
         style="fill:#b2e6f4;fill-opacity:1;fill-rule:nonzero;stroke:none;stroke-width:0.03527778"
         id="path10927"
         inkscape:connector-curvature="0" />
      <path
         d="m 90.318922,125.70181 c -0.02893,0.37148 -0.0441,0.72531 -0.05186,1.07068 -0.467431,0.0127 -0.981075,0.0236 -1.537758,0.0328 0.0078,-0.39441 0.02468,-0.79834 0.0575,-1.22238 l 0.0067,-0.0378 1.51765,-0.0162 c 0.0085,0.0561 0.01199,0.11395 0.0078,0.17287"
         style="fill:#8ac8ee;fill-opacity:1;fill-rule:nonzero;stroke:none;stroke-width:0.03527778"
         id="path10929"
         inkscape:connector-curvature="0" />
      <path
         d="m 94.062247,124.7793 c -0.07832,0.51329 -0.339725,0.95602 -1.03999,1.11724 -0.763059,0.17604 -2.379485,0.27058 -4.696529,0.25471 -2.274358,-0.0159 -3.591277,-0.17956 -4.339519,-0.29951 -0.747889,-0.11959 -0.836789,-1.02235 -0.836789,-1.02235 l 10.912827,-0.0501"
         style="fill:#d7f2f5;fill-opacity:1;fill-rule:nonzero;stroke:none;stroke-width:0.03527778"
         id="path10931"
         inkscape:connector-curvature="0" />
      <path
         d="m 93.714407,122.17086 c 1.500716,0 2.484263,1.07315 1.58609,2.04082 -0.778227,0.8382 -4.010377,0.95179 -6.224763,0.95179 -2.214739,0 -5.241573,0.03 -7.184673,-0.47872 -1.9431,-0.5087 -1.913466,-2.15476 -0.536575,-2.30434 1.37654,-0.14993 12.359921,-0.20955 12.359921,-0.20955"
         style="fill:#63ccda;fill-opacity:1;fill-rule:nonzero;stroke:none;stroke-width:0.03527778"
         id="path10933"
         inkscape:connector-curvature="0" />
      <path
         d="m 94.06648,122.19379 c 0.975077,0.3242 1.312685,1.0675 -0.791633,1.47355 -1.848557,0.35666 -8.441619,0.83397 -12.855927,-0.65899 l 13.64756,-0.81456"
         style="fill:#4aabc7;fill-opacity:1;fill-rule:nonzero;stroke:none;stroke-width:0.03527778"
         id="path10935"
         inkscape:connector-curvature="0" />
      <path
         d="m 80.455961,119.74798 c 0,1.14935 0.931686,2.08103 2.081036,2.08103 1.14935,0 2.081037,-0.93168 2.081037,-2.08103 0,-1.14935 -0.931687,-2.08139 -2.081037,-2.08139 -1.14935,0 -2.081036,0.93204 -2.081036,2.08139"
         style="fill:#ee2859;fill-opacity:1;fill-rule:nonzero;stroke:none;stroke-width:0.03527778"
         id="path10937"
         inkscape:connector-curvature="0" />
      <path
         d="m 82.536997,117.66659 c 0.973314,0 1.788231,0.66922 2.015773,1.57198 -0.07514,0.90382 -0.831144,1.61466 -1.754717,1.61466 -0.97296,0 -1.761773,-0.78916 -1.761773,-1.76212 0,-0.41557 0.144992,-0.79728 0.385588,-1.09855 0.322791,-0.20532 0.704495,-0.32597 1.115129,-0.32597"
         style="fill:#f14d65;fill-opacity:1;fill-rule:nonzero;stroke:none;stroke-width:0.03527778"
         id="path10939"
         inkscape:connector-curvature="0" />
      <path
         d="m 81.965497,118.91225 c -0.214136,0.17004 -0.257527,0.5394 -0.116417,0.91934 0.141465,0.38029 0.456496,0.99942 0.358423,1.1624 -0.09772,0.16298 0.499885,0.4057 0.68439,0.14852 0.184854,-0.25717 -0.926396,-2.23026 -0.926396,-2.23026"
         style="fill:#ee2859;fill-opacity:1;fill-rule:nonzero;stroke:none;stroke-width:0.03527778"
         id="path10941"
         inkscape:connector-curvature="0" />
      <path
         d="m 93.003561,115.53052 c 0,0 -0.744714,3.91901 -0.770466,4.04742 -0.0254,0.12841 -0.534107,0.24483 -1.262592,0.4124 -0.456496,0.10512 -4.892675,0.73554 -5.35446,0.78705 -0.461788,0.0512 -0.769409,0.12805 -1.12889,-0.28223 -0.359127,-0.41063 -0.949325,-0.6671 -1.359606,-1.05198 -0.410634,-0.38488 -0.821267,-0.87242 -1.026229,-0.69286 -0.205317,0.17957 -0.307975,0.41064 0,1.07774 0.30762,0.6671 0.691795,1.07738 0.435679,1.41111 -0.256117,0.33338 -0.935919,0.45614 -1.419577,-0.0177 -0.661459,-0.6484 -0.661459,-1.52541 -0.661459,-1.52541 0,0 -0.407458,0.13194 -0.407458,0.87595 0,0.74401 0.359481,1.53952 0.795515,1.87289 0.436033,0.33338 1.205793,0.56445 2.82222,0.66711 1.61643,0.10266 3.02754,0.18556 5.593292,0.17956 2.5654,-0.006 4.267552,-0.36336 4.998156,-0.57009 0.345369,-0.0977 0.79375,-0.62935 0.949677,-1.27705 0.327377,-1.36102 1.780117,-9.98608 1.780117,-9.98608 l -3.983919,4.07211"
         style="fill:#f6b68e;fill-opacity:1;fill-rule:nonzero;stroke:none;stroke-width:0.03527778"
         id="path10943"
         inkscape:connector-curvature="0" />
      <path
         d="m 95.194663,107.93557 c 0.817034,0.40922 2.031648,0.96873 1.976967,2.76966 -0.04374,1.4425 -0.851252,6.29214 -0.851252,6.29214 0,0 -0.53834,0.0801 -1.692981,-0.15099 -1.15429,-0.23071 -1.849615,-0.80645 -1.849615,-0.80645 0,0 0.504121,-3.34468 0.698854,-4.72898 0.276929,-1.96568 0.648759,-3.11891 1.718027,-3.37538"
         style="fill:#5477c4;fill-opacity:1;fill-rule:nonzero;stroke:none;stroke-width:0.03527778"
         id="path10945"
         inkscape:connector-curvature="0" />
      <path
         d="m 108.61504,92.089496 c 0,-0.264936 0.21484,-0.479425 0.47942,-0.479425 0.26494,0 0.47978,0.214489 0.47978,0.479425 0,0.264936 -0.21484,0.479425 -0.47978,0.479425 -0.26458,0 -0.47942,-0.214489 -0.47942,-0.479425 z m -2.07963,10.365674 -0.0748,0.39969 c -0.0183,0.0988 -0.11148,0.1651 -0.2099,0.15134 -0.14605,-0.0205 -0.28505,0.0646 -0.30551,0.21061 l -0.20073,1.4217 c -0.019,0.1337 0.0709,0.25858 0.20391,0.28292 l 0.79445,0.14605 c 0.13371,0.0243 0.26282,-0.0614 0.29175,-0.19402 l 0.30551,-1.39665 c 0.0303,-0.13864 -0.0596,-0.27517 -0.19897,-0.30163 l -0.0713,-0.0134 c -0.1016,-0.0191 -0.16828,-0.11712 -0.14923,-0.21836 l 0.048,-0.25824 c 0.0265,-0.14181 0.16052,-0.22295 0.30022,-0.18732 0.13547,0.0342 0.27763,0.0653 0.42686,0.0921 0.11818,0.0212 0.20602,0.12382 0.20179,0.24412 l -0.0751,2.17135 c -0.0219,0.23001 0.1337,0.36794 0.34325,0.3683 0.23248,0 0.3616,-0.14711 0.3683,-0.34361 l 0.0723,-2.09162 c 0.005,-0.13123 0.1136,-0.23636 0.24483,-0.23213 0.0797,0.003 0.16051,0.004 0.24342,0.004 0.45437,0 0.86395,-0.0339 1.23437,-0.0924 0.0762,-0.012 0.1778,-0.0318 0.27269,-0.0511 0.14993,-0.0307 0.28716,0.0416 0.30621,0.16404 0.019,0.12277 0.0346,0.22225 0.0346,0.22225 0.0169,0.10725 -0.054,0.20779 -0.1591,0.22896 -0.15558,0.0314 -0.26564,0.16757 -0.23424,0.32314 l 0.3055,1.51377 c 0.0289,0.14252 0.16475,0.23707 0.30833,0.21414 l 0.85831,-0.13653 c 0.14428,-0.0229 0.24412,-0.15628 0.22613,-0.30127 l -0.19015,-1.52612 c -0.0187,-0.15134 -0.1591,-0.25752 -0.30974,-0.23424 l -0.0773,0.0116 c -0.10971,0.0166 -0.21237,-0.0586 -0.22966,-0.16828 l -0.0494,-0.3175 c -0.0177,-0.11253 0.0487,-0.22013 0.15487,-0.26176 1.24213,-0.48683 1.74096,-1.2834 1.71168,-1.69227 -0.0437,-0.613438 -0.30656,-4.601238 -0.48189,-6.091018 -0.17533,-1.490134 -0.48225,-1.884539 -0.96414,-2.068689 -0.48225,-0.184503 -0.96415,-0.297745 -1.31481,-0.746125 -0.3503,-0.448381 -0.61348,-0.84702 -1.40229,-0.84702 -0.78881,0 -1.05163,0.398639 -1.40229,0.84702 -0.35031,0.44838 -0.83256,0.561622 -1.31445,0.746125 -0.48225,0.18415 -0.78881,0.578555 -0.96414,2.068689 -0.17533,1.48978 -0.43815,5.47758 -0.4819,6.091058 -0.0272,0.3803 0.40429,1.09502 1.46297,1.58503 0.10125,0.0466 0.16122,0.15381 0.14076,0.26318"
         style="fill:#d7f2f5;fill-opacity:1;fill-rule:nonzero;stroke:none;stroke-width:0.03527778"
         id="path10947"
         inkscape:connector-curvature="0" />
      <path
         d="m 105.90888,95.756621 c 0.10901,-1.796344 0.19403,-2.759075 1.07174,-2.7305 0.87771,0.02822 2.88784,0.05539 3.51084,-7.06e-4 0.62301,-0.05609 1.37442,-0.0081 1.51589,0.473427 0.14146,0.481189 0.2988,2.167114 0.32596,2.885723 0.0268,0.718608 -1.99884,0.9525 -3.71827,0.977194 -1.71944,0.02434 -2.70616,-1.605139 -2.70616,-1.605139"
         style="fill:#b2e6f4;fill-opacity:1;fill-rule:nonzero;stroke:none;stroke-width:0.03527778"
         id="path10949"
         inkscape:connector-curvature="0" />
      <path
         d="m 112.33331,96.384565 c 0.11466,1.404409 0.2286,3.067756 0.28329,3.860805 l 0.0279,0.39228 c -0.0268,0.32174 -0.94227,1.45839 -3.55001,1.45839 -2.60738,0 -3.52284,-1.13665 -3.54965,-1.44533 l 0.0279,-0.40534 c 0.0628,-0.915816 0.20532,-2.990855 0.3362,-4.488749 0,0 0.32279,-0.212372 1.16664,0 0.84349,0.212019 1.70286,0.630414 3.70663,0.453319 1.23684,-0.109361 1.55116,0.174625 1.55116,0.174625"
         style="fill:#f14d65;fill-opacity:1;fill-rule:nonzero;stroke:none;stroke-width:0.03527778"
         id="path10951"
         inkscape:connector-curvature="0" />
      <path
         d="m 108.4136,103.39179 0.0561,-1.5748 c 0.004,-0.0974 -0.0727,-0.17886 -0.17004,-0.18239 -0.0974,-0.004 -0.17921,0.0727 -0.18239,0.17004 l -0.0564,1.57445 c -0.004,0.0974 0.0727,0.17921 0.17004,0.18274 0.0974,0.004 0.17921,-0.0727 0.18274,-0.17004"
         style="fill:#f14d65;fill-opacity:1;fill-rule:nonzero;stroke:none;stroke-width:0.03527778"
         id="path10953"
         inkscape:connector-curvature="0" />
      <path
         d="m 88.679563,121.04938 c -0.0074,0.0882 -0.01164,0.19932 -0.01164,0.33478 2.64e-4,0.50095 0.05856,1.33809 0.274814,2.32516 0.325261,1.47849 1.005062,3.29597 2.405944,4.75971 1.398765,1.46541 3.528483,2.54731 6.630458,2.54346 2.606321,0.002 4.701471,-0.78521 6.335891,-2.14658 2.45322,-2.04368 3.86821,-5.32098 4.68736,-9.10241 0.81738,-3.78425 1.03575,-8.0906 1.03611,-12.23468 0,-1.7205 -0.0378,-3.41313 -0.0868,-5.02744 -0.006,-0.19509 -0.16863,-0.34784 -0.36337,-0.3422 -0.19473,0.006 -0.34783,0.16863 -0.34184,0.36337 0.0487,1.61043 0.0864,3.296 0.0864,5.00627 0.002,5.49098 -0.39335,11.24443 -2.02494,15.57267 -0.81492,2.16464 -1.93322,3.96663 -3.44417,5.22174 -1.51201,1.25458 -3.41736,1.98162 -5.884688,1.98371 -1.961443,-8e-4 -3.459691,-0.4469 -4.619625,-1.13344 -1.737077,-1.02913 -2.732616,-2.61832 -3.298118,-4.14338 -0.564798,-1.52153 -0.688623,-2.97321 -0.687917,-3.64596 0,-0.11994 0.0039,-0.21519 0.0092,-0.27516 0.01659,-0.19403 -0.127706,-0.36478 -0.321733,-0.38136 -0.19403,-0.0162 -0.364773,0.12771 -0.381355,0.32174"
         style="fill:#d7f2f5;fill-opacity:1;fill-rule:nonzero;stroke:none;stroke-width:0.03527778"
         id="path10955"
         inkscape:connector-curvature="0" />
      <path
         d="m 109.39397,101.73515 c 0.0843,1.97132 0.14781,4.04318 0.14781,6.1341 10e-4,5.54813 -0.44908,11.23032 -2.12619,15.49929 -0.8382,2.13466 -1.98014,3.91332 -3.51578,5.15616 -1.5367,1.24217 -3.46745,1.95767 -5.920672,1.95862 -1.987902,-2.6e-4 -3.520723,-0.45392 -4.709231,-1.15809 -1.781879,-1.05559 -2.799644,-2.68397 -3.373967,-4.23408 -0.573968,-1.54799 -0.699204,-3.01484 -0.698852,-3.70699 0,-0.12382 0.0042,-0.22295 0.0099,-0.28998 l -0.175683,-0.0148 0.01939,0.17533 2.647595,-0.29633 c 0.09666,-0.0109 0.166513,-0.0981 0.155575,-0.19474 -0.01058,-0.097 -0.09807,-0.16651 -0.194733,-0.15593 l -2.791529,0.31221 -0.01236,0.14429 c -0.0067,0.0815 -0.01093,0.18838 -0.01093,0.31997 0.0011,0.97296 0.226483,3.31399 1.482018,5.43877 0.627944,1.06155 1.516944,2.06725 2.763661,2.806 1.246364,0.73878 2.847975,1.20759 4.889148,1.20717 2.5213,0.001 4.54519,-0.74331 6.14257,-2.03729 2.39712,-1.94201 3.83293,-5.09443 4.67748,-8.79437 0.84384,-3.70169 1.09537,-7.95937 1.09537,-12.1352 0,-2.09797 -0.0635,-4.17477 -0.14816,-6.14927 -0.004,-0.0974 -0.0864,-0.17286 -0.1838,-0.16863 -0.0974,0.004 -0.17286,0.0864 -0.16863,0.1838"
         style="fill:#f14d65;fill-opacity:1;fill-rule:nonzero;stroke:none;stroke-width:0.03527778"
         id="path10957"
         inkscape:connector-curvature="0" />
      <path
         d="m 105.54481,100.65071 0.0279,-0.40534 c 0.008,-0.12489 0.0187,-0.273055 0.03,-0.437096 -0.0921,1.306686 1.91841,1.676756 3.86292,1.166286 1.84996,-0.48543 1.50071,-1.963564 1.29505,-4.763208 l 0.0215,-0.0014 c 1.23684,-0.109361 1.55116,0.174625 1.55116,0.174625 0.11465,1.404408 0.2286,3.067755 0.28328,3.860803 l 0.0279,0.39229 c -0.0268,0.32173 -0.94226,1.45838 -3.55,1.45838 -2.60738,0 -3.52284,-1.13665 -3.54965,-1.44533"
         style="fill:#ee2859;fill-opacity:1;fill-rule:nonzero;stroke:none;stroke-width:0.03527778"
         id="path10959"
         inkscape:connector-curvature="0" />
      <path
         d="m 90.480847,120.22282 0.614539,1.34655 -0.766939,0.0653 -0.579615,-1.3335 0.732015,-0.0783"
         style="fill:#edf9fe;fill-opacity:1;fill-rule:nonzero;stroke:none;stroke-width:0.03527778"
         id="path10961"
         inkscape:connector-curvature="0" />
      <path
         d="m 106.90265,99.708438 c 1.39912,0.160161 2.85997,0.147814 4.36951,-0.0014 0.0632,-0.0063 0.11218,-0.05997 0.11218,-0.123825 v -1.078797 c 0,-0.06597 -0.0522,-0.12065 -0.11783,-0.123825 -1.45203,-0.07126 -2.90371,-0.07126 -4.35574,0 -0.0656,0.0032 -0.11783,0.05786 -0.11783,0.123825 v 1.080206 c 0,0.06315 0.0473,0.116769 0.10971,0.123824"
         style="fill:#edf9fe;fill-opacity:1;fill-rule:nonzero;stroke:none;stroke-width:0.03527778"
         id="path10963"
         inkscape:connector-curvature="0" />
      <path
         d="m 107.0032,93.503429 c 1.3536,-0.06279 2.29129,-0.07197 2.30928,0.198614 0.018,0.270581 -1.82245,0.3429 -2.3996,0.956381 -0.57749,0.61348 -0.57749,0.396875 -0.57749,0 0,-0.397228 0.10583,-1.128889 0.66781,-1.154995"
         style="fill:#d7f2f5;fill-opacity:1;fill-rule:nonzero;stroke:none;stroke-width:0.03527778"
         id="path10965"
         inkscape:connector-curvature="0" />
      <path
         d="m 109.09481,91.683802 h -0.88723 c -0.21167,0 -0.38347,0.17145 -0.38347,0.383469 0,0.21202 0.1718,0.38347 0.38347,0.38347 h 0.88723"
         style="fill:#b2e6f4;fill-opacity:1;fill-rule:nonzero;stroke:none;stroke-width:0.03527778"
         id="path10967"
         inkscape:connector-curvature="0" />
      <path
         d="m 115.32589,142.9955 v 0 c 0.21202,0 0.38382,-0.17145 0.38382,-0.38336 V 85.614111 c 0,-0.21166 -0.1718,-0.38347 -0.38382,-0.38347 -0.21167,0 -0.38347,0.17181 -0.38347,0.38347 v 56.998029 c 0,0.21191 0.1718,0.38336 0.38347,0.38336"
         style="fill:#b2e6f4;fill-opacity:1;fill-rule:nonzero;stroke:none;stroke-width:0.03527778"
         id="path10829"
         inkscape:connector-curvature="0" />
    </g>
  </g>
</svg>
