<?xml version="1.0" encoding="UTF-8" standalone="no"?>
<!-- Created with Inkscape (http://www.inkscape.org/) -->

<svg
   xmlns:dc="http://purl.org/dc/elements/1.1/"
   xmlns:cc="http://creativecommons.org/ns#"
   xmlns:rdf="http://www.w3.org/1999/02/22-rdf-syntax-ns#"
   xmlns:svg="http://www.w3.org/2000/svg"
   xmlns="http://www.w3.org/2000/svg"
   xmlns:sodipodi="http://sodipodi.sourceforge.net/DTD/sodipodi-0.dtd"
   xmlns:inkscape="http://www.inkscape.org/namespaces/inkscape"
   width="210mm"
   height="297mm"
   viewBox="0 0 210 297"
   version="1.1"
   id="svg6006"
   inkscape:version="0.92.5 (2060ec1f9f, 2020-04-08)"
   sodipodi:docname="image_1.svg"
   inkscape:export-filename="/home/alok/Documents/health-ghar/landing-page/images/image_1.png"
   inkscape:export-xdpi="554.1731"
   inkscape:export-ydpi="554.1731">
  <defs
     id="defs6000">
    <clipPath
       clipPathUnits="userSpaceOnUse"
       id="clipPath239">
      <path
         d="m 2421.09,4018.29 v 0 c -1.72,33.52 -6.72,89.53 -6.72,89.53 l 69.23,13.86 v 0 c 0,-0.09 0.62,-21.39 0.62,-46.64 0,-3.36 -0.01,-6.79 -0.04,-10.25 v 0 c -12.66,-20.28 -33.3,-42.98 -63.09,-46.5"
         id="path237"
         inkscape:connector-curvature="0" />
    </clipPath>
  </defs>
  <sodipodi:namedview
     id="base"
     pagecolor="#ffffff"
     bordercolor="#666666"
     borderopacity="1.0"
     inkscape:pageopacity="0.0"
     inkscape:pageshadow="2"
     inkscape:zoom="0.40410046"
     inkscape:cx="229.67177"
     inkscape:cy="416.77302"
     inkscape:document-units="mm"
     inkscape:current-layer="layer1"
     showgrid="false"
     inkscape:window-width="1848"
     inkscape:window-height="1009"
     inkscape:window-x="72"
     inkscape:window-y="34"
     inkscape:window-maximized="1" />
  <metadata
     id="metadata6003">
    <rdf:RDF>
      <cc:Work
         rdf:about="">
        <dc:format>image/svg+xml</dc:format>
        <dc:type
           rdf:resource="http://purl.org/dc/dcmitype/StillImage" />
        <dc:title />
      </cc:Work>
    </rdf:RDF>
  </metadata>
  <g
     inkscape:label="Layer 1"
     inkscape:groupmode="layer"
     id="layer1">
    <g
       id="g5602"
       transform="matrix(0.15977917,0,0,-0.04926358,127.87704,98.111692)">
      <g
         id="g446"
         transform="matrix(1.5840332,0,0,6.4077202,15.6944,-933.99067)">
        <path
           inkscape:connector-curvature="0"
           id="path205"
           style="fill:#d1d3d4;fill-opacity:1;fill-rule:nonzero;stroke:none;stroke-width:0.1"
           d="m 236.90655,242.71602 c 0,-7.346 -19.749,-13.302 -44.111,-13.302 -24.361,0 -44.11,5.956 -44.11,13.302 0,7.347 19.749,13.302 44.11,13.302 24.362,0 44.111,-5.955 44.111,-13.302" />
        <path
           inkscape:connector-curvature="0"
           id="path207"
           style="fill:#f4c279;fill-opacity:1;fill-rule:nonzero;stroke:none;stroke-width:0.1"
           d="m 147.16855,352.10402 c 1.304,1.101 1.483,5.169 0.153,5.63 -0.643,0.223 -2.21,0.214 -4.248,0.512 -2.179,0.319 -4.851,0.93 -5.988,0.665 -2.201,-0.512 -7.075,-3.133 -6.871,-4.514 0.205,-1.382 7.454,1.833 8.835,0.732 0.904,-0.719 -3.449,-1.745 -3.09,-2.974 0.357,-1.228 5.246,-0.076 6.935,0.725 0.62,0.294 4.274,-0.776 4.274,-0.776" />
        <path
           inkscape:connector-curvature="0"
           id="path209"
           style="fill:#f4c279;fill-opacity:1;fill-rule:nonzero;stroke:none;stroke-width:0.1"
           d="m 168.38555,279.97602 c -0.808,-2.203 2.417,-30.083 3.333,-31.25 0.917,-1.166 11.917,-1.833 13.5,-1.083 1.584,0.75 4.417,31.417 3.5,32.333 -0.916,0.917 -19.416,2.5 -20.333,0" />
        <path
           inkscape:connector-curvature="0"
           id="path211"
           style="fill:#f4c279;fill-opacity:1;fill-rule:nonzero;stroke:none;stroke-width:0.1"
           d="m 185.73555,247.32302 c -0.02,-1.52 -0.17,-3.77 -0.77,-4.1 -0.91,-0.5 -22.5,-2.66 -22.58,-1.25 -0.05,0.83 2.81,2.74 5.39,4.33 l 0.14,0.09 c 1.78,1.1 3.39,2.03 3.8,2.33 h 14.02 c 0,0 0.02,-0.6 0,-1.4" />
        <path
           inkscape:connector-curvature="0"
           id="path213"
           style="fill:#261f31;fill-opacity:1;fill-rule:nonzero;stroke:none;stroke-width:0.1"
           d="m 185.73555,247.32302 c -0.02,-1.52 -0.17,-3.77 -0.77,-4.1 -0.91,-0.5 -22.5,-2.66 -22.58,-1.25 -0.05,0.83 2.81,2.74 5.39,4.33 -1.86,-1.31 -1.77,-3.52 17.96,1.02" />
        <path
           inkscape:connector-curvature="0"
           id="path215"
           style="fill:#f4c279;fill-opacity:1;fill-rule:nonzero;stroke:none;stroke-width:0.1"
           d="m 217.89755,279.97602 c 0.808,-2.203 -2.417,-30.083 -3.333,-31.25 -0.917,-1.166 -11.917,-1.833 -13.5,-1.083 -1.584,0.75 -4.417,31.417 -3.5,32.333 0.916,0.917 19.416,2.5 20.333,0" />
        <path
           inkscape:connector-curvature="0"
           id="path217"
           style="fill:#f4c279;fill-opacity:1;fill-rule:nonzero;stroke:none;stroke-width:0.1"
           d="m 200.54755,247.32302 c 0.019,-1.52 0.17,-3.77 0.769,-4.1 0.911,-0.5 21.822,-3.907 21.902,-2.497 0.051,0.83 -2.132,3.987 -4.711,5.577 l -0.14,0.09 c -1.781,1.1 -3.39,2.03 -3.801,2.33 h -14.019 c 0,0 -0.02,-0.6 0,-1.4" />
        <path
           inkscape:connector-curvature="0"
           id="path219"
           style="fill:#261f31;fill-opacity:1;fill-rule:nonzero;stroke:none;stroke-width:0.1"
           d="m 200.54755,247.32302 c 0.019,-1.52 0.17,-3.77 0.769,-4.1 0.508,-0.279 9.107,-3.439 13.652,-4.163 5.75,-0.917 8.215,1.042 8.25,1.666 0.051,0.83 -2.132,3.987 -4.711,5.577 1.86,-1.31 3.253,-7.66 -17.96,1.02" />
        <path
           inkscape:connector-curvature="0"
           id="path221"
           style="fill:#261f31;fill-opacity:1;fill-rule:nonzero;stroke:none;stroke-width:0.1"
           d="m 183.85555,421.60602 c 1.186,1.961 10.53,8.537 19.405,4.662 8.875,-3.875 3.875,-15.75 6.25,-20.75 2.375,-5 11.25,-7.125 12.625,-18.5 1.375,-11.375 -11.943,-17.5 -24.534,-17.5 -12.591,0 -19.341,6.75 -19.466,15.125 -0.125,8.375 4.866,14.223 4.495,17.736 -0.37,3.514 -2.805,12.564 1.225,19.227" />
        <path
           inkscape:connector-curvature="0"
           id="path223"
           style="fill:#f19d8c;fill-opacity:1;fill-rule:nonzero;stroke:none;stroke-width:0.1"
           d="m 169.21855,323.97602 c 0,0 -5.666,-25.5 -2.5,-49.5 0,0 29.167,-13.666 54.834,0 0,0 1.833,34.167 -3.667,49.5 h -48.667" />
        <path
           inkscape:connector-curvature="0"
           id="path225"
           style="fill:#fafbfc;fill-opacity:1;fill-rule:nonzero;stroke:none;stroke-width:0.1"
           d="m 187.41955,390.54602 c -3.127,-2.747 -12.93,-21.903 -22.263,-25.57 -9.333,-3.666 -18,-3.5 -19,-5.166 -1,-1.667 -1.167,-9.334 0.833,-11.834 2,-2.5 20.709,-2.921 28.959,1.542 7.085,3.832 18.186,15.958 20.447,22.292 2.261,6.333 -2.51,24.415 -8.976,18.736" />
        <path
           inkscape:connector-curvature="0"
           id="path227"
           style="fill:#fafbfc;fill-opacity:1;fill-rule:nonzero;stroke:none;stroke-width:0.1"
           d="m 226.71555,298.49302 c 0,0 -22.54,-15.83 -50.1,-7.78 l -2.23,15.8 c -1.88,-3.62 -2.79,-9.8 -3.21,-13.91 -2.67,1.07 -5.39,2.39 -8.12,3.98 0,0 1,33.56 12.16,55.23 0,0 -3.5,12.499 -1.66,18.83 1.83,6.33 14.51,22.83 19.5,23.75 5.12,0.939 11.08,-3 14.33,-7 3.25,-4 5.542,-11.995 5.542,-17.875 0,-5.871 -4.292,-21.255 -4.292,-21.255 0,0 15.92,-15.43 18.08,-49.77" />
        <path
           inkscape:connector-curvature="0"
           id="path229"
           style="fill:#f19d8c;fill-opacity:1;fill-rule:nonzero;stroke:none;stroke-width:0.1"
           d="m 193.05755,393.76302 c 3.347,0.761 6.989,-1.783 3.492,-8.618 -3.497,-6.835 -15.247,-27.252 -15.914,-30.919 0,0 3.427,37.489 12.422,39.537" />
        <path
           inkscape:connector-curvature="0"
           id="path231"
           style="fill:#f4c279;fill-opacity:1;fill-rule:nonzero;stroke:none;stroke-width:0.1"
           d="m 189.79955,385.16002 c 1.805,-0.25 5.454,2.561 6.225,4.613 0.38,1.004 0.501,4.068 0.521,6.917 0.021,2.952 -0.058,5.689 -0.058,5.689 l -6.923,-1.386 c 0,0 0.5,-5.601 0.672,-8.953 0.063,-1.283 0.08,-2.228 -0.003,-2.428 -0.284,-0.72 -2.24,-4.192 -0.434,-4.452" />
        <g
           id="g233"
           transform="matrix(0.1,0,0,0.1,-51.872447,-9.7889767)">
          <g
             clip-path="url(#clipPath239)"
             id="g235">
            <path
               inkscape:connector-curvature="0"
               id="path241"
               style="fill:#eab56d;fill-opacity:1;fill-rule:nonzero;stroke:none"
               d="m 2414.37,4018.29 h 69.8477 v 103.391 H 2414.37 Z" />
          </g>
        </g>
        <path
           inkscape:connector-curvature="0"
           id="path243"
           style="fill:#f4c279;fill-opacity:1;fill-rule:nonzero;stroke:none;stroke-width:0.1"
           d="m 199.25255,408.59502 c -0.92,-5.702 -5.18,-10.069 -9.65,-10.069 -4.47,0 -8.72,4.367 -9.64,10.069 -1.189,7.407 2.04,14.901 9.64,14.901 7.61,0 10.84,-7.494 9.65,-14.901" />
        <path
           inkscape:connector-curvature="0"
           id="path245"
           style="fill:#261f31;fill-opacity:1;fill-rule:nonzero;stroke:none;stroke-width:0.1"
           d="m 179.44855,412.37602 c 0.49,-2.196 5.687,7.517 5.687,7.517 0,0 4.13,-8.132 10.823,-9.134 1.615,-0.241 2.74,-3.866 3.865,-4.116 1.125,-0.25 2.312,20.825 -14.212,16.675 -4.266,-1.071 -7.163,-6.459 -6.163,-10.942" />
        <path
           inkscape:connector-curvature="0"
           id="path247"
           style="fill:#f4c279;fill-opacity:1;fill-rule:nonzero;stroke:none;stroke-width:0.1"
           d="m 195.95855,410.75902 c 0,0 3.115,2.957 4.977,0.873 1.861,-2.084 -0.852,-5.077 -4.031,-4.111 l -0.946,3.238" />
        <path
           inkscape:connector-curvature="0"
           id="path249"
           style="fill:#dca45d;fill-opacity:1;fill-rule:nonzero;stroke:none;stroke-width:0.1"
           d="m 200.28455,410.73902 c -0.636,0.061 -1.302,0.045 -1.768,-0.257 -0.468,-0.289 -0.648,-0.86 -0.677,-1.46 l -0.36,0.212 c 0.435,0.222 0.89,0.348 1.376,0.325 0.484,-0.004 0.957,-0.287 1.158,-0.69 -0.175,0.141 -0.348,0.268 -0.55,0.322 -0.2,0.05 -0.399,0.071 -0.602,0.05 -0.398,-0.053 -0.801,-0.219 -1.138,-0.417 l -0.368,-0.215 0.008,0.427 c 0.006,0.338 0.046,0.694 0.196,1.028 0.14,0.336 0.411,0.64 0.747,0.799 0.334,0.166 0.698,0.186 1.031,0.162 0.337,-0.035 0.659,-0.132 0.947,-0.286" />
        <path
           inkscape:connector-curvature="0"
           id="path251"
           style="fill:#f4c279;fill-opacity:1;fill-rule:nonzero;stroke:none;stroke-width:0.1"
           d="m 209.98255,331.31702 c -0.608,1.595 -4.39,3.107 -5.264,2.003 -0.422,-0.534 -0.931,-2.015 -1.885,-3.841 -1.02,-1.953 -2.479,-4.273 -2.604,-5.434 -0.244,-2.246 0.622,-7.712 1.994,-7.975 1.372,-0.263 1.487,5.704 3.342,7.01 0.945,0.665 2.473,2.6 2.274,4.459 -0.073,0.682 2.143,3.778 2.143,3.778" />
        <path
           inkscape:connector-curvature="0"
           id="path253"
           style="fill:#fafbfc;fill-opacity:1;fill-rule:nonzero;stroke:none;stroke-width:0.1"
           d="m 198.94355,385.56002 c 0.079,-4.162 8.913,-21.271 7.181,-31.148 -1.693,-9.656 -5.595,-20.752 -4.824,-22.536 0.772,-1.784 7.957,-4.773 11.154,-4.604 3.197,0.168 9.841,16.31 11.022,25.615 1.013,7.991 -7.188,26.395 -11.018,31.923 -3.829,5.527 -13.707,10.916 -13.515,0.75" />
        <path
           inkscape:connector-curvature="0"
           id="path255"
           style="fill:#ebeeef;fill-opacity:1;fill-rule:nonzero;stroke:none;stroke-width:0.1"
           d="m 194.80955,323.27502 18.195,0.989 c 0,0 0.977,-12.006 0.709,-13.884 -0.267,-1.878 -6.435,-5.293 -7.566,-5.258 -1.131,0.034 -9.118,1.49 -10.244,3.385 -1.126,1.894 -1.094,14.768 -1.094,14.768" />
        <path
           inkscape:connector-curvature="0"
           id="path257"
           style="fill:#cfccd3;fill-opacity:1;fill-rule:nonzero;stroke:none;stroke-width:0.1"
           d="m 213.53655,327.80202 c 0.878,0.738 1.889,2.198 2.926,4.102 -0.705,-1.457 -1.61,-3.342 -2.835,-4.052 -0.03,-0.017 -0.06,-0.034 -0.091,-0.05 m -10.339,2.398 c -0.041,0.027 -0.081,0.055 -0.121,0.083 0.041,-0.026 0.082,-0.051 0.124,-0.076 -0.001,-0.002 -0.002,-0.005 -0.003,-0.007 m -1.983,2.055 c -0.569,1.007 -0.816,2.242 -0.627,3.777 0.72,5.79 3.68,11.08 5.05,16.71 0.367,1.507 0.619,3.022 0.712,4.539 0.003,-1.006 -0.067,-1.968 -0.225,-2.869 -0.345,-1.966 -0.781,-3.991 -1.251,-5.986 -0.123,-0.366 -0.249,-0.731 -0.376,-1.094 -1.208,-3.425 -4.664,-10.231 -3.277,-14.333 -0.023,-0.291 -0.026,-0.541 -0.006,-0.744 m 4.164,32.338 c -0.429,1.296 -0.964,2.556 -1.551,3.799 l -0.14,0.04 c -0.99,0.67 -2.11,1.529 -2.82,2.489 -0.049,0.075 0.024,0.163 0.102,0.163 0.016,0 0.033,-0.004 0.048,-0.012 0.46,-0.32 0.85,-0.72 1.29,-1.071 0.37,-0.289 0.76,-0.559 1.14,-0.83 -0.51,1.06 -1.06,2.101 -1.6,3.131 -0.042,0.083 0.028,0.157 0.095,0.157 0.029,0 0.057,-0.014 0.075,-0.047 0.889,-1.53 1.779,-3.075 2.55,-4.666 0.297,-1.052 0.571,-2.107 0.811,-3.153" />
        <path
           inkscape:connector-curvature="0"
           id="path259"
           style="fill:#c99f67;fill-opacity:1;fill-rule:nonzero;stroke:none;stroke-width:0.1"
           d="m 205.47555,329.05202 c -0.836,0.323 -1.606,0.699 -2.278,1.148 0.001,0.002 0.002,0.005 0.003,0.007 0.658,-0.395 1.439,-0.789 2.275,-1.155" />
        <path
           inkscape:connector-curvature="0"
           id="path261"
           style="fill:#cfccd3;fill-opacity:1;fill-rule:nonzero;stroke:none;stroke-width:0.1"
           d="m 211.91355,327.48302 c -1.83,-0.001 -4.151,0.802 -5.386,1.199 -0.36,0.115 -0.711,0.238 -1.052,0.37 -0.836,0.366 -1.617,0.76 -2.275,1.155 -0.042,0.025 -0.083,0.05 -0.124,0.076 -0.78,0.541 -1.418,1.187 -1.862,1.972 -0.02,0.203 -0.017,0.453 0.006,0.744 0.22,-0.652 0.563,-1.236 1.057,-1.727 1.81,-1.8 4.61,-2.46 7.04,-2.86 0.743,-0.123 1.399,-0.214 2,-0.214 1.252,0 2.269,0.393 3.35,1.703 0.76,0.911 1.32,2.071 1.98,3.051 0.034,0.049 0.081,0.07 0.126,0.07 0.101,0 0.196,-0.103 0.134,-0.22 -0.139,-0.266 -0.287,-0.571 -0.445,-0.898 -1.037,-1.904 -2.048,-3.364 -2.926,-4.102 -0.445,-0.228 -1.006,-0.319 -1.623,-0.319 m -7.04,20.943 c 0.47,1.995 0.906,4.02 1.251,5.986 0.158,0.901 0.228,1.863 0.225,2.869 0.124,2.036 -0.04,4.073 -0.602,6.091 -0.112,0.411 -0.235,0.818 -0.369,1.221 -0.24,1.046 -0.514,2.101 -0.811,3.153 1.06,-2.184 1.897,-4.457 2.21,-6.904 0.531,-4.241 -0.557,-8.423 -1.904,-12.416" />
        <path
           inkscape:connector-curvature="0"
           id="path263"
           style="fill:#cfccd3;fill-opacity:1;fill-rule:nonzero;stroke:none;stroke-width:0.1"
           d="m 178.07355,311.24202 c -0.163,0 -0.326,0.062 -0.472,0.186 -0.223,0.189 -0.299,0.435 -0.285,0.722 0.022,0.489 0.389,0.732 0.757,0.732 0.367,0 0.735,-0.244 0.758,-0.732 0.013,-0.286 -0.059,-0.53 -0.285,-0.722 -0.148,-0.124 -0.31,-0.186 -0.473,-0.186" />
        <path
           inkscape:connector-curvature="0"
           id="path265"
           style="fill:#cfccd3;fill-opacity:1;fill-rule:nonzero;stroke:none;stroke-width:0.1"
           d="m 179.77955,322.99002 c -1.203,0 -1.201,1.867 0,1.867 1.203,0 1.202,-1.867 0,-1.867" />
        <path
           inkscape:connector-curvature="0"
           id="path267"
           style="fill:#cfccd3;fill-opacity:1;fill-rule:nonzero;stroke:none;stroke-width:0.1"
           d="m 181.36555,334.67102 c -1.254,0 -1.251,1.945 0,1.945 1.254,0 1.252,-1.945 0,-1.945" />
        <path
           inkscape:connector-curvature="0"
           id="path269"
           style="fill:#cfccd3;fill-opacity:1;fill-rule:nonzero;stroke:none;stroke-width:0.1"
           d="m 183.25255,347.10302 c -1.259,0 -1.257,1.953 0,1.953 1.259,0 1.257,-1.953 0,-1.953" />
        <path
           inkscape:connector-curvature="0"
           id="path271"
           style="fill:#cfccd3;fill-opacity:1;fill-rule:nonzero;stroke:none;stroke-width:0.1"
           d="m 174.45555,309.55502 c -0.168,0.05 -0.334,0.097 -0.497,0.141 0.351,7.032 1.561,14.114 2.553,21.068 1.088,7.623 1.881,15.579 3.943,23.011 0.018,0.065 0.077,0.096 0.135,0.096 0.072,0 0.141,-0.046 0.134,-0.132 -0.669,-7.421 -2.364,-14.812 -3.429,-22.189 -1.055,-7.301 -1.626,-14.719 -2.839,-21.995" />
        <path
           inkscape:connector-curvature="0"
           id="path273"
           style="fill:#cfccd3;fill-opacity:1;fill-rule:nonzero;stroke:none;stroke-width:0.1"
           d="m 182.30755,353.55802 -0.135,0.079 c 2.205,3.797 4.669,7.411 7.374,10.871 1.39,1.777 2.825,3.522 4.318,5.214 0.603,0.684 2.147,1.82 2.437,2.662 0.521,1.518 -0.987,3.041 -1.818,4.067 l -0.042,0.17 c -0.074,0.08 -0.068,0.232 0.064,0.257 0.885,0.167 1.767,0.241 2.652,0.241 0.77,0 1.541,-0.056 2.318,-0.154 0.375,-0.048 0.689,-0.075 0.956,-0.075 0.466,0 0.785,0.084 1.024,0.293 0.143,-0.4 0.289,-0.809 0.436,-1.224 -0.059,-0.049 -0.132,-0.076 -0.214,-0.076 -0.028,0 -0.057,0.003 -0.087,0.01 -2.235,0.512 -4.402,0.594 -6.664,0.665 0.789,-0.91 2.316,-2.477 2.213,-3.628 -0.142,-1.592 -2.781,-3.506 -3.758,-4.636 -4.021,-4.655 -7.638,-9.639 -11.074,-14.736 m 18.581,37.278 c -0.084,0.193 -0.171,0.385 -0.261,0.577 -0.082,0.176 0.064,0.337 0.209,0.337 0.066,0 0.132,-0.033 0.176,-0.112 0.108,-0.196 0.213,-0.393 0.314,-0.591 -0.152,-0.059 -0.297,-0.129 -0.438,-0.211" />
        <path
           inkscape:connector-curvature="0"
           id="path275"
           style="fill:#cfccd3;fill-opacity:1;fill-rule:nonzero;stroke:none;stroke-width:0.1"
           d="m 201.89155,375.95902 c -0.147,0.415 -0.293,0.824 -0.436,1.224 0.358,0.313 0.536,0.905 0.761,1.91 0.909,4.059 0.308,8.001 -1.328,11.743 0.141,0.082 0.286,0.152 0.438,0.211 2.349,-4.631 2.502,-10.064 0.686,-14.915 -0.027,-0.071 -0.068,-0.131 -0.121,-0.173" />
        <path
           inkscape:connector-curvature="0"
           id="path277"
           style="fill:#cfccd3;fill-opacity:1;fill-rule:nonzero;stroke:none;stroke-width:0.1"
           d="m 179.70655,354.43602 c -0.094,0 -0.182,0.054 -0.209,0.181 -1.016,4.745 -1.496,9.658 -1.714,14.5 -0.126,2.779 -0.101,6.342 2.914,7.568 l 0.074,-0.001 c -2.466,1.123 -2.666,1.008 -1.22,3.577 1.691,3.002 3.757,5.781 6.167,8.242 0.059,0.06 0.125,0.085 0.188,0.085 0.212,0 0.397,-0.278 0.209,-0.483 -1.645,-1.799 -3.201,-3.664 -4.551,-5.699 -0.557,-0.839 -1.377,-1.844 -1.699,-2.803 -0.545,-1.622 -0.013,-1.954 1.325,-2.82 0.125,-0.081 0.049,-0.244 -0.071,-0.244 -0.02,0 -0.042,0.004 -0.063,0.014 l -0.212,0.097 c 0.067,-0.07 0.078,-0.207 -0.017,-0.272 -3.421,-2.33 -2.532,-6.97 -2.241,-10.538 0.303,-3.722 0.869,-7.396 1.393,-11.089 0.027,-0.188 -0.13,-0.315 -0.273,-0.315" />
        <path
           inkscape:connector-curvature="0"
           id="path279"
           style="fill:#cfccd3;fill-opacity:1;fill-rule:nonzero;stroke:none;stroke-width:0.1"
           d="m 176.67955,353.61402 c -3.432,4.827 -3.942,12.098 -1.432,17.437 0.031,0.066 0.087,0.093 0.146,0.093 0.115,0 0.239,-0.106 0.197,-0.237 -1.962,-6.125 -1.523,-11.417 1.183,-17.238 l -0.094,-0.055" />
        <path
           inkscape:connector-curvature="0"
           id="path345"
           style="fill:#d1d3d4;fill-opacity:1;fill-rule:nonzero;stroke:none;stroke-width:0.1"
           d="m 225.00755,217.02602 c 0,-9.9 -43.77,-17.929 -97.75,-17.929 -15.99,0 -31.079997,0.71 -44.409997,1.949 6.49,-2.59 10.28,-5.699 10.28,-9.06 0,-8.94 -26.86,-16.179 -60,-16.179 -33.1402,0 -60,7.239 -60,16.179 0,8.93 26.8598,16.18 60,16.18 3.35,0 6.6301,-0.069 9.8301,-0.22 -8.5504,2.661 -13.45,5.77 -13.45,9.08 0,9.911 43.7599,17.94 97.749897,17.94 53.98,0 97.75,-8.029 97.75,-17.94" />
        <path
           inkscape:connector-curvature="0"
           id="path347"
           style="fill:#261f31;fill-opacity:1;fill-rule:nonzero;stroke:none;stroke-width:0.1"
           d="M 126.57355,259.64202 H 74.287553 c -1.474,0 -2.67,1.195 -2.67,2.669 v 1.411 c 0,1.474 1.196,2.67 2.67,2.67 h 52.285997 c 1.474,0 2.669,-1.196 2.669,-2.67 v -1.411 c 0,-1.474 -1.195,-2.669 -2.669,-2.669" />
        <path
           inkscape:connector-curvature="0"
           id="path349"
           style="fill:#261f31;fill-opacity:1;fill-rule:nonzero;stroke:none;stroke-width:0.1"
           d="M 126.57355,252.89202 H 74.287553 c -1.474,0 -2.67,1.195 -2.67,2.669 v 1.411 c 0,1.474 1.196,2.67 2.67,2.67 h 52.285997 c 1.474,0 2.669,-1.196 2.669,-2.67 v -1.411 c 0,-1.474 -1.195,-2.669 -2.669,-2.669" />
        <path
           inkscape:connector-curvature="0"
           id="path351"
           style="fill:#261f31;fill-opacity:1;fill-rule:nonzero;stroke:none;stroke-width:0.1"
           d="M 126.57355,246.14202 H 74.287553 c -1.474,0 -2.67,1.195 -2.67,2.669 v 1.411 c 0,1.474 1.196,2.67 2.67,2.67 h 52.285997 c 1.474,0 2.669,-1.196 2.669,-2.67 v -1.411 c 0,-1.474 -1.195,-2.669 -2.669,-2.669" />
        <path
           inkscape:connector-curvature="0"
           id="path353"
           style="fill:#261f31;fill-opacity:1;fill-rule:nonzero;stroke:none;stroke-width:0.1"
           d="M 126.57355,239.39202 H 74.287553 c -1.474,0 -2.67,1.195 -2.67,2.669 v 1.411 c 0,1.474 1.196,2.67 2.67,2.67 h 52.285997 c 1.474,0 2.669,-1.196 2.669,-2.67 v -1.411 c 0,-1.474 -1.195,-2.669 -2.669,-2.669" />
        <path
           inkscape:connector-curvature="0"
           id="path355"
           style="fill:#261f31;fill-opacity:1;fill-rule:nonzero;stroke:none;stroke-width:0.1"
           d="M 126.57355,232.64202 H 74.287553 c -1.474,0 -2.67,1.195 -2.67,2.67 v 1.41 c 0,1.474 1.196,2.67 2.67,2.67 h 52.285997 c 1.474,0 2.669,-1.196 2.669,-2.67 v -1.41 c 0,-1.475 -1.195,-2.67 -2.669,-2.67" />
        <path
           inkscape:connector-curvature="0"
           id="path357"
           style="fill:#261f31;fill-opacity:1;fill-rule:nonzero;stroke:none;stroke-width:0.1"
           d="M 130.06855,225.48202 H 70.792553 c -1.475,0 -2.67,1.195 -2.67,2.669 v 2.23 c 0,1.475 1.195,2.67 2.67,2.67 h 59.275997 c 1.475,0 2.67,-1.195 2.67,-2.67 v -2.23 c 0,-1.474 -1.195,-2.669 -2.67,-2.669" />
        <path
           inkscape:connector-curvature="0"
           id="path359"
           style="fill:#261f31;fill-opacity:1;fill-rule:nonzero;stroke:none;stroke-width:0.1"
           d="m 100.90455,315.53702 c 4.031,-2.812 50.323,-2.194 54.126,0 3.803,2.195 0.877,8.192 -4.681,8.631 -5.559,0.439 -41.253,0.585 -46.373,0 -5.119997,-0.585 -9.361997,-4.242 -3.072,-8.631" />
        <path
           inkscape:connector-curvature="0"
           id="path361"
           style="fill:#9ea6db;fill-opacity:1;fill-rule:nonzero;stroke:none;stroke-width:0.1"
           d="m 79.313553,376.47102 c 9.693,1.249 30.120997,-63.949 33.030997,-65.233 1.561,-0.688 15.521,-0.683 29.743,-0.678 12.295,0.004 24.788,0.008 29.635,-0.436 10.454,-0.958 40.715,-22.562 43.624,-31.03 1.424,-4.143 -3.284,-8.358 -8.204,-5.583 -4.92,2.776 -33.744,22.785 -37.126,22.948 -3.382,0.163 -59.976,-0.183 -65.203,2.072 -5.226997,2.255 -27.364997,63.849 -29.189997,70.579 -1.18,4.351 0.154,6.906 3.69,7.361" />
        <path
           inkscape:connector-curvature="0"
           id="path363"
           style="fill:#c6caeb;fill-opacity:1;fill-rule:nonzero;stroke:none;stroke-width:0.1"
           d="m 32.289253,355.36002 c 1.9137,3.5 20.3363,22.211 48.4213,13.679 8.767,-2.664 28.478997,-63.34 28.478997,-63.34 0,0 48.184,2.106 59.135,-0.815 10.95,-2.92 38.289,-24.127 41.209,-28.139 2.92,-4.012 -16.873,-29.615 -24.174,-29.615 -7.3,0 -41.37,27.256 -41.37,27.256 0,0 -74.366997,-2.92 -79.770997,2.677 -5.403,5.598 -35.8234,71.176 -31.9293,78.297" />
        <path
           inkscape:connector-curvature="0"
           id="path365"
           style="fill:#9ea6db;fill-opacity:1;fill-rule:nonzero;stroke:none;stroke-width:0.1"
           d="m 29.057653,356.82602 c 11.9199,1.445 37.0409,-75.208 40.6199,-76.695 1.919,-0.797 19.083,-0.792 36.570997,-0.786 15.121,0.005 30.485,0.01 36.446,-0.504 12.855,-1.109 42.602,-23.563 46.18,-33.368 1.751,-4.799 -4.039,-9.679 -10.089,-6.465 -6.05,3.213 -34.029,23.82 -38.188,24.009 -4.159,0.189 -73.753997,-0.211 -80.181997,2.4 -6.428,2.611 -33.6513,73.934 -35.895,81.728 -1.4504,5.037 0.189,9.153 4.5371,9.681" />
        <path
           inkscape:connector-curvature="0"
           id="path367"
           style="fill:#9ea6db;fill-opacity:1;fill-rule:nonzero;stroke:none;stroke-width:0.1"
           d="m 36.208453,360.32302 c -1.5211,3.043 16.3381,15.286 37.2551,10.923 2.834,-0.591 15.41,-25.604 16.306,-29.37 0.897,-3.765 -31.465,-11.529 -34.334,-9.556 -2.869,1.972 -18.3307,26.21 -19.2271,28.003" />
        <path
           inkscape:connector-curvature="0"
           id="path369"
           style="fill:#fafbfc;fill-opacity:1;fill-rule:nonzero;stroke:none;stroke-width:0.1"
           d="m 207.52555,278.30002 c -2.244,-2.491 -4.582,-4.89 -7.055,-7.155 -2.467,-2.259 -5.175,-5.131 -8.303,-6.395 -1.173,-0.475 -0.661,-2.403 0.53,-1.922 2.883,1.166 5.201,3.392 7.517,5.418 3.086,2.699 5.977,5.6 8.72,8.645 0.856,0.951 -0.549,2.364 -1.409,1.409" />
        <path
           inkscape:connector-curvature="0"
           id="path371"
           style="fill:#261f31;fill-opacity:1;fill-rule:nonzero;stroke:none;stroke-width:0.1"
           d="m 185.17355,268.57902 c 0,0 4.923,-4.233 7.173,-4.396 2.25,-0.162 16.577,13.021 15.764,14.459 -0.812,1.437 -12.312,-1.813 -12.812,-1.813 -0.5,0 -3.125,1.188 -3.125,1.188 l -7,-9.438" />
        <path
           inkscape:connector-curvature="0"
           id="path373"
           style="fill:#fafbfc;fill-opacity:1;fill-rule:nonzero;stroke:none;stroke-width:0.1"
           d="m 195.20155,277.87502 c -0.515,-1.062 -0.704,-2.626 -0.259,-3.739 0.284,-0.708 1.445,-0.399 1.157,0.319 -0.326,0.814 -0.246,2.021 0.138,2.815 0.335,0.692 -0.7,1.301 -1.036,0.605" />
        <path
           inkscape:connector-curvature="0"
           id="path375"
           style="fill:#fafbfc;fill-opacity:1;fill-rule:nonzero;stroke:none;stroke-width:0.1"
           d="m 196.81155,278.18802 c -0.514,-1.063 -0.704,-2.627 -0.259,-3.74 0.284,-0.708 1.445,-0.399 1.158,0.319 -0.326,0.815 -0.247,2.022 0.137,2.815 0.335,0.692 -0.699,1.301 -1.036,0.606" />
        <path
           inkscape:connector-curvature="0"
           id="path377"
           style="fill:#fafbfc;fill-opacity:1;fill-rule:nonzero;stroke:none;stroke-width:0.1"
           d="m 198.42155,278.50002 c -0.514,-1.062 -0.703,-2.626 -0.258,-3.739 0.283,-0.708 1.444,-0.399 1.157,0.319 -0.325,0.814 -0.246,2.021 0.138,2.815 0.335,0.692 -0.7,1.301 -1.037,0.605" />
        <path
           inkscape:connector-curvature="0"
           id="path379"
           style="fill:#fafbfc;fill-opacity:1;fill-rule:nonzero;stroke:none;stroke-width:0.1"
           d="m 207.44655,294.13002 c -2.243,-2.492 -4.582,-4.89 -7.055,-7.155 -2.466,-2.26 -5.174,-5.132 -8.303,-6.396 -1.173,-0.474 -0.66,-2.402 0.53,-1.921 2.883,1.166 5.201,3.392 7.518,5.418 3.086,2.699 5.976,5.599 8.719,8.645 0.856,0.95 -0.548,2.364 -1.409,1.409" />
        <path
           inkscape:connector-curvature="0"
           id="path381"
           style="fill:#261f31;fill-opacity:1;fill-rule:nonzero;stroke:none;stroke-width:0.1"
           d="m 185.09455,284.40902 c 0,0 4.924,-4.234 7.174,-4.396 2.25,-0.162 16.576,13.021 15.764,14.458 -0.813,1.438 -12.313,-1.812 -12.813,-1.812 -0.5,0 -3.125,1.187 -3.125,1.187 l -7,-9.437" />
        <path
           inkscape:connector-curvature="0"
           id="path383"
           style="fill:#fafbfc;fill-opacity:1;fill-rule:nonzero;stroke:none;stroke-width:0.1"
           d="m 195.12255,293.70502 c -0.514,-1.063 -0.703,-2.626 -0.258,-3.74 0.283,-0.708 1.444,-0.399 1.157,0.32 -0.326,0.814 -0.247,2.021 0.137,2.814 0.336,0.693 -0.699,1.302 -1.036,0.606" />
        <path
           inkscape:connector-curvature="0"
           id="path385"
           style="fill:#fafbfc;fill-opacity:1;fill-rule:nonzero;stroke:none;stroke-width:0.1"
           d="m 196.73255,294.01802 c -0.514,-1.063 -0.703,-2.627 -0.258,-3.74 0.283,-0.708 1.445,-0.399 1.157,0.319 -0.325,0.814 -0.246,2.021 0.138,2.815 0.335,0.692 -0.7,1.301 -1.037,0.606" />
        <path
           inkscape:connector-curvature="0"
           id="path387"
           style="fill:#fafbfc;fill-opacity:1;fill-rule:nonzero;stroke:none;stroke-width:0.1"
           d="m 198.34355,294.33002 c -0.514,-1.063 -0.704,-2.626 -0.258,-3.74 0.283,-0.708 1.444,-0.399 1.157,0.32 -0.326,0.814 -0.247,2.021 0.137,2.814 0.335,0.693 -0.699,1.302 -1.036,0.606" />
        <path
           inkscape:connector-curvature="0"
           id="path389"
           style="fill:#f4c279;fill-opacity:1;fill-rule:nonzero;stroke:none;stroke-width:0.1"
           d="m 92.167553,346.24902 c 5.66,-2.112 14.586997,-14.941 19.292997,-16.47 4.706,-1.529 23.631,-3.479 25.645,-3.882 4.118,-0.824 10.765,-6.529 9.765,-8.588 -1,-2.058 -8.705,1.647 -9.588,1.647 -0.882,0 -21.234,-3.882 -29.704,-1.764 -4.335,1.083 -21.586997,13.881 -23.703997,18.763 -2.118,4.882 -2.652,14.377 8.293,10.294" />
        <path
           inkscape:connector-curvature="0"
           id="path391"
           style="fill:#6b448b;fill-opacity:1;fill-rule:nonzero;stroke:none;stroke-width:0.1"
           d="m 79.471553,285.97502 c 0,0 3,-5 15.167,-7.333 6.784997,-1.302 19.219997,0.404 29.904997,2.109 8.474,1.352 15.848,2.705 18.428,2.557 5.833,-0.333 38.667,-20.5 41.833,-19.666 3.167,0.833 12.334,15.5 11.834,18.083 -0.5,2.583 -4.25,4.917 -4.25,4.917 0,0 3.166,6.166 2.333,8.083 -0.833,1.917 -29.917,21.083 -43.417,21.75 -7.032,0.347 -16.37,-0.436 -24.08,-1.219 -7.093,-0.72 -12.809,-1.441 -14.086,-1.281 -2.667,0.333 -6.667,1.667 -6.667,1.667 l -26.999997,-29.667" />
        <path
           inkscape:connector-curvature="0"
           id="path393"
           style="fill:#573872;fill-opacity:1;fill-rule:nonzero;stroke:none;stroke-width:0.1"
           d="m 191.76155,286.06302 c -0.046,0 -0.093,0.014 -0.138,0.045 -6.531,4.549 -14.022,7.814 -21.077,11.464 -3.632,1.88 -7.264,3.76 -10.897,5.639 -3.955,2.047 -7.165,3.437 -11.693,3.437 -0.018,0 -0.038,0 -0.057,0 -8.187,-0.022 -16.379,-0.604 -24.502,-1.597 -2.362,-0.289 -4.716,-0.62 -7.068,-0.978 -0.885,-0.134 -1.853,-0.372 -2.787,-0.372 -0.346,0 -0.687,0.033 -1.018,0.115 -1.874,0.467 -2.912,2.148 -2.955,3.998 -0.002,0.089 0.061,0.132 0.127,0.132 0.067,0 0.138,-0.045 0.146,-0.132 0.257,-2.63 2.234,-3.365 4.616,-3.365 2.586,0 5.65,0.867 7.505,1.116 3.82,0.512 7.656,0.903 11.499,1.194 3.843,0.291 7.694,0.476 11.547,0.557 1.101,0.023 2.219,0.067 3.336,0.067 2.05,0 4.098,-0.148 6.033,-0.84 3.167,-1.133 6.138,-2.98 9.118,-4.521 3.342,-1.729 6.684,-3.457 10.027,-5.186 3.487,-1.804 6.975,-3.607 10.462,-5.411 2.771,-1.433 5.622,-2.8 7.979,-4.875 0.198,-0.175 0.014,-0.487 -0.203,-0.487" />
        <path
           inkscape:connector-curvature="0"
           id="path395"
           style="fill:#573872;fill-opacity:1;fill-rule:nonzero;stroke:none;stroke-width:0.1"
           d="m 183.49055,266.24402 c -0.089,0 -0.18,0.101 -0.115,0.187 3.897,5.134 7.045,10.447 9.932,16.197 0.032,0.066 0.091,0.094 0.152,0.094 0.119,0 0.245,-0.106 0.198,-0.241 -2.115,-5.964 -5.738,-11.622 -10.086,-16.202 -0.023,-0.024 -0.052,-0.035 -0.081,-0.035" />
        <path
           inkscape:connector-curvature="0"
           id="path397"
           style="fill:#573872;fill-opacity:1;fill-rule:nonzero;stroke:none;stroke-width:0.1"
           d="m 189.71955,289.55002 c -0.118,0 -0.224,0.158 -0.169,0.286 0.419,0.974 0.903,1.9 1.232,2.913 0.295,0.909 0.415,1.848 0.669,2.764 0.027,0.097 0.101,0.14 0.177,0.14 0.098,0 0.199,-0.071 0.207,-0.191 0.126,-1.952 -0.757,-4.352 -1.997,-5.849 -0.037,-0.045 -0.079,-0.063 -0.119,-0.063" />
        <path
           inkscape:connector-curvature="0"
           id="path399"
           style="fill:#573872;fill-opacity:1;fill-rule:nonzero;stroke:none;stroke-width:0.1"
           d="m 184.16055,269.57602 c -0.02,0 -0.042,0.004 -0.063,0.011 -8.22,2.815 -15.977,7.118 -23.668,11.108 -3.84,1.992 -7.669,4.01 -11.561,5.899 -3.677,1.785 -7.024,2.862 -10.771,2.862 -1.25,0 -2.544,-0.12 -3.91,-0.373 -8.716,-1.615 -17.374,-3.92 -26.179,-5.008 -1.873,-0.232 -3.764,-0.369 -5.644,-0.369 -5.050997,0 -10.015997,0.99 -14.304997,3.79 0.081,0.108 0.162,0.216 0.244,0.325 4.283,-2.499 9.047,-3.37 13.892997,-3.37 3.589,0 7.223,0.478 10.741,1.125 4.453,0.819 8.886,1.757 13.326,2.646 4.003,0.801 8.222,2.069 12.339,2.069 0.084,0 0.169,-10e-4 0.253,-0.002 3.689,-0.047 7.1,-1.51 10.365,-3.094 3.891,-1.888 7.719,-3.911 11.557,-5.905 7.733,-4.017 15.564,-7.688 23.488,-11.303 0.206,-0.094 0.091,-0.411 -0.105,-0.411" />
        <path
           inkscape:connector-curvature="0"
           id="path401"
           style="fill:#e73d48;fill-opacity:1;fill-rule:nonzero;stroke:none;stroke-width:0.1"
           d="m 73.770553,355.55402 c -5.123,-0.433 -14.757,-7.912 -15.507,-9.537 -0.75,-1.625 -5.483,-25.301 1.708,-40.792 7.292,-15.708 17.792,-24.833 21.042,-24.833 3.25,0 10.276,13.19 19.249997,21.875 7.75,7.5 15.75,10.125 14.062,13.562 -0.454,0.925 -16.561997,5.938 -17.936997,13.938 0,0 7.415997,3.625 7.749997,8.25 0.163,2.275 -14.874997,13.5 -16.999997,15 -2.125,1.5 -8.485,2.949 -13.368,2.537" />
        <path
           inkscape:connector-curvature="0"
           id="path403"
           style="fill:#f4c279;fill-opacity:1;fill-rule:nonzero;stroke:none;stroke-width:0.1"
           d="m 77.687553,348.72102 c -1.719,-0.599 -5.85,1.441 -7.01,3.301 -0.57,0.91 -1.289,3.89 -1.869,6.679 -0.6,2.89 -1.06,5.591 -1.06,5.591 h 7.06 c 0,0 0.61,-5.591 1.1,-8.911 0.19,-1.27 0.36,-2.199 0.48,-2.379 0.42,-0.65 3.02,-3.67 1.299,-4.281" />
        <path
           inkscape:connector-curvature="0"
           id="path405"
           style="fill:#eab56d;fill-opacity:1;fill-rule:nonzero;stroke:none;stroke-width:0.1"
           d="m 75.375553,355.36002 c -2.751,0 -5.026,1.706 -6.567,3.341 v 0 c -0.6,2.89 -1.06,5.591 -1.06,5.591 h 7.06 c 0,0 0.61,-5.591 1.1,-8.911 -0.18,-0.014 -0.358,-0.021 -0.533,-0.021" />
        <path
           inkscape:connector-curvature="0"
           id="path407"
           style="fill:#f4c279;fill-opacity:1;fill-rule:nonzero;stroke:none;stroke-width:0.1"
           d="m 84.528553,370.71302 c 0.328,-5.766 -2.893,-10.946 -7.259,-11.908 -4.365,-0.961 -9.455,2.389 -11.579,7.76 -2.755,6.978 -1.212,14.991 6.209,16.625 7.433,1.637 12.199,-4.987 12.629,-12.477" />
        <path
           inkscape:connector-curvature="0"
           id="path409"
           style="fill:#261f31;fill-opacity:1;fill-rule:nonzero;stroke:none;stroke-width:0.1"
           d="m 65.470553,365.09402 c -0.995,0.53 -5.173,10.835 -4.59,13.093 0.582,2.257 2.2,3.058 2.2,3.058 0,0 -0.015,3.277 2.752,4.661 2.767,1.384 16.968,3.277 18.789,1.602 1.82,-1.675 0.04,-7.547 -5.796,-9.741 -4.539,-1.708 -12.087,-0.909 -12.087,-0.909 0,0 3.321,-14.204 -1.268,-11.764" />
        <path
           inkscape:connector-curvature="0"
           id="path411"
           style="fill:#f4c279;fill-opacity:1;fill-rule:nonzero;stroke:none;stroke-width:0.1"
           d="m 67.778553,367.73802 c 0,0 -4.026,1.496 -4.92,-1.152 -0.894,-2.647 2.777,-4.334 5.321,-2.198 l -0.401,3.35" />
        <path
           inkscape:connector-curvature="0"
           id="path413"
           style="fill:#dca45d;fill-opacity:1;fill-rule:nonzero;stroke:none;stroke-width:0.1"
           d="m 63.807553,366.02102 c 0.205,0.254 0.463,0.471 0.758,0.634 0.298,0.154 0.641,0.278 1.013,0.257 0.371,-0.015 0.74,-0.188 1,-0.442 0.269,-0.249 0.445,-0.56 0.585,-0.869 l 0.174,-0.39 -0.422,0.054 c -0.388,0.05 -0.825,0.045 -1.211,-0.064 -0.194,-0.06 -0.369,-0.157 -0.535,-0.281 -0.164,-0.129 -0.272,-0.314 -0.379,-0.513 0.027,0.45 0.352,0.896 0.795,1.09 0.438,0.211 0.906,0.274 1.393,0.24 l -0.248,-0.336 c -0.262,0.54 -0.653,0.996 -1.195,1.077 -0.548,0.096 -1.167,-0.152 -1.728,-0.457" />
        <path
           inkscape:connector-curvature="0"
           id="path415"
           style="fill:#261f31;fill-opacity:1;fill-rule:nonzero;stroke:none;stroke-width:0.1"
           d="m 50.620553,291.15302 c 4.166,-2.907 52.007997,-2.268 55.938997,0 3.93,2.267 0.907,8.466 -4.838,8.919 -5.744997,0.454 -42.634997,0.605 -47.925997,0 -5.292,-0.604 -9.6758,-4.384 -3.175,-8.919" />
        <path
           inkscape:connector-curvature="0"
           id="path417"
           style="fill:#f4c279;fill-opacity:1;fill-rule:nonzero;stroke:none;stroke-width:0.1"
           d="m 69.226553,331.75202 c 3.638,-5.11 9.743,-22.413 11.908,-22.77 5.391,-0.888 20.509997,-2.853 22.734997,-3.298 1.002,-0.201 5.064,-0.476 8.963,-4.005 2.088,-1.891 6.972,-1.235 6.972,-2.924 0,-2.527 -15.182,-1.449 -16.156,-1.449 -0.975,0 -22.645997,-5.262 -33.295997,-0.239 -4.462,2.104 -15.22,22.986 -16.628,27.757 -2.685,9.093 8.021,17.437 15.502,6.928" />
        <path
           inkscape:connector-curvature="0"
           id="path419"
           style="fill:#f4c279;fill-opacity:1;fill-rule:nonzero;stroke:none;stroke-width:0.1"
           d="m 104.40155,305.31902 c 0,0 4.612,0.325 7.275,0 2.663,-0.324 4.09,-1.188 3.421,-1.739 -1.365,-1.122 -8.747,-0.989 -8.747,-0.989 l -1.949,2.728" />
        <path
           inkscape:connector-curvature="0"
           id="path421"
           style="fill:#fafbfc;fill-opacity:1;fill-rule:nonzero;stroke:none;stroke-width:0.1"
           d="m 60.138553,310.45402 c -0.453,-1.019 3.417,-6.97 4.437,-7.562 1.02,-0.593 12.988,4.585 14.896,8.625 0.354,0.75 -2.598,6.875 -3.271,7.062 -2.25,0.625 -15.312,-6.437 -16.062,-8.125" />
        <path
           inkscape:connector-curvature="0"
           id="path423"
           style="fill:#e73d48;fill-opacity:1;fill-rule:nonzero;stroke:none;stroke-width:0.1"
           d="m 61.946553,349.28202 c -2.886,-2.149 -6.794,-5.623 -7.995,-8.427 -1.201,-2.803 -1.801,-27.676 1.068,-30.704 2.868,-3.028 22.871,3.604 22.449,9.211 -0.422,5.607 -15.522,29.92 -15.522,29.92" />
        <path
           inkscape:connector-curvature="0"
           id="path425"
           style="fill:#c99f67;fill-opacity:1;fill-rule:nonzero;stroke:none;stroke-width:0.1"
           d="m 96.945553,328.13402 c -0.03,0 -0.06,0.013 -0.082,0.044 -0.22,0.515 -0.382,1.045 -0.475,1.589 0,0 0.022,0.01 0.063,0.031 0.189,-0.5 0.389,-0.996 0.604,-1.486 0.04,-0.093 -0.035,-0.178 -0.11,-0.178" />
        <path
           inkscape:connector-curvature="0"
           id="path427"
           style="fill:#c1353f;fill-opacity:1;fill-rule:nonzero;stroke:none;stroke-width:0.1"
           d="m 96.863553,328.17802 c -0.004,0.004 -0.007,0.009 -0.01,0.015 -2.6,4.572 -3.265,9.906 -5.519,14.637 -0.053,0.112 0.039,0.212 0.131,0.212 0.042,0 0.083,-0.021 0.112,-0.07 0.673,-1.145 1.22,-2.341 1.698,-3.566 -0.047,0.79 -0.065,1.585 0.031,2.328 0.017,0.129 0.139,0.216 0.25,0.216 0.081,0 0.156,-0.047 0.18,-0.158 0.247,-1.157 0.155,-2.502 0.018,-3.705 0.957,-2.737 1.669,-5.575 2.697,-8.289 -0.041,-0.021 -0.063,-0.031 -0.063,-0.031 0.093,-0.544 0.255,-1.074 0.475,-1.589" />
        <path
           inkscape:connector-curvature="0"
           id="path429"
           style="fill:#c1353f;fill-opacity:1;fill-rule:nonzero;stroke:none;stroke-width:0.1"
           d="m 77.040553,317.60202 c -0.017,0 -0.033,0.004 -0.047,0.013 0.28,0.473 0.446,0.948 0.476,1.417 0.119,0.298 0.22,0.595 0.264,0.884 0.229,1.492 -0.452,2.283 -1.104,3.442 -0.773,1.374 -1.507,2.769 -2.228,4.17 -1.445,2.813 -2.815,5.665 -4.028,8.586 -0.033,0.079 0.046,0.142 0.118,0.142 0.036,0 0.071,-0.016 0.089,-0.055 0.504,-1.101 1.019,-2.195 1.543,-3.284 -0.185,0.776 -0.318,1.581 -0.394,2.335 -0.018,0.177 0.129,0.273 0.277,0.273 0.12,0 0.242,-0.064 0.275,-0.198 0.276,-1.102 0.481,-2.383 0.502,-3.522 l -0.054,-0.123 c 1.141,-2.313 2.337,-4.597 3.651,-6.827 0.674,-1.142 2.154,-2.648 2.182,-4.06 0.021,-1.067 -0.914,-2.323 -1.45,-3.153 -0.018,-0.028 -0.045,-0.04 -0.072,-0.04" />
        <path
           inkscape:connector-curvature="0"
           id="path431"
           style="fill:#c1353f;fill-opacity:1;fill-rule:nonzero;stroke:none;stroke-width:0.1"
           d="m 76.993553,317.61502 c -0.03,0.017 -0.05,0.05 -0.038,0.093 0.12,0.426 0.337,0.876 0.514,1.324 -0.03,-0.469 -0.196,-0.944 -0.476,-1.417" />
        <path
           inkscape:connector-curvature="0"
           id="path433"
           style="fill:#c1353f;fill-opacity:1;fill-rule:nonzero;stroke:none;stroke-width:0.1"
           d="m 77.276553,345.47902 c -3.061,0 -6.014,2.558 -8.076,4.508 -0.089,0.085 -0.006,0.232 0.095,0.232 0.022,0 0.044,-0.007 0.066,-0.023 1.766,-1.293 5.532,-3.887 8.089,-3.887 1.572,0.001 2.688,0.982 2.599,3.849 -0.003,0.091 0.061,0.135 0.13,0.135 0.059,0 0.121,-0.033 0.146,-0.098 0.785,-2.067 -0.24,-4.505 -2.612,-4.698 -0.146,-0.012 -0.291,-0.018 -0.437,-0.018" />
        <path
           inkscape:connector-curvature="0"
           id="path435"
           style="fill:#c1353f;fill-opacity:1;fill-rule:nonzero;stroke:none;stroke-width:0.1"
           d="m 79.658553,351.17702 c -0.543,0.606 -1.015,1.25 -1.612,1.809 l 0.077,0.078 c 0.618,-0.501 1.261,-1.091 1.651,-1.797 l -0.116,-0.09" />
        <path
           inkscape:connector-curvature="0"
           id="path437"
           style="fill:#9ea6db;fill-opacity:1;fill-rule:nonzero;stroke:none;stroke-width:0.1"
           d="m 22.103353,200.44602 v 0 c -1.5141,0 -2.741,1.228 -2.741,2.742 v 69.516 c 0,1.513 1.2269,2.74 2.741,2.74 1.5137,0 2.7406,-1.227 2.7406,-2.74 v -69.516 c 0,-1.514 -1.2269,-2.742 -2.7406,-2.742" />
        <path
           inkscape:connector-curvature="0"
           id="path439"
           style="fill:#9ea6db;fill-opacity:1;fill-rule:nonzero;stroke:none;stroke-width:0.1"
           d="m -15.210347,226.86802 -0.0551,-2.433 c -0.0343,-1.524 1.0664,-2.789 2.4582,-2.828 l 43.4368,-1.171 c 0.3296,-0.009 0.6574,0.053 0.9648,0.182 l 32.8372,13.788 c 0.953,0.401 1.592,1.391 1.617,2.509 l 0.081,3.574 -81.3399,-13.621" />
        <path
           inkscape:connector-curvature="0"
           id="path441"
           style="fill:#c6caeb;fill-opacity:1;fill-rule:nonzero;stroke:none;stroke-width:0.1"
           d="m -15.210347,226.86802 46.4555,-1.254 34.8844,14.875 -43.8403,1.182 -37.4996,-14.803" />
        <path
           inkscape:connector-curvature="0"
           id="path443"
           style="fill:#c6caeb;fill-opacity:1;fill-rule:nonzero;stroke:none;stroke-width:0.1"
           d="m -13.131447,186.14202 v 0 c -1.5137,0 -2.7406,1.226 -2.7406,2.74 v 69.516 c 0,1.514 1.2269,2.741 2.7406,2.741 1.5133,0 2.7403,-1.227 2.7403,-2.741 v -69.516 c 0,-1.514 -1.227,-2.74 -2.7403,-2.74" />
        <path
           inkscape:connector-curvature="0"
           id="path445"
           style="fill:#c6caeb;fill-opacity:1;fill-rule:nonzero;stroke:none;stroke-width:0.1"
           d="m 29.350953,186.14202 v 0 c -1.5132,0 -2.7406,1.226 -2.7406,2.74 v 69.516 c 0,1.514 1.2274,2.741 2.7406,2.741 1.5137,0 2.7407,-1.227 2.7407,-2.741 v -69.516 c 0,-1.514 -1.227,-2.74 -2.7407,-2.74" />
        <path
           inkscape:connector-curvature="0"
           id="path447"
           style="fill:#c6caeb;fill-opacity:1;fill-rule:nonzero;stroke:none;stroke-width:0.1"
           d="m 66.273553,200.44602 v 0 c -1.513,0 -2.74,1.228 -2.74,2.742 v 69.516 c 0,1.513 1.227,2.74 2.74,2.74 1.514,0 2.741,-1.227 2.741,-2.74 v -69.516 c 0,-1.514 -1.227,-2.742 -2.741,-2.742" />
        <path
           inkscape:connector-curvature="0"
           id="path449"
           style="fill:#9ea6db;fill-opacity:1;fill-rule:nonzero;stroke:none;stroke-width:0.1"
           d="m -18.907947,261.82502 -0.0602,-2.655 c -0.0371,-1.662 1.1637,-3.043 2.682,-3.084 l 47.3918,-1.279 c 0.3594,-0.01 0.7172,0.058 1.0528,0.199 l 35.8261,15.043 c 1.041,0.437 1.738,1.518 1.766,2.738 l 0.087,3.899 -88.7455,-14.861" />
        <path
           inkscape:connector-curvature="0"
           id="path451"
           style="fill:#c6caeb;fill-opacity:1;fill-rule:nonzero;stroke:none;stroke-width:0.1"
           d="m -18.907947,261.82502 50.6855,-1.367 38.06,16.228 -47.8315,1.291 -40.914,-16.152" />
        <path
           inkscape:connector-curvature="0"
           id="path453"
           style="fill:#fafbfc;fill-opacity:1;fill-rule:nonzero;stroke:none;stroke-width:0.1"
           d="m 32.003753,264.07102 26.9378,10.497 c 1.727,0.673 2.358,2.794 1.277,4.301 -3.15,4.389 -8.805,12.115 -9.798,12.429 -1.389,0.44 -29.7403,-9.607 -29.7403,-9.607 l 11.3235,-17.62" />
        <path
           inkscape:connector-curvature="0"
           id="path455"
           style="fill:#c6caeb;fill-opacity:1;fill-rule:nonzero;stroke:none;stroke-width:0.1"
           d="m 20.680253,281.69102 -29.4511,0.441 29.0433,9.63 30.1481,-0.452 -29.7403,-9.619" />
        <path
           inkscape:connector-curvature="0"
           id="path457"
           style="fill:#dfe1f4;fill-opacity:1;fill-rule:nonzero;stroke:none;stroke-width:0.1"
           d="m 32.003753,264.07102 -37.7981,0.566 c -1.7883,0.027 -3.216,1.498 -3.189,3.286 l 0.2125,14.209 c 0,0 28.1949,-0.421 29.4511,-0.441 1.2559,-0.018 11.3235,-17.62 11.3235,-17.62" />
        <path
           inkscape:connector-curvature="0"
           id="path459"
           style="fill:#9ea6db;fill-opacity:1;fill-rule:nonzero;stroke:none;stroke-width:0.1"
           d="m 52.492553,283.36002 c -0.016,-1.072 -0.722,-2.022 -1.744,-2.364 l -1.515,-0.492 -3.6923,-1.195 -1.5938,-0.523 -1.4254,-0.459 -2.6488,-0.865 -3.041,-0.982 -3.3672,-1.089 c -0.5723,-0.181 -1.1531,-0.161 -1.6523,0.036 -0.9551,0.349 -1.6676,1.276 -1.6512,2.392 0.0168,1.083 0.7121,2.034 1.7449,2.364 l 2.1766,0.705 5.298,1.73 3.052,0.982 2.6492,0.865 1.4144,0.459 1.6157,0.523 1.0782,0.352 c 0.751,0.246 1.52,0.112 2.128,-0.277 0.708,-0.446 1.188,-1.235 1.174,-2.162" />
        <path
           inkscape:connector-curvature="0"
           id="path461"
           style="fill:#261f31;fill-opacity:1;fill-rule:nonzero;stroke:none;stroke-width:0.1"
           d="m 37.359553,271.66802 -3.3789,-1.178 c -0.714,-0.249 -1.4578,0.288 -1.4465,1.044 l 0.0079,0.521 c 0.007,0.457 0.2984,0.861 0.73,1.011 l 3.3785,1.178 c 0.7137,0.249 1.4579,-0.288 1.4465,-1.044 l -0.0078,-0.521 c -0.007,-0.457 -0.2984,-0.861 -0.7297,-1.011" />
        <path
           inkscape:connector-curvature="0"
           id="path463"
           style="fill:#261f31;fill-opacity:1;fill-rule:nonzero;stroke:none;stroke-width:0.1"
           d="m 44.656853,274.18602 -3.3789,-1.178 c -0.7141,-0.249 -1.4574,0.288 -1.4461,1.044 l 0.0074,0.521 c 0.0071,0.457 0.2985,0.861 0.7301,1.011 l 3.3785,1.178 c 0.7141,0.249 1.4578,-0.288 1.4465,-1.044 l -0.0078,-0.521 c -0.007,-0.457 -0.2985,-0.861 -0.7297,-1.011" />
        <path
           inkscape:connector-curvature="0"
           id="path465"
           style="fill:#e73d48;fill-opacity:1;fill-rule:nonzero;stroke:none;stroke-width:0.1"
           d="m 50.205553,276.92202 c -0.012,-0.797 -0.667,-1.433 -1.464,-1.421 -0.7964,0.012 -1.4324,0.668 -1.4206,1.464 0.0121,0.796 0.6675,1.433 1.4636,1.421 0.797,-0.012 1.433,-0.668 1.421,-1.464" />
        <path
           inkscape:connector-curvature="0"
           id="path467"
           style="fill:#bac0e6;fill-opacity:1;fill-rule:nonzero;stroke:none;stroke-width:0.1"
           d="m 32.673253,275.26602 c -0.3012,0 -0.5926,0.055 -0.8605,0.161 l 2.2703,5.461 5.298,1.73 -2.5488,-6.138 -3.3672,-1.089 c -0.2652,-0.084 -0.532,-0.125 -0.7918,-0.125" />
        <path
           inkscape:connector-curvature="0"
           id="path469"
           style="fill:#bac0e6;fill-opacity:1;fill-rule:nonzero;stroke:none;stroke-width:0.1"
           d="m 39.873253,277.46202 2.5598,6.138 2.6492,0.865 -2.5602,-6.138 -2.6488,-0.865" />
        <path
           inkscape:connector-curvature="0"
           id="path471"
           style="fill:#bac0e6;fill-opacity:1;fill-rule:nonzero;stroke:none;stroke-width:0.1"
           d="m 49.233553,280.50402 2.085,5.018 c 0.697,-0.439 1.173,-1.211 1.175,-2.119 0,-0.014 0,-0.029 -10e-4,-0.043 -0.016,-1.072 -0.722,-2.022 -1.744,-2.364 l -1.515,-0.492" />
        <path
           inkscape:connector-curvature="0"
           id="path473"
           style="fill:#bac0e6;fill-opacity:1;fill-rule:nonzero;stroke:none;stroke-width:0.1"
           d="m 43.947453,278.78602 2.5492,6.138 1.6157,0.523 -2.5711,-6.138 -1.5938,-0.523" />
        <path
           inkscape:connector-curvature="0"
           id="path475"
           style="fill:#261f31;fill-opacity:1;fill-rule:nonzero;stroke:none;stroke-width:0.1"
           d="m 41.949453,290.46102 -20.4547,0.307 0.1074,7.171 20.4547,-0.306 -0.1074,-7.172" />
        <path
           inkscape:connector-curvature="0"
           id="path477"
           style="fill:#6b448b;fill-opacity:1;fill-rule:nonzero;stroke:none;stroke-width:0.1"
           d="m 21.494753,290.76802 -19.7473,-5.655 0.1074,7.172 19.7473,5.654 -0.1074,-7.171" />
        <path
           inkscape:connector-curvature="0"
           id="path479"
           style="fill:#e5e7f6;fill-opacity:1;fill-rule:nonzero;stroke:none;stroke-width:0.1"
           d="m 15.786553,285.29302 c -1.2465,0 -2.4254,0.752 -2.8996,1.983 l -0.3567,0.925 1.9621,0.562 c 0.5821,-0.716 1.4606,-1.131 2.3786,-1.131 0.366,0 0.7386,0.066 1.1007,0.205 l 7.4539,2.872 4.811,-0.072 -13.3324,-5.136 c -0.3676,-0.141 -0.7453,-0.208 -1.1176,-0.208" />
        <path
           inkscape:connector-curvature="0"
           id="path481"
           style="fill:#f5f7f7;fill-opacity:1;fill-rule:nonzero;stroke:none;stroke-width:0.1"
           d="m 10.053353,294.63202 -1.766,4.585 c -0.6153,1.598 0.1906,3.395 1.7879,4.011 l 18.4738,7.116 c 0.3664,0.141 0.743,0.208 1.1133,0.208 1.2453,0 2.4199,-0.755 2.8941,-1.987 l 1.0887,-2.826 2.0211,0.137 c 0.0273,0.002 0.0547,0.003 0.082,0.003 0.4543,0 0.8691,-0.274 1.034,-0.702 l 1.3,-3.375 c 0.1746,-0.454 0.0293,-0.977 -0.3551,-1.277 l -1.5906,-1.253 0.6008,-1.559 -2.4571,0.036 -3.2179,8.355 c -0.4692,1.217 -1.6297,1.963 -2.8606,1.963 -0.366,0 -0.7387,-0.066 -1.1008,-0.206 l -14.6664,-5.649 c -1.5797,-0.609 -2.3664,-2.382 -1.7582,-3.961 l 1.1938,-3.099 -1.8168,-0.52 m 26.0152,8.885 c -0.0656,0 -0.132,-0.012 -0.1965,-0.036 -0.2832,-0.11 -0.4285,-0.437 -0.3191,-0.721 0.0844,-0.219 0.2996,-0.356 0.5238,-0.356 0.0656,0 0.1321,0.012 0.1965,0.037 0.2836,0.109 0.4285,0.436 0.3195,0.72 -0.0843,0.219 -0.2996,0.356 -0.5242,0.356" />
        <path
           inkscape:connector-curvature="0"
           id="path483"
           style="fill:#a19da9;fill-opacity:1;fill-rule:nonzero;stroke:none;stroke-width:0.1"
           d="m 30.236553,290.63702 -4.811,0.072 7.2129,2.778 c 1.5789,0.609 2.3661,2.382 1.7579,3.961 l -0.1161,0.301 2.4571,-0.036 0.4191,-1.088 c 0.6152,-1.598 -0.1812,-3.392 -1.7789,-4.008 l -5.141,-1.98" />
        <path
           inkscape:connector-curvature="0"
           id="path485"
           style="fill:#c4afcf;fill-opacity:1;fill-rule:nonzero;stroke:none;stroke-width:0.1"
           d="m 12.530253,288.20102 -2.4769,6.431 1.8168,0.52 2.1406,-5.557 c 0.1191,-0.309 0.2832,-0.588 0.4816,-0.832 l -1.9621,-0.562" />
        <path
           inkscape:connector-curvature="0"
           id="path487"
           style="fill:#e73d48;fill-opacity:1;fill-rule:nonzero;stroke:none;stroke-width:0.1"
           d="m 14.436553,290.54402 -2.8074,7.289 c -0.6086,1.579 0.1785,3.352 1.7578,3.961 l 13.2886,5.119 c 1.579,0.608 3.3524,-0.179 3.961,-1.759 l 2.8074,-7.288 c 0.6082,-1.579 -0.1785,-3.352 -1.7578,-3.961 l -13.2887,-5.119 c -1.5797,-0.608 -3.3523,0.179 -3.9609,1.758" />
        <path
           inkscape:connector-curvature="0"
           id="path489"
           style="fill:#edeff8;fill-opacity:1;fill-rule:nonzero;stroke:none;stroke-width:0.1"
           d="m 16.870953,287.63202 c -0.918,0 -1.7965,0.415 -2.3786,1.131 l 1.1215,0.321 c 0.4957,-0.325 1.0809,-0.503 1.6825,-0.503 0.3664,0 0.739,0.066 1.1011,0.205 l 5.0668,1.952 1.9613,-0.029 -7.4539,-2.872 c -0.3621,-0.139 -0.7347,-0.205 -1.1007,-0.205" />
        <path
           inkscape:connector-curvature="0"
           id="path491"
           style="fill:#f6f8f9;fill-opacity:1;fill-rule:nonzero;stroke:none;stroke-width:0.1"
           d="m 11.870153,295.15202 -1.1938,3.099 c -0.6082,1.579 0.1785,3.352 1.7582,3.961 l 14.6664,5.649 c 0.3621,0.14 0.7348,0.206 1.1008,0.206 1.2309,0 2.3914,-0.746 2.8606,-1.963 l 3.2179,-8.355 -0.798,0.012 c -0.0121,0.035 -0.0246,0.07 -0.0383,0.105 l -2.8074,7.288 c -0.4692,1.218 -1.6297,1.964 -2.8606,1.964 -0.366,0 -0.7382,-0.066 -1.1004,-0.205 l -13.2886,-5.119 c -1.5793,-0.609 -2.3664,-2.382 -1.7578,-3.961 l 0.9539,-2.477 -0.7129,-0.204" />
        <path
           inkscape:connector-curvature="0"
           id="path493"
           style="fill:#c6c2ca;fill-opacity:1;fill-rule:nonzero;stroke:none;stroke-width:0.1"
           d="m 25.425553,290.70902 -1.9613,0.029 8.2219,3.167 c 1.5441,0.595 2.3312,2.304 1.7961,3.856 l 0.798,-0.012 0.1161,-0.301 c 0.6082,-1.579 -0.179,-3.352 -1.7579,-3.961 l -7.2129,-2.778" />
        <path
           inkscape:connector-curvature="0"
           id="path495"
           style="fill:#dbcee2;fill-opacity:1;fill-rule:nonzero;stroke:none;stroke-width:0.1"
           d="m 14.492353,288.76302 c -0.1984,0.244 -0.3625,0.523 -0.4816,0.832 l -2.1406,5.557 0.7129,0.204 1.8535,-4.812 c 0.2398,-0.622 0.6598,-1.121 1.1773,-1.46 l -1.1215,-0.321" />
        <path
           inkscape:connector-curvature="0"
           id="path497"
           style="fill:#ed838f;fill-opacity:1;fill-rule:nonzero;stroke:none;stroke-width:0.1"
           d="m 17.296353,288.58102 c -0.6016,0 -1.1868,0.178 -1.6825,0.503 -0.5175,0.339 -0.9375,0.838 -1.1773,1.46 l -1.8535,4.812 -0.9539,2.477 c -0.6086,1.579 0.1785,3.352 1.7578,3.961 l 13.2886,5.119 c 0.3622,0.139 0.7344,0.205 1.1004,0.205 1.2309,0 2.3914,-0.746 2.8606,-1.964 l 2.8074,-7.288 c 0.0137,-0.035 0.0262,-0.07 0.0383,-0.105 0.5351,-1.552 -0.252,-3.261 -1.7961,-3.856 l -8.2219,-3.167 -5.0668,-1.952 c -0.3621,-0.139 -0.7347,-0.205 -1.1011,-0.205" />
        <path
           inkscape:connector-curvature="0"
           id="path499"
           style="fill:#fafbfc;fill-opacity:1;fill-rule:nonzero;stroke:none;stroke-width:0.1"
           d="m 23.180253,297.20502 -0.5902,1.533 4.4121,1.699 0.5902,-1.533 -4.4121,-1.699" />
        <path
           inkscape:connector-curvature="0"
           id="path501"
           style="fill:#fafbfc;fill-opacity:1;fill-rule:nonzero;stroke:none;stroke-width:0.1"
           d="m 26.707653,296.91002 -1.5332,-0.591 -1.6996,4.413 1.5332,0.59 1.6996,-4.412" />
        <path
           inkscape:connector-curvature="0"
           id="path503"
           style="fill:#4d3464;fill-opacity:1;fill-rule:nonzero;stroke:none;stroke-width:0.1"
           d="m 22.202153,284.80702 -20.4547,0.306 0.1074,7.172 20.4547,-0.306 -0.1074,-7.172" />
        <path
           inkscape:connector-curvature="0"
           id="path505"
           style="fill:#6b448b;fill-opacity:1;fill-rule:nonzero;stroke:none;stroke-width:0.1"
           d="m 42.055253,297.63002 -0.1074,-7.168 -19.741,-5.658 0.107,7.169 6.4817,1.861 c 0.8047,0.231 1.6039,-0.381 1.5918,-1.218 l -0.0153,-1.009 5.4403,1.56 0.0265,1.765 c 0.0078,0.55 0.3754,1.029 0.9043,1.181 l 5.3121,1.517" />
        <path
           inkscape:connector-curvature="0"
           id="path507"
           style="fill:#e73d48;fill-opacity:1;fill-rule:nonzero;stroke:none;stroke-width:0.1"
           d="m 35.552953,302.13502 c 3.6687,-0.113 7.5086,-1.108 10.8219,-2.65 6.0067,-2.795 9.0447,-7.723 12.0577,-13.32 4.477,-8.314 9.492,-17.08 19.883,-18.045 15.187,-1.41 29.721997,13.17 23.935997,28.664 -2.803997,7.51 -13.497997,7.801 -20.152997,6.405 -0.787,-0.165 -0.454,-1.37 0.332,-1.206 5.129,1.077 13.1,1.151 17.018,-2.823 2.370997,-2.405 2.675997,-6.553 2.525997,-9.731 -0.535,-11.32 -9.013997,-19.661 -20.322997,-20.136 -15.232,-0.641 -18.774,13.561 -25.774,23.831 -4.437,6.51 -12.5664,10.022 -20.3246,10.261 -0.8047,0.025 -0.8043,-1.225 0,-1.25" />
        <path
           inkscape:connector-curvature="0"
           id="path509"
           style="fill:#fafbfc;fill-opacity:1;fill-rule:nonzero;stroke:none;stroke-width:0.1"
           d="m 86.354553,304.59402 -4.677,-6.158 c -0.531,-0.7 -1.53,-0.837 -2.23,-0.305 l -0.967,0.734 c -0.7,0.532 -0.837,1.531 -0.305,2.231 l 4.676,6.158 c 0.532,0.7 1.53,0.837 2.231,0.305 l 0.966,-0.734 c 0.701,-0.532 0.837,-1.531 0.306,-2.231" />
        <path
           inkscape:connector-curvature="0"
           id="path579"
           style="fill:#fafbfc;fill-opacity:1;fill-rule:nonzero;stroke:none;stroke-width:0.1"
           d="m 260.61255,191.68602 c -0.453,-1.02 3.417,-6.971 4.437,-7.563 1.02,-0.593 12.989,4.585 14.896,8.625 0.354,0.75 -2.597,6.875 -3.271,7.063 -2.25,0.625 -15.312,-6.438 -16.062,-8.125" />
        <path
           inkscape:connector-curvature="0"
           id="path653"
           style="fill:#fafbfc;fill-opacity:1;fill-rule:nonzero;stroke:none;stroke-width:0.1"
           d="m 286.82855,185.82502 -4.676,-6.158 c -0.532,-0.7 -1.531,-0.837 -2.231,-0.305 l -0.967,0.734 c -0.7,0.532 -0.837,1.531 -0.305,2.231 l 4.676,6.158 c 0.532,0.701 1.531,0.837 2.231,0.305 l 0.967,-0.733 c 0.7,-0.533 0.837,-1.532 0.305,-2.232" />
      </g>
    </g>
  </g>
</svg>
